<svg width="280" height="296" viewBox="0 0 280 296" fill="none" xmlns="http://www.w3.org/2000/svg">
    <path d="M190 69.9999C186 89.9999 170.92 108.832 149.76 113.04C139.44 115.095 128.734 113.842 119.168 109.459C109.601 105.076 101.662 97.7866 96.479 88.6286C91.2964 79.4706 89.1352 68.911 90.3031 58.4533C91.4711 47.9956 95.9086 38.1729 102.984 30.3839C117.496 14.3999 142 9.99988 162 17.9999" stroke="#0CE3CB" stroke-width="10" stroke-linecap="round" stroke-linejoin="round"/>
    <path d="M122 62L142 82L190 30" stroke="#0CE3CB" stroke-width="10" stroke-linecap="round" stroke-linejoin="round"/>
    <path d="M61.317 137.872C61.317 139.024 60.909 139.952 60.093 140.656C59.277 141.36 58.237 141.8 56.973 141.976V142.048C58.541 142.208 59.741 142.648 60.573 143.368C61.421 144.072 61.845 144.992 61.845 146.128C61.845 147.12 61.573 148.008 61.029 148.792C60.485 149.56 59.677 150.16 58.605 150.592C57.533 151.024 56.205 151.24 54.621 151.24C53.325 151.24 52.173 151.16 51.165 151C50.173 150.84 49.309 150.608 48.573 150.304V147.256C49.069 147.496 49.629 147.704 50.253 147.88C50.877 148.04 51.509 148.168 52.149 148.264C52.789 148.344 53.381 148.384 53.925 148.384C55.445 148.384 56.541 148.168 57.213 147.736C57.901 147.288 58.245 146.664 58.245 145.864C58.245 145.048 57.749 144.456 56.757 144.088C55.765 143.704 54.429 143.512 52.749 143.512H51.141V140.68H52.581C53.941 140.68 54.997 140.592 55.749 140.416C56.501 140.24 57.029 139.984 57.333 139.648C57.637 139.312 57.789 138.912 57.789 138.448C57.789 137.856 57.525 137.392 56.997 137.056C56.485 136.704 55.709 136.528 54.669 136.528C53.789 136.528 52.957 136.656 52.173 136.912C51.405 137.168 50.685 137.504 50.013 137.92L48.429 135.496C49.021 135.112 49.645 134.784 50.301 134.512C50.973 134.224 51.709 134.008 52.509 133.864C53.309 133.704 54.197 133.624 55.173 133.624C56.469 133.624 57.573 133.808 58.485 134.176C59.397 134.544 60.093 135.048 60.573 135.688C61.069 136.312 61.317 137.04 61.317 137.872ZM69.8355 137.632C71.5955 137.632 72.9395 138.016 73.8675 138.784C74.8115 139.536 75.2835 140.696 75.2835 142.264V151H72.7875L72.0915 149.224H71.9955C71.6275 149.688 71.2435 150.072 70.8435 150.376C70.4595 150.68 70.0115 150.896 69.4995 151.024C69.0035 151.168 68.3875 151.24 67.6515 151.24C66.8835 151.24 66.1875 151.096 65.5635 150.808C64.9555 150.504 64.4755 150.048 64.1235 149.44C63.7715 148.816 63.5955 148.032 63.5955 147.088C63.5955 145.696 64.0835 144.672 65.0595 144.016C66.0355 143.344 67.4995 142.976 69.4515 142.912L71.7315 142.84V142.264C71.7315 141.576 71.5475 141.072 71.1795 140.752C70.8275 140.432 70.3315 140.272 69.6915 140.272C69.0515 140.272 68.4275 140.368 67.8195 140.56C67.2115 140.736 66.6035 140.96 65.9955 141.232L64.8195 138.808C65.5235 138.44 66.2995 138.152 67.1475 137.944C68.0115 137.736 68.9075 137.632 69.8355 137.632ZM70.3395 144.976C69.1875 145.008 68.3875 145.216 67.9395 145.6C67.4915 145.984 67.2675 146.488 67.2675 147.112C67.2675 147.656 67.4275 148.048 67.7475 148.288C68.0675 148.512 68.4835 148.624 68.9955 148.624C69.7635 148.624 70.4115 148.4 70.9395 147.952C71.4675 147.488 71.7315 146.84 71.7315 146.008V144.928L70.3395 144.976ZM87.2359 137.896H91.1719L85.9879 144.184L91.6279 151H87.5719L82.2199 144.352V151H78.6439V137.896H82.2199V144.256L87.2359 137.896ZM98.5792 137.632C100.339 137.632 101.683 138.016 102.611 138.784C103.555 139.536 104.027 140.696 104.027 142.264V151H101.531L100.835 149.224H100.739C100.371 149.688 99.9872 150.072 99.5872 150.376C99.2032 150.68 98.7552 150.896 98.2432 151.024C97.7472 151.168 97.1312 151.24 96.3952 151.24C95.6272 151.24 94.9312 151.096 94.3072 150.808C93.6992 150.504 93.2192 150.048 92.8672 149.44C92.5152 148.816 92.3392 148.032 92.3392 147.088C92.3392 145.696 92.8272 144.672 93.8032 144.016C94.7792 143.344 96.2432 142.976 98.1952 142.912L100.475 142.84V142.264C100.475 141.576 100.291 141.072 99.9232 140.752C99.5712 140.432 99.0752 140.272 98.4352 140.272C97.7952 140.272 97.1712 140.368 96.5632 140.56C95.9552 140.736 95.3472 140.96 94.7392 141.232L93.5632 138.808C94.2672 138.44 95.0432 138.152 95.8912 137.944C96.7552 137.736 97.6512 137.632 98.5792 137.632ZM99.0832 144.976C97.9312 145.008 97.1312 145.216 96.6832 145.6C96.2352 145.984 96.0112 146.488 96.0112 147.112C96.0112 147.656 96.1712 148.048 96.4912 148.288C96.8112 148.512 97.2272 148.624 97.7392 148.624C98.5072 148.624 99.1552 148.4 99.6832 147.952C100.211 147.488 100.475 146.84 100.475 146.008V144.928L99.0832 144.976ZM112.164 137.656C113.108 137.656 113.988 137.784 114.804 138.04C115.636 138.28 116.3 138.656 116.796 139.168C117.308 139.68 117.564 140.336 117.564 141.136C117.564 141.92 117.324 142.544 116.844 143.008C116.38 143.472 115.748 143.808 114.948 144.016V144.136C115.508 144.264 116.012 144.448 116.46 144.688C116.908 144.912 117.26 145.224 117.516 145.624C117.788 146.008 117.924 146.528 117.924 147.184C117.924 147.904 117.692 148.576 117.228 149.2C116.78 149.808 116.076 150.304 115.116 150.688C114.172 151.056 112.956 151.24 111.468 151.24C110.764 151.24 110.1 151.208 109.476 151.144C108.852 151.08 108.284 150.992 107.772 150.88C107.26 150.752 106.812 150.6 106.428 150.424V147.472C106.972 147.728 107.636 147.96 108.42 148.168C109.22 148.376 110.068 148.48 110.964 148.48C111.62 148.48 112.204 148.432 112.716 148.336C113.244 148.24 113.66 148.08 113.964 147.856C114.284 147.632 114.444 147.336 114.444 146.968C114.444 146.616 114.308 146.328 114.036 146.104C113.764 145.864 113.356 145.688 112.812 145.576C112.268 145.464 111.572 145.408 110.724 145.408H109.332V142.936H110.652C111.836 142.936 112.748 142.84 113.388 142.648C114.044 142.456 114.372 142.096 114.372 141.568C114.372 141.152 114.164 140.84 113.748 140.632C113.332 140.408 112.652 140.296 111.708 140.296C111.084 140.296 110.404 140.368 109.668 140.512C108.932 140.656 108.236 140.864 107.58 141.136L106.524 138.64C107.276 138.352 108.1 138.12 108.996 137.944C109.892 137.752 110.948 137.656 112.164 137.656ZM123.947 137.896H127.859L130.331 145.264C130.411 145.504 130.475 145.744 130.523 145.984C130.587 146.224 130.635 146.472 130.667 146.728C130.715 146.984 130.747 147.256 130.763 147.544H130.835C130.883 147.128 130.947 146.736 131.027 146.368C131.123 145.984 131.227 145.616 131.339 145.264L133.763 137.896H137.603L132.059 152.68C131.723 153.576 131.283 154.328 130.739 154.936C130.211 155.544 129.595 156 128.891 156.304C128.187 156.608 127.419 156.76 126.587 156.76C126.187 156.76 125.835 156.736 125.531 156.688C125.243 156.656 124.987 156.616 124.763 156.568V153.736C124.939 153.768 125.147 153.8 125.387 153.832C125.643 153.864 125.907 153.88 126.179 153.88C126.675 153.88 127.099 153.776 127.451 153.568C127.819 153.36 128.123 153.072 128.363 152.704C128.603 152.352 128.795 151.968 128.939 151.552L129.155 150.904L123.947 137.896ZM144.511 151.24C143.215 151.24 142.111 151.008 141.199 150.544C140.287 150.064 139.591 149.328 139.111 148.336C138.631 147.344 138.391 146.072 138.391 144.52C138.391 142.92 138.663 141.616 139.207 140.608C139.751 139.6 140.503 138.856 141.463 138.376C142.439 137.896 143.559 137.656 144.823 137.656C145.719 137.656 146.495 137.744 147.151 137.92C147.823 138.096 148.407 138.304 148.903 138.544L147.847 141.304C147.287 141.08 146.759 140.896 146.263 140.752C145.783 140.608 145.303 140.536 144.823 140.536C144.199 140.536 143.679 140.688 143.263 140.992C142.847 141.28 142.535 141.72 142.327 142.312C142.135 142.888 142.039 143.616 142.039 144.496C142.039 145.36 142.143 146.08 142.351 146.656C142.575 147.216 142.895 147.64 143.311 147.928C143.727 148.2 144.231 148.336 144.823 148.336C145.575 148.336 146.239 148.24 146.815 148.048C147.391 147.84 147.951 147.56 148.495 147.208V150.256C147.951 150.608 147.375 150.856 146.767 151C146.175 151.16 145.423 151.24 144.511 151.24ZM163.115 137.896V151H159.539V140.584H154.787V151H151.211V137.896H163.115ZM171.967 137.656C173.183 137.656 174.223 137.888 175.087 138.352C175.967 138.816 176.647 139.488 177.127 140.368C177.607 141.248 177.847 142.328 177.847 143.608V145.336H169.399C169.431 146.344 169.727 147.136 170.287 147.712C170.863 148.288 171.655 148.576 172.663 148.576C173.511 148.576 174.279 148.496 174.967 148.336C175.655 148.16 176.367 147.896 177.103 147.544V150.304C176.463 150.624 175.783 150.856 175.063 151C174.359 151.16 173.503 151.24 172.495 151.24C171.183 151.24 170.023 151 169.015 150.52C168.007 150.024 167.215 149.28 166.639 148.288C166.063 147.296 165.775 146.048 165.775 144.544C165.775 143.008 166.031 141.736 166.543 140.728C167.071 139.704 167.799 138.936 168.727 138.424C169.655 137.912 170.735 137.656 171.967 137.656ZM171.991 140.2C171.303 140.2 170.727 140.424 170.263 140.872C169.815 141.32 169.551 142.016 169.471 142.96H174.487C174.487 142.432 174.391 141.96 174.199 141.544C174.023 141.128 173.751 140.8 173.383 140.56C173.015 140.32 172.551 140.2 171.991 140.2ZM199.959 137.896V151H180.447V137.896H184.023V148.312H188.415V137.896H191.991V148.312H196.383V137.896H199.959ZM206.973 137.896V142.936H211.965V137.896H215.541V151H211.965V145.6H206.973V151H203.397V137.896H206.973ZM230.892 144.424C230.892 145.512 230.74 146.48 230.436 147.328C230.148 148.176 229.724 148.896 229.164 149.488C228.62 150.064 227.956 150.504 227.172 150.808C226.388 151.096 225.5 151.24 224.508 151.24C223.596 151.24 222.748 151.096 221.964 150.808C221.196 150.504 220.532 150.064 219.972 149.488C219.412 148.896 218.972 148.176 218.652 147.328C218.348 146.48 218.196 145.512 218.196 144.424C218.196 142.968 218.452 141.744 218.964 140.752C219.476 139.744 220.212 138.976 221.172 138.448C222.132 137.92 223.268 137.656 224.58 137.656C225.812 137.656 226.9 137.92 227.844 138.448C228.788 138.976 229.532 139.744 230.076 140.752C230.62 141.744 230.892 142.968 230.892 144.424ZM221.844 144.424C221.844 145.288 221.932 146.016 222.108 146.608C222.3 147.184 222.596 147.624 222.996 147.928C223.396 148.216 223.916 148.36 224.556 148.36C225.196 148.36 225.708 148.216 226.092 147.928C226.492 147.624 226.78 147.184 226.956 146.608C227.148 146.016 227.244 145.288 227.244 144.424C227.244 143.56 227.148 142.84 226.956 142.264C226.78 141.688 226.492 141.256 226.092 140.968C225.692 140.68 225.172 140.536 224.532 140.536C223.588 140.536 222.9 140.864 222.468 141.52C222.052 142.16 221.844 143.128 221.844 144.424ZM89.2049 173.424C89.2049 174.512 89.0529 175.48 88.7489 176.328C88.4609 177.176 88.0369 177.896 87.4769 178.488C86.9329 179.064 86.2689 179.504 85.4849 179.808C84.7009 180.096 83.8129 180.24 82.8209 180.24C81.9089 180.24 81.0609 180.096 80.2769 179.808C79.5089 179.504 78.8449 179.064 78.2849 178.488C77.7249 177.896 77.2849 177.176 76.9649 176.328C76.6609 175.48 76.5089 174.512 76.5089 173.424C76.5089 171.968 76.7649 170.744 77.2769 169.752C77.7889 168.744 78.5249 167.976 79.4849 167.448C80.4449 166.92 81.5809 166.656 82.8929 166.656C84.1249 166.656 85.2129 166.92 86.1569 167.448C87.1009 167.976 87.8449 168.744 88.3889 169.752C88.9329 170.744 89.2049 171.968 89.2049 173.424ZM80.1569 173.424C80.1569 174.288 80.2449 175.016 80.4209 175.608C80.6129 176.184 80.9089 176.624 81.3089 176.928C81.7089 177.216 82.2289 177.36 82.8689 177.36C83.5089 177.36 84.0209 177.216 84.4049 176.928C84.8049 176.624 85.0929 176.184 85.2689 175.608C85.4609 175.016 85.5569 174.288 85.5569 173.424C85.5569 172.56 85.4609 171.84 85.2689 171.264C85.0929 170.688 84.8049 170.256 84.4049 169.968C84.0049 169.68 83.4849 169.536 82.8449 169.536C81.9009 169.536 81.2129 169.864 80.7809 170.52C80.3649 171.16 80.1569 172.128 80.1569 173.424ZM101.436 166.824C102.956 166.952 104.236 167.312 105.276 167.904C106.316 168.48 107.1 169.24 107.628 170.184C108.172 171.128 108.444 172.216 108.444 173.448C108.444 174.664 108.18 175.752 107.652 176.712C107.14 177.672 106.364 178.448 105.324 179.04C104.3 179.616 103.004 179.968 101.436 180.096V185.76H98.1243V180.096C96.6203 179.952 95.3403 179.592 94.2843 179.016C93.2443 178.424 92.4443 177.656 91.8843 176.712C91.3403 175.752 91.0683 174.664 91.0683 173.448C91.0683 172.2 91.3163 171.096 91.8123 170.136C92.3243 169.176 93.1003 168.408 94.1403 167.832C95.1963 167.256 96.5243 166.92 98.1243 166.824V161.76H101.436V166.824ZM98.1243 169.512C97.4363 169.608 96.8363 169.84 96.3243 170.208C95.8123 170.56 95.4203 171.016 95.1483 171.576C94.8763 172.12 94.7403 172.744 94.7403 173.448C94.7403 174.152 94.8683 174.784 95.1243 175.344C95.3963 175.904 95.7803 176.36 96.2763 176.712C96.7883 177.064 97.4043 177.288 98.1243 177.384V169.512ZM101.436 177.384C102.156 177.288 102.764 177.064 103.26 176.712C103.756 176.36 104.132 175.904 104.388 175.344C104.644 174.784 104.772 174.152 104.772 173.448C104.772 172.744 104.636 172.12 104.364 171.576C104.092 171.016 103.708 170.56 103.212 170.208C102.716 169.856 102.124 169.64 101.436 169.56V177.384ZM123.011 173.424C123.011 174.512 122.859 175.48 122.555 176.328C122.267 177.176 121.843 177.896 121.283 178.488C120.739 179.064 120.075 179.504 119.291 179.808C118.507 180.096 117.619 180.24 116.627 180.24C115.715 180.24 114.867 180.096 114.083 179.808C113.315 179.504 112.651 179.064 112.091 178.488C111.531 177.896 111.091 177.176 110.771 176.328C110.467 175.48 110.315 174.512 110.315 173.424C110.315 171.968 110.571 170.744 111.083 169.752C111.595 168.744 112.331 167.976 113.291 167.448C114.251 166.92 115.387 166.656 116.699 166.656C117.931 166.656 119.019 166.92 119.963 167.448C120.907 167.976 121.651 168.744 122.195 169.752C122.739 170.744 123.011 171.968 123.011 173.424ZM113.963 173.424C113.963 174.288 114.051 175.016 114.227 175.608C114.419 176.184 114.715 176.624 115.115 176.928C115.515 177.216 116.035 177.36 116.675 177.36C117.315 177.36 117.827 177.216 118.211 176.928C118.611 176.624 118.899 176.184 119.075 175.608C119.267 175.016 119.363 174.288 119.363 173.424C119.363 172.56 119.267 171.84 119.075 171.264C118.899 170.688 118.611 170.256 118.211 169.968C117.811 169.68 117.291 169.536 116.651 169.536C115.707 169.536 115.019 169.864 114.587 170.52C114.171 171.16 113.963 172.128 113.963 173.424ZM132.963 166.656C134.435 166.656 135.627 167.232 136.539 168.384C137.451 169.52 137.907 171.2 137.907 173.424C137.907 174.912 137.691 176.168 137.259 177.192C136.827 178.2 136.235 178.96 135.483 179.472C134.731 179.984 133.859 180.24 132.867 180.24C132.243 180.24 131.699 180.16 131.235 180C130.787 179.84 130.403 179.632 130.083 179.376C129.763 179.12 129.483 178.848 129.243 178.56H129.051C129.115 178.864 129.163 179.184 129.195 179.52C129.227 179.84 129.243 180.16 129.243 180.48V185.76H125.667V166.896H128.571L129.075 168.6H129.243C129.483 168.248 129.771 167.928 130.107 167.64C130.443 167.336 130.843 167.096 131.307 166.92C131.787 166.744 132.339 166.656 132.963 166.656ZM131.811 169.512C131.187 169.512 130.691 169.64 130.323 169.896C129.955 170.152 129.683 170.544 129.507 171.072C129.347 171.584 129.259 172.232 129.243 173.016V173.4C129.243 174.248 129.323 174.968 129.483 175.56C129.643 176.136 129.915 176.576 130.299 176.88C130.683 177.184 131.203 177.336 131.859 177.336C132.403 177.336 132.851 177.184 133.203 176.88C133.555 176.576 133.819 176.128 133.995 175.536C134.171 174.944 134.259 174.224 134.259 173.376C134.259 172.096 134.059 171.136 133.659 170.496C133.275 169.84 132.659 169.512 131.811 169.512ZM157.066 166.896V180H153.73V173.568C153.73 172.928 153.738 172.304 153.754 171.696C153.786 171.088 153.826 170.528 153.874 170.016H153.802L150.178 180H147.49L143.818 169.992H143.722C143.786 170.52 143.826 171.088 143.842 171.696C143.874 172.288 143.89 172.944 143.89 173.664V180H140.554V166.896H145.618L148.882 175.776L152.194 166.896H157.066ZM172.24 180H168.664V169.584H165.376C165.216 171.504 165.016 173.144 164.776 174.504C164.552 175.848 164.264 176.944 163.912 177.792C163.576 178.64 163.144 179.264 162.616 179.664C162.088 180.048 161.44 180.24 160.672 180.24C160.256 180.24 159.88 180.208 159.544 180.144C159.208 180.08 158.904 179.984 158.632 179.856V177C158.808 177.064 158.992 177.12 159.184 177.168C159.376 177.216 159.576 177.24 159.784 177.24C160.008 177.24 160.216 177.152 160.408 176.976C160.616 176.8 160.808 176.488 160.984 176.04C161.176 175.592 161.352 174.976 161.512 174.192C161.672 173.408 161.816 172.424 161.944 171.24C162.088 170.04 162.216 168.592 162.328 166.896H172.24V180ZM181.073 166.656C182.289 166.656 183.329 166.888 184.193 167.352C185.073 167.816 185.753 168.488 186.233 169.368C186.713 170.248 186.953 171.328 186.953 172.608V174.336H178.505C178.537 175.344 178.833 176.136 179.393 176.712C179.969 177.288 180.761 177.576 181.769 177.576C182.617 177.576 183.385 177.496 184.073 177.336C184.761 177.16 185.473 176.896 186.209 176.544V179.304C185.569 179.624 184.889 179.856 184.169 180C183.465 180.16 182.609 180.24 181.601 180.24C180.289 180.24 179.129 180 178.121 179.52C177.113 179.024 176.321 178.28 175.745 177.288C175.169 176.296 174.881 175.048 174.881 173.544C174.881 172.008 175.137 170.736 175.649 169.728C176.177 168.704 176.905 167.936 177.833 167.424C178.761 166.912 179.841 166.656 181.073 166.656ZM181.097 169.2C180.409 169.2 179.833 169.424 179.369 169.872C178.921 170.32 178.657 171.016 178.577 171.96H183.593C183.593 171.432 183.497 170.96 183.305 170.544C183.129 170.128 182.857 169.8 182.489 169.56C182.121 169.32 181.657 169.2 181.097 169.2ZM193.128 166.896V171.936H198.12V166.896H201.696V180H198.12V174.6H193.128V180H189.552V166.896H193.128Z" fill="#0CE3CB"/>
    <path d="M46.1153 207H44.9453V202.671H40.1873V207H39.0173V197.718H40.1873V201.644H44.9453V197.718H46.1153V207ZM50.8361 199.915C51.6854 199.915 52.3138 200.101 52.7211 200.474C53.1284 200.847 53.3321 201.44 53.3321 202.255V207H52.5001L52.2791 206.012H52.2271C52.0278 206.263 51.8198 206.476 51.6031 206.649C51.3951 206.814 51.1524 206.935 50.8751 207.013C50.6064 207.091 50.2771 207.13 49.8871 207.13C49.4711 207.13 49.0941 207.056 48.7561 206.909C48.4268 206.762 48.1668 206.536 47.9761 206.233C47.7854 205.921 47.6901 205.531 47.6901 205.063C47.6901 204.37 47.9631 203.837 48.5091 203.464C49.0551 203.083 49.8958 202.875 51.0311 202.84L52.2141 202.801V202.385C52.2141 201.804 52.0884 201.401 51.8371 201.176C51.5858 200.951 51.2304 200.838 50.7711 200.838C50.4071 200.838 50.0604 200.894 49.7311 201.007C49.4018 201.111 49.0941 201.232 48.8081 201.371L48.4571 200.513C48.7604 200.348 49.1201 200.21 49.5361 200.097C49.9521 199.976 50.3854 199.915 50.8361 199.915ZM51.1741 203.633C50.3074 203.668 49.7051 203.806 49.3671 204.049C49.0378 204.292 48.8731 204.634 48.8731 205.076C48.8731 205.466 48.9901 205.752 49.2241 205.934C49.4668 206.116 49.7744 206.207 50.1471 206.207C50.7364 206.207 51.2261 206.047 51.6161 205.726C52.0061 205.397 52.2011 204.894 52.2011 204.218V203.594L51.1741 203.633ZM64.6352 200.032V207H55.1842V200.032H56.3282V206.038H59.3312V200.032H60.4752V206.038H63.4912V200.032H64.6352ZM77.1158 200.032V207H76.0888V202.554C76.0888 202.372 76.0932 202.181 76.1018 201.982C76.1192 201.783 76.1365 201.588 76.1538 201.397H76.1148L73.8398 207H72.8778L70.6678 201.397H70.6288C70.6462 201.588 70.6548 201.783 70.6548 201.982C70.6635 202.181 70.6678 202.385 70.6678 202.593V207H69.6408V200.032H71.1618L73.3588 205.635L75.5948 200.032H77.1158ZM81.7311 199.902C82.3291 199.902 82.8404 200.032 83.2651 200.292C83.6984 200.552 84.0277 200.92 84.2531 201.397C84.4871 201.865 84.6041 202.415 84.6041 203.048V203.737H79.8331C79.8504 204.526 80.0497 205.128 80.4311 205.544C80.8211 205.951 81.3627 206.155 82.0561 206.155C82.4981 206.155 82.8881 206.116 83.2261 206.038C83.5727 205.951 83.9281 205.83 84.2921 205.674V206.675C83.9367 206.831 83.5857 206.944 83.2391 207.013C82.8924 207.091 82.4807 207.13 82.0041 207.13C81.3454 207.13 80.7604 206.996 80.2491 206.727C79.7464 206.458 79.3521 206.06 79.0661 205.531C78.7887 204.994 78.6501 204.339 78.6501 203.568C78.6501 202.805 78.7757 202.151 79.0271 201.605C79.2871 201.059 79.6467 200.639 80.1061 200.344C80.5741 200.049 81.1157 199.902 81.7311 199.902ZM81.7181 200.838C81.1721 200.838 80.7387 201.016 80.4181 201.371C80.1061 201.718 79.9197 202.203 79.8591 202.827H83.4081C83.4081 202.428 83.3474 202.082 83.2261 201.787C83.1047 201.492 82.9184 201.263 82.6671 201.098C82.4244 200.925 82.1081 200.838 81.7181 200.838ZM87.2219 200.032V202.931H91.0049V200.032H92.1489V207H91.0049V203.893H87.2219V207H86.0779V200.032H87.2219ZM96.7463 199.902C97.3443 199.902 97.8556 200.032 98.2803 200.292C98.7136 200.552 99.043 200.92 99.2683 201.397C99.5023 201.865 99.6193 202.415 99.6193 203.048V203.737H94.8483C94.8656 204.526 95.065 205.128 95.4463 205.544C95.8363 205.951 96.378 206.155 97.0713 206.155C97.5133 206.155 97.9033 206.116 98.2413 206.038C98.588 205.951 98.9433 205.83 99.3073 205.674V206.675C98.952 206.831 98.601 206.944 98.2543 207.013C97.9076 207.091 97.496 207.13 97.0193 207.13C96.3606 207.13 95.7756 206.996 95.2643 206.727C94.7616 206.458 94.3673 206.06 94.0813 205.531C93.804 204.994 93.6653 204.339 93.6653 203.568C93.6653 202.805 93.791 202.151 94.0423 201.605C94.3023 201.059 94.662 200.639 95.1213 200.344C95.5893 200.049 96.131 199.902 96.7463 199.902ZM96.7333 200.838C96.1873 200.838 95.754 201.016 95.4333 201.371C95.1213 201.718 94.935 202.203 94.8743 202.827H98.4233C98.4233 202.428 98.3626 202.082 98.2413 201.787C98.12 201.492 97.9336 201.263 97.6823 201.098C97.4396 200.925 97.1233 200.838 96.7333 200.838ZM106.267 200.032V206.038H107.281V209.418H106.176V207H101.327V209.418H100.235V206.038H100.794C101.193 205.483 101.522 204.881 101.782 204.231C102.051 203.572 102.25 202.888 102.38 202.177C102.519 201.458 102.593 200.743 102.601 200.032H106.267ZM103.615 200.929C103.581 201.518 103.49 202.129 103.342 202.762C103.195 203.386 103.004 203.984 102.77 204.556C102.545 205.128 102.281 205.622 101.977 206.038H105.162V200.929H103.615ZM116.706 200.032L113.833 203.412L116.953 207H115.653L112.637 203.464V207H111.571V203.464L108.555 207H107.255L110.375 203.412L107.502 200.032H108.75L111.571 203.412V200.032H112.637V203.412L115.471 200.032H116.706ZM120.234 199.902C120.832 199.902 121.343 200.032 121.768 200.292C122.201 200.552 122.531 200.92 122.756 201.397C122.99 201.865 123.107 202.415 123.107 203.048V203.737H118.336C118.353 204.526 118.553 205.128 118.934 205.544C119.324 205.951 119.866 206.155 120.559 206.155C121.001 206.155 121.391 206.116 121.729 206.038C122.076 205.951 122.431 205.83 122.795 205.674V206.675C122.44 206.831 122.089 206.944 121.742 207.013C121.395 207.091 120.984 207.13 120.507 207.13C119.848 207.13 119.263 206.996 118.752 206.727C118.249 206.458 117.855 206.06 117.569 205.531C117.292 204.994 117.153 204.339 117.153 203.568C117.153 202.805 117.279 202.151 117.53 201.605C117.79 201.059 118.15 200.639 118.609 200.344C119.077 200.049 119.619 199.902 120.234 199.902ZM120.221 200.838C119.675 200.838 119.242 201.016 118.921 201.371C118.609 201.718 118.423 202.203 118.362 202.827H121.911C121.911 202.428 121.85 202.082 121.729 201.787C121.608 201.492 121.421 201.263 121.17 201.098C120.927 200.925 120.611 200.838 120.221 200.838ZM127.896 199.902C128.754 199.902 129.443 200.201 129.963 200.799C130.492 201.397 130.756 202.298 130.756 203.503C130.756 204.292 130.635 204.959 130.392 205.505C130.158 206.042 129.824 206.45 129.391 206.727C128.966 206.996 128.464 207.13 127.883 207.13C127.528 207.13 127.211 207.082 126.934 206.987C126.657 206.892 126.418 206.77 126.219 206.623C126.028 206.467 125.864 206.298 125.725 206.116H125.647C125.664 206.263 125.682 206.45 125.699 206.675C125.716 206.9 125.725 207.095 125.725 207.26V210.12H124.581V200.032H125.517L125.673 200.981H125.725C125.864 200.782 126.028 200.6 126.219 200.435C126.418 200.27 126.652 200.14 126.921 200.045C127.198 199.95 127.523 199.902 127.896 199.902ZM127.688 200.864C127.22 200.864 126.843 200.955 126.557 201.137C126.271 201.31 126.063 201.575 125.933 201.93C125.803 202.285 125.734 202.736 125.725 203.282V203.503C125.725 204.075 125.786 204.56 125.907 204.959C126.028 205.358 126.232 205.661 126.518 205.869C126.813 206.077 127.211 206.181 127.714 206.181C128.139 206.181 128.485 206.064 128.754 205.83C129.031 205.596 129.235 205.28 129.365 204.881C129.504 204.474 129.573 204.01 129.573 203.49C129.573 202.693 129.417 202.056 129.105 201.579C128.802 201.102 128.329 200.864 127.688 200.864ZM138.151 207.13C137.536 207.13 136.985 207.004 136.5 206.753C136.023 206.502 135.646 206.112 135.369 205.583C135.1 205.054 134.966 204.378 134.966 203.555C134.966 202.697 135.109 201.999 135.395 201.462C135.681 200.925 136.067 200.53 136.552 200.279C137.046 200.028 137.605 199.902 138.229 199.902C138.584 199.902 138.927 199.941 139.256 200.019C139.585 200.088 139.854 200.175 140.062 200.279L139.711 201.228C139.503 201.15 139.26 201.076 138.983 201.007C138.706 200.938 138.446 200.903 138.203 200.903C137.735 200.903 137.349 201.003 137.046 201.202C136.743 201.401 136.517 201.696 136.37 202.086C136.223 202.476 136.149 202.961 136.149 203.542C136.149 204.097 136.223 204.569 136.37 204.959C136.517 205.349 136.738 205.644 137.033 205.843C137.328 206.042 137.696 206.142 138.138 206.142C138.519 206.142 138.853 206.103 139.139 206.025C139.434 205.947 139.702 205.852 139.945 205.739V206.753C139.711 206.874 139.451 206.965 139.165 207.026C138.888 207.095 138.55 207.13 138.151 207.13ZM146.905 201.787C146.905 202.22 146.775 202.558 146.515 202.801C146.255 203.044 145.921 203.208 145.514 203.295V203.347C145.947 203.408 146.324 203.564 146.645 203.815C146.966 204.058 147.126 204.439 147.126 204.959C147.126 205.254 147.07 205.527 146.957 205.778C146.853 206.029 146.688 206.246 146.463 206.428C146.238 206.61 145.947 206.753 145.592 206.857C145.237 206.952 144.808 207 144.305 207H141.302V200.032H144.292C144.786 200.032 145.228 200.088 145.618 200.201C146.017 200.305 146.329 200.487 146.554 200.747C146.788 200.998 146.905 201.345 146.905 201.787ZM145.943 204.959C145.943 204.56 145.791 204.274 145.488 204.101C145.185 203.928 144.738 203.841 144.149 203.841H142.446V206.077H144.175C144.747 206.077 145.185 205.995 145.488 205.83C145.791 205.657 145.943 205.366 145.943 204.959ZM145.748 201.93C145.748 201.601 145.627 201.362 145.384 201.215C145.15 201.059 144.764 200.981 144.227 200.981H142.446V202.892H144.019C144.582 202.892 145.011 202.814 145.306 202.658C145.601 202.502 145.748 202.259 145.748 201.93ZM148.921 207H147.595L149.584 204.075C149.316 204.006 149.056 203.897 148.804 203.75C148.553 203.594 148.349 203.382 148.193 203.113C148.037 202.836 147.959 202.493 147.959 202.086C147.959 201.419 148.185 200.912 148.635 200.565C149.086 200.21 149.684 200.032 150.429 200.032H153.549V207H152.405V204.231H150.715L148.921 207ZM149.064 202.099C149.064 202.498 149.212 202.797 149.506 202.996C149.81 203.187 150.23 203.282 150.767 203.282H152.405V200.981H150.546C150.018 200.981 149.636 201.085 149.402 201.293C149.177 201.501 149.064 201.77 149.064 202.099ZM163.813 200.032L160.94 203.412L164.06 207H162.76L159.744 203.464V207H158.678V203.464L155.662 207H154.362L157.482 203.412L154.609 200.032H155.857L158.678 203.412V200.032H159.744V203.412L162.578 200.032H163.813ZM167.341 199.902C167.939 199.902 168.45 200.032 168.875 200.292C169.308 200.552 169.638 200.92 169.863 201.397C170.097 201.865 170.214 202.415 170.214 203.048V203.737H165.443C165.46 204.526 165.66 205.128 166.041 205.544C166.431 205.951 166.973 206.155 167.666 206.155C168.108 206.155 168.498 206.116 168.836 206.038C169.183 205.951 169.538 205.83 169.902 205.674V206.675C169.547 206.831 169.196 206.944 168.849 207.013C168.502 207.091 168.091 207.13 167.614 207.13C166.955 207.13 166.37 206.996 165.859 206.727C165.356 206.458 164.962 206.06 164.676 205.531C164.399 204.994 164.26 204.339 164.26 203.568C164.26 202.805 164.386 202.151 164.637 201.605C164.897 201.059 165.257 200.639 165.716 200.344C166.184 200.049 166.726 199.902 167.341 199.902ZM167.328 200.838C166.782 200.838 166.349 201.016 166.028 201.371C165.716 201.718 165.53 202.203 165.469 202.827H169.018C169.018 202.428 168.957 202.082 168.836 201.787C168.715 201.492 168.528 201.263 168.277 201.098C168.034 200.925 167.718 200.838 167.328 200.838ZM176.498 200.994H174.223V207H173.092V200.994H170.843V200.032H176.498V200.994ZM180.239 207.13C179.623 207.13 179.073 207.004 178.588 206.753C178.111 206.502 177.734 206.112 177.457 205.583C177.188 205.054 177.054 204.378 177.054 203.555C177.054 202.697 177.197 201.999 177.483 201.462C177.769 200.925 178.154 200.53 178.64 200.279C179.134 200.028 179.693 199.902 180.317 199.902C180.672 199.902 181.014 199.941 181.344 200.019C181.673 200.088 181.942 200.175 182.15 200.279L181.799 201.228C181.591 201.15 181.348 201.076 181.071 201.007C180.793 200.938 180.533 200.903 180.291 200.903C179.823 200.903 179.437 201.003 179.134 201.202C178.83 201.401 178.605 201.696 178.458 202.086C178.31 202.476 178.237 202.961 178.237 203.542C178.237 204.097 178.31 204.569 178.458 204.959C178.605 205.349 178.826 205.644 179.121 205.843C179.415 206.042 179.784 206.142 180.226 206.142C180.607 206.142 180.941 206.103 181.227 206.025C181.521 205.947 181.79 205.852 182.033 205.739V206.753C181.799 206.874 181.539 206.965 181.253 207.026C180.975 207.095 180.637 207.13 180.239 207.13ZM183.819 207H182.493L184.482 204.075C184.213 204.006 183.953 203.897 183.702 203.75C183.45 203.594 183.247 203.382 183.091 203.113C182.935 202.836 182.857 202.493 182.857 202.086C182.857 201.419 183.082 200.912 183.533 200.565C183.983 200.21 184.581 200.032 185.327 200.032H188.447V207H187.303V204.231H185.613L183.819 207ZM183.962 202.099C183.962 202.498 184.109 202.797 184.404 202.996C184.707 203.187 185.127 203.282 185.665 203.282H187.303V200.981H185.444C184.915 200.981 184.534 201.085 184.3 201.293C184.074 201.501 183.962 201.77 183.962 202.099ZM196.223 207.13C195.608 207.13 195.058 207.004 194.572 206.753C194.096 206.502 193.719 206.112 193.441 205.583C193.173 205.054 193.038 204.378 193.038 203.555C193.038 202.697 193.181 201.999 193.467 201.462C193.753 200.925 194.139 200.53 194.624 200.279C195.118 200.028 195.677 199.902 196.301 199.902C196.657 199.902 196.999 199.941 197.328 200.019C197.658 200.088 197.926 200.175 198.134 200.279L197.783 201.228C197.575 201.15 197.333 201.076 197.055 201.007C196.778 200.938 196.518 200.903 196.275 200.903C195.807 200.903 195.422 201.003 195.118 201.202C194.815 201.401 194.59 201.696 194.442 202.086C194.295 202.476 194.221 202.961 194.221 203.542C194.221 204.097 194.295 204.569 194.442 204.959C194.59 205.349 194.811 205.644 195.105 205.843C195.4 206.042 195.768 206.142 196.21 206.142C196.592 206.142 196.925 206.103 197.211 206.025C197.506 205.947 197.775 205.852 198.017 205.739V206.753C197.783 206.874 197.523 206.965 197.237 207.026C196.96 207.095 196.622 207.13 196.223 207.13ZM208.054 201.787C208.054 202.22 207.924 202.558 207.664 202.801C207.404 203.044 207.071 203.208 206.663 203.295V203.347C207.097 203.408 207.474 203.564 207.794 203.815C208.115 204.058 208.275 204.439 208.275 204.959C208.275 205.254 208.219 205.527 208.106 205.778C208.002 206.029 207.838 206.246 207.612 206.428C207.387 206.61 207.097 206.753 206.741 206.857C206.386 206.952 205.957 207 205.454 207H202.451V200.032H205.441C205.935 200.032 206.377 200.088 206.767 200.201C207.166 200.305 207.478 200.487 207.703 200.747C207.937 200.998 208.054 201.345 208.054 201.787ZM207.092 204.959C207.092 204.56 206.941 204.274 206.637 204.101C206.334 203.928 205.888 203.841 205.298 203.841H203.595V206.077H205.324C205.896 206.077 206.334 205.995 206.637 205.83C206.941 205.657 207.092 205.366 207.092 204.959ZM206.897 201.93C206.897 201.601 206.776 201.362 206.533 201.215C206.299 201.059 205.914 200.981 205.376 200.981H203.595V202.892H205.168C205.732 202.892 206.161 202.814 206.455 202.658C206.75 202.502 206.897 202.259 206.897 201.93ZM212.281 199.915C213.13 199.915 213.758 200.101 214.166 200.474C214.573 200.847 214.777 201.44 214.777 202.255V207H213.945L213.724 206.012H213.672C213.472 206.263 213.264 206.476 213.048 206.649C212.84 206.814 212.597 206.935 212.32 207.013C212.051 207.091 211.722 207.13 211.332 207.13C210.916 207.13 210.539 207.056 210.201 206.909C209.871 206.762 209.611 206.536 209.421 206.233C209.23 205.921 209.135 205.531 209.135 205.063C209.135 204.37 209.408 203.837 209.954 203.464C210.5 203.083 211.34 202.875 212.476 202.84L213.659 202.801V202.385C213.659 201.804 213.533 201.401 213.282 201.176C213.03 200.951 212.675 200.838 212.216 200.838C211.852 200.838 211.505 200.894 211.176 201.007C210.846 201.111 210.539 201.232 210.253 201.371L209.902 200.513C210.205 200.348 210.565 200.21 210.981 200.097C211.397 199.976 211.83 199.915 212.281 199.915ZM212.619 203.633C211.752 203.668 211.15 203.806 210.812 204.049C210.482 204.292 210.318 204.634 210.318 205.076C210.318 205.466 210.435 205.752 210.669 205.934C210.911 206.116 211.219 206.207 211.592 206.207C212.181 206.207 212.671 206.047 213.061 205.726C213.451 205.397 213.646 204.894 213.646 204.218V203.594L212.619 203.633ZM224.104 200.032V207H223.077V202.554C223.077 202.372 223.081 202.181 223.09 201.982C223.107 201.783 223.124 201.588 223.142 201.397H223.103L220.828 207H219.866L217.656 201.397H217.617C217.634 201.588 217.643 201.783 217.643 201.982C217.651 202.181 217.656 202.385 217.656 202.593V207H216.629V200.032H218.15L220.347 205.635L222.583 200.032H224.104ZM227.107 204.283C227.107 204.361 227.103 204.474 227.094 204.621C227.094 204.76 227.09 204.911 227.081 205.076C227.072 205.232 227.064 205.384 227.055 205.531C227.046 205.67 227.038 205.782 227.029 205.869L230.76 200.032H232.164V207H231.098V202.892C231.098 202.753 231.098 202.571 231.098 202.346C231.107 202.121 231.115 201.9 231.124 201.683C231.133 201.458 231.141 201.289 231.15 201.176L227.445 207H226.028V200.032H227.107V204.283ZM242.761 201.787C242.761 202.22 242.631 202.558 242.371 202.801C242.111 203.044 241.778 203.208 241.37 203.295V203.347C241.804 203.408 242.181 203.564 242.501 203.815C242.822 204.058 242.982 204.439 242.982 204.959C242.982 205.254 242.926 205.527 242.813 205.778C242.709 206.029 242.545 206.246 242.319 206.428C242.094 206.61 241.804 206.753 241.448 206.857C241.093 206.952 240.664 207 240.161 207H237.158V200.032H240.148C240.642 200.032 241.084 200.088 241.474 200.201C241.873 200.305 242.185 200.487 242.41 200.747C242.644 200.998 242.761 201.345 242.761 201.787ZM241.799 204.959C241.799 204.56 241.648 204.274 241.344 204.101C241.041 203.928 240.595 203.841 240.005 203.841H238.302V206.077H240.031C240.603 206.077 241.041 205.995 241.344 205.83C241.648 205.657 241.799 205.366 241.799 204.959ZM241.604 201.93C241.604 201.601 241.483 201.362 241.24 201.215C241.006 201.059 240.621 200.981 240.083 200.981H238.302V202.892H239.875C240.439 202.892 240.868 202.814 241.162 202.658C241.457 202.502 241.604 202.259 241.604 201.93ZM11.3915 219.814C11.3915 218.8 11.4911 217.938 11.6905 217.227C11.8985 216.508 12.2148 215.936 12.6395 215.511C13.0728 215.078 13.6275 214.787 14.3035 214.64C14.8668 214.519 15.4171 214.41 15.9545 214.315C16.4918 214.22 16.9945 214.133 17.4625 214.055L17.6575 215.056C17.4321 215.091 17.1808 215.134 16.9035 215.186C16.6261 215.229 16.3445 215.277 16.0585 215.329C15.7725 215.372 15.4951 215.42 15.2265 215.472C14.9665 215.515 14.7368 215.559 14.5375 215.602C14.2515 215.663 13.9958 215.767 13.7705 215.914C13.5451 216.053 13.3501 216.243 13.1855 216.486C13.0295 216.729 12.9038 217.028 12.8085 217.383C12.7131 217.738 12.6568 218.159 12.6395 218.644H12.7175C12.8388 218.479 13.0035 218.31 13.2115 218.137C13.4281 217.964 13.6838 217.816 13.9785 217.695C14.2818 217.574 14.6241 217.513 15.0055 217.513C15.6121 217.513 16.1148 217.647 16.5135 217.916C16.9208 218.176 17.2241 218.54 17.4235 219.008C17.6315 219.476 17.7355 220.022 17.7355 220.646C17.7355 221.417 17.6011 222.063 17.3325 222.583C17.0638 223.103 16.6911 223.493 16.2145 223.753C15.7378 224.004 15.1831 224.13 14.5505 224.13C14.0738 224.13 13.6405 224.039 13.2505 223.857C12.8605 223.666 12.5268 223.389 12.2495 223.025C11.9721 222.661 11.7598 222.21 11.6125 221.673C11.4651 221.136 11.3915 220.516 11.3915 219.814ZM14.6415 223.181C15.0228 223.181 15.3521 223.103 15.6295 222.947C15.9155 222.791 16.1365 222.535 16.2925 222.18C16.4485 221.825 16.5265 221.352 16.5265 220.763C16.5265 220.052 16.3921 219.493 16.1235 219.086C15.8635 218.67 15.4301 218.462 14.8235 218.462C14.4421 218.462 14.0955 218.549 13.7835 218.722C13.4715 218.887 13.2115 219.077 13.0035 219.294C12.7955 219.511 12.6481 219.693 12.5615 219.84C12.5615 220.265 12.5918 220.676 12.6525 221.075C12.7131 221.474 12.8171 221.833 12.9645 222.154C13.1205 222.466 13.3328 222.717 13.6015 222.908C13.8788 223.09 14.2255 223.181 14.6415 223.181ZM24.5417 224H23.3847V217.981H21.3307C21.244 219.082 21.1357 220.022 21.0057 220.802C20.8757 221.573 20.711 222.202 20.5117 222.687C20.3124 223.172 20.074 223.528 19.7967 223.753C19.5194 223.978 19.1944 224.091 18.8217 224.091C18.709 224.091 18.5964 224.082 18.4837 224.065C18.3797 224.056 18.293 224.035 18.2237 224V223.142C18.2757 223.159 18.332 223.172 18.3927 223.181C18.4534 223.19 18.514 223.194 18.5747 223.194C18.7654 223.194 18.9387 223.116 19.0947 222.96C19.2507 222.804 19.3894 222.566 19.5107 222.245C19.6407 221.924 19.7577 221.521 19.8617 221.036C19.9657 220.542 20.0567 219.961 20.1347 219.294C20.2127 218.627 20.282 217.873 20.3427 217.032H24.5417V224ZM27.5323 221.283C27.5323 221.361 27.528 221.474 27.5193 221.621C27.5193 221.76 27.515 221.911 27.5063 222.076C27.4977 222.232 27.489 222.384 27.4803 222.531C27.4717 222.67 27.463 222.782 27.4543 222.869L31.1853 217.032H32.5893V224H31.5233V219.892C31.5233 219.753 31.5233 219.571 31.5233 219.346C31.532 219.121 31.5407 218.9 31.5493 218.683C31.558 218.458 31.5667 218.289 31.5753 218.176L27.8703 224H26.4533V217.032H27.5323V221.283ZM42.8658 217.032L39.9928 220.412L43.1128 224H41.8128L38.7968 220.464V224H37.7308V220.464L34.7148 224H33.4148L36.5348 220.412L33.6618 217.032H34.9098L37.7308 220.412V217.032H38.7968V220.412L41.6308 217.032H42.8658ZM46.5958 216.915C47.4452 216.915 48.0735 217.101 48.4808 217.474C48.8882 217.847 49.0918 218.44 49.0918 219.255V224H48.2598L48.0388 223.012H47.9868C47.7875 223.263 47.5795 223.476 47.3628 223.649C47.1548 223.814 46.9122 223.935 46.6348 224.013C46.3662 224.091 46.0368 224.13 45.6468 224.13C45.2308 224.13 44.8538 224.056 44.5158 223.909C44.1865 223.762 43.9265 223.536 43.7358 223.233C43.5452 222.921 43.4498 222.531 43.4498 222.063C43.4498 221.37 43.7228 220.837 44.2688 220.464C44.8148 220.083 45.6555 219.875 46.7908 219.84L47.9738 219.801V219.385C47.9738 218.804 47.8482 218.401 47.5968 218.176C47.3455 217.951 46.9902 217.838 46.5308 217.838C46.1668 217.838 45.8202 217.894 45.4908 218.007C45.1615 218.111 44.8538 218.232 44.5678 218.371L44.2168 217.513C44.5202 217.348 44.8798 217.21 45.2958 217.097C45.7118 216.976 46.1452 216.915 46.5958 216.915ZM46.9338 220.633C46.0672 220.668 45.4648 220.806 45.1268 221.049C44.7975 221.292 44.6328 221.634 44.6328 222.076C44.6328 222.466 44.7498 222.752 44.9838 222.934C45.2265 223.116 45.5342 223.207 45.9068 223.207C46.4962 223.207 46.9858 223.047 47.3758 222.726C47.7658 222.397 47.9608 221.894 47.9608 221.218V220.594L46.9338 220.633ZM56.586 214.146C56.5513 214.579 56.443 214.943 56.261 215.238C56.0876 215.533 55.8276 215.754 55.481 215.901C55.1343 216.048 54.6836 216.122 54.129 216.122C53.5656 216.122 53.1106 216.048 52.764 215.901C52.426 215.754 52.179 215.537 52.023 215.251C51.867 214.956 51.7716 214.588 51.737 214.146H52.803C52.8463 214.614 52.9676 214.93 53.167 215.095C53.375 215.251 53.7043 215.329 54.155 215.329C54.5536 215.329 54.8656 215.247 55.091 215.082C55.325 214.909 55.4636 214.597 55.507 214.146H56.586ZM52.023 221.283C52.023 221.361 52.0186 221.474 52.01 221.621C52.01 221.76 52.0056 221.911 51.997 222.076C51.9883 222.232 51.9796 222.384 51.971 222.531C51.9623 222.67 51.9536 222.782 51.945 222.869L55.676 217.032H57.08V224H56.014V219.892C56.014 219.753 56.014 219.571 56.014 219.346C56.0226 219.121 56.0313 218.9 56.04 218.683C56.0486 218.458 56.0573 218.289 56.066 218.176L52.361 224H50.944V217.032H52.023V221.283ZM68.4485 217.032V224H58.9975V217.032H60.1415V223.038H63.1445V217.032H64.2885V223.038H67.3045V217.032H68.4485ZM73.0682 216.902C73.6662 216.902 74.1775 217.032 74.6022 217.292C75.0355 217.552 75.3648 217.92 75.5902 218.397C75.8242 218.865 75.9412 219.415 75.9412 220.048V220.737H71.1702C71.1875 221.526 71.3868 222.128 71.7682 222.544C72.1582 222.951 72.6998 223.155 73.3932 223.155C73.8352 223.155 74.2252 223.116 74.5632 223.038C74.9098 222.951 75.2652 222.83 75.6292 222.674V223.675C75.2738 223.831 74.9228 223.944 74.5762 224.013C74.2295 224.091 73.8178 224.13 73.3412 224.13C72.6825 224.13 72.0975 223.996 71.5862 223.727C71.0835 223.458 70.6892 223.06 70.4032 222.531C70.1258 221.994 69.9872 221.339 69.9872 220.568C69.9872 219.805 70.1128 219.151 70.3642 218.605C70.6242 218.059 70.9838 217.639 71.4432 217.344C71.9112 217.049 72.4528 216.902 73.0682 216.902ZM73.0552 217.838C72.5092 217.838 72.0758 218.016 71.7552 218.371C71.4432 218.718 71.2568 219.203 71.1962 219.827H74.7452C74.7452 219.428 74.6845 219.082 74.5632 218.787C74.4418 218.492 74.2555 218.263 74.0042 218.098C73.7615 217.925 73.4452 217.838 73.0552 217.838ZM80.1061 216.902C80.7041 216.902 81.2154 217.032 81.6401 217.292C82.0734 217.552 82.4027 217.92 82.6281 218.397C82.8621 218.865 82.9791 219.415 82.9791 220.048V220.737H78.2081C78.2254 221.526 78.4247 222.128 78.8061 222.544C79.1961 222.951 79.7377 223.155 80.4311 223.155C80.8731 223.155 81.2631 223.116 81.6011 223.038C81.9477 222.951 82.3031 222.83 82.6671 222.674V223.675C82.3117 223.831 81.9607 223.944 81.6141 224.013C81.2674 224.091 80.8557 224.13 80.3791 224.13C79.7204 224.13 79.1354 223.996 78.6241 223.727C78.1214 223.458 77.7271 223.06 77.4411 222.531C77.1637 221.994 77.0251 221.339 77.0251 220.568C77.0251 219.805 77.1507 219.151 77.4021 218.605C77.6621 218.059 78.0217 217.639 78.4811 217.344C78.9491 217.049 79.4907 216.902 80.1061 216.902ZM80.0931 217.838C79.5471 217.838 79.1137 218.016 78.7931 218.371C78.4811 218.718 78.2947 219.203 78.2341 219.827H81.7831C81.7831 219.428 81.7224 219.082 81.6011 218.787C81.4797 218.492 81.2934 218.263 81.0421 218.098C80.7994 217.925 80.4831 217.838 80.0931 217.838ZM93.1329 218.787C93.1329 219.22 93.0029 219.558 92.7429 219.801C92.4829 220.044 92.1492 220.208 91.7419 220.295V220.347C92.1752 220.408 92.5522 220.564 92.8729 220.815C93.1936 221.058 93.3539 221.439 93.3539 221.959C93.3539 222.254 93.2976 222.527 93.1849 222.778C93.0809 223.029 92.9162 223.246 92.6909 223.428C92.4656 223.61 92.1752 223.753 91.8199 223.857C91.4646 223.952 91.0356 224 90.5329 224H87.5299V217.032H90.5199C91.0139 217.032 91.4559 217.088 91.8459 217.201C92.2446 217.305 92.5566 217.487 92.7819 217.747C93.0159 217.998 93.1329 218.345 93.1329 218.787ZM92.1709 221.959C92.1709 221.56 92.0192 221.274 91.7159 221.101C91.4126 220.928 90.9662 220.841 90.3769 220.841H88.6739V223.077H90.4029C90.9749 223.077 91.4126 222.995 91.7159 222.83C92.0192 222.657 92.1709 222.366 92.1709 221.959ZM91.9759 218.93C91.9759 218.601 91.8546 218.362 91.6119 218.215C91.3779 218.059 90.9922 217.981 90.4549 217.981H88.6739V219.892H90.2469C90.8102 219.892 91.2392 219.814 91.5339 219.658C91.8286 219.502 91.9759 219.259 91.9759 218.93ZM98.0351 216.902C98.8931 216.902 99.5821 217.201 100.102 217.799C100.631 218.397 100.895 219.298 100.895 220.503C100.895 221.292 100.774 221.959 100.531 222.505C100.297 223.042 99.9635 223.45 99.5301 223.727C99.1055 223.996 98.6028 224.13 98.0221 224.13C97.6668 224.13 97.3505 224.082 97.0731 223.987C96.7958 223.892 96.5575 223.77 96.3581 223.623C96.1675 223.467 96.0028 223.298 95.8641 223.116H95.7861C95.8035 223.263 95.8208 223.45 95.8381 223.675C95.8555 223.9 95.8641 224.095 95.8641 224.26V227.12H94.7201V217.032H95.6561L95.8121 217.981H95.8641C96.0028 217.782 96.1675 217.6 96.3581 217.435C96.5575 217.27 96.7915 217.14 97.0601 217.045C97.3375 216.95 97.6625 216.902 98.0351 216.902ZM97.8271 217.864C97.3591 217.864 96.9821 217.955 96.6961 218.137C96.4101 218.31 96.2021 218.575 96.0721 218.93C95.9421 219.285 95.8728 219.736 95.8641 220.282V220.503C95.8641 221.075 95.9248 221.56 96.0461 221.959C96.1675 222.358 96.3711 222.661 96.6571 222.869C96.9518 223.077 97.3505 223.181 97.8531 223.181C98.2778 223.181 98.6245 223.064 98.8931 222.83C99.1705 222.596 99.3741 222.28 99.5041 221.881C99.6428 221.474 99.7121 221.01 99.7121 220.49C99.7121 219.693 99.5561 219.056 99.2441 218.579C98.9408 218.102 98.4685 217.864 97.8271 217.864ZM105.109 216.902C105.707 216.902 106.219 217.032 106.643 217.292C107.077 217.552 107.406 217.92 107.631 218.397C107.865 218.865 107.982 219.415 107.982 220.048V220.737H103.211C103.229 221.526 103.428 222.128 103.809 222.544C104.199 222.951 104.741 223.155 105.434 223.155C105.876 223.155 106.266 223.116 106.604 223.038C106.951 222.951 107.306 222.83 107.67 222.674V223.675C107.315 223.831 106.964 223.944 106.617 224.013C106.271 224.091 105.859 224.13 105.382 224.13C104.724 224.13 104.139 223.996 103.627 223.727C103.125 223.458 102.73 223.06 102.444 222.531C102.167 221.994 102.028 221.339 102.028 220.568C102.028 219.805 102.154 219.151 102.405 218.605C102.665 218.059 103.025 217.639 103.484 217.344C103.952 217.049 104.494 216.902 105.109 216.902ZM105.096 217.838C104.55 217.838 104.117 218.016 103.796 218.371C103.484 218.718 103.298 219.203 103.237 219.827H106.786C106.786 219.428 106.726 219.082 106.604 218.787C106.483 218.492 106.297 218.263 106.045 218.098C105.803 217.925 105.486 217.838 105.096 217.838ZM116.931 217.032V224H115.904V219.554C115.904 219.372 115.908 219.181 115.917 218.982C115.934 218.783 115.952 218.588 115.969 218.397H115.93L113.655 224H112.693L110.483 218.397H110.444C110.461 218.588 110.47 218.783 110.47 218.982C110.479 219.181 110.483 219.385 110.483 219.593V224H109.456V217.032H110.977L113.174 222.635L115.41 217.032H116.931ZM119.284 224H117.958L119.947 221.075C119.679 221.006 119.419 220.897 119.167 220.75C118.916 220.594 118.712 220.382 118.556 220.113C118.4 219.836 118.322 219.493 118.322 219.086C118.322 218.419 118.548 217.912 118.998 217.565C119.449 217.21 120.047 217.032 120.792 217.032H123.912V224H122.768V221.231H121.078L119.284 224ZM119.427 219.099C119.427 219.498 119.575 219.797 119.869 219.996C120.173 220.187 120.593 220.282 121.13 220.282H122.768V217.981H120.909C120.381 217.981 119.999 218.085 119.765 218.293C119.54 218.501 119.427 218.77 119.427 219.099ZM134.068 217.032V223.038H135.082V226.418H133.977V224H129.128V226.418H128.036V223.038H128.595C128.994 222.483 129.323 221.881 129.583 221.231C129.852 220.572 130.051 219.888 130.181 219.177C130.32 218.458 130.393 217.743 130.402 217.032H134.068ZM131.416 217.929C131.381 218.518 131.29 219.129 131.143 219.762C130.996 220.386 130.805 220.984 130.571 221.556C130.346 222.128 130.081 222.622 129.778 223.038H132.963V217.929H131.416ZM141.452 224H140.295V217.981H138.241C138.154 219.082 138.046 220.022 137.916 220.802C137.786 221.573 137.621 222.202 137.422 222.687C137.222 223.172 136.984 223.528 136.707 223.753C136.429 223.978 136.104 224.091 135.732 224.091C135.619 224.091 135.506 224.082 135.394 224.065C135.29 224.056 135.203 224.035 135.134 224V223.142C135.186 223.159 135.242 223.172 135.303 223.181C135.363 223.19 135.424 223.194 135.485 223.194C135.675 223.194 135.849 223.116 136.005 222.96C136.161 222.804 136.299 222.566 136.421 222.245C136.551 221.924 136.668 221.521 136.772 221.036C136.876 220.542 136.967 219.961 137.045 219.294C137.123 218.627 137.192 217.873 137.253 217.032H141.452V224ZM143.792 224H142.466L144.455 221.075C144.187 221.006 143.927 220.897 143.675 220.75C143.424 220.594 143.22 220.382 143.064 220.113C142.908 219.836 142.83 219.493 142.83 219.086C142.83 218.419 143.056 217.912 143.506 217.565C143.957 217.21 144.555 217.032 145.3 217.032H148.42V224H147.276V221.231H145.586L143.792 224ZM143.935 219.099C143.935 219.498 144.083 219.797 144.377 219.996C144.681 220.187 145.101 220.282 145.638 220.282H147.276V217.981H145.417C144.889 217.981 144.507 218.085 144.273 218.293C144.048 218.501 143.935 218.77 143.935 219.099ZM152.31 217.032H153.532L155.04 220.997C155.127 221.231 155.205 221.456 155.274 221.673C155.352 221.89 155.421 222.102 155.482 222.31C155.543 222.509 155.59 222.704 155.625 222.895H155.677C155.729 222.678 155.811 222.397 155.924 222.05C156.037 221.695 156.154 221.339 156.275 220.984L157.692 217.032H158.927L155.924 224.962C155.759 225.395 155.564 225.772 155.339 226.093C155.122 226.422 154.854 226.674 154.533 226.847C154.221 227.029 153.84 227.12 153.389 227.12C153.181 227.12 152.999 227.107 152.843 227.081C152.687 227.064 152.553 227.042 152.44 227.016V226.106C152.535 226.123 152.648 226.141 152.778 226.158C152.917 226.175 153.06 226.184 153.207 226.184C153.476 226.184 153.705 226.132 153.896 226.028C154.095 225.933 154.264 225.79 154.403 225.599C154.542 225.417 154.659 225.2 154.754 224.949L155.118 224.026L152.31 217.032ZM164.539 217.994H162.264V224H161.133V217.994H158.884V217.032H164.539V217.994ZM171.543 220.503C171.543 221.084 171.465 221.599 171.309 222.05C171.161 222.492 170.945 222.869 170.659 223.181C170.381 223.493 170.039 223.731 169.632 223.896C169.233 224.052 168.787 224.13 168.293 224.13C167.833 224.13 167.409 224.052 167.019 223.896C166.629 223.731 166.291 223.493 166.005 223.181C165.719 222.869 165.493 222.492 165.329 222.05C165.173 221.599 165.095 221.084 165.095 220.503C165.095 219.732 165.225 219.082 165.485 218.553C165.745 218.016 166.117 217.608 166.603 217.331C167.088 217.045 167.664 216.902 168.332 216.902C168.964 216.902 169.519 217.045 169.996 217.331C170.481 217.608 170.858 218.016 171.127 218.553C171.404 219.082 171.543 219.732 171.543 220.503ZM166.278 220.503C166.278 221.049 166.347 221.526 166.486 221.933C166.633 222.332 166.858 222.639 167.162 222.856C167.465 223.073 167.851 223.181 168.319 223.181C168.787 223.181 169.172 223.073 169.476 222.856C169.779 222.639 170 222.332 170.139 221.933C170.286 221.526 170.36 221.049 170.36 220.503C170.36 219.948 170.286 219.476 170.139 219.086C169.991 218.696 169.766 218.397 169.463 218.189C169.168 217.972 168.782 217.864 168.306 217.864C167.595 217.864 167.079 218.098 166.759 218.566C166.438 219.034 166.278 219.68 166.278 220.503ZM173.93 219.567C173.93 219.974 174.042 220.278 174.268 220.477C174.502 220.668 174.835 220.763 175.269 220.763C175.702 220.763 176.096 220.698 176.452 220.568C176.807 220.429 177.171 220.247 177.544 220.022V217.032H178.688V224H177.544V220.893C177.154 221.144 176.768 221.344 176.387 221.491C176.014 221.63 175.563 221.699 175.035 221.699C174.324 221.699 173.769 221.513 173.371 221.14C172.981 220.767 172.786 220.269 172.786 219.645V217.032H173.93V219.567ZM181.745 217.032V219.931H185.528V217.032H186.672V224H185.528V220.893H181.745V224H180.601V217.032H181.745ZM191.27 216.902C191.868 216.902 192.379 217.032 192.804 217.292C193.237 217.552 193.566 217.92 193.792 218.397C194.026 218.865 194.143 219.415 194.143 220.048V220.737H189.372C189.389 221.526 189.588 222.128 189.97 222.544C190.36 222.951 190.901 223.155 191.595 223.155C192.037 223.155 192.427 223.116 192.765 223.038C193.111 222.951 193.467 222.83 193.831 222.674V223.675C193.475 223.831 193.124 223.944 192.778 224.013C192.431 224.091 192.019 224.13 191.543 224.13C190.884 224.13 190.299 223.996 189.788 223.727C189.285 223.458 188.891 223.06 188.605 222.531C188.327 221.994 188.189 221.339 188.189 220.568C188.189 219.805 188.314 219.151 188.566 218.605C188.826 218.059 189.185 217.639 189.645 217.344C190.113 217.049 190.654 216.902 191.27 216.902ZM191.257 217.838C190.711 217.838 190.277 218.016 189.957 218.371C189.645 218.718 189.458 219.203 189.398 219.827H192.947C192.947 219.428 192.886 219.082 192.765 218.787C192.643 218.492 192.457 218.263 192.206 218.098C191.963 217.925 191.647 217.838 191.257 217.838ZM196.761 217.032V219.931H200.544V217.032H201.688V224H200.544V220.893H196.761V224H195.617V217.032H196.761ZM204.673 221.283C204.673 221.361 204.669 221.474 204.66 221.621C204.66 221.76 204.656 221.911 204.647 222.076C204.638 222.232 204.63 222.384 204.621 222.531C204.612 222.67 204.604 222.782 204.595 222.869L208.326 217.032H209.73V224H208.664V219.892C208.664 219.753 208.664 219.571 208.664 219.346C208.673 219.121 208.681 218.9 208.69 218.683C208.699 218.458 208.707 218.289 208.716 218.176L205.011 224H203.594V217.032H204.673V221.283ZM212.076 224H210.75L212.739 221.075C212.471 221.006 212.211 220.897 211.959 220.75C211.708 220.594 211.504 220.382 211.348 220.113C211.192 219.836 211.114 219.493 211.114 219.086C211.114 218.419 211.34 217.912 211.79 217.565C212.241 217.21 212.839 217.032 213.584 217.032H216.704V224H215.56V221.231H213.87L212.076 224ZM212.219 219.099C212.219 219.498 212.367 219.797 212.661 219.996C212.965 220.187 213.385 220.282 213.922 220.282H215.56V217.981H213.701C213.173 217.981 212.791 218.085 212.557 218.293C212.332 218.501 212.219 218.77 212.219 219.099ZM226.86 217.032V223.038H227.874V226.418H226.769V224H221.92V226.418H220.828V223.038H221.387C221.786 222.483 222.115 221.881 222.375 221.231C222.644 220.572 222.843 219.888 222.973 219.177C223.112 218.458 223.185 217.743 223.194 217.032H226.86ZM224.208 217.929C224.173 218.518 224.082 219.129 223.935 219.762C223.788 220.386 223.597 220.984 223.363 221.556C223.138 222.128 222.873 222.622 222.57 223.038H225.755V217.929H224.208ZM231.631 216.902C232.229 216.902 232.74 217.032 233.165 217.292C233.598 217.552 233.928 217.92 234.153 218.397C234.387 218.865 234.504 219.415 234.504 220.048V220.737H229.733C229.75 221.526 229.95 222.128 230.331 222.544C230.721 222.951 231.263 223.155 231.956 223.155C232.398 223.155 232.788 223.116 233.126 223.038C233.473 222.951 233.828 222.83 234.192 222.674V223.675C233.837 223.831 233.486 223.944 233.139 224.013C232.792 224.091 232.381 224.13 231.904 224.13C231.245 224.13 230.66 223.996 230.149 223.727C229.646 223.458 229.252 223.06 228.966 222.531C228.689 221.994 228.55 221.339 228.55 220.568C228.55 219.805 228.676 219.151 228.927 218.605C229.187 218.059 229.547 217.639 230.006 217.344C230.474 217.049 231.016 216.902 231.631 216.902ZM231.618 217.838C231.072 217.838 230.639 218.016 230.318 218.371C230.006 218.718 229.82 219.203 229.759 219.827H233.308C233.308 219.428 233.247 219.082 233.126 218.787C233.005 218.492 232.818 218.263 232.567 218.098C232.324 217.925 232.008 217.838 231.618 217.838ZM240.788 217.994H238.513V224H237.382V217.994H235.133V217.032H240.788V217.994ZM244.499 216.915C245.349 216.915 245.977 217.101 246.384 217.474C246.792 217.847 246.995 218.44 246.995 219.255V224H246.163L245.942 223.012H245.89C245.691 223.263 245.483 223.476 245.266 223.649C245.058 223.814 244.816 223.935 244.538 224.013C244.27 224.091 243.94 224.13 243.55 224.13C243.134 224.13 242.757 224.056 242.419 223.909C242.09 223.762 241.83 223.536 241.639 223.233C241.449 222.921 241.353 222.531 241.353 222.063C241.353 221.37 241.626 220.837 242.172 220.464C242.718 220.083 243.559 219.875 244.694 219.84L245.877 219.801V219.385C245.877 218.804 245.752 218.401 245.5 218.176C245.249 217.951 244.894 217.838 244.434 217.838C244.07 217.838 243.724 217.894 243.394 218.007C243.065 218.111 242.757 218.232 242.471 218.371L242.12 217.513C242.424 217.348 242.783 217.21 243.199 217.097C243.615 216.976 244.049 216.915 244.499 216.915ZM244.837 220.633C243.971 220.668 243.368 220.806 243.03 221.049C242.701 221.292 242.536 221.634 242.536 222.076C242.536 222.466 242.653 222.752 242.887 222.934C243.13 223.116 243.438 223.207 243.81 223.207C244.4 223.207 244.889 223.047 245.279 222.726C245.669 222.397 245.864 221.894 245.864 221.218V220.594L244.837 220.633ZM254.151 224H252.994V217.981H250.94C250.854 219.082 250.745 220.022 250.615 220.802C250.485 221.573 250.321 222.202 250.121 222.687C249.922 223.172 249.684 223.528 249.406 223.753C249.129 223.978 248.804 224.091 248.431 224.091C248.319 224.091 248.206 224.082 248.093 224.065C247.989 224.056 247.903 224.035 247.833 224V223.142C247.885 223.159 247.942 223.172 248.002 223.181C248.063 223.19 248.124 223.194 248.184 223.194C248.375 223.194 248.548 223.116 248.704 222.96C248.86 222.804 248.999 222.566 249.12 222.245C249.25 221.924 249.367 221.521 249.471 221.036C249.575 220.542 249.666 219.961 249.744 219.294C249.822 218.627 249.892 217.873 249.952 217.032H254.151V224ZM258.754 216.902C259.352 216.902 259.863 217.032 260.288 217.292C260.721 217.552 261.051 217.92 261.276 218.397C261.51 218.865 261.627 219.415 261.627 220.048V220.737H256.856C256.873 221.526 257.073 222.128 257.454 222.544C257.844 222.951 258.386 223.155 259.079 223.155C259.521 223.155 259.911 223.116 260.249 223.038C260.596 222.951 260.951 222.83 261.315 222.674V223.675C260.96 223.831 260.609 223.944 260.262 224.013C259.915 224.091 259.504 224.13 259.027 224.13C258.368 224.13 257.783 223.996 257.272 223.727C256.769 223.458 256.375 223.06 256.089 222.531C255.812 221.994 255.673 221.339 255.673 220.568C255.673 219.805 255.799 219.151 256.05 218.605C256.31 218.059 256.67 217.639 257.129 217.344C257.597 217.049 258.139 216.902 258.754 216.902ZM258.741 217.838C258.195 217.838 257.762 218.016 257.441 218.371C257.129 218.718 256.943 219.203 256.882 219.827H260.431C260.431 219.428 260.37 219.082 260.249 218.787C260.128 218.492 259.941 218.263 259.69 218.098C259.447 217.925 259.131 217.838 258.741 217.838ZM268.743 214.146C268.708 214.579 268.6 214.943 268.418 215.238C268.245 215.533 267.985 215.754 267.638 215.901C267.291 216.048 266.841 216.122 266.286 216.122C265.723 216.122 265.268 216.048 264.921 215.901C264.583 215.754 264.336 215.537 264.18 215.251C264.024 214.956 263.929 214.588 263.894 214.146H264.96C265.003 214.614 265.125 214.93 265.324 215.095C265.532 215.251 265.861 215.329 266.312 215.329C266.711 215.329 267.023 215.247 267.248 215.082C267.482 214.909 267.621 214.597 267.664 214.146H268.743ZM264.18 221.283C264.18 221.361 264.176 221.474 264.167 221.621C264.167 221.76 264.163 221.911 264.154 222.076C264.145 222.232 264.137 222.384 264.128 222.531C264.119 222.67 264.111 222.782 264.102 222.869L267.833 217.032H269.237V224H268.171V219.892C268.171 219.753 268.171 219.571 268.171 219.346C268.18 219.121 268.188 218.9 268.197 218.683C268.206 218.458 268.214 218.289 268.223 218.176L264.518 224H263.101V217.032H264.18V221.283Z" fill="#6B6B6B"/>
    <rect opacity="0.5" y="248" width="280" height="48" rx="10" fill="#C6ECE8"/>
    <path d="M95.2784 278V266.364H97.0341V271.42H102.835V266.364H104.597V278H102.835V272.926H97.0341V278H95.2784ZM109.557 278.193C109.004 278.193 108.504 278.091 108.057 277.886C107.61 277.678 107.256 277.377 106.994 276.983C106.737 276.589 106.608 276.106 106.608 275.534C106.608 275.042 106.703 274.636 106.892 274.318C107.081 274 107.337 273.748 107.659 273.562C107.981 273.377 108.341 273.237 108.739 273.142C109.136 273.047 109.542 272.975 109.955 272.926C110.477 272.866 110.902 272.816 111.227 272.778C111.553 272.737 111.79 272.67 111.938 272.58C112.085 272.489 112.159 272.341 112.159 272.136V272.097C112.159 271.6 112.019 271.216 111.739 270.943C111.462 270.67 111.049 270.534 110.5 270.534C109.928 270.534 109.477 270.661 109.148 270.915C108.822 271.165 108.597 271.443 108.472 271.75L106.875 271.386C107.064 270.856 107.341 270.428 107.705 270.102C108.072 269.773 108.494 269.534 108.972 269.386C109.449 269.235 109.951 269.159 110.477 269.159C110.826 269.159 111.195 269.201 111.585 269.284C111.979 269.364 112.347 269.511 112.688 269.727C113.032 269.943 113.314 270.252 113.534 270.653C113.754 271.051 113.864 271.568 113.864 272.205V278H112.205V276.807H112.136C112.027 277.027 111.862 277.242 111.642 277.455C111.422 277.667 111.14 277.843 110.795 277.983C110.451 278.123 110.038 278.193 109.557 278.193ZM109.926 276.83C110.396 276.83 110.797 276.737 111.131 276.551C111.468 276.366 111.723 276.123 111.898 275.824C112.076 275.521 112.165 275.197 112.165 274.852V273.727C112.104 273.788 111.987 273.845 111.812 273.898C111.642 273.947 111.447 273.991 111.227 274.028C111.008 274.062 110.794 274.095 110.585 274.125C110.377 274.152 110.203 274.174 110.062 274.193C109.733 274.235 109.432 274.305 109.159 274.403C108.89 274.502 108.674 274.644 108.511 274.83C108.352 275.011 108.273 275.254 108.273 275.557C108.273 275.977 108.428 276.295 108.739 276.511C109.049 276.723 109.445 276.83 109.926 276.83ZM125.94 269.273V270.739H122.037V278H120.361V269.273H125.94ZM126.33 278L126.324 276.528H126.636C126.879 276.528 127.081 276.477 127.244 276.375C127.411 276.269 127.547 276.091 127.653 275.841C127.759 275.591 127.841 275.246 127.898 274.807C127.955 274.364 127.996 273.807 128.023 273.136L128.176 269.273H134.267V278H132.602V270.739H129.75L129.614 273.705C129.58 274.424 129.506 275.053 129.392 275.591C129.282 276.129 129.121 276.578 128.909 276.938C128.697 277.294 128.424 277.561 128.091 277.739C127.758 277.913 127.352 278 126.875 278H126.33ZM139.072 278.193C138.519 278.193 138.019 278.091 137.572 277.886C137.125 277.678 136.771 277.377 136.51 276.983C136.252 276.589 136.124 276.106 136.124 275.534C136.124 275.042 136.218 274.636 136.408 274.318C136.597 274 136.853 273.748 137.175 273.562C137.497 273.377 137.857 273.237 138.254 273.142C138.652 273.047 139.057 272.975 139.47 272.926C139.993 272.866 140.417 272.816 140.743 272.778C141.069 272.737 141.305 272.67 141.453 272.58C141.601 272.489 141.675 272.341 141.675 272.136V272.097C141.675 271.6 141.535 271.216 141.254 270.943C140.978 270.67 140.565 270.534 140.016 270.534C139.444 270.534 138.993 270.661 138.663 270.915C138.338 271.165 138.112 271.443 137.987 271.75L136.391 271.386C136.58 270.856 136.857 270.428 137.22 270.102C137.588 269.773 138.01 269.534 138.487 269.386C138.964 269.235 139.466 269.159 139.993 269.159C140.341 269.159 140.711 269.201 141.101 269.284C141.495 269.364 141.862 269.511 142.203 269.727C142.548 269.943 142.83 270.252 143.05 270.653C143.269 271.051 143.379 271.568 143.379 272.205V278H141.72V276.807H141.652C141.542 277.027 141.377 277.242 141.158 277.455C140.938 277.667 140.656 277.843 140.311 277.983C139.966 278.123 139.554 278.193 139.072 278.193ZM139.442 276.83C139.911 276.83 140.313 276.737 140.646 276.551C140.983 276.366 141.239 276.123 141.413 275.824C141.591 275.521 141.68 275.197 141.68 274.852V273.727C141.62 273.788 141.502 273.845 141.328 273.898C141.158 273.947 140.963 273.991 140.743 274.028C140.523 274.062 140.309 274.095 140.101 274.125C139.893 274.152 139.718 274.174 139.578 274.193C139.249 274.235 138.947 274.305 138.675 274.403C138.406 274.502 138.19 274.644 138.027 274.83C137.868 275.011 137.788 275.254 137.788 275.557C137.788 275.977 137.944 276.295 138.254 276.511C138.565 276.723 138.961 276.83 139.442 276.83ZM145.642 278V269.273H149.261C150.246 269.273 151.027 269.483 151.602 269.903C152.178 270.32 152.466 270.886 152.466 271.602C152.466 272.114 152.303 272.519 151.977 272.818C151.652 273.117 151.22 273.318 150.682 273.42C151.072 273.466 151.43 273.583 151.756 273.773C152.081 273.958 152.343 274.208 152.54 274.523C152.741 274.837 152.841 275.212 152.841 275.648C152.841 276.11 152.722 276.519 152.483 276.875C152.244 277.227 151.898 277.504 151.443 277.705C150.992 277.902 150.449 278 149.812 278H145.642ZM147.239 276.58H149.812C150.233 276.58 150.563 276.479 150.801 276.278C151.04 276.078 151.159 275.805 151.159 275.46C151.159 275.055 151.04 274.737 150.801 274.506C150.563 274.271 150.233 274.153 149.812 274.153H147.239V276.58ZM147.239 272.909H149.278C149.597 272.909 149.869 272.864 150.097 272.773C150.328 272.682 150.504 272.553 150.625 272.386C150.75 272.216 150.812 272.015 150.812 271.784C150.812 271.447 150.674 271.184 150.398 270.994C150.121 270.805 149.742 270.71 149.261 270.71H147.239V272.909ZM160.619 272.903V274.375H155.892V272.903H160.619ZM156.369 269.273V278H154.705V269.273H156.369ZM161.807 269.273V278H160.148V269.273H161.807ZM164.841 281.273C164.587 281.273 164.356 281.252 164.148 281.21C163.939 281.172 163.784 281.131 163.682 281.085L164.091 279.693C164.402 279.777 164.678 279.813 164.92 279.801C165.163 279.79 165.377 279.699 165.562 279.528C165.752 279.358 165.919 279.08 166.062 278.693L166.273 278.114L163.08 269.273H164.898L167.108 276.045H167.199L169.409 269.273H171.233L167.636 279.165C167.47 279.619 167.258 280.004 167 280.318C166.742 280.636 166.436 280.875 166.08 281.034C165.723 281.193 165.311 281.273 164.841 281.273ZM177.222 272.966V274.443H172.568V272.966H177.222ZM173.949 269.273V278H172.25V269.273H173.949ZM179.881 278.176C179.07 278.176 178.362 277.987 177.756 277.608C177.15 277.229 176.68 276.703 176.347 276.028C176.013 275.35 175.847 274.564 175.847 273.67C175.847 272.769 176.013 271.981 176.347 271.307C176.68 270.629 177.15 270.102 177.756 269.727C178.362 269.348 179.07 269.159 179.881 269.159C180.695 269.159 181.403 269.348 182.006 269.727C182.612 270.102 183.081 270.629 183.415 271.307C183.752 271.981 183.92 272.769 183.92 273.67C183.92 274.564 183.752 275.35 183.415 276.028C183.081 276.703 182.612 277.229 182.006 277.608C181.403 277.987 180.695 278.176 179.881 278.176ZM179.881 276.722C180.43 276.722 180.879 276.583 181.227 276.307C181.58 276.027 181.839 275.655 182.006 275.193C182.172 274.731 182.256 274.223 182.256 273.67C182.256 273.114 182.172 272.604 182.006 272.142C181.839 271.676 181.58 271.303 181.227 271.023C180.879 270.742 180.43 270.602 179.881 270.602C179.335 270.602 178.886 270.742 178.534 271.023C178.182 271.303 177.922 271.676 177.756 272.142C177.589 272.604 177.506 273.114 177.506 273.67C177.506 274.223 177.589 274.731 177.756 275.193C177.922 275.655 178.182 276.027 178.534 276.307C178.886 276.583 179.335 276.722 179.881 276.722Z" fill="#0CE3CB"/>
</svg>
