<svg width="416" height="339" viewBox="0 0 416 339" fill="none" xmlns="http://www.w3.org/2000/svg">
    <path d="M313 105C313 91.2112 310.284 77.5574 305.007 64.8182C299.731 52.0791 291.996 40.5039 282.246 30.7538C272.496 21.0036 260.921 13.2694 248.182 7.99265C235.443 2.71591 221.789 0 208 0C194.211 0 180.557 2.71591 167.818 7.99265C155.079 13.2694 143.504 21.0036 133.754 30.7538C124.004 40.5039 116.269 52.0791 110.993 64.8182C105.716 77.5574 103 91.2112 103 105C103 132.848 114.062 159.555 133.754 179.246C153.445 198.938 180.152 210 208 210C235.848 210 262.555 198.938 282.246 179.246C301.938 159.555 313 132.848 313 105ZM120.5 105C120.5 81.7936 129.719 59.5376 146.128 43.1282C162.538 26.7187 184.794 17.5 208 17.5C231.206 17.5 253.462 26.7187 269.872 43.1282C286.281 59.5376 295.5 81.7936 295.5 105C295.5 128.206 286.281 150.462 269.872 166.872C253.462 183.281 231.206 192.5 208 192.5C184.794 192.5 162.538 183.281 146.128 166.872C129.719 150.462 120.5 128.206 120.5 105ZM190.5 83.125C190.5 84.8486 190.161 86.5553 189.501 88.1477C188.841 89.7401 187.875 91.187 186.656 92.4058C185.437 93.6245 183.99 94.5913 182.398 95.2509C180.805 95.9105 179.099 96.25 177.375 96.25C175.651 96.25 173.945 95.9105 172.352 95.2509C170.76 94.5913 169.313 93.6245 168.094 92.4058C166.875 91.187 165.909 89.7401 165.249 88.1477C164.589 86.5553 164.25 84.8486 164.25 83.125C164.25 79.644 165.633 76.3056 168.094 73.8442C170.556 71.3828 173.894 70 177.375 70C180.856 70 184.194 71.3828 186.656 73.8442C189.117 76.3056 190.5 79.644 190.5 83.125ZM251.75 83.125C251.75 86.606 250.367 89.9444 247.906 92.4058C245.444 94.8672 242.106 96.25 238.625 96.25C235.144 96.25 231.806 94.8672 229.344 92.4058C226.883 89.9444 225.5 86.606 225.5 83.125C225.5 79.644 226.883 76.3056 229.344 73.8442C231.806 71.3828 235.144 70 238.625 70C242.106 70 245.444 71.3828 247.906 73.8442C250.367 76.3056 251.75 79.644 251.75 83.125ZM175.31 154.385C191.497 135.205 224.485 135.205 240.69 154.385C241.413 155.315 242.317 156.09 243.346 156.662C244.376 157.235 245.511 157.594 246.683 157.717C247.855 157.84 249.039 157.726 250.165 157.38C251.292 157.034 252.337 156.465 253.238 155.705C254.139 154.946 254.877 154.012 255.408 152.961C255.939 151.909 256.253 150.761 256.33 149.585C256.406 148.409 256.245 147.23 255.855 146.118C255.465 145.007 254.854 143.985 254.06 143.115C230.872 115.64 185.11 115.64 161.94 143.115C161.146 143.985 160.535 145.007 160.145 146.118C159.755 147.23 159.594 148.409 159.67 149.585C159.747 150.761 160.061 151.909 160.592 152.961C161.123 154.012 161.861 154.946 162.762 155.705C163.663 156.465 164.708 157.034 165.834 157.38C166.961 157.726 168.145 157.84 169.317 157.717C170.489 157.594 171.624 157.235 172.654 156.662C173.683 156.09 174.587 155.315 175.31 154.385Z" fill="#0CE3CB"/>
    <path d="M51.0711 279H45.6351V267.912H35.4471V279H30.0111V253.296H35.4471V263.376H45.6351V253.296H51.0711V279ZM61.9904 267.12C61.9904 267.528 61.9664 268.032 61.9184 268.632C61.8944 269.232 61.8584 269.844 61.8104 270.468C61.7864 271.092 61.7504 271.644 61.7024 272.124C61.6544 272.604 61.6184 272.94 61.5944 273.132L70.6664 259.344H77.1104V279H71.9264V271.152C71.9264 270.504 71.9504 269.796 71.9984 269.028C72.0464 268.236 72.0944 267.504 72.1424 266.832C72.2144 266.136 72.2624 265.608 72.2864 265.248L63.2504 279H56.8064V259.344H61.9904V267.12ZM87.1326 266.544C87.1326 267.384 87.3366 268.02 87.7446 268.452C88.1766 268.884 88.7646 269.1 89.5086 269.1C90.5406 269.1 91.5006 268.992 92.3886 268.776C93.2766 268.536 94.1646 268.224 95.0526 267.84V259.344H100.417V279H95.0526V271.188C94.2126 271.644 93.2526 272.064 92.1726 272.448C91.0926 272.808 89.8686 272.988 88.5006 272.988C86.4606 272.988 84.8286 272.46 83.6046 271.404C82.3806 270.348 81.7686 268.764 81.7686 266.652V259.344H87.1326V266.544ZM113.842 258.984C115.666 258.984 117.226 259.332 118.522 260.028C119.842 260.724 120.862 261.732 121.582 263.052C122.302 264.372 122.662 265.992 122.662 267.912V270.504H109.99C110.038 272.016 110.482 273.204 111.322 274.068C112.186 274.932 113.374 275.364 114.886 275.364C116.158 275.364 117.31 275.244 118.342 275.004C119.374 274.74 120.442 274.344 121.546 273.816V277.956C120.586 278.436 119.566 278.784 118.486 279C117.43 279.24 116.146 279.36 114.634 279.36C112.666 279.36 110.926 279 109.414 278.28C107.902 277.536 106.714 276.42 105.85 274.932C104.986 273.444 104.554 271.572 104.554 269.316C104.554 267.012 104.938 265.104 105.706 263.592C106.498 262.056 107.59 260.904 108.982 260.136C110.374 259.368 111.994 258.984 113.842 258.984ZM113.878 262.8C112.846 262.8 111.982 263.136 111.286 263.808C110.614 264.48 110.218 265.524 110.098 266.94H117.622C117.622 266.148 117.478 265.44 117.19 264.816C116.926 264.192 116.518 263.7 115.966 263.34C115.414 262.98 114.718 262.8 113.878 262.8ZM140.283 259.344V263.376H132.075V279H126.711V259.344H140.283ZM161.107 269.136C161.107 270.768 160.879 272.22 160.423 273.492C159.991 274.764 159.355 275.844 158.515 276.732C157.699 277.596 156.703 278.256 155.527 278.712C154.351 279.144 153.019 279.36 151.531 279.36C150.163 279.36 148.891 279.144 147.715 278.712C146.563 278.256 145.567 277.596 144.727 276.732C143.887 275.844 143.227 274.764 142.747 273.492C142.291 272.22 142.063 270.768 142.063 269.136C142.063 266.952 142.447 265.116 143.215 263.628C143.983 262.116 145.087 260.964 146.527 260.172C147.967 259.38 149.671 258.984 151.639 258.984C153.487 258.984 155.119 259.38 156.535 260.172C157.951 260.964 159.067 262.116 159.883 263.628C160.699 265.116 161.107 266.952 161.107 269.136ZM147.535 269.136C147.535 270.432 147.667 271.524 147.931 272.412C148.219 273.276 148.663 273.936 149.263 274.392C149.863 274.824 150.643 275.04 151.603 275.04C152.563 275.04 153.331 274.824 153.907 274.392C154.507 273.936 154.939 273.276 155.203 272.412C155.491 271.524 155.635 270.432 155.635 269.136C155.635 267.84 155.491 266.76 155.203 265.896C154.939 265.032 154.507 264.384 153.907 263.952C153.307 263.52 152.527 263.304 151.567 263.304C150.151 263.304 149.119 263.796 148.471 264.78C147.847 265.74 147.535 267.192 147.535 269.136ZM178.882 259.344V266.904H186.37V259.344H191.734V279H186.37V270.9H178.882V279H173.518V259.344H178.882ZM205.154 258.984C206.978 258.984 208.538 259.332 209.834 260.028C211.154 260.724 212.174 261.732 212.894 263.052C213.614 264.372 213.974 265.992 213.974 267.912V270.504H201.302C201.35 272.016 201.794 273.204 202.634 274.068C203.498 274.932 204.686 275.364 206.198 275.364C207.47 275.364 208.622 275.244 209.654 275.004C210.686 274.74 211.754 274.344 212.858 273.816V277.956C211.898 278.436 210.878 278.784 209.798 279C208.742 279.24 207.458 279.36 205.946 279.36C203.978 279.36 202.238 279 200.726 278.28C199.214 277.536 198.026 276.42 197.162 274.932C196.298 273.444 195.866 271.572 195.866 269.316C195.866 267.012 196.25 265.104 197.018 263.592C197.81 262.056 198.902 260.904 200.294 260.136C201.686 259.368 203.306 258.984 205.154 258.984ZM205.19 262.8C204.158 262.8 203.294 263.136 202.598 263.808C201.926 264.48 201.53 265.524 201.41 266.94H208.934C208.934 266.148 208.79 265.44 208.502 264.816C208.238 264.192 207.83 263.7 207.278 263.34C206.726 262.98 206.03 262.8 205.19 262.8ZM231.666 259.344V266.904H239.154V259.344H244.518V279H239.154V270.9H231.666V279H226.302V259.344H231.666ZM257.902 258.948C260.542 258.948 262.558 259.524 263.95 260.676C265.366 261.804 266.074 263.544 266.074 265.896V279H262.33L261.286 276.336H261.142C260.59 277.032 260.014 277.608 259.414 278.064C258.838 278.52 258.166 278.844 257.398 279.036C256.654 279.252 255.73 279.36 254.626 279.36C253.474 279.36 252.43 279.144 251.494 278.712C250.582 278.256 249.862 277.572 249.334 276.66C248.806 275.724 248.542 274.548 248.542 273.132C248.542 271.044 249.274 269.508 250.738 268.524C252.202 267.516 254.398 266.964 257.326 266.868L260.746 266.76V265.896C260.746 264.864 260.47 264.108 259.918 263.628C259.39 263.148 258.646 262.908 257.686 262.908C256.726 262.908 255.79 263.052 254.878 263.34C253.966 263.604 253.054 263.94 252.142 264.348L250.378 260.712C251.434 260.16 252.598 259.728 253.87 259.416C255.166 259.104 256.51 258.948 257.902 258.948ZM258.658 269.964C256.93 270.012 255.73 270.324 255.058 270.9C254.386 271.476 254.05 272.232 254.05 273.168C254.05 273.984 254.29 274.572 254.77 274.932C255.25 275.268 255.874 275.436 256.642 275.436C257.794 275.436 258.766 275.1 259.558 274.428C260.35 273.732 260.746 272.76 260.746 271.512V269.892L258.658 269.964ZM300.532 259.344V279H271.264V259.344H276.628V274.968H283.216V259.344H288.58V274.968H295.168V259.344H300.532ZM323.443 279H318.079V263.376H313.147C312.907 266.256 312.607 268.716 312.247 270.756C311.911 272.772 311.479 274.416 310.951 275.688C310.447 276.96 309.799 277.896 309.007 278.496C308.215 279.072 307.243 279.36 306.091 279.36C305.467 279.36 304.903 279.312 304.399 279.216C303.895 279.12 303.439 278.976 303.031 278.784V274.5C303.295 274.596 303.571 274.68 303.859 274.752C304.147 274.824 304.447 274.86 304.759 274.86C305.095 274.86 305.407 274.728 305.695 274.464C306.007 274.2 306.295 273.732 306.559 273.06C306.847 272.388 307.111 271.464 307.351 270.288C307.591 269.112 307.807 267.636 307.999 265.86C308.215 264.06 308.407 261.888 308.575 259.344H323.443V279ZM346.598 269.136C346.598 270.768 346.37 272.22 345.914 273.492C345.482 274.764 344.846 275.844 344.006 276.732C343.19 277.596 342.194 278.256 341.018 278.712C339.842 279.144 338.51 279.36 337.022 279.36C335.654 279.36 334.382 279.144 333.206 278.712C332.054 278.256 331.058 277.596 330.218 276.732C329.378 275.844 328.718 274.764 328.238 273.492C327.782 272.22 327.554 270.768 327.554 269.136C327.554 266.952 327.938 265.116 328.706 263.628C329.474 262.116 330.578 260.964 332.018 260.172C333.458 259.38 335.162 258.984 337.13 258.984C338.978 258.984 340.61 259.38 342.026 260.172C343.442 260.964 344.558 262.116 345.374 263.628C346.19 265.116 346.598 266.952 346.598 269.136ZM333.026 269.136C333.026 270.432 333.158 271.524 333.422 272.412C333.71 273.276 334.154 273.936 334.754 274.392C335.354 274.824 336.134 275.04 337.094 275.04C338.054 275.04 338.822 274.824 339.398 274.392C339.998 273.936 340.43 273.276 340.694 272.412C340.982 271.524 341.126 270.432 341.126 269.136C341.126 267.84 340.982 266.76 340.694 265.896C340.43 265.032 339.998 264.384 339.398 263.952C338.798 263.52 338.018 263.304 337.058 263.304C335.642 263.304 334.61 263.796 333.962 264.78C333.338 265.74 333.026 267.192 333.026 269.136ZM358.723 279.36C356.779 279.36 355.123 279.012 353.755 278.316C352.387 277.596 351.343 276.492 350.623 275.004C349.903 273.516 349.543 271.608 349.543 269.28C349.543 266.88 349.951 264.924 350.767 263.412C351.583 261.9 352.711 260.784 354.151 260.064C355.615 259.344 357.295 258.984 359.191 258.984C360.535 258.984 361.699 259.116 362.683 259.38C363.691 259.644 364.567 259.956 365.311 260.316L363.727 264.456C362.887 264.12 362.095 263.844 361.351 263.628C360.631 263.412 359.911 263.304 359.191 263.304C358.255 263.304 357.475 263.532 356.851 263.988C356.227 264.42 355.759 265.08 355.447 265.968C355.159 266.832 355.015 267.924 355.015 269.244C355.015 270.54 355.171 271.62 355.483 272.484C355.819 273.324 356.299 273.96 356.923 274.392C357.547 274.8 358.303 275.004 359.191 275.004C360.319 275.004 361.315 274.86 362.179 274.572C363.043 274.26 363.883 273.84 364.699 273.312V277.884C363.883 278.412 363.019 278.784 362.107 279C361.219 279.24 360.091 279.36 358.723 279.36ZM378.068 266.94C380.084 266.94 381.752 267.156 383.072 267.588C384.392 267.996 385.364 268.632 385.988 269.496C386.636 270.36 386.96 271.44 386.96 272.736C386.96 274.008 386.66 275.112 386.06 276.048C385.484 276.984 384.56 277.716 383.288 278.244C382.016 278.748 380.348 279 378.284 279H368.924V259.344H374.288V266.94H378.068ZM381.596 272.808C381.596 272.04 381.284 271.488 380.66 271.152C380.06 270.816 379.16 270.648 377.96 270.648H374.288V275.292H378.032C379.088 275.292 379.94 275.1 380.588 274.716C381.26 274.332 381.596 273.696 381.596 272.808Z" fill="#6B6B6B"/>
    <path d="M0.941069 314V302.576H9.51707V314H8.09307V303.84H2.38107V314H0.941069ZM19.6082 309.696C19.6082 310.411 19.5122 311.045 19.3202 311.6C19.1389 312.144 18.8722 312.608 18.5202 312.992C18.1789 313.376 17.7575 313.669 17.2562 313.872C16.7655 314.064 16.2162 314.16 15.6082 314.16C15.0429 314.16 14.5202 314.064 14.0402 313.872C13.5602 313.669 13.1442 313.376 12.7922 312.992C12.4402 312.608 12.1629 312.144 11.9602 311.6C11.7682 311.045 11.6722 310.411 11.6722 309.696C11.6722 308.747 11.8322 307.947 12.1522 307.296C12.4722 306.635 12.9309 306.133 13.5282 305.792C14.1255 305.44 14.8349 305.264 15.6562 305.264C16.4349 305.264 17.1175 305.44 17.7042 305.792C18.3015 306.133 18.7655 306.635 19.0962 307.296C19.4375 307.947 19.6082 308.747 19.6082 309.696ZM13.1282 309.696C13.1282 310.368 13.2135 310.955 13.3842 311.456C13.5655 311.947 13.8429 312.325 14.2162 312.592C14.5895 312.859 15.0642 312.992 15.6402 312.992C16.2162 312.992 16.6909 312.859 17.0642 312.592C17.4375 312.325 17.7095 311.947 17.8802 311.456C18.0615 310.955 18.1522 310.368 18.1522 309.696C18.1522 309.013 18.0615 308.432 17.8802 307.952C17.6989 307.472 17.4215 307.104 17.0482 306.848C16.6855 306.581 16.2109 306.448 15.6242 306.448C14.7495 306.448 14.1149 306.736 13.7202 307.312C13.3255 307.888 13.1282 308.683 13.1282 309.696ZM28.7877 305.424V314H27.3797V306.624H22.9477V314H21.5397V305.424H28.7877ZM35.3041 305.264C36.3601 305.264 37.2081 305.632 37.8481 306.368C38.4987 307.104 38.8241 308.213 38.8241 309.696C38.8241 310.667 38.6747 311.488 38.3761 312.16C38.0881 312.821 37.6774 313.323 37.1441 313.664C36.6214 313.995 36.0027 314.16 35.2881 314.16C34.8507 314.16 34.4614 314.101 34.1201 313.984C33.7787 313.867 33.4854 313.717 33.2401 313.536C33.0054 313.344 32.8027 313.136 32.6321 312.912H32.5361C32.5574 313.093 32.5787 313.323 32.6001 313.6C32.6214 313.877 32.6321 314.117 32.6321 314.32V317.84H31.2241V305.424H32.3761L32.5681 306.592H32.6321C32.8027 306.347 33.0054 306.123 33.2401 305.92C33.4854 305.717 33.7734 305.557 34.1041 305.44C34.4454 305.323 34.8454 305.264 35.3041 305.264ZM35.0481 306.448C34.4721 306.448 34.0081 306.56 33.6561 306.784C33.3041 306.997 33.0481 307.323 32.8881 307.76C32.7281 308.197 32.6427 308.752 32.6321 309.424V309.696C32.6321 310.4 32.7067 310.997 32.8561 311.488C33.0054 311.979 33.2561 312.352 33.6081 312.608C33.9707 312.864 34.4614 312.992 35.0801 312.992C35.6027 312.992 36.0294 312.848 36.3601 312.56C36.7014 312.272 36.9521 311.883 37.1121 311.392C37.2827 310.891 37.3681 310.32 37.3681 309.68C37.3681 308.699 37.1761 307.915 36.7921 307.328C36.4187 306.741 35.8374 306.448 35.0481 306.448ZM48.2238 309.696C48.2238 310.411 48.1278 311.045 47.9358 311.6C47.7545 312.144 47.4878 312.608 47.1358 312.992C46.7945 313.376 46.3732 313.669 45.8718 313.872C45.3812 314.064 44.8318 314.16 44.2238 314.16C43.6585 314.16 43.1358 314.064 42.6558 313.872C42.1758 313.669 41.7598 313.376 41.4078 312.992C41.0558 312.608 40.7785 312.144 40.5758 311.6C40.3838 311.045 40.2878 310.411 40.2878 309.696C40.2878 308.747 40.4478 307.947 40.7678 307.296C41.0878 306.635 41.5465 306.133 42.1438 305.792C42.7412 305.44 43.4505 305.264 44.2718 305.264C45.0505 305.264 45.7332 305.44 46.3198 305.792C46.9172 306.133 47.3812 306.635 47.7118 307.296C48.0532 307.947 48.2238 308.747 48.2238 309.696ZM41.7438 309.696C41.7438 310.368 41.8292 310.955 41.9998 311.456C42.1812 311.947 42.4585 312.325 42.8318 312.592C43.2052 312.859 43.6798 312.992 44.2558 312.992C44.8318 312.992 45.3065 312.859 45.6798 312.592C46.0532 312.325 46.3252 311.947 46.4958 311.456C46.6772 310.955 46.7678 310.368 46.7678 309.696C46.7678 309.013 46.6772 308.432 46.4958 307.952C46.3145 307.472 46.0372 307.104 45.6638 306.848C45.3012 306.581 44.8265 306.448 44.2398 306.448C43.3652 306.448 42.7305 306.736 42.3358 307.312C41.9412 307.888 41.7438 308.683 41.7438 309.696ZM49.7073 308.848C49.7073 307.6 49.83 306.539 50.0753 305.664C50.3313 304.779 50.7207 304.075 51.2433 303.552C51.7767 303.019 52.4593 302.661 53.2913 302.48C53.9847 302.331 54.662 302.197 55.3233 302.08C55.9847 301.963 56.6033 301.856 57.1793 301.76L57.4193 302.992C57.142 303.035 56.8327 303.088 56.4913 303.152C56.15 303.205 55.8033 303.264 55.4513 303.328C55.0993 303.381 54.758 303.44 54.4273 303.504C54.1073 303.557 53.8247 303.611 53.5793 303.664C53.2273 303.739 52.9127 303.867 52.6353 304.048C52.358 304.219 52.118 304.453 51.9153 304.752C51.7233 305.051 51.5687 305.419 51.4513 305.856C51.334 306.293 51.2647 306.811 51.2433 307.408H51.3393C51.4887 307.205 51.6913 306.997 51.9473 306.784C52.214 306.571 52.5287 306.389 52.8913 306.24C53.2647 306.091 53.686 306.016 54.1553 306.016C54.902 306.016 55.5207 306.181 56.0113 306.512C56.5127 306.832 56.886 307.28 57.1313 307.856C57.3873 308.432 57.5153 309.104 57.5153 309.872C57.5153 310.821 57.35 311.616 57.0193 312.256C56.6887 312.896 56.23 313.376 55.6433 313.696C55.0567 314.005 54.374 314.16 53.5953 314.16C53.0087 314.16 52.4753 314.048 51.9953 313.824C51.5153 313.589 51.1047 313.248 50.7633 312.8C50.422 312.352 50.1607 311.797 49.9793 311.136C49.798 310.475 49.7073 309.712 49.7073 308.848ZM53.7073 312.992C54.1767 312.992 54.582 312.896 54.9233 312.704C55.2753 312.512 55.5473 312.197 55.7393 311.76C55.9313 311.323 56.0273 310.741 56.0273 310.016C56.0273 309.141 55.862 308.453 55.5313 307.952C55.2113 307.44 54.678 307.184 53.9313 307.184C53.462 307.184 53.0353 307.291 52.6513 307.504C52.2673 307.707 51.9473 307.941 51.6913 308.208C51.4353 308.475 51.254 308.699 51.1473 308.88C51.1473 309.403 51.1847 309.909 51.2593 310.4C51.334 310.891 51.462 311.333 51.6433 311.728C51.8353 312.112 52.0967 312.421 52.4273 312.656C52.7687 312.88 53.1953 312.992 53.7073 312.992ZM62.7454 305.264C63.4814 305.264 64.1108 305.424 64.6334 305.744C65.1668 306.064 65.5721 306.517 65.8494 307.104C66.1374 307.68 66.2814 308.357 66.2814 309.136V309.984H60.4094C60.4308 310.955 60.6761 311.696 61.1454 312.208C61.6254 312.709 62.2921 312.96 63.1454 312.96C63.6894 312.96 64.1694 312.912 64.5854 312.816C65.0121 312.709 65.4494 312.56 65.8974 312.368V313.6C65.4601 313.792 65.0281 313.931 64.6014 314.016C64.1748 314.112 63.6681 314.16 63.0814 314.16C62.2708 314.16 61.5508 313.995 60.9214 313.664C60.3028 313.333 59.8174 312.843 59.4654 312.192C59.1241 311.531 58.9534 310.725 58.9534 309.776C58.9534 308.837 59.1081 308.032 59.4174 307.36C59.7374 306.688 60.1801 306.171 60.7454 305.808C61.3214 305.445 61.9881 305.264 62.7454 305.264ZM62.7294 306.416C62.0574 306.416 61.5241 306.635 61.1294 307.072C60.7454 307.499 60.5161 308.096 60.4414 308.864H64.8094C64.8094 308.373 64.7348 307.947 64.5854 307.584C64.4361 307.221 64.2068 306.939 63.8974 306.736C63.5988 306.523 63.2094 306.416 62.7294 306.416ZM75.1087 301.872C75.066 302.405 74.9327 302.853 74.7087 303.216C74.4954 303.579 74.1754 303.851 73.7487 304.032C73.322 304.213 72.7674 304.304 72.0847 304.304C71.3914 304.304 70.8314 304.213 70.4047 304.032C69.9887 303.851 69.6847 303.584 69.4927 303.232C69.3007 302.869 69.1834 302.416 69.1407 301.872H70.4527C70.506 302.448 70.6554 302.837 70.9007 303.04C71.1567 303.232 71.562 303.328 72.1167 303.328C72.6074 303.328 72.9914 303.227 73.2687 303.024C73.5567 302.811 73.7274 302.427 73.7807 301.872H75.1087ZM69.4927 310.656C69.4927 310.752 69.4874 310.891 69.4767 311.072C69.4767 311.243 69.4714 311.429 69.4607 311.632C69.45 311.824 69.4394 312.011 69.4287 312.192C69.418 312.363 69.4074 312.501 69.3967 312.608L73.9887 305.424H75.7167V314H74.4047V308.944C74.4047 308.773 74.4047 308.549 74.4047 308.272C74.4154 307.995 74.426 307.723 74.4367 307.456C74.4474 307.179 74.458 306.971 74.4687 306.832L69.9087 314H68.1647V305.424H69.4927V310.656ZM84.0659 306.608H81.2659V314H79.8739V306.608H77.1059V305.424H84.0659V306.608ZM88.6111 305.264C89.3471 305.264 89.9764 305.424 90.4991 305.744C91.0324 306.064 91.4377 306.517 91.7151 307.104C92.0031 307.68 92.1471 308.357 92.1471 309.136V309.984H86.2751C86.2964 310.955 86.5417 311.696 87.0111 312.208C87.4911 312.709 88.1577 312.96 89.0111 312.96C89.5551 312.96 90.0351 312.912 90.4511 312.816C90.8777 312.709 91.3151 312.56 91.7631 312.368V313.6C91.3257 313.792 90.8937 313.931 90.4671 314.016C90.0404 314.112 89.5337 314.16 88.9471 314.16C88.1364 314.16 87.4164 313.995 86.7871 313.664C86.1684 313.333 85.6831 312.843 85.3311 312.192C84.9897 311.531 84.8191 310.725 84.8191 309.776C84.8191 308.837 84.9737 308.032 85.2831 307.36C85.6031 306.688 86.0457 306.171 86.6111 305.808C87.1871 305.445 87.8537 305.264 88.6111 305.264ZM88.5951 306.416C87.9231 306.416 87.3897 306.635 86.9951 307.072C86.6111 307.499 86.3817 308.096 86.3071 308.864H90.6751C90.6751 308.373 90.6004 307.947 90.4511 307.584C90.3017 307.221 90.0724 306.939 89.7631 306.736C89.4644 306.523 89.0751 306.416 88.5951 306.416ZM99.2946 305.424V308.992H103.951V305.424H105.359V314H103.951V310.176H99.2946V314H97.8866V305.424H99.2946ZM111.022 305.28C112.067 305.28 112.841 305.509 113.342 305.968C113.843 306.427 114.094 307.157 114.094 308.16V314H113.07L112.798 312.784H112.734C112.489 313.093 112.233 313.355 111.966 313.568C111.71 313.771 111.411 313.92 111.07 314.016C110.739 314.112 110.334 314.16 109.854 314.16C109.342 314.16 108.878 314.069 108.462 313.888C108.057 313.707 107.737 313.429 107.502 313.056C107.267 312.672 107.15 312.192 107.15 311.616C107.15 310.763 107.486 310.107 108.158 309.648C108.83 309.179 109.865 308.923 111.262 308.88L112.718 308.832V308.32C112.718 307.605 112.563 307.109 112.254 306.832C111.945 306.555 111.507 306.416 110.942 306.416C110.494 306.416 110.067 306.485 109.662 306.624C109.257 306.752 108.878 306.901 108.526 307.072L108.094 306.016C108.467 305.813 108.91 305.643 109.422 305.504C109.934 305.355 110.467 305.28 111.022 305.28ZM111.438 309.856C110.371 309.899 109.63 310.069 109.214 310.368C108.809 310.667 108.606 311.088 108.606 311.632C108.606 312.112 108.75 312.464 109.038 312.688C109.337 312.912 109.715 313.024 110.174 313.024C110.899 313.024 111.502 312.827 111.982 312.432C112.462 312.027 112.702 311.408 112.702 310.576V309.808L111.438 309.856ZM123.691 305.424V314H122.283V306.624H117.851V314H116.443V305.424H123.691ZM127.455 310.656C127.455 310.752 127.45 310.891 127.439 311.072C127.439 311.243 127.434 311.429 127.423 311.632C127.413 311.824 127.402 312.011 127.391 312.192C127.381 312.363 127.37 312.501 127.359 312.608L131.951 305.424H133.679V314H132.367V308.944C132.367 308.773 132.367 308.549 132.367 308.272C132.378 307.995 132.389 307.723 132.399 307.456C132.41 307.179 132.421 306.971 132.431 306.832L127.871 314H126.127V305.424H127.455V310.656ZM139.548 314.16C138.791 314.16 138.114 314.005 137.516 313.696C136.93 313.387 136.466 312.907 136.124 312.256C135.794 311.605 135.628 310.773 135.628 309.76C135.628 308.704 135.804 307.845 136.156 307.184C136.508 306.523 136.983 306.037 137.58 305.728C138.188 305.419 138.876 305.264 139.644 305.264C140.082 305.264 140.503 305.312 140.908 305.408C141.314 305.493 141.644 305.6 141.9 305.728L141.468 306.896C141.212 306.8 140.914 306.709 140.572 306.624C140.231 306.539 139.911 306.496 139.612 306.496C139.036 306.496 138.562 306.619 138.188 306.864C137.815 307.109 137.538 307.472 137.356 307.952C137.175 308.432 137.084 309.029 137.084 309.744C137.084 310.427 137.175 311.008 137.356 311.488C137.538 311.968 137.81 312.331 138.172 312.576C138.535 312.821 138.988 312.944 139.532 312.944C140.002 312.944 140.412 312.896 140.764 312.8C141.127 312.704 141.458 312.587 141.756 312.448V313.696C141.468 313.845 141.148 313.957 140.796 314.032C140.455 314.117 140.039 314.16 139.548 314.16ZM146.744 305.28C147.789 305.28 148.563 305.509 149.064 305.968C149.565 306.427 149.816 307.157 149.816 308.16V314H148.792L148.52 312.784H148.456C148.211 313.093 147.955 313.355 147.688 313.568C147.432 313.771 147.133 313.92 146.792 314.016C146.461 314.112 146.056 314.16 145.576 314.16C145.064 314.16 144.6 314.069 144.184 313.888C143.779 313.707 143.459 313.429 143.224 313.056C142.989 312.672 142.872 312.192 142.872 311.616C142.872 310.763 143.208 310.107 143.88 309.648C144.552 309.179 145.587 308.923 146.984 308.88L148.44 308.832V308.32C148.44 307.605 148.285 307.109 147.976 306.832C147.667 306.555 147.229 306.416 146.664 306.416C146.216 306.416 145.789 306.485 145.384 306.624C144.979 306.752 144.6 306.901 144.248 307.072L143.816 306.016C144.189 305.813 144.632 305.643 145.144 305.504C145.656 305.355 146.189 305.28 146.744 305.28ZM147.16 309.856C146.093 309.899 145.352 310.069 144.936 310.368C144.531 310.667 144.328 311.088 144.328 311.632C144.328 312.112 144.472 312.464 144.76 312.688C145.059 312.912 145.437 313.024 145.896 313.024C146.621 313.024 147.224 312.827 147.704 312.432C148.184 312.027 148.424 311.408 148.424 310.576V309.808L147.16 309.856ZM158.085 306.608H155.285V314H153.893V306.608H151.125V305.424H158.085V306.608ZM163.426 308.944C164.173 308.944 164.791 309.035 165.282 309.216C165.773 309.397 166.141 309.669 166.386 310.032C166.642 310.384 166.77 310.832 166.77 311.376C166.77 311.909 166.647 312.373 166.402 312.768C166.167 313.163 165.799 313.467 165.298 313.68C164.797 313.893 164.151 314 163.362 314H159.474V305.424H160.882V308.944H163.426ZM165.362 311.456C165.362 310.933 165.175 310.581 164.802 310.4C164.439 310.208 163.927 310.112 163.266 310.112H160.882V312.864H163.298C163.895 312.864 164.386 312.757 164.77 312.544C165.165 312.331 165.362 311.968 165.362 311.456ZM173.938 305.424V308.992H178.594V305.424H180.002V314H178.594V310.176H173.938V314H172.53V305.424H173.938ZM185.666 305.28C186.711 305.28 187.484 305.509 187.986 305.968C188.487 306.427 188.738 307.157 188.738 308.16V314H187.714L187.442 312.784H187.378C187.132 313.093 186.876 313.355 186.61 313.568C186.354 313.771 186.055 313.92 185.714 314.016C185.383 314.112 184.978 314.16 184.498 314.16C183.986 314.16 183.522 314.069 183.106 313.888C182.7 313.707 182.38 313.429 182.146 313.056C181.911 312.672 181.794 312.192 181.794 311.616C181.794 310.763 182.13 310.107 182.802 309.648C183.474 309.179 184.508 308.923 185.906 308.88L187.362 308.832V308.32C187.362 307.605 187.207 307.109 186.898 306.832C186.588 306.555 186.151 306.416 185.586 306.416C185.138 306.416 184.711 306.485 184.306 306.624C183.9 306.752 183.522 306.901 183.17 307.072L182.738 306.016C183.111 305.813 183.554 305.643 184.066 305.504C184.578 305.355 185.111 305.28 185.666 305.28ZM186.082 309.856C185.015 309.899 184.274 310.069 183.858 310.368C183.452 310.667 183.25 311.088 183.25 311.632C183.25 312.112 183.394 312.464 183.682 312.688C183.98 312.912 184.359 313.024 184.818 313.024C185.543 313.024 186.146 312.827 186.626 312.432C187.106 312.027 187.346 311.408 187.346 310.576V309.808L186.082 309.856ZM193.343 305.264C193.993 305.264 194.559 305.355 195.039 305.536C195.519 305.707 195.892 305.963 196.159 306.304C196.425 306.635 196.559 307.04 196.559 307.52C196.559 308.043 196.415 308.459 196.127 308.768C195.839 309.067 195.444 309.285 194.943 309.424V309.488C195.284 309.584 195.599 309.717 195.887 309.888C196.175 310.059 196.404 310.283 196.575 310.56C196.756 310.837 196.847 311.195 196.847 311.632C196.847 312.101 196.713 312.528 196.447 312.912C196.191 313.296 195.791 313.6 195.247 313.824C194.713 314.048 194.025 314.16 193.183 314.16C192.777 314.16 192.388 314.139 192.015 314.096C191.652 314.053 191.321 313.989 191.023 313.904C190.735 313.819 190.479 313.717 190.255 313.6V312.336C190.617 312.507 191.044 312.661 191.535 312.8C192.036 312.939 192.58 313.008 193.167 313.008C193.593 313.008 193.977 312.96 194.319 312.864C194.671 312.768 194.948 312.619 195.151 312.416C195.353 312.203 195.455 311.915 195.455 311.552C195.455 311.221 195.364 310.955 195.183 310.752C195.001 310.539 194.729 310.379 194.367 310.272C194.015 310.165 193.561 310.112 193.007 310.112H191.855V308.96H192.783C193.519 308.96 194.105 308.864 194.543 308.672C194.991 308.469 195.215 308.128 195.215 307.648C195.215 307.243 195.044 306.939 194.703 306.736C194.372 306.533 193.892 306.432 193.263 306.432C192.793 306.432 192.377 306.48 192.015 306.576C191.663 306.661 191.273 306.795 190.847 306.976L190.351 305.856C190.809 305.653 191.289 305.504 191.791 305.408C192.292 305.312 192.809 305.264 193.343 305.264ZM205.526 307.584C205.526 308.117 205.366 308.533 205.046 308.832C204.726 309.131 204.316 309.333 203.814 309.44V309.504C204.348 309.579 204.812 309.771 205.206 310.08C205.601 310.379 205.798 310.848 205.798 311.488C205.798 311.851 205.729 312.187 205.59 312.496C205.462 312.805 205.26 313.072 204.982 313.296C204.705 313.52 204.348 313.696 203.91 313.824C203.473 313.941 202.945 314 202.326 314H198.63V305.424H202.31C202.918 305.424 203.462 305.493 203.942 305.632C204.433 305.76 204.817 305.984 205.094 306.304C205.382 306.613 205.526 307.04 205.526 307.584ZM204.342 311.488C204.342 310.997 204.156 310.645 203.782 310.432C203.409 310.219 202.86 310.112 202.134 310.112H200.038V312.864H202.166C202.87 312.864 203.409 312.763 203.782 312.56C204.156 312.347 204.342 311.989 204.342 311.488ZM204.102 307.76C204.102 307.355 203.953 307.061 203.654 306.88C203.366 306.688 202.892 306.592 202.23 306.592H200.038V308.944H201.974C202.668 308.944 203.196 308.848 203.558 308.656C203.921 308.464 204.102 308.165 204.102 307.76ZM210.797 305.28C211.842 305.28 212.616 305.509 213.117 305.968C213.618 306.427 213.869 307.157 213.869 308.16V314H212.845L212.573 312.784H212.509C212.264 313.093 212.008 313.355 211.741 313.568C211.485 313.771 211.186 313.92 210.845 314.016C210.514 314.112 210.109 314.16 209.629 314.16C209.117 314.16 208.653 314.069 208.237 313.888C207.832 313.707 207.512 313.429 207.277 313.056C207.042 312.672 206.925 312.192 206.925 311.616C206.925 310.763 207.261 310.107 207.933 309.648C208.605 309.179 209.64 308.923 211.037 308.88L212.493 308.832V308.32C212.493 307.605 212.338 307.109 212.029 306.832C211.72 306.555 211.282 306.416 210.717 306.416C210.269 306.416 209.842 306.485 209.437 306.624C209.032 306.752 208.653 306.901 208.301 307.072L207.869 306.016C208.242 305.813 208.685 305.643 209.197 305.504C209.709 305.355 210.242 305.28 210.797 305.28ZM211.213 309.856C210.146 309.899 209.405 310.069 208.989 310.368C208.584 310.667 208.381 311.088 208.381 311.632C208.381 312.112 208.525 312.464 208.813 312.688C209.112 312.912 209.49 313.024 209.949 313.024C210.674 313.024 211.277 312.827 211.757 312.432C212.237 312.027 212.477 311.408 212.477 310.576V309.808L211.213 309.856ZM217.626 305.424V308.992H222.282V305.424H223.69V314H222.282V310.176H217.626V314H216.218V305.424H217.626ZM227.433 310.656C227.433 310.752 227.428 310.891 227.417 311.072C227.417 311.243 227.412 311.429 227.401 311.632C227.391 311.824 227.38 312.011 227.369 312.192C227.359 312.363 227.348 312.501 227.337 312.608L231.929 305.424H233.657V314H232.345V308.944C232.345 308.773 232.345 308.549 232.345 308.272C232.356 307.995 232.367 307.723 232.377 307.456C232.388 307.179 232.399 306.971 232.409 306.832L227.849 314H226.105V305.424H227.433V310.656ZM239.399 305.264C240.135 305.264 240.764 305.424 241.287 305.744C241.82 306.064 242.225 306.517 242.503 307.104C242.791 307.68 242.935 308.357 242.935 309.136V309.984H237.063C237.084 310.955 237.329 311.696 237.799 312.208C238.279 312.709 238.945 312.96 239.799 312.96C240.343 312.96 240.823 312.912 241.239 312.816C241.665 312.709 242.103 312.56 242.551 312.368V313.6C242.113 313.792 241.681 313.931 241.255 314.016C240.828 314.112 240.321 314.16 239.735 314.16C238.924 314.16 238.204 313.995 237.575 313.664C236.956 313.333 236.471 312.843 236.119 312.192C235.777 311.531 235.607 310.725 235.607 309.776C235.607 308.837 235.761 308.032 236.071 307.36C236.391 306.688 236.833 306.171 237.399 305.808C237.975 305.445 238.641 305.264 239.399 305.264ZM239.383 306.416C238.711 306.416 238.177 306.635 237.783 307.072C237.399 307.499 237.169 308.096 237.095 308.864H241.463C241.463 308.373 241.388 307.947 241.239 307.584C241.089 307.221 240.86 306.939 240.551 306.736C240.252 306.523 239.863 306.416 239.383 306.416ZM254.594 306.608H251.794V314H250.402V306.608H247.634V305.424H254.594V306.608ZM263.283 309.696C263.283 310.411 263.187 311.045 262.995 311.6C262.814 312.144 262.547 312.608 262.195 312.992C261.854 313.376 261.433 313.669 260.931 313.872C260.441 314.064 259.891 314.16 259.283 314.16C258.718 314.16 258.195 314.064 257.715 313.872C257.235 313.669 256.819 313.376 256.467 312.992C256.115 312.608 255.838 312.144 255.635 311.6C255.443 311.045 255.347 310.411 255.347 309.696C255.347 308.747 255.507 307.947 255.827 307.296C256.147 306.635 256.606 306.133 257.203 305.792C257.801 305.44 258.51 305.264 259.331 305.264C260.11 305.264 260.793 305.44 261.379 305.792C261.977 306.133 262.441 306.635 262.771 307.296C263.113 307.947 263.283 308.747 263.283 309.696ZM256.803 309.696C256.803 310.368 256.889 310.955 257.059 311.456C257.241 311.947 257.518 312.325 257.891 312.592C258.265 312.859 258.739 312.992 259.315 312.992C259.891 312.992 260.366 312.859 260.739 312.592C261.113 312.325 261.385 311.947 261.555 311.456C261.737 310.955 261.827 310.368 261.827 309.696C261.827 309.013 261.737 308.432 261.555 307.952C261.374 307.472 261.097 307.104 260.723 306.848C260.361 306.581 259.886 306.448 259.299 306.448C258.425 306.448 257.79 306.736 257.395 307.312C257.001 307.888 256.803 308.683 256.803 309.696ZM272.111 307.584C272.111 308.117 271.951 308.533 271.631 308.832C271.311 309.131 270.9 309.333 270.399 309.44V309.504C270.932 309.579 271.396 309.771 271.791 310.08C272.185 310.379 272.383 310.848 272.383 311.488C272.383 311.851 272.313 312.187 272.175 312.496C272.047 312.805 271.844 313.072 271.567 313.296C271.289 313.52 270.932 313.696 270.495 313.824C270.057 313.941 269.529 314 268.911 314H265.215V305.424H268.895C269.503 305.424 270.047 305.493 270.527 305.632C271.017 305.76 271.401 305.984 271.679 306.304C271.967 306.613 272.111 307.04 272.111 307.584ZM270.927 311.488C270.927 310.997 270.74 310.645 270.367 310.432C269.993 310.219 269.444 310.112 268.719 310.112H266.623V312.864H268.751C269.455 312.864 269.993 312.763 270.367 312.56C270.74 312.347 270.927 311.989 270.927 311.488ZM270.687 307.76C270.687 307.355 270.537 307.061 270.239 306.88C269.951 306.688 269.476 306.592 268.815 306.592H266.623V308.944H268.559C269.252 308.944 269.78 308.848 270.143 308.656C270.505 308.464 270.687 308.165 270.687 307.76ZM277.381 305.28C278.427 305.28 279.2 305.509 279.701 305.968C280.203 306.427 280.453 307.157 280.453 308.16V314H279.429L279.157 312.784H279.093C278.848 313.093 278.592 313.355 278.325 313.568C278.069 313.771 277.771 313.92 277.429 314.016C277.099 314.112 276.693 314.16 276.213 314.16C275.701 314.16 275.237 314.069 274.821 313.888C274.416 313.707 274.096 313.429 273.861 313.056C273.627 312.672 273.509 312.192 273.509 311.616C273.509 310.763 273.845 310.107 274.517 309.648C275.189 309.179 276.224 308.923 277.621 308.88L279.077 308.832V308.32C279.077 307.605 278.923 307.109 278.613 306.832C278.304 306.555 277.867 306.416 277.301 306.416C276.853 306.416 276.427 306.485 276.021 306.624C275.616 306.752 275.237 306.901 274.885 307.072L274.453 306.016C274.827 305.813 275.269 305.643 275.781 305.504C276.293 305.355 276.827 305.28 277.381 305.28ZM277.797 309.856C276.731 309.899 275.989 310.069 275.573 310.368C275.168 310.667 274.965 311.088 274.965 311.632C274.965 312.112 275.109 312.464 275.397 312.688C275.696 312.912 276.075 313.024 276.533 313.024C277.259 313.024 277.861 312.827 278.341 312.432C278.821 312.027 279.061 311.408 279.061 310.576V309.808L277.797 309.856ZM286.882 305.264C287.938 305.264 288.786 305.632 289.426 306.368C290.077 307.104 290.402 308.213 290.402 309.696C290.402 310.667 290.253 311.488 289.954 312.16C289.666 312.821 289.256 313.323 288.722 313.664C288.2 313.995 287.581 314.16 286.866 314.16C286.429 314.16 286.04 314.101 285.698 313.984C285.357 313.867 285.064 313.717 284.818 313.536C284.584 313.344 284.381 313.136 284.21 312.912H284.114C284.136 313.093 284.157 313.323 284.178 313.6C284.2 313.877 284.21 314.117 284.21 314.32V317.84H282.802V305.424H283.954L284.146 306.592H284.21C284.381 306.347 284.584 306.123 284.818 305.92C285.064 305.717 285.352 305.557 285.682 305.44C286.024 305.323 286.424 305.264 286.882 305.264ZM286.626 306.448C286.05 306.448 285.586 306.56 285.234 306.784C284.882 306.997 284.626 307.323 284.466 307.76C284.306 308.197 284.221 308.752 284.21 309.424V309.696C284.21 310.4 284.285 310.997 284.434 311.488C284.584 311.979 284.834 312.352 285.186 312.608C285.549 312.864 286.04 312.992 286.658 312.992C287.181 312.992 287.608 312.848 287.938 312.56C288.28 312.272 288.53 311.883 288.69 311.392C288.861 310.891 288.946 310.32 288.946 309.68C288.946 308.699 288.754 307.915 288.37 307.328C287.997 306.741 287.416 306.448 286.626 306.448ZM295.594 305.28C296.639 305.28 297.413 305.509 297.914 305.968C298.415 306.427 298.666 307.157 298.666 308.16V314H297.642L297.37 312.784H297.306C297.061 313.093 296.805 313.355 296.538 313.568C296.282 313.771 295.983 313.92 295.642 314.016C295.311 314.112 294.906 314.16 294.426 314.16C293.914 314.16 293.45 314.069 293.034 313.888C292.629 313.707 292.309 313.429 292.074 313.056C291.839 312.672 291.722 312.192 291.722 311.616C291.722 310.763 292.058 310.107 292.73 309.648C293.402 309.179 294.437 308.923 295.834 308.88L297.29 308.832V308.32C297.29 307.605 297.135 307.109 296.826 306.832C296.517 306.555 296.079 306.416 295.514 306.416C295.066 306.416 294.639 306.485 294.234 306.624C293.829 306.752 293.45 306.901 293.098 307.072L292.666 306.016C293.039 305.813 293.482 305.643 293.994 305.504C294.506 305.355 295.039 305.28 295.594 305.28ZM296.01 309.856C294.943 309.899 294.202 310.069 293.786 310.368C293.381 310.667 293.178 311.088 293.178 311.632C293.178 312.112 293.322 312.464 293.61 312.688C293.909 312.912 294.287 313.024 294.746 313.024C295.471 313.024 296.074 312.827 296.554 312.432C297.034 312.027 297.274 311.408 297.274 310.576V309.808L296.01 309.856ZM312.119 305.424V314H310.711V306.624H306.279V314H304.871V305.424H312.119ZM322.011 309.696C322.011 310.411 321.915 311.045 321.723 311.6C321.542 312.144 321.275 312.608 320.923 312.992C320.582 313.376 320.161 313.669 319.659 313.872C319.169 314.064 318.619 314.16 318.011 314.16C317.446 314.16 316.923 314.064 316.443 313.872C315.963 313.669 315.547 313.376 315.195 312.992C314.843 312.608 314.566 312.144 314.363 311.6C314.171 311.045 314.075 310.411 314.075 309.696C314.075 308.747 314.235 307.947 314.555 307.296C314.875 306.635 315.334 306.133 315.931 305.792C316.529 305.44 317.238 305.264 318.059 305.264C318.838 305.264 319.521 305.44 320.107 305.792C320.705 306.133 321.169 306.635 321.499 307.296C321.841 307.947 322.011 308.747 322.011 309.696ZM315.531 309.696C315.531 310.368 315.617 310.955 315.787 311.456C315.969 311.947 316.246 312.325 316.619 312.592C316.993 312.859 317.467 312.992 318.043 312.992C318.619 312.992 319.094 312.859 319.467 312.592C319.841 312.325 320.113 311.947 320.283 311.456C320.465 310.955 320.555 310.368 320.555 309.696C320.555 309.013 320.465 308.432 320.283 307.952C320.102 307.472 319.825 307.104 319.451 306.848C319.089 306.581 318.614 306.448 318.027 306.448C317.153 306.448 316.518 306.736 316.123 307.312C315.729 307.888 315.531 308.683 315.531 309.696ZM330.551 307.44V308.976H323.975V307.44H330.551ZM339.37 305.424V312.816H340.618V316.976H339.258V314H333.29V316.976H331.946V312.816H332.634C333.125 312.133 333.53 311.392 333.85 310.592C334.181 309.781 334.426 308.939 334.586 308.064C334.757 307.179 334.848 306.299 334.858 305.424H339.37ZM336.106 306.528C336.064 307.253 335.952 308.005 335.77 308.784C335.589 309.552 335.354 310.288 335.066 310.992C334.789 311.696 334.464 312.304 334.09 312.816H338.01V306.528H336.106ZM340.655 305.424H342.159L344.015 310.304C344.122 310.592 344.218 310.869 344.303 311.136C344.399 311.403 344.484 311.664 344.559 311.92C344.634 312.165 344.692 312.405 344.735 312.64H344.799C344.863 312.373 344.964 312.027 345.103 311.6C345.242 311.163 345.386 310.725 345.535 310.288L347.279 305.424H348.799L345.103 315.184C344.9 315.717 344.66 316.181 344.383 316.576C344.116 316.981 343.786 317.291 343.391 317.504C343.007 317.728 342.538 317.84 341.983 317.84C341.727 317.84 341.503 317.824 341.311 317.792C341.119 317.771 340.954 317.744 340.815 317.712V316.592C340.932 316.613 341.071 316.635 341.231 316.656C341.402 316.677 341.578 316.688 341.759 316.688C342.09 316.688 342.372 316.624 342.607 316.496C342.852 316.379 343.06 316.203 343.231 315.968C343.402 315.744 343.546 315.477 343.663 315.168L344.111 314.032L340.655 305.424ZM355.087 305.424V306.608H351.263V314H349.855V305.424H355.087ZM363.777 309.696C363.777 310.411 363.681 311.045 363.489 311.6C363.308 312.144 363.041 312.608 362.689 312.992C362.348 313.376 361.926 313.669 361.425 313.872C360.934 314.064 360.385 314.16 359.777 314.16C359.212 314.16 358.689 314.064 358.209 313.872C357.729 313.669 357.313 313.376 356.961 312.992C356.609 312.608 356.332 312.144 356.129 311.6C355.937 311.045 355.841 310.411 355.841 309.696C355.841 308.747 356.001 307.947 356.321 307.296C356.641 306.635 357.1 306.133 357.697 305.792C358.294 305.44 359.004 305.264 359.825 305.264C360.604 305.264 361.286 305.44 361.873 305.792C362.47 306.133 362.934 306.635 363.265 307.296C363.606 307.947 363.777 308.747 363.777 309.696ZM357.297 309.696C357.297 310.368 357.382 310.955 357.553 311.456C357.734 311.947 358.012 312.325 358.385 312.592C358.758 312.859 359.233 312.992 359.809 312.992C360.385 312.992 360.86 312.859 361.233 312.592C361.606 312.325 361.878 311.947 362.049 311.456C362.23 310.955 362.321 310.368 362.321 309.696C362.321 309.013 362.23 308.432 362.049 307.952C361.868 307.472 361.59 307.104 361.217 306.848C360.854 306.581 360.38 306.448 359.793 306.448C358.918 306.448 358.284 306.736 357.889 307.312C357.494 307.888 357.297 308.683 357.297 309.696ZM374.908 305.424V314H373.644V308.528C373.644 308.304 373.65 308.069 373.66 307.824C373.682 307.579 373.703 307.339 373.724 307.104H373.676L370.876 314H369.692L366.972 307.104H366.924C366.946 307.339 366.956 307.579 366.956 307.824C366.967 308.069 366.972 308.32 366.972 308.576V314H365.708V305.424H367.58L370.284 312.32L373.036 305.424H374.908ZM376.002 305.424H377.506L379.362 310.304C379.469 310.592 379.565 310.869 379.65 311.136C379.746 311.403 379.831 311.664 379.906 311.92C379.981 312.165 380.039 312.405 380.082 312.64H380.146C380.21 312.373 380.311 312.027 380.45 311.6C380.589 311.163 380.733 310.725 380.882 310.288L382.626 305.424H384.146L380.45 315.184C380.247 315.717 380.007 316.181 379.73 316.576C379.463 316.981 379.133 317.291 378.738 317.504C378.354 317.728 377.885 317.84 377.33 317.84C377.074 317.84 376.85 317.824 376.658 317.792C376.466 317.771 376.301 317.744 376.162 317.712V316.592C376.279 316.613 376.418 316.635 376.578 316.656C376.749 316.677 376.925 316.688 377.106 316.688C377.437 316.688 377.719 316.624 377.954 316.496C378.199 316.379 378.407 316.203 378.578 315.968C378.749 315.744 378.893 315.477 379.01 315.168L379.458 314.032L376.002 305.424ZM390.386 310.656C390.386 310.752 390.381 310.891 390.37 311.072C390.37 311.243 390.365 311.429 390.354 311.632C390.344 311.824 390.333 312.011 390.322 312.192C390.312 312.363 390.301 312.501 390.29 312.608L394.882 305.424H396.61V314H395.298V308.944C395.298 308.773 395.298 308.549 395.298 308.272C395.309 307.995 395.32 307.723 395.33 307.456C395.341 307.179 395.352 306.971 395.362 306.832L390.802 314H389.058V305.424H390.386V310.656ZM405.568 314H404.144V306.592H401.616C401.509 307.947 401.376 309.104 401.216 310.064C401.056 311.013 400.853 311.787 400.608 312.384C400.362 312.981 400.069 313.419 399.728 313.696C399.386 313.973 398.986 314.112 398.528 314.112C398.389 314.112 398.25 314.101 398.112 314.08C397.984 314.069 397.877 314.043 397.792 314V312.944C397.856 312.965 397.925 312.981 398 312.992C398.074 313.003 398.149 313.008 398.224 313.008C398.458 313.008 398.672 312.912 398.864 312.72C399.056 312.528 399.226 312.235 399.376 311.84C399.536 311.445 399.68 310.949 399.808 310.352C399.936 309.744 400.048 309.029 400.144 308.208C400.24 307.387 400.325 306.459 400.4 305.424H405.568V314ZM409.318 310.656C409.318 310.752 409.312 310.891 409.302 311.072C409.302 311.243 409.296 311.429 409.286 311.632C409.275 311.824 409.264 312.011 409.254 312.192C409.243 312.363 409.232 312.501 409.222 312.608L413.814 305.424H415.542V314H414.23V308.944C414.23 308.773 414.23 308.549 414.23 308.272C414.24 307.995 414.251 307.723 414.262 307.456C414.272 307.179 414.283 306.971 414.294 306.832L409.734 314H407.99V305.424H409.318V310.656ZM144.356 335.16C143.599 335.16 142.922 335.005 142.324 334.696C141.738 334.387 141.274 333.907 140.932 333.256C140.602 332.605 140.436 331.773 140.436 330.76C140.436 329.704 140.612 328.845 140.964 328.184C141.316 327.523 141.791 327.037 142.388 326.728C142.996 326.419 143.684 326.264 144.452 326.264C144.89 326.264 145.311 326.312 145.716 326.408C146.122 326.493 146.452 326.6 146.708 326.728L146.276 327.896C146.02 327.8 145.722 327.709 145.38 327.624C145.039 327.539 144.719 327.496 144.42 327.496C143.844 327.496 143.37 327.619 142.996 327.864C142.623 328.109 142.346 328.472 142.164 328.952C141.983 329.432 141.892 330.029 141.892 330.744C141.892 331.427 141.983 332.008 142.164 332.488C142.346 332.968 142.618 333.331 142.98 333.576C143.343 333.821 143.796 333.944 144.34 333.944C144.81 333.944 145.22 333.896 145.572 333.8C145.935 333.704 146.266 333.587 146.564 333.448V334.696C146.276 334.845 145.956 334.957 145.604 335.032C145.263 335.117 144.847 335.16 144.356 335.16ZM155.76 330.696C155.76 331.411 155.664 332.045 155.472 332.6C155.29 333.144 155.024 333.608 154.672 333.992C154.33 334.376 153.909 334.669 153.408 334.872C152.917 335.064 152.368 335.16 151.76 335.16C151.194 335.16 150.672 335.064 150.192 334.872C149.712 334.669 149.296 334.376 148.944 333.992C148.592 333.608 148.314 333.144 148.112 332.6C147.92 332.045 147.824 331.411 147.824 330.696C147.824 329.747 147.984 328.947 148.304 328.296C148.624 327.635 149.082 327.133 149.68 326.792C150.277 326.44 150.986 326.264 151.808 326.264C152.586 326.264 153.269 326.44 153.856 326.792C154.453 327.133 154.917 327.635 155.248 328.296C155.589 328.947 155.76 329.747 155.76 330.696ZM149.28 330.696C149.28 331.368 149.365 331.955 149.536 332.456C149.717 332.947 149.994 333.325 150.368 333.592C150.741 333.859 151.216 333.992 151.792 333.992C152.368 333.992 152.842 333.859 153.216 333.592C153.589 333.325 153.861 332.947 154.032 332.456C154.213 331.955 154.304 331.368 154.304 330.696C154.304 330.013 154.213 329.432 154.032 328.952C153.85 328.472 153.573 328.104 153.2 327.848C152.837 327.581 152.362 327.448 151.776 327.448C150.901 327.448 150.266 327.736 149.872 328.312C149.477 328.888 149.28 329.683 149.28 330.696ZM162.763 326.424H164.299L160.635 330.552L164.603 335H162.971L159.099 330.648V335H157.691V326.424H159.099V330.584L162.763 326.424ZM169.94 326.264C170.996 326.264 171.844 326.632 172.484 327.368C173.135 328.104 173.46 329.213 173.46 330.696C173.46 331.667 173.311 332.488 173.012 333.16C172.724 333.821 172.313 334.323 171.78 334.664C171.257 334.995 170.639 335.16 169.924 335.16C169.487 335.16 169.097 335.101 168.756 334.984C168.415 334.867 168.121 334.717 167.876 334.536C167.641 334.344 167.439 334.136 167.268 333.912H167.172C167.193 334.093 167.215 334.323 167.236 334.6C167.257 334.877 167.268 335.117 167.268 335.32V338.84H165.86V326.424H167.012L167.204 327.592H167.268C167.439 327.347 167.641 327.123 167.876 326.92C168.121 326.717 168.409 326.557 168.74 326.44C169.081 326.323 169.481 326.264 169.94 326.264ZM169.684 327.448C169.108 327.448 168.644 327.56 168.292 327.784C167.94 327.997 167.684 328.323 167.524 328.76C167.364 329.197 167.279 329.752 167.268 330.424V330.696C167.268 331.4 167.343 331.997 167.492 332.488C167.641 332.979 167.892 333.352 168.244 333.608C168.607 333.864 169.097 333.992 169.716 333.992C170.239 333.992 170.665 333.848 170.996 333.56C171.337 333.272 171.588 332.883 171.748 332.392C171.919 331.891 172.004 331.32 172.004 330.68C172.004 329.699 171.812 328.915 171.428 328.328C171.055 327.741 170.473 327.448 169.684 327.448ZM178.652 326.28C179.697 326.28 180.47 326.509 180.972 326.968C181.473 327.427 181.724 328.157 181.724 329.16V335H180.7L180.428 333.784H180.364C180.118 334.093 179.862 334.355 179.596 334.568C179.34 334.771 179.041 334.92 178.7 335.016C178.369 335.112 177.964 335.16 177.484 335.16C176.972 335.16 176.508 335.069 176.092 334.888C175.686 334.707 175.366 334.429 175.132 334.056C174.897 333.672 174.78 333.192 174.78 332.616C174.78 331.763 175.116 331.107 175.788 330.648C176.46 330.179 177.494 329.923 178.892 329.88L180.348 329.832V329.32C180.348 328.605 180.193 328.109 179.884 327.832C179.574 327.555 179.137 327.416 178.572 327.416C178.124 327.416 177.697 327.485 177.292 327.624C176.886 327.752 176.508 327.901 176.156 328.072L175.724 327.016C176.097 326.813 176.54 326.643 177.052 326.504C177.564 326.355 178.097 326.28 178.652 326.28ZM179.068 330.856C178.001 330.899 177.26 331.069 176.844 331.368C176.438 331.667 176.236 332.088 176.236 332.632C176.236 333.112 176.38 333.464 176.668 333.688C176.966 333.912 177.345 334.024 177.804 334.024C178.529 334.024 179.132 333.827 179.612 333.432C180.092 333.027 180.332 332.408 180.332 331.576V330.808L179.068 330.856ZM189.992 327.608H187.192V335H185.8V327.608H183.032V326.424H189.992V327.608ZM192.71 331.656C192.71 331.752 192.705 331.891 192.694 332.072C192.694 332.243 192.689 332.429 192.678 332.632C192.667 332.824 192.657 333.011 192.646 333.192C192.635 333.363 192.625 333.501 192.614 333.608L197.206 326.424H198.934V335H197.622V329.944C197.622 329.773 197.622 329.549 197.622 329.272C197.633 328.995 197.643 328.723 197.654 328.456C197.665 328.179 197.675 327.971 197.686 327.832L193.126 335H191.382V326.424H192.71V331.656ZM207.283 327.608H204.483V335H203.091V327.608H200.323V326.424H207.283V327.608ZM212.625 329.944C213.371 329.944 213.99 330.035 214.481 330.216C214.971 330.397 215.339 330.669 215.585 331.032C215.841 331.384 215.969 331.832 215.969 332.376C215.969 332.909 215.846 333.373 215.601 333.768C215.366 334.163 214.998 334.467 214.497 334.68C213.995 334.893 213.35 335 212.561 335H208.673V326.424H210.081V329.944H212.625ZM214.561 332.456C214.561 331.933 214.374 331.581 214.001 331.4C213.638 331.208 213.126 331.112 212.465 331.112H210.081V333.864H212.497C213.094 333.864 213.585 333.757 213.969 333.544C214.363 333.331 214.561 332.968 214.561 332.456ZM223.985 326.264C224.635 326.264 225.201 326.355 225.681 326.536C226.161 326.707 226.534 326.963 226.801 327.304C227.067 327.635 227.201 328.04 227.201 328.52C227.201 329.043 227.057 329.459 226.769 329.768C226.481 330.067 226.086 330.285 225.585 330.424V330.488C225.926 330.584 226.241 330.717 226.529 330.888C226.817 331.059 227.046 331.283 227.217 331.56C227.398 331.837 227.489 332.195 227.489 332.632C227.489 333.101 227.355 333.528 227.089 333.912C226.833 334.296 226.433 334.6 225.889 334.824C225.355 335.048 224.667 335.16 223.825 335.16C223.419 335.16 223.03 335.139 222.657 335.096C222.294 335.053 221.963 334.989 221.665 334.904C221.377 334.819 221.121 334.717 220.897 334.6V333.336C221.259 333.507 221.686 333.661 222.177 333.8C222.678 333.939 223.222 334.008 223.809 334.008C224.235 334.008 224.619 333.96 224.961 333.864C225.313 333.768 225.59 333.619 225.793 333.416C225.995 333.203 226.097 332.915 226.097 332.552C226.097 332.221 226.006 331.955 225.825 331.752C225.643 331.539 225.371 331.379 225.009 331.272C224.657 331.165 224.203 331.112 223.649 331.112H222.497V329.96H223.425C224.161 329.96 224.747 329.864 225.185 329.672C225.633 329.469 225.857 329.128 225.857 328.648C225.857 328.243 225.686 327.939 225.345 327.736C225.014 327.533 224.534 327.432 223.905 327.432C223.435 327.432 223.019 327.48 222.657 327.576C222.305 327.661 221.915 327.795 221.489 327.976L220.993 326.856C221.451 326.653 221.931 326.504 222.433 326.408C222.934 326.312 223.451 326.264 223.985 326.264ZM232.52 326.28C233.566 326.28 234.339 326.509 234.84 326.968C235.342 327.427 235.592 328.157 235.592 329.16V335H234.568L234.296 333.784H234.232C233.987 334.093 233.731 334.355 233.464 334.568C233.208 334.771 232.91 334.92 232.568 335.016C232.238 335.112 231.832 335.16 231.352 335.16C230.84 335.16 230.376 335.069 229.96 334.888C229.555 334.707 229.235 334.429 229 334.056C228.766 333.672 228.648 333.192 228.648 332.616C228.648 331.763 228.984 331.107 229.656 330.648C230.328 330.179 231.363 329.923 232.76 329.88L234.216 329.832V329.32C234.216 328.605 234.062 328.109 233.752 327.832C233.443 327.555 233.006 327.416 232.44 327.416C231.992 327.416 231.566 327.485 231.16 327.624C230.755 327.752 230.376 327.901 230.024 328.072L229.592 327.016C229.966 326.813 230.408 326.643 230.92 326.504C231.432 326.355 231.966 326.28 232.52 326.28ZM232.936 330.856C231.87 330.899 231.128 331.069 230.712 331.368C230.307 331.667 230.104 332.088 230.104 332.632C230.104 333.112 230.248 333.464 230.536 333.688C230.835 333.912 231.214 334.024 231.672 334.024C232.398 334.024 233 333.827 233.48 333.432C233.96 333.027 234.2 332.408 234.2 331.576V330.808L232.936 330.856ZM245.189 326.424V335H243.781V327.624H239.349V335H237.941V326.424H245.189ZM251.706 326.264C252.762 326.264 253.61 326.632 254.25 327.368C254.9 328.104 255.226 329.213 255.226 330.696C255.226 331.667 255.076 332.488 254.778 333.16C254.49 333.821 254.079 334.323 253.546 334.664C253.023 334.995 252.404 335.16 251.69 335.16C251.252 335.16 250.863 335.101 250.522 334.984C250.18 334.867 249.887 334.717 249.642 334.536C249.407 334.344 249.204 334.136 249.034 333.912H248.938C248.959 334.093 248.98 334.323 249.002 334.6C249.023 334.877 249.034 335.117 249.034 335.32V338.84H247.626V326.424H248.778L248.97 327.592H249.034C249.204 327.347 249.407 327.123 249.642 326.92C249.887 326.717 250.175 326.557 250.506 326.44C250.847 326.323 251.247 326.264 251.706 326.264ZM251.45 327.448C250.874 327.448 250.41 327.56 250.058 327.784C249.706 327.997 249.45 328.323 249.29 328.76C249.13 329.197 249.044 329.752 249.034 330.424V330.696C249.034 331.4 249.108 331.997 249.258 332.488C249.407 332.979 249.658 333.352 250.01 333.608C250.372 333.864 250.863 333.992 251.482 333.992C252.004 333.992 252.431 333.848 252.762 333.56C253.103 333.272 253.354 332.883 253.514 332.392C253.684 331.891 253.77 331.32 253.77 330.68C253.77 329.699 253.578 328.915 253.194 328.328C252.82 327.741 252.239 327.448 251.45 327.448ZM264.625 330.696C264.625 331.411 264.529 332.045 264.337 332.6C264.156 333.144 263.889 333.608 263.537 333.992C263.196 334.376 262.775 334.669 262.273 334.872C261.783 335.064 261.233 335.16 260.625 335.16C260.06 335.16 259.537 335.064 259.057 334.872C258.577 334.669 258.161 334.376 257.809 333.992C257.457 333.608 257.18 333.144 256.977 332.6C256.785 332.045 256.689 331.411 256.689 330.696C256.689 329.747 256.849 328.947 257.169 328.296C257.489 327.635 257.948 327.133 258.545 326.792C259.143 326.44 259.852 326.264 260.673 326.264C261.452 326.264 262.135 326.44 262.721 326.792C263.319 327.133 263.783 327.635 264.113 328.296C264.455 328.947 264.625 329.747 264.625 330.696ZM258.145 330.696C258.145 331.368 258.231 331.955 258.401 332.456C258.583 332.947 258.86 333.325 259.233 333.592C259.607 333.859 260.081 333.992 260.657 333.992C261.233 333.992 261.708 333.859 262.081 333.592C262.455 333.325 262.727 332.947 262.897 332.456C263.079 331.955 263.169 331.368 263.169 330.696C263.169 330.013 263.079 329.432 262.897 328.952C262.716 328.472 262.439 328.104 262.065 327.848C261.703 327.581 261.228 327.448 260.641 327.448C259.767 327.448 259.132 327.736 258.737 328.312C258.343 328.888 258.145 329.683 258.145 330.696ZM269.997 335.16C269.24 335.16 268.562 335.005 267.965 334.696C267.378 334.387 266.914 333.907 266.573 333.256C266.242 332.605 266.077 331.773 266.077 330.76C266.077 329.704 266.253 328.845 266.605 328.184C266.957 327.523 267.432 327.037 268.029 326.728C268.637 326.419 269.325 326.264 270.093 326.264C270.53 326.264 270.952 326.312 271.357 326.408C271.762 326.493 272.093 326.6 272.349 326.728L271.917 327.896C271.661 327.8 271.362 327.709 271.021 327.624C270.68 327.539 270.36 327.496 270.061 327.496C269.485 327.496 269.01 327.619 268.637 327.864C268.264 328.109 267.986 328.472 267.805 328.952C267.624 329.432 267.533 330.029 267.533 330.744C267.533 331.427 267.624 332.008 267.805 332.488C267.986 332.968 268.258 333.331 268.621 333.576C268.984 333.821 269.437 333.944 269.981 333.944C270.45 333.944 270.861 333.896 271.213 333.8C271.576 333.704 271.906 333.587 272.205 333.448V334.696C271.917 334.845 271.597 334.957 271.245 335.032C270.904 335.117 270.488 335.16 269.997 335.16ZM274.52 335.112C274.19 335.112 273.912 335 273.688 334.776C273.464 334.552 273.352 334.275 273.352 333.944C273.352 333.613 273.464 333.336 273.688 333.112C273.912 332.888 274.19 332.776 274.52 332.776C274.84 332.776 275.112 332.888 275.336 333.112C275.56 333.336 275.672 333.613 275.672 333.944C275.672 334.275 275.56 334.552 275.336 334.776C275.112 335 274.84 335.112 274.52 335.112Z" fill="#6B6B6B"/>
</svg>
