<svg width="280" height="313" viewBox="0 0 280 313" fill="none" xmlns="http://www.w3.org/2000/svg">
    <path d="M188 64C188 57.6965 186.758 51.4548 184.346 45.6312C181.934 39.8076 178.398 34.5161 173.941 30.0589C169.484 25.6017 164.192 22.066 158.369 19.6538C152.545 17.2416 146.303 16 140 16C133.697 16 127.455 17.2416 121.631 19.6538C115.808 22.066 110.516 25.6017 106.059 30.0589C101.602 34.5161 98.066 39.8076 95.6538 45.6312C93.2416 51.4548 92 57.6965 92 64C92 76.7304 97.0571 88.9394 106.059 97.9411C115.061 106.943 127.27 112 140 112C152.73 112 164.939 106.943 173.941 97.9411C182.943 88.9394 188 76.7304 188 64ZM100 64C100 53.3913 104.214 43.2172 111.716 35.7157C119.217 28.2143 129.391 24 140 24C150.609 24 160.783 28.2143 168.284 35.7157C175.786 43.2172 180 53.3913 180 64C180 74.6087 175.786 84.7828 168.284 92.2843C160.783 99.7857 150.609 104 140 104C129.391 104 119.217 99.7857 111.716 92.2843C104.214 84.7828 100 74.6087 100 64ZM132 54C132 54.7879 131.845 55.5681 131.543 56.2961C131.242 57.0241 130.8 57.6855 130.243 58.2426C129.685 58.7998 129.024 59.2417 128.296 59.5433C127.568 59.8448 126.788 60 126 60C125.212 60 124.432 59.8448 123.704 59.5433C122.976 59.2417 122.315 58.7998 121.757 58.2426C121.2 57.6855 120.758 57.0241 120.457 56.2961C120.155 55.5681 120 54.7879 120 54C120 52.4087 120.632 50.8826 121.757 49.7574C122.883 48.6321 124.409 48 126 48C127.591 48 129.117 48.6321 130.243 49.7574C131.368 50.8826 132 52.4087 132 54ZM160 54C160 55.5913 159.368 57.1174 158.243 58.2426C157.117 59.3679 155.591 60 154 60C152.409 60 150.883 59.3679 149.757 58.2426C148.632 57.1174 148 55.5913 148 54C148 52.4087 148.632 50.8826 149.757 49.7574C150.883 48.6321 152.409 48 154 48C155.591 48 157.117 48.6321 158.243 49.7574C159.368 50.8826 160 52.4087 160 54ZM125.056 86.576C132.456 77.808 147.536 77.808 154.944 86.576C155.275 87.0013 155.688 87.3554 156.158 87.6171C156.629 87.8788 157.148 88.0428 157.684 88.0992C158.219 88.1555 158.761 88.1031 159.276 87.9451C159.791 87.787 160.268 87.5266 160.68 87.1795C161.092 86.8324 161.429 86.4056 161.672 85.9249C161.915 85.4441 162.058 84.9193 162.094 84.3818C162.129 83.8443 162.055 83.3053 161.877 82.797C161.698 82.2888 161.419 81.8218 161.056 81.424C150.456 68.864 129.536 68.864 118.944 81.424C118.581 81.8218 118.302 82.2888 118.123 82.797C117.945 83.3053 117.871 83.8443 117.906 84.3818C117.942 84.9193 118.085 85.4441 118.328 85.9249C118.571 86.4056 118.908 86.8324 119.32 87.1795C119.732 87.5266 120.209 87.787 120.724 87.9451C121.239 88.1031 121.781 88.1555 122.316 88.0992C122.852 88.0428 123.371 87.8788 123.842 87.6171C124.312 87.3554 124.725 87.0013 125.056 86.576Z" fill="#0CE3CB"/>
    <path d="M52.3372 151V133.545H59.019C60.2804 133.545 61.3287 133.744 62.1639 134.142C63.0048 134.534 63.6327 135.071 64.0474 135.753C64.4679 136.435 64.6781 137.207 64.6781 138.071C64.6781 138.781 64.5418 139.389 64.269 139.895C63.9963 140.395 63.6298 140.801 63.1696 141.114C62.7094 141.426 62.1952 141.651 61.627 141.787V141.957C62.2463 141.991 62.8401 142.182 63.4082 142.528C63.9821 142.869 64.4509 143.352 64.8145 143.977C65.1781 144.602 65.3599 145.358 65.3599 146.244C65.3599 147.148 65.1412 147.96 64.7037 148.682C64.2662 149.398 63.6071 149.963 62.7264 150.378C61.8457 150.793 60.7378 151 59.4026 151H52.3372ZM55.4991 148.358H58.8997C60.0474 148.358 60.8741 148.139 61.3798 147.702C61.8912 147.259 62.1469 146.69 62.1469 145.997C62.1469 145.48 62.019 145.014 61.7634 144.599C61.5077 144.179 61.144 143.849 60.6724 143.611C60.2009 143.366 59.6384 143.244 58.9849 143.244H55.4991V148.358ZM55.4991 140.969H58.627C59.1724 140.969 59.6639 140.869 60.1014 140.67C60.5389 140.466 60.8827 140.179 61.1327 139.81C61.3884 139.435 61.5162 138.991 61.5162 138.48C61.5162 137.804 61.2776 137.247 60.8003 136.81C60.3287 136.372 59.627 136.153 58.6952 136.153H55.4991V140.969ZM73.3274 151V137.909H76.4126V143.193H77.5376L81.4751 137.909H85.1911L80.3416 144.335L85.2422 151H81.5092L77.9212 146.065H76.4126V151H73.3274ZM91.8626 151.256C90.5842 151.256 89.4763 150.974 88.5388 150.412C87.6013 149.849 86.874 149.062 86.357 148.051C85.8456 147.04 85.5899 145.858 85.5899 144.506C85.5899 143.153 85.8456 141.969 86.357 140.952C86.874 139.935 87.6013 139.145 88.5388 138.582C89.4763 138.02 90.5842 137.739 91.8626 137.739C93.141 137.739 94.249 138.02 95.1865 138.582C96.124 139.145 96.8484 139.935 97.3598 140.952C97.8768 141.969 98.1354 143.153 98.1354 144.506C98.1354 145.858 97.8768 147.04 97.3598 148.051C96.8484 149.062 96.124 149.849 95.1865 150.412C94.249 150.974 93.141 151.256 91.8626 151.256ZM91.8797 148.784C92.5729 148.784 93.1524 148.594 93.6183 148.213C94.0842 147.827 94.4308 147.31 94.6581 146.662C94.891 146.014 95.0075 145.293 95.0075 144.497C95.0075 143.696 94.891 142.972 94.6581 142.324C94.4308 141.67 94.0842 141.151 93.6183 140.764C93.1524 140.378 92.5729 140.185 91.8797 140.185C91.1695 140.185 90.5785 140.378 90.107 140.764C89.641 141.151 89.2916 141.67 89.0587 142.324C88.8314 142.972 88.7178 143.696 88.7178 144.497C88.7178 145.293 88.8314 146.014 89.0587 146.662C89.2916 147.31 89.641 147.827 90.107 148.213C90.5785 148.594 91.1695 148.784 91.8797 148.784ZM100.454 155.909V137.909H103.488V140.074H103.667C103.826 139.756 104.051 139.418 104.34 139.06C104.63 138.696 105.022 138.386 105.516 138.131C106.011 137.869 106.641 137.739 107.409 137.739C108.42 137.739 109.332 137.997 110.144 138.514C110.962 139.026 111.61 139.784 112.087 140.79C112.57 141.79 112.812 143.017 112.812 144.472C112.812 145.909 112.576 147.131 112.105 148.136C111.633 149.142 110.991 149.909 110.178 150.438C109.366 150.966 108.445 151.23 107.417 151.23C106.667 151.23 106.045 151.105 105.551 150.855C105.056 150.605 104.659 150.304 104.357 149.952C104.062 149.594 103.832 149.256 103.667 148.938H103.539V155.909H100.454ZM103.48 144.455C103.48 145.301 103.599 146.043 103.837 146.679C104.082 147.315 104.431 147.812 104.886 148.17C105.346 148.523 105.903 148.699 106.556 148.699C107.238 148.699 107.809 148.517 108.269 148.153C108.73 147.784 109.076 147.281 109.309 146.645C109.548 146.003 109.667 145.273 109.667 144.455C109.667 143.642 109.551 142.92 109.318 142.29C109.085 141.659 108.738 141.165 108.278 140.807C107.818 140.449 107.244 140.27 106.556 140.27C105.897 140.27 105.337 140.443 104.877 140.79C104.417 141.136 104.068 141.622 103.829 142.247C103.596 142.872 103.48 143.608 103.48 144.455ZM114.43 147.412H117.489C117.518 147.901 117.736 148.278 118.145 148.545C118.555 148.812 119.086 148.946 119.739 148.946C120.404 148.946 120.964 148.801 121.418 148.511C121.878 148.216 122.109 147.77 122.109 147.173C122.109 146.821 122.02 146.511 121.844 146.244C121.668 145.972 121.421 145.761 121.103 145.614C120.785 145.466 120.41 145.392 119.978 145.392H117.975V143.202H119.978C120.62 143.202 121.106 143.054 121.435 142.759C121.77 142.463 121.938 142.091 121.938 141.642C121.938 141.159 121.762 140.767 121.41 140.466C121.063 140.165 120.583 140.014 119.969 140.014C119.356 140.014 118.844 140.153 118.435 140.432C118.032 140.71 117.822 141.068 117.805 141.506H114.762C114.773 140.744 115.001 140.082 115.444 139.52C115.893 138.957 116.495 138.52 117.251 138.207C118.012 137.895 118.87 137.739 119.824 137.739C120.847 137.739 121.731 137.892 122.475 138.199C123.219 138.506 123.793 138.935 124.197 139.486C124.6 140.031 124.802 140.673 124.802 141.412C124.802 142.122 124.58 142.71 124.137 143.176C123.694 143.636 123.097 143.966 122.347 144.165V144.301C122.864 144.33 123.33 144.477 123.745 144.744C124.16 145.006 124.489 145.361 124.734 145.81C124.978 146.259 125.1 146.778 125.1 147.369C125.1 148.17 124.87 148.864 124.41 149.449C123.949 150.028 123.316 150.474 122.509 150.787C121.708 151.099 120.79 151.256 119.756 151.256C118.751 151.256 117.85 151.105 117.055 150.804C116.265 150.497 115.637 150.057 115.171 149.483C114.705 148.909 114.458 148.219 114.43 147.412ZM130.203 146.824L135.445 137.909H138.615V151H135.632V142.077L130.408 151H127.229V137.909H130.203V146.824ZM150.475 143.176V145.707H143.504V143.176H150.475ZM144.458 137.909V151H141.484V137.909H144.458ZM152.495 137.909V151H149.529V137.909H152.495ZM161.112 151.256C159.799 151.256 158.666 150.983 157.711 150.438C156.762 149.886 156.032 149.108 155.521 148.102C155.01 147.091 154.754 145.901 154.754 144.531C154.754 143.185 155.01 142.003 155.521 140.986C156.038 139.963 156.76 139.168 157.686 138.599C158.612 138.026 159.7 137.739 160.95 137.739C161.757 137.739 162.518 137.869 163.234 138.131C163.956 138.386 164.592 138.784 165.143 139.324C165.7 139.864 166.137 140.551 166.456 141.386C166.774 142.216 166.933 143.205 166.933 144.352V145.298H156.203V143.219H163.976C163.97 142.628 163.842 142.102 163.592 141.642C163.342 141.176 162.993 140.81 162.544 140.543C162.101 140.276 161.584 140.142 160.993 140.142C160.362 140.142 159.808 140.295 159.331 140.602C158.853 140.903 158.481 141.301 158.214 141.795C157.953 142.284 157.819 142.821 157.814 143.406V145.222C157.814 145.983 157.953 146.636 158.231 147.182C158.51 147.722 158.899 148.136 159.399 148.426C159.899 148.71 160.484 148.852 161.155 148.852C161.603 148.852 162.01 148.79 162.373 148.665C162.737 148.534 163.052 148.344 163.319 148.094C163.586 147.844 163.788 147.534 163.924 147.165L166.805 147.489C166.623 148.25 166.277 148.915 165.765 149.483C165.26 150.045 164.612 150.483 163.822 150.795C163.032 151.102 162.129 151.256 161.112 151.256ZM174.896 151V137.909H185.95V151H182.976V140.44H177.845V151H174.896ZM194.533 151.256C193.255 151.256 192.147 150.974 191.209 150.412C190.272 149.849 189.544 149.062 189.027 148.051C188.516 147.04 188.26 145.858 188.26 144.506C188.26 143.153 188.516 141.969 189.027 140.952C189.544 139.935 190.272 139.145 191.209 138.582C192.147 138.02 193.255 137.739 194.533 137.739C195.811 137.739 196.919 138.02 197.857 138.582C198.794 139.145 199.519 139.935 200.03 140.952C200.547 141.969 200.806 143.153 200.806 144.506C200.806 145.858 200.547 147.04 200.03 148.051C199.519 149.062 198.794 149.849 197.857 150.412C196.919 150.974 195.811 151.256 194.533 151.256ZM194.55 148.784C195.243 148.784 195.823 148.594 196.289 148.213C196.755 147.827 197.101 147.31 197.328 146.662C197.561 146.014 197.678 145.293 197.678 144.497C197.678 143.696 197.561 142.972 197.328 142.324C197.101 141.67 196.755 141.151 196.289 140.764C195.823 140.378 195.243 140.185 194.55 140.185C193.84 140.185 193.249 140.378 192.777 140.764C192.311 141.151 191.962 141.67 191.729 142.324C191.502 142.972 191.388 143.696 191.388 144.497C191.388 145.293 191.502 146.014 191.729 146.662C191.962 147.31 192.311 147.827 192.777 148.213C193.249 148.594 193.84 148.784 194.55 148.784ZM203.124 151V137.909H206.21V143.193H207.335L211.272 137.909H214.988L210.138 144.335L215.039 151H211.306L207.718 146.065H206.21V151H203.124ZM220.255 151.264C219.426 151.264 218.679 151.116 218.014 150.821C217.355 150.52 216.832 150.077 216.446 149.491C216.065 148.906 215.875 148.185 215.875 147.327C215.875 146.588 216.011 145.977 216.284 145.494C216.557 145.011 216.929 144.625 217.4 144.335C217.872 144.045 218.403 143.827 218.994 143.679C219.591 143.526 220.207 143.415 220.843 143.347C221.611 143.267 222.233 143.196 222.71 143.134C223.187 143.065 223.534 142.963 223.75 142.827C223.971 142.685 224.082 142.466 224.082 142.17V142.119C224.082 141.477 223.892 140.98 223.511 140.628C223.13 140.276 222.582 140.099 221.866 140.099C221.111 140.099 220.511 140.264 220.068 140.594C219.63 140.923 219.335 141.312 219.182 141.761L216.301 141.352C216.528 140.557 216.903 139.892 217.426 139.358C217.949 138.818 218.588 138.415 219.343 138.148C220.099 137.875 220.934 137.739 221.849 137.739C222.48 137.739 223.108 137.812 223.733 137.96C224.358 138.108 224.929 138.352 225.446 138.693C225.963 139.028 226.378 139.486 226.69 140.065C227.008 140.645 227.167 141.369 227.167 142.239V151H224.201V149.202H224.099C223.912 149.565 223.647 149.906 223.307 150.224C222.971 150.537 222.548 150.79 222.037 150.983C221.531 151.17 220.937 151.264 220.255 151.264ZM221.057 148.997C221.676 148.997 222.213 148.875 222.667 148.631C223.122 148.381 223.471 148.051 223.716 147.642C223.966 147.233 224.091 146.787 224.091 146.304V144.761C223.994 144.841 223.829 144.915 223.596 144.983C223.369 145.051 223.113 145.111 222.829 145.162C222.545 145.213 222.264 145.259 221.986 145.298C221.707 145.338 221.466 145.372 221.261 145.401C220.801 145.463 220.389 145.565 220.025 145.707C219.662 145.849 219.375 146.048 219.165 146.304C218.954 146.554 218.849 146.878 218.849 147.276C218.849 147.844 219.057 148.273 219.471 148.562C219.886 148.852 220.415 148.997 221.057 148.997ZM86.7861 172.176V174.707H79.8145V172.176H86.7861ZM80.769 166.909V180H77.7946V166.909H80.769ZM88.806 166.909V180H85.8401V166.909H88.806ZM94.6018 175.824L99.8433 166.909H103.014V180H100.031V171.077L94.8064 180H91.6274V166.909H94.6018V175.824ZM116.817 166.909V180H113.851V166.909H116.817ZM115.428 172.824V175.347C115.092 175.494 114.712 175.628 114.286 175.747C113.865 175.861 113.419 175.952 112.947 176.02C112.482 176.088 112.016 176.122 111.55 176.122C109.8 176.122 108.416 175.73 107.399 174.946C106.388 174.156 105.882 172.926 105.882 171.256V166.892H108.831V171.256C108.831 171.818 108.93 172.27 109.129 172.611C109.328 172.952 109.629 173.202 110.033 173.361C110.436 173.514 110.942 173.591 111.55 173.591C112.232 173.591 112.879 173.523 113.493 173.386C114.107 173.25 114.751 173.062 115.428 172.824ZM125.417 180.256C124.104 180.256 122.971 179.983 122.016 179.438C121.067 178.886 120.337 178.108 119.826 177.102C119.314 176.091 119.059 174.901 119.059 173.531C119.059 172.185 119.314 171.003 119.826 169.986C120.343 168.963 121.064 168.168 121.99 167.599C122.917 167.026 124.005 166.739 125.255 166.739C126.062 166.739 126.823 166.869 127.539 167.131C128.26 167.386 128.897 167.784 129.448 168.324C130.005 168.864 130.442 169.551 130.76 170.386C131.079 171.216 131.238 172.205 131.238 173.352V174.298H120.508V172.219H128.28C128.275 171.628 128.147 171.102 127.897 170.642C127.647 170.176 127.297 169.81 126.848 169.543C126.405 169.276 125.888 169.142 125.297 169.142C124.667 169.142 124.113 169.295 123.635 169.602C123.158 169.903 122.786 170.301 122.519 170.795C122.258 171.284 122.124 171.821 122.118 172.406V174.222C122.118 174.983 122.258 175.636 122.536 176.182C122.814 176.722 123.204 177.136 123.704 177.426C124.204 177.71 124.789 177.852 125.459 177.852C125.908 177.852 126.314 177.79 126.678 177.665C127.042 177.534 127.357 177.344 127.624 177.094C127.891 176.844 128.093 176.534 128.229 176.165L131.11 176.489C130.928 177.25 130.581 177.915 130.07 178.483C129.564 179.045 128.917 179.483 128.127 179.795C127.337 180.102 126.434 180.256 125.417 180.256ZM142.207 166.909V169.44H136.565V180H133.548V166.909H142.207ZM149.552 180.256C148.273 180.256 147.165 179.974 146.228 179.412C145.29 178.849 144.563 178.062 144.046 177.051C143.535 176.04 143.279 174.858 143.279 173.506C143.279 172.153 143.535 170.969 144.046 169.952C144.563 168.935 145.29 168.145 146.228 167.582C147.165 167.02 148.273 166.739 149.552 166.739C150.83 166.739 151.938 167.02 152.876 167.582C153.813 168.145 154.537 168.935 155.049 169.952C155.566 170.969 155.824 172.153 155.824 173.506C155.824 174.858 155.566 176.04 155.049 177.051C154.537 178.062 153.813 178.849 152.876 179.412C151.938 179.974 150.83 180.256 149.552 180.256ZM149.569 177.784C150.262 177.784 150.841 177.594 151.307 177.213C151.773 176.827 152.12 176.31 152.347 175.662C152.58 175.014 152.697 174.293 152.697 173.497C152.697 172.696 152.58 171.972 152.347 171.324C152.12 170.67 151.773 170.151 151.307 169.764C150.841 169.378 150.262 169.185 149.569 169.185C148.859 169.185 148.268 169.378 147.796 169.764C147.33 170.151 146.981 170.67 146.748 171.324C146.52 171.972 146.407 172.696 146.407 173.497C146.407 174.293 146.52 175.014 146.748 175.662C146.981 176.31 147.33 176.827 147.796 177.213C148.268 177.594 148.859 177.784 149.569 177.784ZM172.788 172.176V174.707H165.816V172.176H172.788ZM166.771 166.909V180H163.796V166.909H166.771ZM174.808 166.909V180H171.842V166.909H174.808ZM183.424 180.256C182.112 180.256 180.978 179.983 180.024 179.438C179.075 178.886 178.345 178.108 177.834 177.102C177.322 176.091 177.066 174.901 177.066 173.531C177.066 172.185 177.322 171.003 177.834 169.986C178.351 168.963 179.072 168.168 179.998 167.599C180.924 167.026 182.012 166.739 183.262 166.739C184.069 166.739 184.831 166.869 185.547 167.131C186.268 167.386 186.905 167.784 187.456 168.324C188.012 168.864 188.45 169.551 188.768 170.386C189.086 171.216 189.245 172.205 189.245 173.352V174.298H178.515V172.219H186.288C186.282 171.628 186.155 171.102 185.905 170.642C185.655 170.176 185.305 169.81 184.856 169.543C184.413 169.276 183.896 169.142 183.305 169.142C182.674 169.142 182.12 169.295 181.643 169.602C181.166 169.903 180.794 170.301 180.527 170.795C180.265 171.284 180.132 171.821 180.126 172.406V174.222C180.126 174.983 180.265 175.636 180.544 176.182C180.822 176.722 181.211 177.136 181.711 177.426C182.211 177.71 182.797 177.852 183.467 177.852C183.916 177.852 184.322 177.79 184.686 177.665C185.049 177.534 185.365 177.344 185.632 177.094C185.899 176.844 186.101 176.534 186.237 176.165L189.118 176.489C188.936 177.25 188.589 177.915 188.078 178.483C187.572 179.045 186.924 179.483 186.135 179.795C185.345 180.102 184.441 180.256 183.424 180.256ZM190.465 169.44V166.909H201.919V169.44H197.683V180H194.7V169.44H190.465Z" fill="#6B6B6B"/>
    <path d="M27.3772 207V197.545H30.6826C31.3412 197.545 31.8844 197.659 32.3122 197.887C32.74 198.112 33.0586 198.415 33.2678 198.797C33.4771 199.175 33.5818 199.595 33.5818 200.057C33.5818 200.463 33.5094 200.799 33.3648 201.063C33.2232 201.328 33.0355 201.537 32.8016 201.691C32.5707 201.845 32.3199 201.959 32.0491 202.033V202.125C32.3384 202.143 32.6292 202.245 32.9216 202.43C33.214 202.614 33.4586 202.879 33.6556 203.224C33.8526 203.568 33.9511 203.99 33.9511 204.489C33.9511 204.963 33.8434 205.389 33.6279 205.767C33.4125 206.146 33.0724 206.446 32.6077 206.668C32.143 206.889 31.5382 207 30.7934 207H27.3772ZM28.5221 205.984H30.7934C31.5413 205.984 32.0722 205.84 32.3861 205.55C32.7031 205.258 32.8616 204.904 32.8616 204.489C32.8616 204.169 32.78 203.873 32.6169 203.602C32.4538 203.328 32.2214 203.11 31.9198 202.947C31.6182 202.781 31.2612 202.697 30.8488 202.697H28.5221V205.984ZM28.5221 201.7H30.6457C30.9904 201.7 31.3012 201.633 31.5782 201.497C31.8583 201.362 32.0799 201.171 32.243 200.925C32.4092 200.679 32.4923 200.389 32.4923 200.057C32.4923 199.641 32.3476 199.289 32.0583 199C31.769 198.707 31.3104 198.561 30.6826 198.561H28.5221V201.7ZM36.3263 202.476H38.3576C39.1885 202.476 39.8241 202.687 40.2642 203.108C40.7043 203.53 40.9243 204.064 40.9243 204.71C40.9243 205.135 40.8258 205.521 40.6289 205.869C40.4319 206.214 40.1426 206.489 39.761 206.695C39.3794 206.898 38.9115 207 38.3576 207H35.3846V199.909H36.474V205.984H38.3576C38.7884 205.984 39.1424 205.871 39.4194 205.643C39.6964 205.415 39.8348 205.123 39.8348 204.766C39.8348 204.39 39.6964 204.084 39.4194 203.847C39.1424 203.61 38.7884 203.491 38.3576 203.491H36.3263V202.476ZM42.0508 207V199.909H43.1402V207H42.0508ZM52.0686 205.523L54.5431 199.909H55.5772L52.5118 207H51.6255L48.6155 199.909H49.6311L52.0686 205.523ZM49.2803 199.909V207H48.1908V199.909H49.2803ZM54.857 207V199.909H55.9465V207H54.857ZM60.5215 207.148C59.8813 207.148 59.3197 206.995 58.8365 206.691C58.3564 206.386 57.9809 205.96 57.7101 205.412C57.4423 204.864 57.3084 204.224 57.3084 203.491C57.3084 202.753 57.4423 202.108 57.7101 201.557C57.9809 201.006 58.3564 200.578 58.8365 200.274C59.3197 199.969 59.8813 199.817 60.5215 199.817C61.1616 199.817 61.7218 199.969 62.2019 200.274C62.6851 200.578 63.0606 201.006 63.3283 201.557C63.5991 202.108 63.7346 202.753 63.7346 203.491C63.7346 204.224 63.5991 204.864 63.3283 205.412C63.0606 205.96 62.6851 206.386 62.2019 206.691C61.7218 206.995 61.1616 207.148 60.5215 207.148ZM60.5215 206.169C61.0078 206.169 61.4079 206.044 61.7218 205.795C62.0357 205.546 62.2681 205.218 62.4189 204.812C62.5697 204.406 62.6451 203.965 62.6451 203.491C62.6451 203.018 62.5697 202.576 62.4189 202.167C62.2681 201.757 62.0357 201.426 61.7218 201.174C61.4079 200.922 61.0078 200.795 60.5215 200.795C60.0352 200.795 59.6351 200.922 59.3212 201.174C59.0073 201.426 58.7749 201.757 58.6241 202.167C58.4733 202.576 58.3979 203.018 58.3979 203.491C58.3979 203.965 58.4733 204.406 58.6241 204.812C58.7749 205.218 59.0073 205.546 59.3212 205.795C59.6351 206.044 60.0352 206.169 60.5215 206.169ZM64.3625 207L67.2432 203.399L64.3994 199.909H65.692L68.0557 202.938H68.6466V199.909H69.7361V202.938H70.3085L72.6721 199.909H73.9647L71.1395 203.399L74.0017 207H72.6906L70.29 203.953H69.7361V207H68.6466V203.953H68.0926L65.6736 207H64.3625ZM77.9396 207.148C77.2564 207.148 76.667 206.997 76.1715 206.695C75.6791 206.391 75.299 205.966 75.0312 205.421C74.7665 204.873 74.6342 204.236 74.6342 203.51C74.6342 202.784 74.7665 202.143 75.0312 201.589C75.299 201.032 75.6714 200.598 76.1484 200.288C76.6285 199.974 77.1887 199.817 77.8288 199.817C78.1981 199.817 78.5628 199.878 78.9229 200.001C79.283 200.125 79.6108 200.325 79.9062 200.602C80.2017 200.875 80.4371 201.239 80.6125 201.691C80.788 202.143 80.8757 202.701 80.8757 203.362V203.824H75.4098V202.882H79.7677C79.7677 202.482 79.6877 202.125 79.5277 201.811C79.3707 201.497 79.146 201.249 78.8537 201.068C78.5644 200.886 78.2228 200.795 77.8288 200.795C77.3949 200.795 77.0194 200.903 76.7024 201.119C76.3885 201.331 76.1469 201.608 75.9776 201.95C75.8083 202.291 75.7237 202.657 75.7237 203.048V203.676C75.7237 204.212 75.816 204.666 76.0007 205.038C76.1884 205.407 76.4485 205.689 76.7809 205.883C77.1133 206.074 77.4995 206.169 77.9396 206.169C78.2258 206.169 78.4844 206.129 78.7152 206.049C78.9491 205.966 79.1507 205.843 79.3199 205.68C79.4892 205.513 79.62 205.307 79.7123 205.061L80.7649 205.357C80.6541 205.714 80.4679 206.027 80.2063 206.298C79.9447 206.566 79.6215 206.775 79.2368 206.926C78.8521 207.074 78.4197 207.148 77.9396 207.148ZM81.5728 200.925V199.909H87.3342V200.925H85.0075V207H83.918V200.925H81.5728ZM91.2283 207.148C90.545 207.148 89.9557 206.997 89.4602 206.695C88.9677 206.391 88.5876 205.966 88.3199 205.421C88.0552 204.873 87.9229 204.236 87.9229 203.51C87.9229 202.784 88.0552 202.143 88.3199 201.589C88.5876 201.032 88.96 200.598 89.4371 200.288C89.9172 199.974 90.4773 199.817 91.1175 199.817C91.4868 199.817 91.8515 199.878 92.2116 200.001C92.5717 200.125 92.8994 200.325 93.1949 200.602C93.4903 200.875 93.7258 201.239 93.9012 201.691C94.0766 202.143 94.1644 202.701 94.1644 203.362V203.824H88.6984V202.882H93.0564C93.0564 202.482 92.9764 202.125 92.8163 201.811C92.6594 201.497 92.4347 201.249 92.1423 201.068C91.853 200.886 91.5114 200.795 91.1175 200.795C90.6835 200.795 90.3081 200.903 89.9911 201.119C89.6771 201.331 89.4355 201.608 89.2663 201.95C89.097 202.291 89.0124 202.657 89.0124 203.048V203.676C89.0124 204.212 89.1047 204.666 89.2894 205.038C89.4771 205.407 89.7372 205.689 90.0695 205.883C90.4019 206.074 90.7882 206.169 91.2283 206.169C91.5145 206.169 91.773 206.129 92.0038 206.049C92.2377 205.966 92.4393 205.843 92.6086 205.68C92.7779 205.513 92.9087 205.307 93.001 205.061L94.0536 205.357C93.9428 205.714 93.7566 206.027 93.495 206.298C93.2334 206.566 92.9102 206.775 92.5255 206.926C92.1408 207.074 91.7084 207.148 91.2283 207.148ZM103.624 202.956V203.972H99.7089V202.956H103.624ZM99.9674 199.909V207H98.8779V199.909H99.9674ZM104.455 199.909V207H103.365V199.909H104.455ZM108.231 207.166C107.782 207.166 107.374 207.082 107.008 206.912C106.641 206.74 106.351 206.492 106.135 206.169C105.92 205.843 105.812 205.449 105.812 204.987C105.812 204.581 105.892 204.252 106.052 203.999C106.212 203.744 106.426 203.544 106.694 203.399C106.961 203.254 107.257 203.147 107.58 203.076C107.906 203.002 108.234 202.944 108.563 202.901C108.994 202.845 109.344 202.804 109.611 202.776C109.882 202.745 110.079 202.694 110.202 202.624C110.328 202.553 110.391 202.43 110.391 202.254V202.217C110.391 201.762 110.267 201.408 110.018 201.156C109.771 200.903 109.397 200.777 108.896 200.777C108.376 200.777 107.968 200.891 107.672 201.119C107.377 201.346 107.169 201.589 107.049 201.848L106.015 201.479C106.2 201.048 106.446 200.712 106.754 200.472C107.065 200.229 107.403 200.06 107.769 199.964C108.139 199.866 108.502 199.817 108.859 199.817C109.087 199.817 109.348 199.844 109.644 199.9C109.942 199.952 110.23 200.061 110.507 200.228C110.787 200.394 111.019 200.645 111.204 200.98C111.389 201.316 111.481 201.765 111.481 202.328V207H110.391V206.04H110.336C110.262 206.194 110.139 206.358 109.967 206.534C109.794 206.709 109.565 206.858 109.279 206.982C108.993 207.105 108.643 207.166 108.231 207.166ZM108.397 206.188C108.828 206.188 109.191 206.103 109.487 205.934C109.785 205.764 110.01 205.546 110.161 205.278C110.315 205.01 110.391 204.729 110.391 204.433V203.436C110.345 203.491 110.244 203.542 110.087 203.588C109.933 203.632 109.754 203.67 109.551 203.704C109.351 203.735 109.156 203.762 108.965 203.787C108.777 203.808 108.625 203.827 108.508 203.842C108.225 203.879 107.96 203.939 107.714 204.022C107.471 204.102 107.274 204.224 107.123 204.387C106.975 204.547 106.901 204.766 106.901 205.043C106.901 205.421 107.041 205.707 107.322 205.901C107.605 206.092 107.963 206.188 108.397 206.188ZM118.635 199.909V207H117.546V199.909H118.635ZM118.211 203.288V204.304C117.965 204.396 117.72 204.478 117.477 204.549C117.234 204.616 116.978 204.67 116.71 204.71C116.443 204.747 116.149 204.766 115.829 204.766C115.025 204.766 114.381 204.549 113.894 204.115C113.411 203.681 113.17 203.03 113.17 202.162V199.891H114.259V202.162C114.259 202.525 114.328 202.824 114.467 203.058C114.605 203.291 114.793 203.465 115.03 203.579C115.267 203.693 115.533 203.75 115.829 203.75C116.29 203.75 116.707 203.708 117.08 203.625C117.455 203.539 117.832 203.427 118.211 203.288ZM122.421 207.166C121.972 207.166 121.564 207.082 121.198 206.912C120.831 206.74 120.541 206.492 120.325 206.169C120.11 205.843 120.002 205.449 120.002 204.987C120.002 204.581 120.082 204.252 120.242 203.999C120.402 203.744 120.616 203.544 120.884 203.399C121.151 203.254 121.447 203.147 121.77 203.076C122.096 203.002 122.424 202.944 122.753 202.901C123.184 202.845 123.534 202.804 123.801 202.776C124.072 202.745 124.269 202.694 124.392 202.624C124.518 202.553 124.582 202.43 124.582 202.254V202.217C124.582 201.762 124.457 201.408 124.208 201.156C123.961 200.903 123.587 200.777 123.086 200.777C122.566 200.777 122.158 200.891 121.862 201.119C121.567 201.346 121.359 201.589 121.239 201.848L120.205 201.479C120.39 201.048 120.636 200.712 120.944 200.472C121.255 200.229 121.593 200.06 121.959 199.964C122.329 199.866 122.692 199.817 123.049 199.817C123.277 199.817 123.538 199.844 123.834 199.9C124.132 199.952 124.42 200.061 124.697 200.228C124.977 200.394 125.209 200.645 125.394 200.98C125.579 201.316 125.671 201.765 125.671 202.328V207H124.582V206.04H124.526C124.452 206.194 124.329 206.358 124.157 206.534C123.984 206.709 123.755 206.858 123.469 206.982C123.183 207.105 122.833 207.166 122.421 207.166ZM122.587 206.188C123.018 206.188 123.381 206.103 123.677 205.934C123.975 205.764 124.2 205.546 124.351 205.278C124.505 205.01 124.582 204.729 124.582 204.433V203.436C124.535 203.491 124.434 203.542 124.277 203.588C124.123 203.632 123.944 203.67 123.741 203.704C123.541 203.735 123.346 203.762 123.155 203.787C122.967 203.808 122.815 203.827 122.698 203.842C122.415 203.879 122.15 203.939 121.904 204.022C121.661 204.102 121.464 204.224 121.313 204.387C121.165 204.547 121.091 204.766 121.091 205.043C121.091 205.421 121.231 205.707 121.512 205.901C121.795 206.092 122.153 206.188 122.587 206.188ZM126.395 200.925V199.909H132.156V200.925H129.829V207H128.74V200.925H126.395ZM134.387 202.476H136.418C137.249 202.476 137.885 202.687 138.325 203.108C138.765 203.53 138.985 204.064 138.985 204.71C138.985 205.135 138.887 205.521 138.69 205.869C138.493 206.214 138.203 206.489 137.822 206.695C137.44 206.898 136.972 207 136.418 207H133.445V199.909H134.535V205.984H136.418C136.849 205.984 137.203 205.871 137.48 205.643C137.757 205.415 137.896 205.123 137.896 204.766C137.896 204.39 137.757 204.084 137.48 203.847C137.203 203.61 136.849 203.491 136.418 203.491H134.387V202.476ZM143.7 207V199.909H149.277V207H148.187V200.925H144.789V207H143.7ZM153.847 207.148C153.207 207.148 152.645 206.995 152.162 206.691C151.682 206.386 151.306 205.96 151.035 205.412C150.768 204.864 150.634 204.224 150.634 203.491C150.634 202.753 150.768 202.108 151.035 201.557C151.306 201.006 151.682 200.578 152.162 200.274C152.645 199.969 153.207 199.817 153.847 199.817C154.487 199.817 155.047 199.969 155.527 200.274C156.01 200.578 156.386 201.006 156.654 201.557C156.925 202.108 157.06 202.753 157.06 203.491C157.06 204.224 156.925 204.864 156.654 205.412C156.386 205.96 156.01 206.386 155.527 206.691C155.047 206.995 154.487 207.148 153.847 207.148ZM153.847 206.169C154.333 206.169 154.733 206.044 155.047 205.795C155.361 205.546 155.593 205.218 155.744 204.812C155.895 204.406 155.97 203.965 155.97 203.491C155.97 203.018 155.895 202.576 155.744 202.167C155.593 201.757 155.361 201.426 155.047 201.174C154.733 200.922 154.333 200.795 153.847 200.795C153.361 200.795 152.961 200.922 152.647 201.174C152.333 201.426 152.1 201.757 151.95 202.167C151.799 202.576 151.723 203.018 151.723 203.491C151.723 203.965 151.799 204.406 151.95 204.812C152.1 205.218 152.333 205.546 152.647 205.795C152.961 206.044 153.361 206.169 153.847 206.169ZM158.423 207V199.909H159.513V202.993H160.233L162.781 199.909H164.184L161.322 203.325L164.221 207H162.818L160.491 204.009H159.513V207H158.423ZM165.807 209.659C165.623 209.659 165.458 209.644 165.313 209.613C165.169 209.585 165.069 209.558 165.013 209.53L165.29 208.57C165.555 208.637 165.789 208.662 165.992 208.643C166.195 208.625 166.375 208.534 166.532 208.371C166.692 208.211 166.838 207.951 166.971 207.591L167.174 207.037L164.551 199.909H165.733L167.691 205.56H167.765L169.722 199.909H170.904L167.894 208.034C167.758 208.4 167.591 208.703 167.391 208.944C167.191 209.187 166.958 209.367 166.694 209.484C166.432 209.601 166.136 209.659 165.807 209.659ZM172.042 207V199.909H177.618V207H176.529V200.925H173.131V207H172.042ZM179.308 207V199.909H180.398V202.993H181.118L183.666 199.909H185.07L182.207 203.325L185.106 207H183.703L181.376 204.009H180.398V207H179.308ZM187.08 205.393L190.496 199.909H191.752V207H190.663V201.516L187.265 207H185.991V199.909H187.08V205.393ZM199.684 207.148C199.02 207.148 198.447 206.991 197.967 206.677C197.487 206.363 197.118 205.931 196.859 205.38C196.601 204.829 196.471 204.199 196.471 203.491C196.471 202.771 196.604 202.136 196.868 201.585C197.136 201.031 197.508 200.598 197.986 200.288C198.466 199.974 199.026 199.817 199.666 199.817C200.165 199.817 200.614 199.909 201.014 200.094C201.414 200.278 201.742 200.537 201.997 200.869C202.253 201.202 202.411 201.589 202.473 202.033H201.383C201.3 201.71 201.115 201.423 200.829 201.174C200.546 200.922 200.165 200.795 199.684 200.795C199.26 200.795 198.887 200.906 198.567 201.128C198.25 201.346 198.002 201.656 197.824 202.056C197.649 202.453 197.561 202.919 197.561 203.455C197.561 204.002 197.647 204.479 197.819 204.886C197.995 205.292 198.241 205.607 198.558 205.832C198.878 206.057 199.254 206.169 199.684 206.169C199.968 206.169 200.225 206.12 200.455 206.021C200.686 205.923 200.882 205.781 201.042 205.597C201.202 205.412 201.316 205.19 201.383 204.932H202.473C202.411 205.35 202.259 205.727 202.016 206.063C201.776 206.395 201.457 206.66 201.06 206.857C200.666 207.051 200.208 207.148 199.684 207.148ZM211.498 199.909V200.925H208.211V207H207.122V199.909H211.498ZM211.564 207V205.984H211.822C212.035 205.984 212.212 205.943 212.353 205.86C212.495 205.774 212.609 205.624 212.695 205.412C212.784 205.196 212.852 204.898 212.898 204.516C212.947 204.132 212.983 203.642 213.004 203.048L213.134 199.909H217.861V207H216.771V200.925H214.168L214.057 203.455C214.032 204.036 213.98 204.549 213.9 204.992C213.823 205.432 213.704 205.801 213.544 206.1C213.387 206.398 213.178 206.623 212.917 206.774C212.655 206.925 212.327 207 211.933 207H211.564ZM221.646 207.166C221.197 207.166 220.789 207.082 220.423 206.912C220.057 206.74 219.766 206.492 219.551 206.169C219.335 205.843 219.227 205.449 219.227 204.987C219.227 204.581 219.307 204.252 219.467 203.999C219.627 203.744 219.841 203.544 220.109 203.399C220.377 203.254 220.672 203.147 220.995 203.076C221.322 203.002 221.649 202.944 221.979 202.901C222.41 202.845 222.759 202.804 223.027 202.776C223.298 202.745 223.495 202.694 223.618 202.624C223.744 202.553 223.807 202.43 223.807 202.254V202.217C223.807 201.762 223.682 201.408 223.433 201.156C223.187 200.903 222.813 200.777 222.311 200.777C221.791 200.777 221.383 200.891 221.088 201.119C220.792 201.346 220.585 201.589 220.465 201.848L219.43 201.479C219.615 201.048 219.861 200.712 220.169 200.472C220.48 200.229 220.819 200.06 221.185 199.964C221.554 199.866 221.917 199.817 222.274 199.817C222.502 199.817 222.764 199.844 223.059 199.9C223.358 199.952 223.645 200.061 223.922 200.228C224.202 200.394 224.435 200.645 224.619 200.98C224.804 201.316 224.896 201.765 224.896 202.328V207H223.807V206.04H223.752C223.678 206.194 223.555 206.358 223.382 206.534C223.21 206.709 222.981 206.858 222.694 206.982C222.408 207.105 222.059 207.166 221.646 207.166ZM221.813 206.188C222.243 206.188 222.607 206.103 222.902 205.934C223.201 205.764 223.425 205.546 223.576 205.278C223.73 205.01 223.807 204.729 223.807 204.433V203.436C223.761 203.491 223.659 203.542 223.502 203.588C223.348 203.632 223.17 203.67 222.967 203.704C222.767 203.735 222.571 203.762 222.38 203.787C222.193 203.808 222.04 203.827 221.923 203.842C221.64 203.879 221.376 203.939 221.129 204.022C220.886 204.102 220.689 204.224 220.538 204.387C220.391 204.547 220.317 204.766 220.317 205.043C220.317 205.421 220.457 205.707 220.737 205.901C221.02 206.092 221.379 206.188 221.813 206.188ZM226.585 207V199.909H229.484C230.247 199.909 230.854 200.081 231.303 200.426C231.752 200.771 231.977 201.226 231.977 201.793C231.977 202.223 231.849 202.557 231.594 202.794C231.338 203.028 231.011 203.187 230.611 203.27C230.872 203.307 231.126 203.399 231.372 203.547C231.622 203.695 231.828 203.898 231.991 204.156C232.154 204.412 232.236 204.726 232.236 205.098C232.236 205.461 232.143 205.786 231.959 206.072C231.774 206.358 231.509 206.585 231.165 206.751C230.82 206.917 230.407 207 229.927 207H226.585ZM227.619 206.003H229.927C230.303 206.003 230.597 205.914 230.809 205.735C231.021 205.557 231.128 205.313 231.128 205.006C231.128 204.639 231.021 204.352 230.809 204.142C230.597 203.93 230.303 203.824 229.927 203.824H227.619V206.003ZM227.619 202.882H229.484C229.776 202.882 230.027 202.842 230.237 202.762C230.446 202.679 230.606 202.562 230.717 202.411C230.831 202.257 230.888 202.076 230.888 201.866C230.888 201.568 230.763 201.334 230.514 201.165C230.264 200.992 229.921 200.906 229.484 200.906H227.619V202.882ZM238.33 202.956V203.972H234.416V202.956H238.33ZM234.674 199.909V207H233.585V199.909H234.674ZM239.161 199.909V207H238.072V199.909H239.161ZM243.732 207.148C243.092 207.148 242.53 206.995 242.047 206.691C241.567 206.386 241.191 205.96 240.92 205.412C240.653 204.864 240.519 204.224 240.519 203.491C240.519 202.753 240.653 202.108 240.92 201.557C241.191 201.006 241.567 200.578 242.047 200.274C242.53 199.969 243.092 199.817 243.732 199.817C244.372 199.817 244.932 199.969 245.412 200.274C245.895 200.578 246.271 201.006 246.539 201.557C246.809 202.108 246.945 202.753 246.945 203.491C246.945 204.224 246.809 204.864 246.539 205.412C246.271 205.96 245.895 206.386 245.412 206.691C244.932 206.995 244.372 207.148 243.732 207.148ZM243.732 206.169C244.218 206.169 244.618 206.044 244.932 205.795C245.246 205.546 245.478 205.218 245.629 204.812C245.78 204.406 245.855 203.965 245.855 203.491C245.855 203.018 245.78 202.576 245.629 202.167C245.478 201.757 245.246 201.426 244.932 201.174C244.618 200.922 244.218 200.795 243.732 200.795C243.246 200.795 242.845 200.922 242.532 201.174C242.218 201.426 241.985 201.757 241.834 202.167C241.684 202.576 241.608 203.018 241.608 203.491C241.608 203.965 241.684 204.406 241.834 204.812C241.985 205.218 242.218 205.546 242.532 205.795C242.845 206.044 243.246 206.169 243.732 206.169ZM249.397 205.393L252.814 199.909H254.069V207H252.98V201.516L249.582 207H248.308V199.909H249.397V205.393ZM252.094 197.545H253.109C253.109 198.044 252.937 198.452 252.592 198.769C252.247 199.086 251.78 199.244 251.189 199.244C250.607 199.244 250.144 199.086 249.799 198.769C249.458 198.452 249.287 198.044 249.287 197.545H250.302C250.302 197.786 250.368 197.996 250.501 198.178C250.636 198.359 250.866 198.45 251.189 198.45C251.512 198.45 251.743 198.359 251.881 198.178C252.023 197.996 252.094 197.786 252.094 197.545ZM16.0471 224.148C15.3823 224.148 14.8099 223.991 14.3297 223.677C13.8496 223.363 13.4803 222.931 13.2218 222.38C12.9633 221.829 12.834 221.199 12.834 220.491C12.834 219.771 12.9663 219.136 13.231 218.585C13.4988 218.031 13.8712 217.598 14.3482 217.288C14.8283 216.974 15.3885 216.817 16.0286 216.817C16.5272 216.817 16.9765 216.909 17.3766 217.094C17.7767 217.278 18.1045 217.537 18.3599 217.869C18.6154 218.202 18.7739 218.589 18.8354 219.033H17.7459C17.6628 218.71 17.4782 218.423 17.192 218.174C16.9088 217.922 16.5272 217.795 16.0471 217.795C15.6224 217.795 15.25 217.906 14.9299 218.128C14.6129 218.346 14.3651 218.656 14.1866 219.056C14.0112 219.453 13.9235 219.919 13.9235 220.455C13.9235 221.002 14.0097 221.479 14.182 221.886C14.3574 222.292 14.6037 222.607 14.9207 222.832C15.2407 223.057 15.6162 223.169 16.0471 223.169C16.3302 223.169 16.5872 223.12 16.818 223.021C17.0489 222.923 17.2443 222.781 17.4043 222.597C17.5644 222.412 17.6782 222.19 17.7459 221.932H18.8354C18.7739 222.35 18.6215 222.727 18.3784 223.063C18.1383 223.395 17.8198 223.66 17.4228 223.857C17.0288 224.051 16.5703 224.148 16.0471 224.148ZM19.5695 217.925V216.909H25.3309V217.925H23.0042V224H21.9147V217.925H19.5695ZM26.6201 226.659V216.909H27.6727V218.036H27.8019C27.8819 217.912 27.9927 217.755 28.1343 217.565C28.279 217.371 28.4852 217.198 28.7529 217.048C29.0238 216.894 29.39 216.817 29.8516 216.817C30.4487 216.817 30.975 216.966 31.4305 217.265C31.886 217.563 32.2414 217.986 32.4969 218.534C32.7523 219.082 32.88 219.728 32.88 220.473C32.88 221.224 32.7523 221.875 32.4969 222.426C32.2414 222.974 31.8875 223.398 31.4351 223.7C30.9827 223.998 30.461 224.148 29.8701 224.148C29.4146 224.148 29.0499 224.072 28.776 223.922C28.5021 223.768 28.2913 223.594 28.1435 223.4C27.9958 223.203 27.8819 223.04 27.8019 222.911H27.7096V226.659H26.6201ZM27.6911 220.455C27.6911 220.99 27.7696 221.462 27.9266 221.872C28.0835 222.278 28.3128 222.597 28.6144 222.827C28.916 223.055 29.2854 223.169 29.7224 223.169C30.1779 223.169 30.558 223.049 30.8626 222.809C31.1704 222.566 31.4012 222.24 31.5551 221.83C31.7121 221.418 31.7906 220.959 31.7906 220.455C31.7906 219.956 31.7136 219.507 31.5597 219.107C31.4089 218.703 31.1796 218.385 30.8719 218.151C30.5672 217.914 30.184 217.795 29.7224 217.795C29.2792 217.795 28.9068 217.908 28.6052 218.132C28.3036 218.354 28.0758 218.665 27.922 219.065C27.7681 219.462 27.6911 219.925 27.6911 220.455ZM36.3286 224.166C35.8793 224.166 35.4715 224.082 35.1053 223.912C34.739 223.74 34.4482 223.492 34.2327 223.169C34.0173 222.843 33.9096 222.449 33.9096 221.987C33.9096 221.581 33.9896 221.252 34.1496 220.999C34.3097 220.744 34.5236 220.544 34.7913 220.399C35.0591 220.254 35.3545 220.147 35.6777 220.076C36.0039 220.002 36.3317 219.944 36.661 219.901C37.0919 219.845 37.4412 219.804 37.709 219.776C37.9798 219.745 38.1768 219.694 38.2999 219.624C38.426 219.553 38.4891 219.43 38.4891 219.254V219.217C38.4891 218.762 38.3645 218.408 38.1152 218.156C37.869 217.903 37.4951 217.777 36.9934 217.777C36.4733 217.777 36.0655 217.891 35.77 218.119C35.4746 218.346 35.2668 218.589 35.1468 218.848L34.1127 218.479C34.2974 218.048 34.5436 217.712 34.8514 217.472C35.1622 217.229 35.5007 217.06 35.867 216.964C36.2363 216.866 36.5995 216.817 36.9565 216.817C37.1842 216.817 37.4458 216.844 37.7413 216.9C38.0398 216.952 38.3276 217.061 38.6045 217.228C38.8846 217.394 39.117 217.645 39.3016 217.98C39.4863 218.316 39.5786 218.765 39.5786 219.328V224H38.4891V223.04H38.4337C38.3599 223.194 38.2368 223.358 38.0644 223.534C37.8921 223.709 37.6628 223.858 37.3766 223.982C37.0903 224.105 36.741 224.166 36.3286 224.166ZM36.4948 223.188C36.9257 223.188 37.2889 223.103 37.5843 222.934C37.8828 222.764 38.1075 222.546 38.2583 222.278C38.4122 222.01 38.4891 221.729 38.4891 221.433V220.436C38.443 220.491 38.3414 220.542 38.1845 220.588C38.0306 220.632 37.8521 220.67 37.6489 220.704C37.4489 220.735 37.2535 220.762 37.0626 220.787C36.8749 220.808 36.7226 220.827 36.6056 220.842C36.3225 220.879 36.0578 220.939 35.8116 221.022C35.5684 221.102 35.3715 221.224 35.2207 221.387C35.0729 221.547 34.9991 221.766 34.9991 222.043C34.9991 222.421 35.1391 222.707 35.4192 222.901C35.7023 223.092 36.0609 223.188 36.4948 223.188ZM46.0129 219.956V220.972H42.0981V219.956H46.0129ZM42.3567 216.909V224H41.2672V216.909H42.3567ZM46.8439 216.909V224H45.7544V216.909H46.8439ZM49.6231 222.393L53.0393 216.909H54.2949V224H53.2055V218.516L49.8077 224H48.5336V216.909H49.6231V222.393ZM61.5671 216.909V222.984H62.5643V226.29H61.4748V224H55.9904V216.909H57.0799V222.984H60.4776V216.909H61.5671ZM64.8841 219.476H66.9154C67.7463 219.476 68.3819 219.687 68.822 220.108C69.2621 220.53 69.4821 221.064 69.4821 221.71C69.4821 222.135 69.3837 222.521 69.1867 222.869C68.9897 223.214 68.7004 223.489 68.3188 223.695C67.9372 223.898 67.4694 224 66.9154 224H63.9424V216.909H65.0319V222.984H66.9154C67.3463 222.984 67.7002 222.871 67.9772 222.643C68.2542 222.415 68.3927 222.123 68.3927 221.766C68.3927 221.39 68.2542 221.084 67.9772 220.847C67.7002 220.61 67.3463 220.491 66.9154 220.491H64.8841V219.476ZM70.6086 224V216.909H71.6981V224H70.6086ZM75.0174 222.707L74.9435 223.206C74.8912 223.557 74.8112 223.932 74.7034 224.332C74.5988 224.732 74.4896 225.109 74.3757 225.463C74.2618 225.817 74.1679 226.099 74.0941 226.308H73.2631C73.3031 226.111 73.3554 225.851 73.4201 225.528C73.4847 225.205 73.5493 224.843 73.614 224.443C73.6817 224.046 73.7371 223.64 73.7802 223.224L73.8356 222.707H75.0174ZM81.1817 222.393L84.5979 216.909H85.8535V224H84.7641V218.516L81.3663 224H80.0922V216.909H81.1817V222.393ZM86.9212 224V222.984H87.1797C87.392 222.984 87.569 222.943 87.7106 222.86C87.8522 222.774 87.966 222.624 88.0522 222.412C88.1415 222.196 88.2092 221.898 88.2553 221.516C88.3046 221.132 88.34 220.642 88.3615 220.048L88.4908 216.909H93.218V224H92.1286V217.925H89.5249L89.4141 220.455C89.3894 221.036 89.3371 221.549 89.2571 221.992C89.1802 222.432 89.0617 222.801 88.9016 223.1C88.7447 223.398 88.5354 223.623 88.2738 223.774C88.0122 223.925 87.6844 224 87.2905 224H86.9212ZM96.0065 222.393L99.4227 216.909H100.678V224H99.5889V218.516L96.1911 224H94.917V216.909H96.0065V222.393ZM105.73 224V216.909H108.629C109.392 216.909 109.999 217.081 110.448 217.426C110.897 217.771 111.122 218.226 111.122 218.793C111.122 219.223 110.994 219.557 110.739 219.794C110.484 220.028 110.156 220.187 109.756 220.27C110.017 220.307 110.271 220.399 110.517 220.547C110.767 220.695 110.973 220.898 111.136 221.156C111.299 221.412 111.381 221.726 111.381 222.098C111.381 222.461 111.288 222.786 111.104 223.072C110.919 223.358 110.654 223.585 110.31 223.751C109.965 223.917 109.553 224 109.072 224H105.73ZM106.764 223.003H109.072C109.448 223.003 109.742 222.914 109.954 222.735C110.167 222.557 110.273 222.313 110.273 222.006C110.273 221.639 110.167 221.352 109.954 221.142C109.742 220.93 109.448 220.824 109.072 220.824H106.764V223.003ZM106.764 219.882H108.629C108.922 219.882 109.172 219.842 109.382 219.762C109.591 219.679 109.751 219.562 109.862 219.411C109.976 219.257 110.033 219.076 110.033 218.866C110.033 218.568 109.908 218.334 109.659 218.165C109.409 217.992 109.066 217.906 108.629 217.906H106.764V219.882ZM115.611 224.148C114.97 224.148 114.409 223.995 113.926 223.691C113.445 223.386 113.07 222.96 112.799 222.412C112.531 221.864 112.397 221.224 112.397 220.491C112.397 219.753 112.531 219.108 112.799 218.557C113.07 218.006 113.445 217.578 113.926 217.274C114.409 216.969 114.97 216.817 115.611 216.817C116.251 216.817 116.811 216.969 117.291 217.274C117.774 217.578 118.15 218.006 118.417 218.557C118.688 219.108 118.824 219.753 118.824 220.491C118.824 221.224 118.688 221.864 118.417 222.412C118.15 222.96 117.774 223.386 117.291 223.691C116.811 223.995 116.251 224.148 115.611 224.148ZM115.611 223.169C116.097 223.169 116.497 223.044 116.811 222.795C117.125 222.546 117.357 222.218 117.508 221.812C117.659 221.406 117.734 220.965 117.734 220.491C117.734 220.018 117.659 219.576 117.508 219.167C117.357 218.757 117.125 218.426 116.811 218.174C116.497 217.922 116.097 217.795 115.611 217.795C115.124 217.795 114.724 217.922 114.41 218.174C114.096 218.426 113.864 218.757 113.713 219.167C113.562 219.576 113.487 220.018 113.487 220.491C113.487 220.965 113.562 221.406 113.713 221.812C113.864 222.218 114.096 222.546 114.41 222.795C114.724 223.044 115.124 223.169 115.611 223.169ZM123.067 224.148C122.403 224.148 121.83 223.991 121.35 223.677C120.87 223.363 120.501 222.931 120.242 222.38C119.984 221.829 119.854 221.199 119.854 220.491C119.854 219.771 119.987 219.136 120.251 218.585C120.519 218.031 120.891 217.598 121.369 217.288C121.849 216.974 122.409 216.817 123.049 216.817C123.547 216.817 123.997 216.909 124.397 217.094C124.797 217.278 125.125 217.537 125.38 217.869C125.636 218.202 125.794 218.589 125.856 219.033H124.766C124.683 218.71 124.498 218.423 124.212 218.174C123.929 217.922 123.547 217.795 123.067 217.795C122.643 217.795 122.27 217.906 121.95 218.128C121.633 218.346 121.385 218.656 121.207 219.056C121.032 219.453 120.944 219.919 120.944 220.455C120.944 221.002 121.03 221.479 121.202 221.886C121.378 222.292 121.624 222.607 121.941 222.832C122.261 223.057 122.637 223.169 123.067 223.169C123.351 223.169 123.608 223.12 123.838 223.021C124.069 222.923 124.265 222.781 124.425 222.597C124.585 222.412 124.699 222.19 124.766 221.932H125.856C125.794 222.35 125.642 222.727 125.399 223.063C125.159 223.395 124.84 223.66 124.443 223.857C124.049 224.051 123.591 224.148 123.067 224.148ZM127.148 224V216.909H132.725V224H131.636V217.925H128.238V224H127.148ZM137.296 224.148C136.655 224.148 136.094 223.995 135.61 223.691C135.13 223.386 134.755 222.96 134.484 222.412C134.216 221.864 134.082 221.224 134.082 220.491C134.082 219.753 134.216 219.108 134.484 218.557C134.755 218.006 135.13 217.578 135.61 217.274C136.094 216.969 136.655 216.817 137.296 216.817C137.936 216.817 138.496 216.969 138.976 217.274C139.459 217.578 139.835 218.006 140.102 218.557C140.373 219.108 140.509 219.753 140.509 220.491C140.509 221.224 140.373 221.864 140.102 222.412C139.835 222.96 139.459 223.386 138.976 223.691C138.496 223.995 137.936 224.148 137.296 224.148ZM137.296 223.169C137.782 223.169 138.182 223.044 138.496 222.795C138.81 222.546 139.042 222.218 139.193 221.812C139.344 221.406 139.419 220.965 139.419 220.491C139.419 220.018 139.344 219.576 139.193 219.167C139.042 218.757 138.81 218.426 138.496 218.174C138.182 217.922 137.782 217.795 137.296 217.795C136.809 217.795 136.409 217.922 136.095 218.174C135.781 218.426 135.549 218.757 135.398 219.167C135.247 219.576 135.172 220.018 135.172 220.491C135.172 220.965 135.247 221.406 135.398 221.812C135.549 222.218 135.781 222.546 136.095 222.795C136.409 223.044 136.809 223.169 137.296 223.169ZM141.244 224V222.984H141.502C141.715 222.984 141.892 222.943 142.033 222.86C142.175 222.774 142.289 222.624 142.375 222.412C142.464 222.196 142.532 221.898 142.578 221.516C142.627 221.132 142.663 220.642 142.684 220.048L142.813 216.909H147.541V224H146.451V217.925H143.848L143.737 220.455C143.712 221.036 143.66 221.549 143.58 221.992C143.503 222.432 143.384 222.801 143.224 223.1C143.067 223.398 142.858 223.623 142.596 223.774C142.335 223.925 142.007 224 141.613 224H141.244ZM150.181 219.476H152.213C153.044 219.476 153.679 219.687 154.119 220.108C154.559 220.53 154.779 221.064 154.779 221.71C154.779 222.135 154.681 222.521 154.484 222.869C154.287 223.214 153.998 223.489 153.616 223.695C153.234 223.898 152.767 224 152.213 224H149.24V216.909H150.329V222.984H152.213C152.644 222.984 152.997 222.871 153.274 222.643C153.551 222.415 153.69 222.123 153.69 221.766C153.69 221.39 153.551 221.084 153.274 220.847C152.997 220.61 152.644 220.491 152.213 220.491H150.181V219.476ZM155.695 222.19H156.858C156.883 222.51 157.027 222.754 157.292 222.92C157.56 223.086 157.908 223.169 158.335 223.169C158.772 223.169 159.146 223.08 159.457 222.901C159.768 222.72 159.923 222.427 159.923 222.024C159.923 221.787 159.865 221.581 159.748 221.406C159.631 221.227 159.466 221.089 159.254 220.99C159.042 220.892 158.791 220.842 158.502 220.842H157.283V219.864H158.502C158.935 219.864 159.256 219.765 159.462 219.568C159.671 219.371 159.776 219.125 159.776 218.83C159.776 218.513 159.663 218.259 159.439 218.068C159.214 217.874 158.895 217.777 158.483 217.777C158.068 217.777 157.721 217.871 157.444 218.059C157.167 218.243 157.021 218.482 157.006 218.774H155.861C155.873 218.393 155.99 218.056 156.212 217.763C156.433 217.468 156.735 217.237 157.117 217.071C157.498 216.901 157.935 216.817 158.428 216.817C158.926 216.817 159.359 216.904 159.725 217.08C160.094 217.252 160.379 217.488 160.579 217.786C160.782 218.082 160.884 218.417 160.884 218.793C160.884 219.193 160.771 219.516 160.547 219.762C160.322 220.008 160.04 220.184 159.702 220.288V220.362C159.97 220.381 160.202 220.467 160.399 220.621C160.599 220.772 160.754 220.97 160.865 221.216C160.976 221.459 161.031 221.729 161.031 222.024C161.031 222.455 160.916 222.83 160.685 223.151C160.454 223.468 160.137 223.714 159.734 223.889C159.331 224.062 158.871 224.148 158.354 224.148C157.852 224.148 157.403 224.066 157.006 223.903C156.609 223.737 156.293 223.508 156.059 223.215C155.829 222.92 155.707 222.578 155.695 222.19ZM165.142 224.148C164.502 224.148 163.941 223.995 163.457 223.691C162.977 223.386 162.602 222.96 162.331 222.412C162.063 221.864 161.929 221.224 161.929 220.491C161.929 219.753 162.063 219.108 162.331 218.557C162.602 218.006 162.977 217.578 163.457 217.274C163.941 216.969 164.502 216.817 165.142 216.817C165.783 216.817 166.343 216.969 166.823 217.274C167.306 217.578 167.681 218.006 167.949 218.557C168.22 219.108 168.355 219.753 168.355 220.491C168.355 221.224 168.22 221.864 167.949 222.412C167.681 222.96 167.306 223.386 166.823 223.691C166.343 223.995 165.783 224.148 165.142 224.148ZM165.142 223.169C165.629 223.169 166.029 223.044 166.343 222.795C166.657 222.546 166.889 222.218 167.04 221.812C167.191 221.406 167.266 220.965 167.266 220.491C167.266 220.018 167.191 219.576 167.04 219.167C166.889 218.757 166.657 218.426 166.343 218.174C166.029 217.922 165.629 217.795 165.142 217.795C164.656 217.795 164.256 217.922 163.942 218.174C163.628 218.426 163.396 218.757 163.245 219.167C163.094 219.576 163.019 220.018 163.019 220.491C163.019 220.965 163.094 221.406 163.245 221.812C163.396 222.218 163.628 222.546 163.942 222.795C164.256 223.044 164.656 223.169 165.142 223.169ZM169.719 224V216.909H172.618C173.381 216.909 173.987 217.081 174.437 217.426C174.886 217.771 175.111 218.226 175.111 218.793C175.111 219.223 174.983 219.557 174.727 219.794C174.472 220.028 174.144 220.187 173.744 220.27C174.006 220.307 174.26 220.399 174.506 220.547C174.755 220.695 174.961 220.898 175.124 221.156C175.288 221.412 175.369 221.726 175.369 222.098C175.369 222.461 175.277 222.786 175.092 223.072C174.907 223.358 174.643 223.585 174.298 223.751C173.953 223.917 173.541 224 173.061 224H169.719ZM170.753 223.003H173.061C173.436 223.003 173.73 222.914 173.943 222.735C174.155 222.557 174.261 222.313 174.261 222.006C174.261 221.639 174.155 221.352 173.943 221.142C173.73 220.93 173.436 220.824 173.061 220.824H170.753V223.003ZM170.753 219.882H172.618C172.91 219.882 173.161 219.842 173.37 219.762C173.579 219.679 173.74 219.562 173.85 219.411C173.964 219.257 174.021 219.076 174.021 218.866C174.021 218.568 173.896 218.334 173.647 218.165C173.398 217.992 173.055 217.906 172.618 217.906H170.753V219.882ZM178.805 224.166C178.356 224.166 177.948 224.082 177.582 223.912C177.215 223.74 176.925 223.492 176.709 223.169C176.494 222.843 176.386 222.449 176.386 221.987C176.386 221.581 176.466 221.252 176.626 220.999C176.786 220.744 177 220.544 177.268 220.399C177.535 220.254 177.831 220.147 178.154 220.076C178.48 220.002 178.808 219.944 179.137 219.901C179.568 219.845 179.918 219.804 180.185 219.776C180.456 219.745 180.653 219.694 180.776 219.624C180.902 219.553 180.966 219.43 180.966 219.254V219.217C180.966 218.762 180.841 218.408 180.592 218.156C180.345 217.903 179.971 217.777 179.47 217.777C178.95 217.777 178.542 217.891 178.246 218.119C177.951 218.346 177.743 218.589 177.623 218.848L176.589 218.479C176.774 218.048 177.02 217.712 177.328 217.472C177.639 217.229 177.977 217.06 178.343 216.964C178.713 216.866 179.076 216.817 179.433 216.817C179.661 216.817 179.922 216.844 180.218 216.9C180.516 216.952 180.804 217.061 181.081 217.228C181.361 217.394 181.593 217.645 181.778 217.98C181.963 218.316 182.055 218.765 182.055 219.328V224H180.966V223.04H180.91C180.836 223.194 180.713 223.358 180.541 223.534C180.368 223.709 180.139 223.858 179.853 223.982C179.567 224.105 179.217 224.166 178.805 224.166ZM178.971 223.188C179.402 223.188 179.765 223.103 180.061 222.934C180.359 222.764 180.584 222.546 180.735 222.278C180.889 222.01 180.966 221.729 180.966 221.433V220.436C180.919 220.491 180.818 220.542 180.661 220.588C180.507 220.632 180.328 220.67 180.125 220.704C179.925 220.735 179.73 220.762 179.539 220.787C179.351 220.808 179.199 220.827 179.082 220.842C178.799 220.879 178.534 220.939 178.288 221.022C178.045 221.102 177.848 221.224 177.697 221.387C177.549 221.547 177.475 221.766 177.475 222.043C177.475 222.421 177.615 222.707 177.896 222.901C178.179 223.092 178.537 223.188 178.971 223.188ZM182.779 217.925V216.909H188.54V217.925H186.213V224H185.124V217.925H182.779ZM190.771 219.476H192.802C193.633 219.476 194.269 219.687 194.709 220.108C195.149 220.53 195.369 221.064 195.369 221.71C195.369 222.135 195.271 222.521 195.074 222.869C194.877 223.214 194.587 223.489 194.206 223.695C193.824 223.898 193.356 224 192.802 224H189.829V216.909H190.919V222.984H192.802C193.233 222.984 193.587 222.871 193.864 222.643C194.141 222.415 194.28 222.123 194.28 221.766C194.28 221.39 194.141 221.084 193.864 220.847C193.587 220.61 193.233 220.491 192.802 220.491H190.771V219.476ZM199.608 224.148C198.943 224.148 198.371 223.991 197.891 223.677C197.411 223.363 197.041 222.931 196.783 222.38C196.524 221.829 196.395 221.199 196.395 220.491C196.395 219.771 196.527 219.136 196.792 218.585C197.06 218.031 197.432 217.598 197.909 217.288C198.389 216.974 198.95 216.817 199.59 216.817C200.088 216.817 200.538 216.909 200.938 217.094C201.338 217.278 201.666 217.537 201.921 217.869C202.177 218.202 202.335 218.589 202.397 219.033H201.307C201.224 218.71 201.039 218.423 200.753 218.174C200.47 217.922 200.088 217.795 199.608 217.795C199.183 217.795 198.811 217.906 198.491 218.128C198.174 218.346 197.926 218.656 197.748 219.056C197.572 219.453 197.485 219.919 197.485 220.455C197.485 221.002 197.571 221.479 197.743 221.886C197.919 222.292 198.165 222.607 198.482 222.832C198.802 223.057 199.177 223.169 199.608 223.169C199.891 223.169 200.148 223.12 200.379 223.021C200.61 222.923 200.805 222.781 200.965 222.597C201.125 222.412 201.239 222.19 201.307 221.932H202.397C202.335 222.35 202.183 222.727 201.94 223.063C201.699 223.395 201.381 223.66 200.984 223.857C200.59 224.051 200.131 224.148 199.608 224.148ZM207.955 224V217.906H206.071C205.647 217.906 205.313 218.005 205.07 218.202C204.826 218.399 204.705 218.67 204.705 219.014C204.705 219.353 204.814 219.619 205.033 219.813C205.254 220.007 205.557 220.104 205.942 220.104H208.232V221.119H205.942C205.462 221.119 205.048 221.035 204.7 220.865C204.352 220.696 204.085 220.455 203.897 220.141C203.709 219.824 203.615 219.448 203.615 219.014C203.615 218.577 203.714 218.202 203.911 217.888C204.108 217.574 204.389 217.332 204.756 217.163C205.125 216.994 205.564 216.909 206.071 216.909H208.989V224H207.955ZM203.228 224L205.24 220.473H206.422L204.409 224H203.228ZM214.045 224V216.909H219.622V224H218.533V217.925H215.135V224H214.045ZM224.192 224.148C223.552 224.148 222.991 223.995 222.507 223.691C222.027 223.386 221.652 222.96 221.381 222.412C221.113 221.864 220.979 221.224 220.979 220.491C220.979 219.753 221.113 219.108 221.381 218.557C221.652 218.006 222.027 217.578 222.507 217.274C222.991 216.969 223.552 216.817 224.192 216.817C224.833 216.817 225.393 216.969 225.873 217.274C226.356 217.578 226.731 218.006 226.999 218.557C227.27 219.108 227.405 219.753 227.405 220.491C227.405 221.224 227.27 221.864 226.999 222.412C226.731 222.96 226.356 223.386 225.873 223.691C225.393 223.995 224.833 224.148 224.192 224.148ZM224.192 223.169C224.679 223.169 225.079 223.044 225.393 222.795C225.707 222.546 225.939 222.218 226.09 221.812C226.241 221.406 226.316 220.965 226.316 220.491C226.316 220.018 226.241 219.576 226.09 219.167C225.939 218.757 225.707 218.426 225.393 218.174C225.079 217.922 224.679 217.795 224.192 217.795C223.706 217.795 223.306 217.922 222.992 218.174C222.678 218.426 222.446 218.757 222.295 219.167C222.144 219.576 222.069 220.018 222.069 220.491C222.069 220.965 222.144 221.406 222.295 221.812C222.446 222.218 222.678 222.546 222.992 222.795C223.306 223.044 223.706 223.169 224.192 223.169ZM229.858 222.393L233.274 216.909H234.53V224H233.44V218.516L230.043 224H228.769V216.909H229.858V222.393ZM239.106 224.148C238.441 224.148 237.869 223.991 237.389 223.677C236.909 223.363 236.539 222.931 236.281 222.38C236.022 221.829 235.893 221.199 235.893 220.491C235.893 219.771 236.025 219.136 236.29 218.585C236.558 218.031 236.93 217.598 237.407 217.288C237.887 216.974 238.447 216.817 239.088 216.817C239.586 216.817 240.036 216.909 240.436 217.094C240.836 217.278 241.163 217.537 241.419 217.869C241.674 218.202 241.833 218.589 241.894 219.033H240.805C240.722 218.71 240.537 218.423 240.251 218.174C239.968 217.922 239.586 217.795 239.106 217.795C238.681 217.795 238.309 217.906 237.989 218.128C237.672 218.346 237.424 218.656 237.246 219.056C237.07 219.453 236.982 219.919 236.982 220.455C236.982 221.002 237.069 221.479 237.241 221.886C237.416 222.292 237.663 222.607 237.98 222.832C238.3 223.057 238.675 223.169 239.106 223.169C239.389 223.169 239.646 223.12 239.877 223.021C240.108 222.923 240.303 222.781 240.463 222.597C240.623 222.412 240.737 222.19 240.805 221.932H241.894C241.833 222.35 241.681 222.727 241.437 223.063C241.197 223.395 240.879 223.66 240.482 223.857C240.088 224.051 239.629 224.148 239.106 224.148ZM243.187 224V216.909H244.277V219.993H244.997L247.545 216.909H248.948L246.086 220.325L248.985 224H247.582L245.255 221.009H244.277V224H243.187ZM252.458 224.148C251.818 224.148 251.256 223.995 250.773 223.691C250.293 223.386 249.918 222.96 249.647 222.412C249.379 221.864 249.245 221.224 249.245 220.491C249.245 219.753 249.379 219.108 249.647 218.557C249.918 218.006 250.293 217.578 250.773 217.274C251.256 216.969 251.818 216.817 252.458 216.817C253.098 216.817 253.658 216.969 254.139 217.274C254.622 217.578 254.997 218.006 255.265 218.557C255.536 219.108 255.671 219.753 255.671 220.491C255.671 221.224 255.536 221.864 255.265 222.412C254.997 222.96 254.622 223.386 254.139 223.691C253.658 223.995 253.098 224.148 252.458 224.148ZM252.458 223.169C252.944 223.169 253.345 223.044 253.658 222.795C253.972 222.546 254.205 222.218 254.356 221.812C254.506 221.406 254.582 220.965 254.582 220.491C254.582 220.018 254.506 219.576 254.356 219.167C254.205 218.757 253.972 218.426 253.658 218.174C253.345 217.922 252.944 217.795 252.458 217.795C251.972 217.795 251.572 217.922 251.258 218.174C250.944 218.426 250.712 218.757 250.561 219.167C250.41 219.576 250.335 220.018 250.335 220.491C250.335 220.965 250.41 221.406 250.561 221.812C250.712 222.218 250.944 222.546 251.258 222.795C251.572 223.044 251.972 223.169 252.458 223.169ZM260.912 222.523L263.387 216.909H264.421L261.355 224H260.469L257.459 216.909H258.475L260.912 222.523ZM258.124 216.909V224H257.034V216.909H258.124ZM263.701 224V216.909H264.79V224H263.701ZM268.109 222.707L268.035 223.206C267.983 223.557 267.903 223.932 267.795 224.332C267.691 224.732 267.582 225.109 267.468 225.463C267.354 225.817 267.26 226.099 267.186 226.308H266.355C266.395 226.111 266.447 225.851 266.512 225.528C266.577 225.205 266.641 224.843 266.706 224.443C266.774 224.046 266.829 223.64 266.872 223.224L266.928 222.707H268.109ZM48.4661 241.148C47.7828 241.148 47.1935 240.997 46.698 240.695C46.2055 240.391 45.8254 239.966 45.5577 239.421C45.293 238.873 45.1607 238.236 45.1607 237.51C45.1607 236.784 45.293 236.143 45.5577 235.589C45.8254 235.032 46.1978 234.598 46.6749 234.288C47.155 233.974 47.7151 233.817 48.3553 233.817C48.7246 233.817 49.0893 233.878 49.4494 234.001C49.8095 234.125 50.1372 234.325 50.4327 234.602C50.7281 234.875 50.9636 235.239 51.139 235.691C51.3144 236.143 51.4021 236.701 51.4021 237.362V237.824H45.9362V236.882H50.2942C50.2942 236.482 50.2142 236.125 50.0541 235.811C49.8972 235.497 49.6725 235.249 49.3801 235.068C49.0908 234.886 48.7492 234.795 48.3553 234.795C47.9213 234.795 47.5458 234.903 47.2289 235.119C46.9149 235.331 46.6733 235.608 46.5041 235.95C46.3348 236.291 46.2502 236.657 46.2502 237.048V237.676C46.2502 238.212 46.3425 238.666 46.5271 239.038C46.7149 239.407 46.9749 239.689 47.3073 239.883C47.6397 240.074 48.026 240.169 48.4661 240.169C48.7523 240.169 49.0108 240.129 49.2416 240.049C49.4755 239.966 49.6771 239.843 49.8464 239.68C50.0157 239.513 50.1465 239.307 50.2388 239.061L51.2914 239.357C51.1806 239.714 50.9944 240.027 50.7328 240.298C50.4712 240.566 50.148 240.775 49.7633 240.926C49.3786 241.074 48.9462 241.148 48.4661 241.148ZM55.6401 241.148C54.9754 241.148 54.4029 240.991 53.9228 240.677C53.4427 240.363 53.0734 239.931 52.8149 239.38C52.5563 238.829 52.4271 238.199 52.4271 237.491C52.4271 236.771 52.5594 236.136 52.8241 235.585C53.0918 235.031 53.4642 234.598 53.9413 234.288C54.4214 233.974 54.9815 233.817 55.6217 233.817C56.1203 233.817 56.5696 233.909 56.9697 234.094C57.3698 234.278 57.6976 234.537 57.953 234.869C58.2084 235.202 58.3669 235.589 58.4285 236.033H57.339C57.2559 235.71 57.0713 235.423 56.785 235.174C56.5019 234.922 56.1203 234.795 55.6401 234.795C55.2154 234.795 54.843 234.906 54.523 235.128C54.206 235.346 53.9582 235.656 53.7797 236.056C53.6043 236.453 53.5166 236.919 53.5166 237.455C53.5166 238.002 53.6027 238.479 53.7751 238.886C53.9505 239.292 54.1967 239.607 54.5137 239.832C54.8338 240.057 55.2093 240.169 55.6401 240.169C55.9233 240.169 56.1803 240.12 56.4111 240.021C56.6419 239.923 56.8373 239.781 56.9974 239.597C57.1574 239.412 57.2713 239.19 57.339 238.932H58.4285C58.3669 239.35 58.2146 239.727 57.9715 240.063C57.7314 240.395 57.4129 240.66 57.0159 240.857C56.6219 241.051 56.1633 241.148 55.6401 241.148ZM59.0933 241V239.984H59.3519C59.5642 239.984 59.7412 239.943 59.8828 239.86C60.0243 239.774 60.1382 239.624 60.2244 239.412C60.3136 239.196 60.3813 238.898 60.4275 238.516C60.4767 238.132 60.5121 237.642 60.5337 237.048L60.6629 233.909H65.3902V241H64.3007V234.925H61.697L61.5862 237.455C61.5616 238.036 61.5093 238.549 61.4293 238.992C61.3523 239.432 61.2338 239.801 61.0738 240.1C60.9168 240.398 60.7076 240.623 60.446 240.774C60.1844 240.925 59.8566 241 59.4627 241H59.0933ZM68.1786 239.393L71.5948 233.909H72.8505V241H71.761V235.516L68.3633 241H67.0891V233.909H68.1786V239.393ZM78.9917 239.393L82.4079 233.909H83.6636V241H82.5741V235.516L79.1764 241H77.9022V233.909H78.9917V239.393ZM95.0352 239.984L94.9059 243.031H93.7795V241H92.8562V239.984H95.0352ZM85.3591 233.909H86.4486V239.984H89.1261V233.909H90.2156V239.984H92.8932V233.909H93.9826V241H85.3591V233.909ZM97.4093 239.393L100.825 233.909H102.081V241H100.992V235.516L97.594 241H96.3198V233.909H97.4093V239.393ZM102.812 234.925V233.909H108.573V234.925H106.246V241H105.157V234.925H102.812ZM112.467 241.148C111.784 241.148 111.195 240.997 110.699 240.695C110.207 240.391 109.827 239.966 109.559 239.421C109.294 238.873 109.162 238.236 109.162 237.51C109.162 236.784 109.294 236.143 109.559 235.589C109.827 235.032 110.199 234.598 110.676 234.288C111.156 233.974 111.716 233.817 112.356 233.817C112.726 233.817 113.09 233.878 113.451 234.001C113.811 234.125 114.138 234.325 114.434 234.602C114.729 234.875 114.965 235.239 115.14 235.691C115.316 236.143 115.403 236.701 115.403 237.362V237.824H109.937V236.882H114.295C114.295 236.482 114.215 236.125 114.055 235.811C113.898 235.497 113.674 235.249 113.381 235.068C113.092 234.886 112.75 234.795 112.356 234.795C111.922 234.795 111.547 234.903 111.23 235.119C110.916 235.331 110.675 235.608 110.505 235.95C110.336 236.291 110.251 236.657 110.251 237.048V237.676C110.251 238.212 110.344 238.666 110.528 239.038C110.716 239.407 110.976 239.689 111.309 239.883C111.641 240.074 112.027 240.169 112.467 240.169C112.753 240.169 113.012 240.129 113.243 240.049C113.477 239.966 113.678 239.843 113.848 239.68C114.017 239.513 114.148 239.307 114.24 239.061L115.293 239.357C115.182 239.714 114.996 240.027 114.734 240.298C114.472 240.566 114.149 240.775 113.764 240.926C113.38 241.074 112.947 241.148 112.467 241.148ZM125.583 233.909V241H124.493V233.909H125.583ZM125.158 237.288V238.304C124.912 238.396 124.667 238.478 124.424 238.549C124.181 238.616 123.925 238.67 123.658 238.71C123.39 238.747 123.096 238.766 122.776 238.766C121.973 238.766 121.328 238.549 120.842 238.115C120.358 237.681 120.117 237.03 120.117 236.162V233.891H121.206V236.162C121.206 236.525 121.276 236.824 121.414 237.058C121.553 237.291 121.74 237.465 121.977 237.579C122.214 237.693 122.481 237.75 122.776 237.75C123.238 237.75 123.655 237.708 124.027 237.625C124.403 237.539 124.78 237.427 125.158 237.288ZM126.317 234.925V233.909H132.078V234.925H129.752V241H128.662V234.925H126.317ZM135.88 241.148C135.24 241.148 134.678 240.995 134.195 240.691C133.715 240.386 133.339 239.96 133.069 239.412C132.801 238.864 132.667 238.224 132.667 237.491C132.667 236.753 132.801 236.108 133.069 235.557C133.339 235.006 133.715 234.578 134.195 234.274C134.678 233.969 135.24 233.817 135.88 233.817C136.52 233.817 137.08 233.969 137.56 234.274C138.044 234.578 138.419 235.006 138.687 235.557C138.958 236.108 139.093 236.753 139.093 237.491C139.093 238.224 138.958 238.864 138.687 239.412C138.419 239.96 138.044 240.386 137.56 240.691C137.08 240.995 136.52 241.148 135.88 241.148ZM135.88 240.169C136.366 240.169 136.766 240.044 137.08 239.795C137.394 239.546 137.627 239.218 137.777 238.812C137.928 238.406 138.004 237.965 138.004 237.491C138.004 237.018 137.928 236.576 137.777 236.167C137.627 235.757 137.394 235.426 137.08 235.174C136.766 234.922 136.366 234.795 135.88 234.795C135.394 234.795 134.994 234.922 134.68 235.174C134.366 235.426 134.133 235.757 133.983 236.167C133.832 236.576 133.756 237.018 133.756 237.491C133.756 237.965 133.832 238.406 133.983 238.812C134.133 239.218 134.366 239.546 134.68 239.795C134.994 240.044 135.394 240.169 135.88 240.169ZM144.519 236.439V237.455H140.382V236.439H144.519ZM145.361 234.925V233.909H151.123V234.925H148.796V241H147.706V234.925H145.361ZM154.924 241.148C154.284 241.148 153.722 240.995 153.239 240.691C152.759 240.386 152.384 239.96 152.113 239.412C151.845 238.864 151.711 238.224 151.711 237.491C151.711 236.753 151.845 236.108 152.113 235.557C152.384 235.006 152.759 234.578 153.239 234.274C153.722 233.969 154.284 233.817 154.924 233.817C155.564 233.817 156.125 233.969 156.605 234.274C157.088 234.578 157.463 235.006 157.731 235.557C158.002 236.108 158.137 236.753 158.137 237.491C158.137 238.224 158.002 238.864 157.731 239.412C157.463 239.96 157.088 240.386 156.605 240.691C156.125 240.995 155.564 241.148 154.924 241.148ZM154.924 240.169C155.411 240.169 155.811 240.044 156.125 239.795C156.439 239.546 156.671 239.218 156.822 238.812C156.972 238.406 157.048 237.965 157.048 237.491C157.048 237.018 156.972 236.576 156.822 236.167C156.671 235.757 156.439 235.426 156.125 235.174C155.811 234.922 155.411 234.795 154.924 234.795C154.438 234.795 154.038 234.922 153.724 235.174C153.41 235.426 153.178 235.757 153.027 236.167C152.876 236.576 152.801 237.018 152.801 237.491C152.801 237.965 152.876 238.406 153.027 238.812C153.178 239.218 153.41 239.546 153.724 239.795C154.038 240.044 154.438 240.169 154.924 240.169ZM162.857 241V233.909H163.946V236.993H164.666L167.215 233.909H168.618L165.756 237.325L168.655 241H167.252L164.925 238.009H163.946V241H162.857ZM172.128 241.148C171.488 241.148 170.926 240.995 170.443 240.691C169.963 240.386 169.587 239.96 169.316 239.412C169.049 238.864 168.915 238.224 168.915 237.491C168.915 236.753 169.049 236.108 169.316 235.557C169.587 235.006 169.963 234.578 170.443 234.274C170.926 233.969 171.488 233.817 172.128 233.817C172.768 233.817 173.328 233.969 173.808 234.274C174.291 234.578 174.667 235.006 174.935 235.557C175.205 236.108 175.341 236.753 175.341 237.491C175.341 238.224 175.205 238.864 174.935 239.412C174.667 239.96 174.291 240.386 173.808 240.691C173.328 240.995 172.768 241.148 172.128 241.148ZM172.128 240.169C172.614 240.169 173.014 240.044 173.328 239.795C173.642 239.546 173.874 239.218 174.025 238.812C174.176 238.406 174.251 237.965 174.251 237.491C174.251 237.018 174.176 236.576 174.025 236.167C173.874 235.757 173.642 235.426 173.328 235.174C173.014 234.922 172.614 234.795 172.128 234.795C171.642 234.795 171.241 234.922 170.928 235.174C170.614 235.426 170.381 235.757 170.23 236.167C170.08 236.576 170.004 237.018 170.004 237.491C170.004 237.965 170.08 238.406 170.23 238.812C170.381 239.218 170.614 239.546 170.928 239.795C171.241 240.044 171.642 240.169 172.128 240.169ZM181.45 236.956V237.972H177.535V236.956H181.45ZM177.793 233.909V241H176.704V233.909H177.793ZM182.281 233.909V241H181.191V233.909H182.281ZM183.97 241V233.909H185.06V236.993H185.78L188.328 233.909H189.732L186.87 237.325L189.769 241H188.365L186.039 238.009H185.06V241H183.97ZM190.653 243.659V233.909H191.705V235.036H191.835C191.915 234.912 192.025 234.755 192.167 234.565C192.312 234.371 192.518 234.198 192.786 234.048C193.056 233.894 193.423 233.817 193.884 233.817C194.481 233.817 195.008 233.966 195.463 234.265C195.919 234.563 196.274 234.986 196.53 235.534C196.785 236.082 196.913 236.728 196.913 237.473C196.913 238.224 196.785 238.875 196.53 239.426C196.274 239.974 195.92 240.398 195.468 240.7C195.015 240.998 194.494 241.148 193.903 241.148C193.447 241.148 193.083 241.072 192.809 240.922C192.535 240.768 192.324 240.594 192.176 240.4C192.029 240.203 191.915 240.04 191.835 239.911H191.742V243.659H190.653ZM191.724 237.455C191.724 237.99 191.802 238.462 191.959 238.872C192.116 239.278 192.346 239.597 192.647 239.827C192.949 240.055 193.318 240.169 193.755 240.169C194.211 240.169 194.591 240.049 194.895 239.809C195.203 239.566 195.434 239.24 195.588 238.83C195.745 238.418 195.823 237.959 195.823 237.455C195.823 236.956 195.746 236.507 195.592 236.107C195.442 235.703 195.212 235.385 194.905 235.151C194.6 234.914 194.217 234.795 193.755 234.795C193.312 234.795 192.94 234.908 192.638 235.132C192.336 235.354 192.109 235.665 191.955 236.065C191.801 236.462 191.724 236.925 191.724 237.455ZM201.248 241.148C200.564 241.148 199.975 240.997 199.48 240.695C198.987 240.391 198.607 239.966 198.339 239.421C198.075 238.873 197.942 238.236 197.942 237.51C197.942 236.784 198.075 236.143 198.339 235.589C198.607 235.032 198.979 234.598 199.457 234.288C199.937 233.974 200.497 233.817 201.137 233.817C201.506 233.817 201.871 233.878 202.231 234.001C202.591 234.125 202.919 234.325 203.214 234.602C203.51 234.875 203.745 235.239 203.921 235.691C204.096 236.143 204.184 236.701 204.184 237.362V237.824H198.718V236.882H203.076C203.076 236.482 202.996 236.125 202.836 235.811C202.679 235.497 202.454 235.249 202.162 235.068C201.872 234.886 201.531 234.795 201.137 234.795C200.703 234.795 200.327 234.903 200.01 235.119C199.697 235.331 199.455 235.608 199.286 235.95C199.116 236.291 199.032 236.657 199.032 237.048V237.676C199.032 238.212 199.124 238.666 199.309 239.038C199.497 239.407 199.757 239.689 200.089 239.883C200.421 240.074 200.808 240.169 201.248 240.169C201.534 240.169 201.792 240.129 202.023 240.049C202.257 239.966 202.459 239.843 202.628 239.68C202.797 239.513 202.928 239.307 203.02 239.061L204.073 239.357C203.962 239.714 203.776 240.027 203.514 240.298C203.253 240.566 202.93 240.775 202.545 240.926C202.16 241.074 201.728 241.148 201.248 241.148ZM204.881 234.925V233.909H210.642V234.925H208.316V241H207.226V234.925H204.881ZM216.677 236.956V237.972H212.762V236.956H216.677ZM213.021 233.909V241H211.932V233.909H213.021ZM217.508 233.909V241H216.419V233.909H217.508ZM222.079 241.148C221.438 241.148 220.877 240.995 220.394 240.691C219.913 240.386 219.538 239.96 219.267 239.412C218.999 238.864 218.866 238.224 218.866 237.491C218.866 236.753 218.999 236.108 219.267 235.557C219.538 235.006 219.913 234.578 220.394 234.274C220.877 233.969 221.438 233.817 222.079 233.817C222.719 233.817 223.279 233.969 223.759 234.274C224.242 234.578 224.618 235.006 224.885 235.557C225.156 236.108 225.292 236.753 225.292 237.491C225.292 238.224 225.156 238.864 224.885 239.412C224.618 239.96 224.242 240.386 223.759 240.691C223.279 240.995 222.719 241.148 222.079 241.148ZM222.079 240.169C222.565 240.169 222.965 240.044 223.279 239.795C223.593 239.546 223.825 239.218 223.976 238.812C224.127 238.406 224.202 237.965 224.202 237.491C224.202 237.018 224.127 236.576 223.976 236.167C223.825 235.757 223.593 235.426 223.279 235.174C222.965 234.922 222.565 234.795 222.079 234.795C221.592 234.795 221.192 234.922 220.878 235.174C220.564 235.426 220.332 235.757 220.181 236.167C220.03 236.576 219.955 237.018 219.955 237.491C219.955 237.965 220.03 238.406 220.181 238.812C220.332 239.218 220.564 239.546 220.878 239.795C221.192 240.044 221.592 240.169 222.079 240.169ZM229.628 241.148C228.945 241.148 228.355 240.997 227.86 240.695C227.367 240.391 226.987 239.966 226.719 239.421C226.455 238.873 226.322 238.236 226.322 237.51C226.322 236.784 226.455 236.143 226.719 235.589C226.987 235.032 227.36 234.598 227.837 234.288C228.317 233.974 228.877 233.817 229.517 233.817C229.886 233.817 230.251 233.878 230.611 234.001C230.971 234.125 231.299 234.325 231.594 234.602C231.89 234.875 232.125 235.239 232.301 235.691C232.476 236.143 232.564 236.701 232.564 237.362V237.824H227.098V236.882H231.456C231.456 236.482 231.376 236.125 231.216 235.811C231.059 235.497 230.834 235.249 230.542 235.068C230.253 234.886 229.911 234.795 229.517 234.795C229.083 234.795 228.708 234.903 228.391 235.119C228.077 235.331 227.835 235.608 227.666 235.95C227.497 236.291 227.412 236.657 227.412 237.048V237.676C227.412 238.212 227.504 238.666 227.689 239.038C227.877 239.407 228.137 239.689 228.469 239.883C228.801 240.074 229.188 240.169 229.628 240.169C229.914 240.169 230.173 240.129 230.403 240.049C230.637 239.966 230.839 239.843 231.008 239.68C231.177 239.513 231.308 239.307 231.401 239.061L232.453 239.357C232.342 239.714 232.156 240.027 231.894 240.298C231.633 240.566 231.31 240.775 230.925 240.926C230.54 241.074 230.108 241.148 229.628 241.148ZM234.715 241.074C234.487 241.074 234.292 240.992 234.129 240.829C233.966 240.666 233.884 240.471 233.884 240.243C233.884 240.015 233.966 239.82 234.129 239.657C234.292 239.493 234.487 239.412 234.715 239.412C234.943 239.412 235.138 239.493 235.302 239.657C235.465 239.82 235.546 240.015 235.546 240.243C235.546 240.394 235.508 240.532 235.431 240.658C235.357 240.785 235.257 240.886 235.131 240.963C235.008 241.037 234.869 241.074 234.715 241.074Z" fill="#6B6B6B"/>
    <rect opacity="0.5" y="265" width="280" height="48" rx="10" fill="#C6ECE8"/>
    <path d="M95.2784 295V283.364H97.0341V288.42H102.835V283.364H104.597V295H102.835V289.926H97.0341V295H95.2784ZM109.557 295.193C109.004 295.193 108.504 295.091 108.057 294.886C107.61 294.678 107.256 294.377 106.994 293.983C106.737 293.589 106.608 293.106 106.608 292.534C106.608 292.042 106.703 291.636 106.892 291.318C107.081 291 107.337 290.748 107.659 290.562C107.981 290.377 108.341 290.237 108.739 290.142C109.136 290.047 109.542 289.975 109.955 289.926C110.477 289.866 110.902 289.816 111.227 289.778C111.553 289.737 111.79 289.67 111.938 289.58C112.085 289.489 112.159 289.341 112.159 289.136V289.097C112.159 288.6 112.019 288.216 111.739 287.943C111.462 287.67 111.049 287.534 110.5 287.534C109.928 287.534 109.477 287.661 109.148 287.915C108.822 288.165 108.597 288.443 108.472 288.75L106.875 288.386C107.064 287.856 107.341 287.428 107.705 287.102C108.072 286.773 108.494 286.534 108.972 286.386C109.449 286.235 109.951 286.159 110.477 286.159C110.826 286.159 111.195 286.201 111.585 286.284C111.979 286.364 112.347 286.511 112.688 286.727C113.032 286.943 113.314 287.252 113.534 287.653C113.754 288.051 113.864 288.568 113.864 289.205V295H112.205V293.807H112.136C112.027 294.027 111.862 294.242 111.642 294.455C111.422 294.667 111.14 294.843 110.795 294.983C110.451 295.123 110.038 295.193 109.557 295.193ZM109.926 293.83C110.396 293.83 110.797 293.737 111.131 293.551C111.468 293.366 111.723 293.123 111.898 292.824C112.076 292.521 112.165 292.197 112.165 291.852V290.727C112.104 290.788 111.987 290.845 111.812 290.898C111.642 290.947 111.447 290.991 111.227 291.028C111.008 291.062 110.794 291.095 110.585 291.125C110.377 291.152 110.203 291.174 110.062 291.193C109.733 291.235 109.432 291.305 109.159 291.403C108.89 291.502 108.674 291.644 108.511 291.83C108.352 292.011 108.273 292.254 108.273 292.557C108.273 292.977 108.428 293.295 108.739 293.511C109.049 293.723 109.445 293.83 109.926 293.83ZM125.94 286.273V287.739H122.037V295H120.361V286.273H125.94ZM126.33 295L126.324 293.528H126.636C126.879 293.528 127.081 293.477 127.244 293.375C127.411 293.269 127.547 293.091 127.653 292.841C127.759 292.591 127.841 292.246 127.898 291.807C127.955 291.364 127.996 290.807 128.023 290.136L128.176 286.273H134.267V295H132.602V287.739H129.75L129.614 290.705C129.58 291.424 129.506 292.053 129.392 292.591C129.282 293.129 129.121 293.578 128.909 293.938C128.697 294.294 128.424 294.561 128.091 294.739C127.758 294.913 127.352 295 126.875 295H126.33ZM139.072 295.193C138.519 295.193 138.019 295.091 137.572 294.886C137.125 294.678 136.771 294.377 136.51 293.983C136.252 293.589 136.124 293.106 136.124 292.534C136.124 292.042 136.218 291.636 136.408 291.318C136.597 291 136.853 290.748 137.175 290.562C137.497 290.377 137.857 290.237 138.254 290.142C138.652 290.047 139.057 289.975 139.47 289.926C139.993 289.866 140.417 289.816 140.743 289.778C141.069 289.737 141.305 289.67 141.453 289.58C141.601 289.489 141.675 289.341 141.675 289.136V289.097C141.675 288.6 141.535 288.216 141.254 287.943C140.978 287.67 140.565 287.534 140.016 287.534C139.444 287.534 138.993 287.661 138.663 287.915C138.338 288.165 138.112 288.443 137.987 288.75L136.391 288.386C136.58 287.856 136.857 287.428 137.22 287.102C137.588 286.773 138.01 286.534 138.487 286.386C138.964 286.235 139.466 286.159 139.993 286.159C140.341 286.159 140.711 286.201 141.101 286.284C141.495 286.364 141.862 286.511 142.203 286.727C142.548 286.943 142.83 287.252 143.05 287.653C143.269 288.051 143.379 288.568 143.379 289.205V295H141.72V293.807H141.652C141.542 294.027 141.377 294.242 141.158 294.455C140.938 294.667 140.656 294.843 140.311 294.983C139.966 295.123 139.554 295.193 139.072 295.193ZM139.442 293.83C139.911 293.83 140.313 293.737 140.646 293.551C140.983 293.366 141.239 293.123 141.413 292.824C141.591 292.521 141.68 292.197 141.68 291.852V290.727C141.62 290.788 141.502 290.845 141.328 290.898C141.158 290.947 140.963 290.991 140.743 291.028C140.523 291.062 140.309 291.095 140.101 291.125C139.893 291.152 139.718 291.174 139.578 291.193C139.249 291.235 138.947 291.305 138.675 291.403C138.406 291.502 138.19 291.644 138.027 291.83C137.868 292.011 137.788 292.254 137.788 292.557C137.788 292.977 137.944 293.295 138.254 293.511C138.565 293.723 138.961 293.83 139.442 293.83ZM145.642 295V286.273H149.261C150.246 286.273 151.027 286.483 151.602 286.903C152.178 287.32 152.466 287.886 152.466 288.602C152.466 289.114 152.303 289.519 151.977 289.818C151.652 290.117 151.22 290.318 150.682 290.42C151.072 290.466 151.43 290.583 151.756 290.773C152.081 290.958 152.343 291.208 152.54 291.523C152.741 291.837 152.841 292.212 152.841 292.648C152.841 293.11 152.722 293.519 152.483 293.875C152.244 294.227 151.898 294.504 151.443 294.705C150.992 294.902 150.449 295 149.812 295H145.642ZM147.239 293.58H149.812C150.233 293.58 150.563 293.479 150.801 293.278C151.04 293.078 151.159 292.805 151.159 292.46C151.159 292.055 151.04 291.737 150.801 291.506C150.563 291.271 150.233 291.153 149.812 291.153H147.239V293.58ZM147.239 289.909H149.278C149.597 289.909 149.869 289.864 150.097 289.773C150.328 289.682 150.504 289.553 150.625 289.386C150.75 289.216 150.812 289.015 150.812 288.784C150.812 288.447 150.674 288.184 150.398 287.994C150.121 287.805 149.742 287.71 149.261 287.71H147.239V289.909ZM160.619 289.903V291.375H155.892V289.903H160.619ZM156.369 286.273V295H154.705V286.273H156.369ZM161.807 286.273V295H160.148V286.273H161.807ZM164.841 298.273C164.587 298.273 164.356 298.252 164.148 298.21C163.939 298.172 163.784 298.131 163.682 298.085L164.091 296.693C164.402 296.777 164.678 296.813 164.92 296.801C165.163 296.79 165.377 296.699 165.562 296.528C165.752 296.358 165.919 296.08 166.062 295.693L166.273 295.114L163.08 286.273H164.898L167.108 293.045H167.199L169.409 286.273H171.233L167.636 296.165C167.47 296.619 167.258 297.004 167 297.318C166.742 297.636 166.436 297.875 166.08 298.034C165.723 298.193 165.311 298.273 164.841 298.273ZM177.222 289.966V291.443H172.568V289.966H177.222ZM173.949 286.273V295H172.25V286.273H173.949ZM179.881 295.176C179.07 295.176 178.362 294.987 177.756 294.608C177.15 294.229 176.68 293.703 176.347 293.028C176.013 292.35 175.847 291.564 175.847 290.67C175.847 289.769 176.013 288.981 176.347 288.307C176.68 287.629 177.15 287.102 177.756 286.727C178.362 286.348 179.07 286.159 179.881 286.159C180.695 286.159 181.403 286.348 182.006 286.727C182.612 287.102 183.081 287.629 183.415 288.307C183.752 288.981 183.92 289.769 183.92 290.67C183.92 291.564 183.752 292.35 183.415 293.028C183.081 293.703 182.612 294.229 182.006 294.608C181.403 294.987 180.695 295.176 179.881 295.176ZM179.881 293.722C180.43 293.722 180.879 293.583 181.227 293.307C181.58 293.027 181.839 292.655 182.006 292.193C182.172 291.731 182.256 291.223 182.256 290.67C182.256 290.114 182.172 289.604 182.006 289.142C181.839 288.676 181.58 288.303 181.227 288.023C180.879 287.742 180.43 287.602 179.881 287.602C179.335 287.602 178.886 287.742 178.534 288.023C178.182 288.303 177.922 288.676 177.756 289.142C177.589 289.604 177.506 290.114 177.506 290.67C177.506 291.223 177.589 291.731 177.756 292.193C177.922 292.655 178.182 293.027 178.534 293.307C178.886 293.583 179.335 293.722 179.881 293.722Z" fill="#0CE3CB"/>
</svg>
