<svg width="118" height="40" viewBox="0 0 118 40" fill="none" xmlns="http://www.w3.org/2000/svg">
<path fill-rule="evenodd" clip-rule="evenodd" d="M23.1848 14.9197C26.2867 15.0123 29.4219 9.54361 33.9923 9.68C45.59 10.0263 33.0018 31.2749 26.1681 39.4575C26.0607 39.5859 26.0693 39.7726 26.1847 39.8944C26.3 40.0156 26.487 40.0368 26.6202 39.9355C35.6755 33.0539 45.5555 23.8557 45.9129 11.9138C46.0773 6.43054 43.2909 1.39083 35.8273 1.16771C31.6514 1.04324 28.3028 3.55448 25.5051 6.50005C21.65 10.5592 21.5678 0.314292 11.231 0.00576551C1.41996 -0.286871 -2.219 10.6175 1.3298 19.6939C4.41652 27.5898 12.1811 34.0192 18.6614 39.2827C18.7914 39.3879 18.977 39.3813 19.0983 39.2661C19.2203 39.1509 19.2375 38.9662 19.1388 38.8311C14.3715 32.272 7.10613 21.9416 7.36601 15.1825C7.47606 12.3078 9.2773 9.51912 12.1824 9.45291C17.1446 9.34036 19.4875 14.8098 23.1854 14.9203L23.1848 14.9197Z" fill="#FEFEFE"/>
<path fill-rule="evenodd" clip-rule="evenodd" d="M85.5955 14.6275C85.5869 16.6515 85.5531 20.4107 85.5279 22.3526C85.5027 24.2944 85.4861 24.4209 85.4039 24.5593C85.3217 24.6976 85.1746 24.8499 84.8656 24.9115C84.5567 24.9731 84.0847 24.9446 83.669 24.8188C83.2533 24.6923 82.894 24.4679 82.6646 24.2415C82.4346 24.015 82.3345 23.7873 82.2377 22.052C82.1409 20.3167 82.0481 17.0752 82.0182 15.2962C81.9884 13.5172 82.0229 13.202 82.1303 12.9313C82.2377 12.6605 82.4187 12.434 82.7614 12.203C83.1042 11.9719 83.6087 11.7369 84.0396 11.6534C84.4698 11.5707 84.8272 11.6395 85.0698 11.7269C85.3125 11.8137 85.4417 11.9189 85.5147 12.1162C85.5876 12.3129 85.6035 12.6029 85.5949 14.6268L85.5955 14.6275Z" fill="#FEFEFE"/>
<path fill-rule="evenodd" clip-rule="evenodd" d="M89.9204 9.04776C90.4103 8.91535 91.463 8.89813 92.1545 9.00671C92.846 9.11463 93.3034 9.35232 93.5175 9.84953C93.731 10.3461 93.7012 11.1015 93.6462 13.144C93.5911 15.1865 93.5116 18.5154 93.4413 21.3961C93.371 24.2768 93.31 26.7093 93.2365 28.2115C93.1629 29.7144 93.078 30.2871 92.8095 30.5678C92.541 30.8479 92.0889 30.836 91.6009 30.6347C91.1124 30.4334 90.5051 30.1163 90.2306 29.6442C89.9561 29.1715 89.9316 28.6167 89.8885 25.5566C89.8461 22.4965 89.8673 16.8569 89.7221 13.8365C89.5769 10.8162 89.5491 9.95216 89.5173 9.56021C89.4854 9.16826 89.4311 9.18084 89.921 9.04776H89.9204Z" fill="#FEFEFE"/>
<path fill-rule="evenodd" clip-rule="evenodd" d="M96.1926 22.7986C97.5596 21.2043 98.9134 19.5948 100.251 17.9754C101.936 15.9362 103.187 14.4591 104.251 13.0072C105.316 11.5552 105.42 11.1527 105.3 10.6528C105.181 10.153 104.84 9.55577 104.467 9.26247C104.094 8.96917 103.527 8.81491 103.208 8.92349C102.89 9.03207 102.655 9.2393 102.415 9.47831C99.0128 12.8714 96.3782 16.6175 93.1695 20.3257C91.2794 22.5099 91.2794 22.5099 91.2854 22.7052C91.2914 22.9005 91.304 23.2905 91.3219 23.5712C91.3404 23.8513 91.3643 24.0221 92.7346 24.6776C94.1043 25.3323 96.8197 26.4718 99.2939 27.4424C101.768 28.413 104.002 29.2154 105.337 29.6914C106.671 30.1675 107.106 30.3164 107.476 30.2297C107.846 30.143 108.152 29.8199 108.243 29.32C108.335 28.8201 108.213 28.1435 107.999 27.6774C107.786 27.2113 107.48 26.9551 107.013 26.7201C106.547 26.4857 105.917 26.2718 104.9 25.9593C101.871 25.0298 99.1182 24.0115 96.1926 22.7979V22.7986Z" fill="#FEFEFE"/>
<path fill-rule="evenodd" clip-rule="evenodd" d="M107.24 14.145C108.95 12.6044 111.282 10.8062 113.741 11.4372C114.577 11.6517 115.535 12.0675 116.215 12.5971C118.304 14.2271 118.434 20.1607 117.253 22.3369C116.089 24.4814 113.544 25.6989 111.14 25.4334C109.008 25.1977 105.751 23.5551 104.439 21.845C102.606 19.4569 105.48 15.732 107.241 14.1457L107.24 14.145ZM107.604 18.4108C107.041 19.7124 107.372 20.3712 108.402 21.2445C110.401 22.9381 113.963 23.4512 114.811 20.2911C115.187 18.8941 115.093 16.9052 114.415 15.6109C113.678 14.2013 112.491 14.1556 111.182 14.8382C110.17 15.3666 108.056 17.3674 107.604 18.4108Z" fill="#FEFEFE"/>
<path fill-rule="evenodd" clip-rule="evenodd" d="M73.1603 14.1448C73.4003 17.0559 73.635 27.6233 75.2937 29.6036C75.9202 30.3517 76.6289 30.3828 77.2899 30.4226C77.9515 30.4623 78.3367 30.4451 78.5296 30.4371C78.7225 30.4292 78.7225 30.4292 78.5011 28.7018C78.2797 26.9751 77.8375 23.5211 77.5431 19.9744C77.2488 16.4276 77.1023 12.7882 77.0294 10.9688C76.9564 9.14944 76.9564 9.14944 76.9564 9.14944C75.9912 8.9197 74.7978 8.90315 73.7371 8.97267C72.7917 9.03424 72.0373 9.27722 71.4904 9.72478C70.9428 10.1717 70.602 10.8232 69.7521 13.3006C68.9665 15.5908 67.746 19.442 66.493 23.4105C66.0627 21.9367 65.6318 20.4411 65.187 18.631C64.7077 16.6812 64.2118 14.3666 63.8657 12.8921C63.5197 11.417 63.3221 10.7808 62.9575 10.4782C62.5928 10.175 62.0605 10.2048 61.4241 10.4094C60.7876 10.6133 60.0471 10.9927 59.3245 11.6395C58.6018 12.2864 57.8971 13.2013 57.2408 14.542C56.5845 15.8827 55.9779 17.6498 55.4316 19.6188C54.886 21.5878 54.4014 23.7588 54.1282 25.2518C53.8544 26.7447 53.7914 27.5604 53.7967 28.1384C53.8021 28.7164 53.875 29.0574 54.0885 29.4539C54.3019 29.8505 54.6553 30.3027 55.0597 30.6914C55.4641 31.0793 55.9195 31.4038 56.2331 31.5448C56.546 31.6858 56.7171 31.6441 56.8397 31.556C56.9624 31.468 57.0366 31.3342 57.0611 30.9237C57.0857 30.5133 57.0611 29.828 57.1553 28.8203C57.2494 27.8127 57.4622 26.4832 57.8859 24.8068C58.3095 23.1305 58.9446 21.1065 59.5413 19.5513C59.9762 18.4178 60.3905 17.5333 60.7995 16.7163C61.2636 18.2245 61.7211 19.7089 62.1414 21.0595C62.6505 22.6948 63.1053 24.1335 63.6947 25.5887C64.0639 26.5004 65.775 30.6457 66.8033 30.7668C67.1586 30.8092 67.5113 30.5232 67.7718 30.2524C68.5276 29.4672 68.8995 27.7988 69.2171 26.7937C69.7687 25.0498 70.8108 21.7553 71.4691 19.6513C72.1275 17.5479 72.744 15.5067 73.1617 14.1468L73.1603 14.1448Z" fill="#FEFEFE"/>
</svg>
