<svg width="32" height="32" viewBox="0 0 32 32" fill="none" xmlns="http://www.w3.org/2000/svg">
    <g opacity="0.5">
        <path d="M5.03867 4.87366C4.79733 5.35366 4.67867 5.94833 4.44133 7.13499L3.644 11.1217C3.531 11.6652 3.53012 12.2261 3.64143 12.7701C3.75273 13.314 3.97387 13.8294 4.29132 14.2849C4.60876 14.7404 5.01582 15.1263 5.48759 15.419C5.95935 15.7117 6.48589 15.9051 7.03496 15.9872C7.58404 16.0693 8.14411 16.0385 8.68087 15.8967C9.21764 15.7549 9.71981 15.505 10.1567 15.1624C10.5935 14.8197 10.9558 14.3915 11.2214 13.904C11.487 13.4164 11.6503 12.8798 11.7013 12.327L11.7947 11.407C11.7431 11.9926 11.8144 12.5826 12.0039 13.1391C12.1935 13.6956 12.4972 14.2064 12.8956 14.6387C13.2939 15.0711 13.7782 15.4155 14.3173 15.6499C14.8565 15.8843 15.4386 16.0036 16.0265 16C16.6144 15.9965 17.1951 15.8702 17.7313 15.6293C18.2676 15.3884 18.7477 15.0382 19.1408 14.6011C19.5339 14.1639 19.8314 13.6495 20.0143 13.0908C20.1971 12.5321 20.2613 11.9413 20.2027 11.3563L20.3013 12.327C20.3523 12.8798 20.5157 13.4164 20.7813 13.904C21.0469 14.3915 21.4092 14.8197 21.846 15.1624C22.2829 15.505 22.785 15.7549 23.3218 15.8967C23.8586 16.0385 24.4186 16.0693 24.9677 15.9872C25.5168 15.9051 26.0433 15.7117 26.5151 15.419C26.9868 15.1263 27.3939 14.7404 27.7113 14.2849C28.0288 13.8294 28.2499 13.314 28.3612 12.7701C28.4725 12.2261 28.4717 11.6652 28.3587 11.1217L27.5613 7.13499C27.324 5.94833 27.2053 5.35499 26.964 4.87366C26.7125 4.37238 26.3585 3.92957 25.9248 3.57399C25.4911 3.21841 24.9875 2.958 24.4467 2.80966C23.9267 2.66699 23.3213 2.66699 22.1107 2.66699H9.892C8.68133 2.66699 8.076 2.66699 7.556 2.80966C7.01516 2.958 6.51155 3.21841 6.07787 3.57399C5.64419 3.92957 5.29013 4.37238 5.03867 4.87366ZM24.3587 18.0003C25.4009 18.0032 26.4261 17.7363 27.3347 17.2257V18.667C27.3347 23.695 27.3347 26.2097 25.772 27.771C24.5147 29.0297 22.6413 29.2737 19.3347 29.3217V24.667C19.3347 23.4203 19.3347 22.7977 19.0667 22.3337C18.8911 22.0296 18.6387 21.7772 18.3347 21.6017C17.8707 21.3337 17.248 21.3337 16.0013 21.3337C14.7547 21.3337 14.132 21.3337 13.668 21.6017C13.364 21.7772 13.1115 22.0296 12.936 22.3337C12.668 22.7977 12.668 23.4203 12.668 24.667V29.3217C9.36133 29.2737 7.488 29.0283 6.23067 27.771C4.668 26.2097 4.668 23.695 4.668 18.667V17.2257C5.57655 17.7363 6.60178 18.0032 7.644 18.0003C9.18488 18.0014 10.6684 17.416 11.7933 16.363C12.9398 17.4191 14.4426 18.0038 16.0013 18.0003C17.5596 18.0033 19.0618 17.4187 20.208 16.363C21.3339 17.417 22.8191 18.0024 24.3613 18.0003H24.3587Z" fill="#060606"/>
    </g>
</svg>
