<svg width="44" height="44" viewBox="0 0 44 44" fill="none" xmlns="http://www.w3.org/2000/svg">
    <rect opacity="0.3" width="44" height="44" rx="10" fill="white"/>
    <path d="M28.3274 32.4996C27.4124 32.4996 26.1271 32.1686 24.2024 31.0933C21.862 29.7808 20.0516 28.5691 17.7238 26.2474C15.4795 24.0044 14.3873 22.5522 12.8587 19.7707C11.1318 16.63 11.4262 14.9838 11.7552 14.2802C12.1471 13.4393 12.7256 12.9363 13.4732 12.4371C13.8979 12.1588 14.3473 11.9203 14.8157 11.7246C14.8626 11.7044 14.9062 11.6852 14.9451 11.6678C15.1771 11.5633 15.5287 11.4053 15.974 11.5741C16.2712 11.6857 16.5365 11.9139 16.9518 12.3241C17.8035 13.1641 18.9674 15.0349 19.3968 15.9536C19.6851 16.5728 19.8759 16.9816 19.8763 17.44C19.8763 17.9768 19.6063 18.3907 19.2787 18.8374C19.2173 18.9213 19.1563 19.0014 19.0973 19.0793C18.7406 19.548 18.6623 19.6835 18.7138 19.9253C18.8184 20.4114 19.5979 21.8585 20.879 23.1368C22.1601 24.415 23.5654 25.1453 24.0534 25.2494C24.3056 25.3033 24.4438 25.2218 24.9276 24.8524C24.997 24.7994 25.0682 24.7446 25.1427 24.6897C25.6424 24.318 26.0371 24.055 26.5612 24.055H26.564C27.0201 24.055 27.4106 24.2528 28.0574 24.5791C28.9012 25.0047 30.8282 26.1536 31.6734 27.0063C32.0845 27.4207 32.3137 27.685 32.4257 27.9818C32.5945 28.4285 32.4356 28.7786 32.332 29.013C32.3146 29.0519 32.2954 29.0946 32.2752 29.1419C32.0779 29.6095 31.838 30.058 31.5585 30.4816C31.0602 31.2269 30.5554 31.8039 29.7126 32.1963C29.2798 32.401 28.8062 32.5047 28.3274 32.4996Z" fill="white"/>
</svg>

