<svg width="54" height="39" viewBox="0 0 54 39" fill="none" xmlns="http://www.w3.org/2000/svg">
    <path d="M32.0781 2.84375C30.0377 2.84375 28.2269 3.64914 27 5.03344C25.7731 3.64914 23.9623 2.84375 21.9219 2.84375C20.1448 2.8459 18.441 3.55281 17.1844 4.80942C15.9278 6.06604 15.2209 7.76976 15.2188 9.54688C15.2188 16.8939 25.9651 22.7642 26.4221 23.011C26.5997 23.1067 26.7983 23.1567 27 23.1567C27.2017 23.1567 27.4003 23.1067 27.5779 23.011C28.0349 22.7642 38.7812 16.8939 38.7812 9.54688C38.7791 7.76976 38.0722 6.06604 36.8156 4.80942C35.559 3.55281 33.8552 2.8459 32.0781 2.84375ZM31.5205 17.3022C30.1061 18.5025 28.594 19.5828 27 20.5319C25.406 19.5828 23.8939 18.5025 22.4795 17.3022C20.2786 15.4141 17.6562 12.5348 17.6562 9.54688C17.6562 8.41556 18.1057 7.33058 18.9056 6.53062C19.7056 5.73066 20.7906 5.28125 21.9219 5.28125C23.7297 5.28125 25.243 6.23594 25.8716 7.77359C25.9631 7.99775 26.1193 8.18957 26.3203 8.3246C26.5213 8.45963 26.7579 8.53174 27 8.53174C27.2421 8.53174 27.4787 8.45963 27.6797 8.3246C27.8807 8.18957 28.0369 7.99775 28.1284 7.77359C28.757 6.23594 30.2703 5.28125 32.0781 5.28125C33.2094 5.28125 34.2944 5.73066 35.0944 6.53062C35.8943 7.33058 36.3438 8.41556 36.3438 9.54688C36.3438 12.5348 33.7214 15.4141 31.5205 17.3022Z" fill="#0CE3CB"/>
    <path d="M0.880682 28.7273H1.74716V34.4517H1.81818L5.79545 28.7273H6.64773V36H5.76705V30.2898H5.69602L1.73295 36H0.880682V28.7273ZM7.95543 34.608H8.85032C8.86926 34.8542 8.98053 35.0412 9.18413 35.169C9.39009 35.2969 9.65761 35.3608 9.98668 35.3608C10.3229 35.3608 10.6105 35.2921 10.8496 35.1548C11.0887 35.0152 11.2083 34.7902 11.2083 34.4801C11.2083 34.2978 11.1633 34.1392 11.0733 34.0043C10.9834 33.867 10.8567 33.7604 10.6934 33.6847C10.53 33.6089 10.3371 33.571 10.1145 33.571H9.17702V32.8182H10.1145C10.4483 32.8182 10.6945 32.7424 10.8532 32.5909C11.0141 32.4394 11.0946 32.25 11.0946 32.0227C11.0946 31.7789 11.0082 31.5836 10.8354 31.4368C10.6626 31.2876 10.4176 31.2131 10.1003 31.2131C9.78072 31.2131 9.51438 31.2853 9.30131 31.4297C9.08825 31.5717 8.97579 31.7552 8.96396 31.9801H8.08327C8.09274 31.6866 8.18271 31.4273 8.35316 31.2024C8.52362 30.9751 8.75562 30.7976 9.04918 30.6697C9.34274 30.5395 9.67892 30.4744 10.0577 30.4744C10.4412 30.4744 10.7739 30.5419 11.0556 30.6768C11.3397 30.8094 11.5587 30.9905 11.7125 31.2202C11.8688 31.4474 11.9469 31.7055 11.9469 31.9943C11.9469 32.3021 11.8605 32.5507 11.6877 32.7401C11.5149 32.9295 11.2982 33.0644 11.0378 33.1449V33.2017C11.2438 33.2159 11.4225 33.2822 11.574 33.4006C11.7279 33.5166 11.8475 33.6693 11.9327 33.8587C12.0179 34.0457 12.0605 34.2528 12.0605 34.4801C12.0605 34.8116 11.9718 35.1004 11.7942 35.3466C11.6167 35.5904 11.3728 35.7798 11.0627 35.9148C10.7525 36.0473 10.3986 36.1136 10.0009 36.1136C9.615 36.1136 9.26935 36.0509 8.96396 35.9254C8.65856 35.7976 8.4159 35.6212 8.23597 35.3963C8.05842 35.169 7.9649 34.9062 7.95543 34.608ZM17.286 28.5L17.7122 29.0114C17.5465 29.1723 17.3547 29.2848 17.1369 29.3487C16.9191 29.4126 16.6729 29.4517 16.3983 29.4659C16.1236 29.4801 15.8182 29.4943 15.4821 29.5085C15.1033 29.5227 14.7896 29.6151 14.541 29.7855C14.2924 29.956 14.1007 30.2022 13.9657 30.5241C13.8308 30.8461 13.7444 31.2415 13.7065 31.7102H13.7775C13.9622 31.3693 14.2179 31.1184 14.5446 30.9574C14.8713 30.7964 15.2217 30.7159 15.5957 30.7159C16.0218 30.7159 16.4054 30.8153 16.7463 31.0142C17.0872 31.2131 17.3571 31.5078 17.5559 31.8984C17.7548 32.2891 17.8542 32.7708 17.8542 33.3438C17.8542 33.9143 17.7524 34.4067 17.5488 34.821C17.3476 35.2353 17.0647 35.5549 16.7001 35.7798C16.3379 36.0024 15.9129 36.1136 15.4252 36.1136C14.9376 36.1136 14.5102 35.9988 14.1433 35.7692C13.7763 35.5372 13.4911 35.1939 13.2875 34.7393C13.0839 34.2824 12.9821 33.7178 12.9821 33.0455V32.4631C12.9821 31.2486 13.188 30.3277 13.6 29.7003C14.0143 29.0729 14.6369 28.7486 15.4679 28.7273C15.7614 28.7178 16.023 28.7154 16.2527 28.7202C16.4823 28.7249 16.6824 28.7143 16.8528 28.6882C17.0233 28.6622 17.1677 28.5994 17.286 28.5ZM15.4252 35.3608C15.7543 35.3608 16.0372 35.2779 16.274 35.1122C16.5131 34.9465 16.6966 34.7133 16.8244 34.4126C16.9522 34.1096 17.0162 33.7533 17.0162 33.3438C17.0162 32.946 16.9511 32.6075 16.8208 32.3281C16.693 32.0488 16.5095 31.8357 16.2704 31.6889C16.0313 31.5421 15.7449 31.4688 15.411 31.4688C15.1672 31.4688 14.9482 31.5102 14.7541 31.593C14.56 31.6759 14.3942 31.7978 14.2569 31.9588C14.1196 32.1198 14.0131 32.3163 13.9373 32.5483C13.8639 32.7803 13.8249 33.0455 13.8201 33.3438C13.8201 33.9545 13.9634 34.4434 14.2498 34.8104C14.5363 35.1773 14.9281 35.3608 15.4252 35.3608ZM19.1362 38.0455V30.5455H19.9458V31.4119H20.0453C20.1068 31.3172 20.1921 31.1965 20.301 31.0497C20.4122 30.9006 20.5708 30.768 20.7768 30.652C20.9851 30.5336 21.2669 30.4744 21.622 30.4744C22.0813 30.4744 22.4861 30.5893 22.8365 30.8189C23.1868 31.0485 23.4603 31.3741 23.6568 31.7955C23.8533 32.2169 23.9515 32.714 23.9515 33.2869C23.9515 33.8646 23.8533 34.3653 23.6568 34.7891C23.4603 35.2105 23.188 35.5372 22.84 35.7692C22.492 35.9988 22.0907 36.1136 21.6362 36.1136C21.2858 36.1136 21.0053 36.0556 20.7946 35.9396C20.5839 35.8213 20.4217 35.6875 20.3081 35.5384C20.1944 35.3868 20.1068 35.2614 20.0453 35.1619H19.9743V38.0455H19.1362ZM19.96 33.2727C19.96 33.6847 20.0204 34.0481 20.1412 34.3629C20.2619 34.6754 20.4383 34.9205 20.6703 35.098C20.9023 35.2732 21.1864 35.3608 21.5225 35.3608C21.8729 35.3608 22.1653 35.2685 22.3997 35.0838C22.6364 34.8968 22.814 34.6458 22.9324 34.331C23.0531 34.0137 23.1135 33.661 23.1135 33.2727C23.1135 32.8892 23.0543 32.5436 22.9359 32.2358C22.8199 31.9257 22.6435 31.6806 22.4068 31.5007C22.1724 31.3184 21.8777 31.2273 21.5225 31.2273C21.1816 31.2273 20.8952 31.3137 20.6632 31.4865C20.4312 31.657 20.256 31.8961 20.1376 32.2038C20.0192 32.5092 19.96 32.8655 19.96 33.2727ZM26.835 36.1278C26.4894 36.1278 26.1757 36.0627 25.894 35.9325C25.6123 35.8 25.3886 35.6094 25.2228 35.3608C25.0571 35.1098 24.9743 34.8068 24.9743 34.4517C24.9743 34.1392 25.0358 33.8859 25.1589 33.6918C25.282 33.4953 25.4466 33.3414 25.6525 33.2301C25.8585 33.1188 26.0858 33.036 26.3343 32.9815C26.5853 32.9247 26.8374 32.8797 27.0907 32.8466C27.4222 32.804 27.6909 32.772 27.8968 32.7507C28.1052 32.727 28.2567 32.688 28.3514 32.6335C28.4484 32.5791 28.497 32.4844 28.497 32.3494V32.321C28.497 31.9706 28.4011 31.6984 28.2093 31.5043C28.0199 31.3101 27.7323 31.2131 27.3464 31.2131C26.9463 31.2131 26.6326 31.3007 26.4054 31.4759C26.1781 31.651 26.0183 31.8381 25.926 32.0369L25.1305 31.7528C25.2725 31.4214 25.4619 31.1634 25.6987 30.9787C25.9378 30.7917 26.1982 30.6615 26.4799 30.5881C26.764 30.5123 27.0434 30.4744 27.318 30.4744C27.4932 30.4744 27.6944 30.4957 27.9217 30.5384C28.1513 30.5786 28.3727 30.6626 28.5858 30.7905C28.8012 30.9183 28.9799 31.1113 29.122 31.3693C29.264 31.6274 29.335 31.973 29.335 32.4062V36H28.497V35.2614H28.4544C28.3975 35.3797 28.3029 35.5064 28.1703 35.6413C28.0377 35.7763 27.8613 35.8911 27.6412 35.9858C27.421 36.0805 27.1523 36.1278 26.835 36.1278ZM26.9629 35.375C27.2943 35.375 27.5737 35.3099 27.801 35.1797C28.0306 35.0495 28.2034 34.8814 28.3194 34.6754C28.4378 34.4695 28.497 34.2528 28.497 34.0256V33.2585C28.4615 33.3011 28.3833 33.3402 28.2626 33.3757C28.1442 33.4089 28.0069 33.4384 27.8507 33.4645C27.6968 33.4882 27.5465 33.5095 27.3997 33.5284C27.2553 33.545 27.1381 33.5592 27.0481 33.571C26.8303 33.5994 26.6267 33.6456 26.4373 33.7095C26.2503 33.7711 26.0988 33.8646 25.9828 33.9901C25.8691 34.1132 25.8123 34.2812 25.8123 34.4943C25.8123 34.7855 25.92 35.0057 26.1355 35.1548C26.3533 35.3016 26.6291 35.375 26.9629 35.375ZM34.5153 32.8892V33.6705H31.5039V32.8892H34.5153ZM31.7028 30.5455V36H30.8647V30.5455H31.7028ZM35.1545 30.5455V36H34.3164V30.5455H35.1545ZM40.3356 32.8892V33.6705H37.3242V32.8892H40.3356ZM37.5231 30.5455V36H36.685V30.5455H37.5231ZM40.9748 30.5455V36H40.1367V30.5455H40.9748ZM44.7212 36.1136C44.2288 36.1136 43.7968 35.9964 43.4251 35.7621C43.0558 35.5277 42.7669 35.1998 42.5586 34.7784C42.3526 34.357 42.2496 33.8646 42.2496 33.3011C42.2496 32.733 42.3526 32.237 42.5586 31.8132C42.7669 31.3894 43.0558 31.0604 43.4251 30.826C43.7968 30.5916 44.2288 30.4744 44.7212 30.4744C45.2137 30.4744 45.6445 30.5916 46.0138 30.826C46.3855 31.0604 46.6744 31.3894 46.8803 31.8132C47.0887 32.237 47.1928 32.733 47.1928 33.3011C47.1928 33.8646 47.0887 34.357 46.8803 34.7784C46.6744 35.1998 46.3855 35.5277 46.0138 35.7621C45.6445 35.9964 45.2137 36.1136 44.7212 36.1136ZM44.7212 35.3608C45.0953 35.3608 45.4031 35.2649 45.6445 35.0732C45.886 34.8814 46.0647 34.6293 46.1808 34.3168C46.2968 34.0043 46.3548 33.6657 46.3548 33.3011C46.3548 32.9366 46.2968 32.5968 46.1808 32.282C46.0647 31.9671 45.886 31.7126 45.6445 31.5185C45.4031 31.3243 45.0953 31.2273 44.7212 31.2273C44.3472 31.2273 44.0394 31.3243 43.7979 31.5185C43.5565 31.7126 43.3777 31.9671 43.2617 32.282C43.1457 32.5968 43.0877 32.9366 43.0877 33.3011C43.0877 33.6657 43.1457 34.0043 43.2617 34.3168C43.3777 34.6293 43.5565 34.8814 43.7979 35.0732C44.0394 35.2649 44.3472 35.3608 44.7212 35.3608ZM50.7591 36.1136C50.2335 36.1136 49.7801 35.9976 49.399 35.7656C49.0202 35.5312 48.7278 35.2045 48.5218 34.7855C48.3182 34.3641 48.2164 33.8741 48.2164 33.3153C48.2164 32.7566 48.3182 32.2642 48.5218 31.8381C48.7278 31.4096 49.0143 31.0758 49.3812 30.8366C49.7505 30.5952 50.1814 30.4744 50.6738 30.4744C50.9579 30.4744 51.2385 30.5218 51.5154 30.6165C51.7924 30.7112 52.0446 30.8651 52.2718 31.0781C52.4991 31.2888 52.6802 31.5682 52.8152 31.9162C52.9501 32.2642 53.0176 32.6927 53.0176 33.2017V33.5568H48.813V32.8324H52.1653C52.1653 32.5246 52.1038 32.25 51.9806 32.0085C51.8599 31.767 51.6871 31.5765 51.4622 31.4368C51.2396 31.2971 50.9769 31.2273 50.6738 31.2273C50.34 31.2273 50.0512 31.3101 49.8074 31.4759C49.5659 31.6392 49.38 31.8523 49.2498 32.1151C49.1196 32.3778 49.0545 32.6596 49.0545 32.9602V33.4432C49.0545 33.8551 49.1255 34.2043 49.2676 34.4908C49.412 34.7749 49.612 34.9915 49.8677 35.1406C50.1234 35.2874 50.4205 35.3608 50.7591 35.3608C50.9792 35.3608 51.1781 35.33 51.3556 35.2685C51.5356 35.2045 51.6906 35.1098 51.8208 34.9844C51.9511 34.8565 52.0517 34.6979 52.1227 34.5085L52.9324 34.7358C52.8471 35.0104 52.7039 35.2519 52.5027 35.4602C52.3014 35.6662 52.0529 35.8272 51.7569 35.9432C51.461 36.0568 51.1284 36.1136 50.7591 36.1136Z" fill="#0CE3CB"/>
</svg>
