<svg width="40" height="38" viewBox="0 0 40 38" fill="none" xmlns="http://www.w3.org/2000/svg">
    <path d="M28.6668 10.8334C28.6668 10.5461 28.5526 10.2706 28.3495 10.0674C28.1463 9.86423 27.8707 9.75009 27.5834 9.75009C27.2961 9.75009 27.0206 9.86423 26.8174 10.0674C26.6142 10.2706 26.5001 10.5461 26.5001 10.8334H28.6668ZM13.5001 10.8334C13.5001 10.5461 13.386 10.2706 13.1828 10.0674C12.9796 9.86423 12.7041 9.75009 12.4168 9.75009C12.1294 9.75009 11.8539 9.86423 11.6507 10.0674C11.4476 10.2706 11.3334 10.5461 11.3334 10.8334H13.5001ZM28.9842 13.766C29.1885 13.9633 29.4621 14.0725 29.7462 14.0701C30.0302 14.0676 30.302 13.9537 30.5028 13.7528C30.7037 13.552 30.8176 13.2802 30.8201 12.9962C30.8225 12.7121 30.7133 12.4385 30.516 12.2342L28.9842 13.766ZM20.0001 3.25009L20.766 2.48418C20.5628 2.28108 20.2873 2.16699 20.0001 2.16699C19.7128 2.16699 19.4373 2.28108 19.2342 2.48418L20.0001 3.25009ZM9.48417 12.2342C9.3807 12.3341 9.29817 12.4537 9.24139 12.5858C9.18462 12.718 9.15473 12.8601 9.15348 13.004C9.15223 13.1478 9.17964 13.2905 9.23411 13.4236C9.28859 13.5568 9.36903 13.6777 9.47074 13.7794C9.57246 13.8812 9.69342 13.9616 9.82655 14.0161C9.95969 14.0705 10.1023 14.0979 10.2462 14.0967C10.39 14.0954 10.5322 14.0656 10.6644 14.0088C10.7965 13.952 10.9161 13.8695 11.016 13.766L9.48417 12.2342ZM14.5834 23.8334H25.4168V21.6668H14.5834V23.8334ZM28.6668 20.5834V10.8334H26.5001V20.5834H28.6668ZM13.5001 20.5834V10.8334H11.3334V20.5834H13.5001ZM30.516 12.2342L20.766 2.48418L19.2342 4.01601L28.9842 13.766L30.516 12.2342ZM19.2342 2.48418L9.48417 12.2342L11.016 13.766L20.766 4.01601L19.2342 2.48418ZM25.4168 23.8334C26.2787 23.8334 27.1054 23.491 27.7149 22.8815C28.3243 22.272 28.6668 21.4454 28.6668 20.5834H26.5001C26.5001 20.8707 26.386 21.1463 26.1828 21.3495C25.9796 21.5526 25.7041 21.6668 25.4168 21.6668V23.8334ZM14.5834 21.6668C14.2961 21.6668 14.0206 21.5526 13.8174 21.3495C13.6142 21.1463 13.5001 20.8707 13.5001 20.5834H11.3334C11.3334 21.4454 11.6758 22.272 12.2853 22.8815C12.8948 23.491 13.7215 23.8334 14.5834 23.8334V21.6668Z" fill="#0CE3CB"/>
    <path d="M5.26989 28.7273V29.5085H1.76136V36H0.880682V28.7273H5.26989ZM6.03604 36V35.2188H6.23491C6.39826 35.2188 6.53439 35.1868 6.64329 35.1229C6.75219 35.0566 6.83978 34.9418 6.90607 34.7784C6.97473 34.6127 7.02681 34.383 7.06232 34.0895C7.1002 33.7936 7.12743 33.4171 7.144 32.9602L7.24343 30.5455H10.8798V36H10.0417V31.3267H8.03888L7.95366 33.2727C7.93472 33.7202 7.89447 34.1143 7.83292 34.4553C7.77373 34.7938 7.68259 35.0779 7.55948 35.3075C7.43874 35.5372 7.27776 35.71 7.07653 35.826C6.8753 35.942 6.62317 36 6.32013 36H6.03604ZM14.0225 36.1278C13.6769 36.1278 13.3632 36.0627 13.0815 35.9325C12.7998 35.8 12.5761 35.6094 12.4103 35.3608C12.2446 35.1098 12.1618 34.8068 12.1618 34.4517C12.1618 34.1392 12.2233 33.8859 12.3464 33.6918C12.4695 33.4953 12.6341 33.3414 12.84 33.2301C13.046 33.1188 13.2733 33.036 13.5218 32.9815C13.7728 32.9247 14.0249 32.8797 14.2782 32.8466C14.6097 32.804 14.8784 32.772 15.0843 32.7507C15.2927 32.727 15.4442 32.688 15.5389 32.6335C15.6359 32.5791 15.6845 32.4844 15.6845 32.3494V32.321C15.6845 31.9706 15.5886 31.6984 15.3968 31.5043C15.2074 31.3101 14.9198 31.2131 14.5339 31.2131C14.1338 31.2131 13.8201 31.3007 13.5929 31.4759C13.3656 31.651 13.2058 31.8381 13.1135 32.0369L12.318 31.7528C12.46 31.4214 12.6494 31.1634 12.8862 30.9787C13.1253 30.7917 13.3857 30.6615 13.6674 30.5881C13.9515 30.5123 14.2309 30.4744 14.5055 30.4744C14.6807 30.4744 14.8819 30.4957 15.1092 30.5384C15.3388 30.5786 15.5602 30.6626 15.7733 30.7905C15.9887 30.9183 16.1674 31.1113 16.3095 31.3693C16.4515 31.6274 16.5225 31.973 16.5225 32.4062V36H15.6845V35.2614H15.6419C15.585 35.3797 15.4904 35.5064 15.3578 35.6413C15.2252 35.7763 15.0488 35.8911 14.8287 35.9858C14.6085 36.0805 14.3398 36.1278 14.0225 36.1278ZM14.1504 35.375C14.4818 35.375 14.7612 35.3099 14.9885 35.1797C15.2181 35.0495 15.3909 34.8814 15.5069 34.6754C15.6253 34.4695 15.6845 34.2528 15.6845 34.0256V33.2585C15.649 33.3011 15.5708 33.3402 15.4501 33.3757C15.3317 33.4089 15.1944 33.4384 15.0382 33.4645C14.8843 33.4882 14.734 33.5095 14.5872 33.5284C14.4428 33.545 14.3256 33.5592 14.2356 33.571C14.0178 33.5994 13.8142 33.6456 13.6248 33.7095C13.4378 33.7711 13.2863 33.8646 13.1703 33.9901C13.0566 34.1132 12.9998 34.2812 12.9998 34.4943C12.9998 34.7855 13.1075 35.0057 13.323 35.1548C13.5408 35.3016 13.8166 35.375 14.1504 35.375ZM18.0522 36V30.5455H20.2823C20.8694 30.5455 21.3358 30.678 21.6815 30.9432C22.0271 31.2083 22.1999 31.5587 22.1999 31.9943C22.1999 32.3258 22.1017 32.5826 21.9052 32.7649C21.7087 32.9448 21.4566 33.0668 21.1488 33.1307C21.35 33.1591 21.5453 33.2301 21.7347 33.3438C21.9265 33.4574 22.0851 33.6136 22.2106 33.8125C22.3361 34.009 22.3988 34.2505 22.3988 34.5369C22.3988 34.8163 22.3278 35.0661 22.1857 35.2862C22.0437 35.5064 21.8401 35.6804 21.5749 35.8082C21.3098 35.9361 20.9925 36 20.6232 36H18.0522ZM18.8477 35.233H20.6232C20.9121 35.233 21.1381 35.1643 21.3015 35.027C21.4648 34.8897 21.5465 34.7027 21.5465 34.4659C21.5465 34.1842 21.4648 33.9628 21.3015 33.8018C21.1381 33.6385 20.9121 33.5568 20.6232 33.5568H18.8477V35.233ZM18.8477 32.8324H20.2823C20.5072 32.8324 20.7002 32.8016 20.8612 32.7401C21.0221 32.6761 21.1452 32.5862 21.2305 32.4702C21.3181 32.3518 21.3619 32.2121 21.3619 32.0511C21.3619 31.8215 21.266 31.6416 21.0742 31.5114C20.8825 31.3788 20.6185 31.3125 20.2823 31.3125H18.8477V32.8324ZM27.318 32.8892V33.6705H24.3066V32.8892H27.318ZM24.5055 30.5455V36H23.6674V30.5455H24.5055ZM27.9572 30.5455V36H27.1191V30.5455H27.9572ZM31.0929 36.1278C30.7472 36.1278 30.4335 36.0627 30.1518 35.9325C29.8701 35.8 29.6464 35.6094 29.4806 35.3608C29.3149 35.1098 29.2321 34.8068 29.2321 34.4517C29.2321 34.1392 29.2936 33.8859 29.4167 33.6918C29.5398 33.4953 29.7044 33.3414 29.9103 33.2301C30.1163 33.1188 30.3436 33.036 30.5922 32.9815C30.8431 32.9247 31.0952 32.8797 31.3485 32.8466C31.68 32.804 31.9487 32.772 32.1547 32.7507C32.363 32.727 32.5145 32.688 32.6092 32.6335C32.7063 32.5791 32.7548 32.4844 32.7548 32.3494V32.321C32.7548 31.9706 32.6589 31.6984 32.4672 31.5043C32.2778 31.3101 31.9901 31.2131 31.6042 31.2131C31.2041 31.2131 30.8904 31.3007 30.6632 31.4759C30.4359 31.651 30.2761 31.8381 30.1838 32.0369L29.3883 31.7528C29.5304 31.4214 29.7198 31.1634 29.9565 30.9787C30.1956 30.7917 30.456 30.6615 30.7377 30.5881C31.0218 30.5123 31.3012 30.4744 31.5758 30.4744C31.751 30.4744 31.9522 30.4957 32.1795 30.5384C32.4092 30.5786 32.6305 30.6626 32.8436 30.7905C33.059 30.9183 33.2377 31.1113 33.3798 31.3693C33.5218 31.6274 33.5929 31.973 33.5929 32.4062V36H32.7548V35.2614H32.7122C32.6554 35.3797 32.5607 35.5064 32.4281 35.6413C32.2955 35.7763 32.1191 35.8911 31.899 35.9858C31.6788 36.0805 31.4101 36.1278 31.0929 36.1278ZM31.2207 35.375C31.5521 35.375 31.8315 35.3099 32.0588 35.1797C32.2884 35.0495 32.4612 34.8814 32.5772 34.6754C32.6956 34.4695 32.7548 34.2528 32.7548 34.0256V33.2585C32.7193 33.3011 32.6412 33.3402 32.5204 33.3757C32.402 33.4089 32.2647 33.4384 32.1085 33.4645C31.9546 33.4882 31.8043 33.5095 31.6575 33.5284C31.5131 33.545 31.3959 33.5592 31.3059 33.571C31.0881 33.5994 30.8845 33.6456 30.6951 33.7095C30.5081 33.7711 30.3566 33.8646 30.2406 33.9901C30.127 34.1132 30.0701 34.2812 30.0701 34.4943C30.0701 34.7855 30.1779 35.0057 30.3933 35.1548C30.6111 35.3016 30.8869 35.375 31.2207 35.375ZM38.4038 36V31.3125H36.9549C36.6282 31.3125 36.3713 31.3883 36.1843 31.5398C35.9973 31.6913 35.9038 31.8996 35.9038 32.1648C35.9038 32.4252 35.9878 32.63 36.1559 32.7791C36.3263 32.9283 36.5595 33.0028 36.8555 33.0028H38.6168V33.7841H36.8555C36.4862 33.7841 36.1677 33.719 35.9002 33.5888C35.6327 33.4586 35.4267 33.2727 35.2823 33.0312C35.1379 32.7874 35.0657 32.4986 35.0657 32.1648C35.0657 31.8286 35.1415 31.5398 35.293 31.2983C35.4445 31.0568 35.6611 30.871 35.9428 30.7408C36.2269 30.6106 36.5643 30.5455 36.9549 30.5455H39.1992V36H38.4038ZM34.7674 36L36.3157 33.2869H37.2248L35.6765 36H34.7674Z" fill="#0CE3CB"/>
</svg>
