<svg width="41" height="39" viewBox="0 0 41 39" fill="none" xmlns="http://www.w3.org/2000/svg">
    <path d="M16.4375 21.9375C16.8862 21.9375 17.25 21.5737 17.25 21.125C17.25 20.6763 16.8862 20.3125 16.4375 20.3125C15.9888 20.3125 15.625 20.6763 15.625 21.125C15.625 21.5737 15.9888 21.9375 16.4375 21.9375Z" fill="#0CE3CB" stroke="#0CE3CB" stroke-width="1.39286" stroke-linecap="round" stroke-linejoin="round"/>
    <path d="M27.8125 21.9375C28.2612 21.9375 28.625 21.5737 28.625 21.125C28.625 20.6763 28.2612 20.3125 27.8125 20.3125C27.3638 20.3125 27 20.6763 27 21.125C27 21.5737 27.3638 21.9375 27.8125 21.9375Z" fill="#0CE3CB" stroke="#0CE3CB" stroke-width="1.39286" stroke-linecap="round" stroke-linejoin="round"/>
    <path d="M9.9375 4.0625H13.1875L15.625 17.875H28.625" stroke="#0CE3CB" stroke-width="2.32143" stroke-linecap="round" stroke-linejoin="round"/>
    <path d="M15.625 14.625H28.2919C28.3858 14.6251 28.4769 14.5926 28.5496 14.533C28.6223 14.4735 28.6721 14.3906 28.6905 14.2985L30.153 6.98598C30.1648 6.92701 30.1634 6.86616 30.1488 6.80782C30.1342 6.74948 30.1069 6.6951 30.0688 6.6486C30.0306 6.60211 29.9826 6.56466 29.9283 6.53896C29.8739 6.51327 29.8145 6.49996 29.7544 6.5H14" stroke="#0CE3CB" stroke-width="2.32143" stroke-linecap="round" stroke-linejoin="round"/>
    <path d="M5.15625 36L2.65625 32.6619H1.76136V36H0.880682V28.7273H1.76136V31.8807H2.14489L5.05682 28.7273H6.10795L3.16761 31.9233L6.20739 36H5.15625ZM9.04741 36.1136C8.55498 36.1136 8.12293 35.9964 7.75124 35.7621C7.38192 35.5277 7.0931 35.1998 6.88477 34.7784C6.6788 34.357 6.57582 33.8646 6.57582 33.3011C6.57582 32.733 6.6788 32.237 6.88477 31.8132C7.0931 31.3894 7.38192 31.0604 7.75124 30.826C8.12293 30.5916 8.55498 30.4744 9.04741 30.4744C9.53983 30.4744 9.9707 30.5916 10.34 30.826C10.7117 31.0604 11.0005 31.3894 11.2065 31.8132C11.4148 32.237 11.519 32.733 11.519 33.3011C11.519 33.8646 11.4148 34.357 11.2065 34.7784C11.0005 35.1998 10.7117 35.5277 10.34 35.7621C9.9707 35.9964 9.53983 36.1136 9.04741 36.1136ZM9.04741 35.3608C9.42146 35.3608 9.72923 35.2649 9.9707 35.0732C10.2122 34.8814 10.3909 34.6293 10.5069 34.3168C10.6229 34.0043 10.6809 33.6657 10.6809 33.3011C10.6809 32.9366 10.6229 32.5968 10.5069 32.282C10.3909 31.9671 10.2122 31.7126 9.9707 31.5185C9.72923 31.3243 9.42146 31.2273 9.04741 31.2273C8.67335 31.2273 8.36559 31.3243 8.12411 31.5185C7.88264 31.7126 7.70389 31.9671 7.58789 32.282C7.47189 32.5968 7.41388 32.9366 7.41388 33.3011C7.41388 33.6657 7.47189 34.0043 7.58789 34.3168C7.70389 34.6293 7.88264 34.8814 8.12411 35.0732C8.36559 35.2649 8.67335 35.3608 9.04741 35.3608ZM12.7983 38.0455V30.5455H13.608V31.4119H13.7074C13.7689 31.3172 13.8542 31.1965 13.9631 31.0497C14.0743 30.9006 14.233 30.768 14.4389 30.652C14.6473 30.5336 14.929 30.4744 15.2841 30.4744C15.7434 30.4744 16.1482 30.5893 16.4986 30.8189C16.849 31.0485 17.1224 31.3741 17.3189 31.7955C17.5154 32.2169 17.6136 32.714 17.6136 33.2869C17.6136 33.8646 17.5154 34.3653 17.3189 34.7891C17.1224 35.2105 16.8501 35.5372 16.5021 35.7692C16.1541 35.9988 15.7528 36.1136 15.2983 36.1136C14.9479 36.1136 14.6674 36.0556 14.4567 35.9396C14.246 35.8213 14.0838 35.6875 13.9702 35.5384C13.8565 35.3868 13.7689 35.2614 13.7074 35.1619H13.6364V38.0455H12.7983ZM13.6222 33.2727C13.6222 33.6847 13.6825 34.0481 13.8033 34.3629C13.924 34.6754 14.1004 34.9205 14.3324 35.098C14.5644 35.2732 14.8485 35.3608 15.1847 35.3608C15.535 35.3608 15.8274 35.2685 16.0618 35.0838C16.2985 34.8968 16.4761 34.6458 16.5945 34.331C16.7152 34.0137 16.7756 33.661 16.7756 33.2727C16.7756 32.8892 16.7164 32.5436 16.598 32.2358C16.482 31.9257 16.3056 31.6806 16.0689 31.5007C15.8345 31.3184 15.5398 31.2273 15.1847 31.2273C14.8438 31.2273 14.5573 31.3137 14.3253 31.4865C14.0933 31.657 13.9181 31.8961 13.7997 32.2038C13.6813 32.5092 13.6222 32.8655 13.6222 33.2727ZM18.5511 34.608H19.446C19.465 34.8542 19.5762 35.0412 19.7798 35.169C19.9858 35.2969 20.2533 35.3608 20.5824 35.3608C20.9186 35.3608 21.2062 35.2921 21.4453 35.1548C21.6844 35.0152 21.804 34.7902 21.804 34.4801C21.804 34.2978 21.759 34.1392 21.669 34.0043C21.5791 33.867 21.4524 33.7604 21.2891 33.6847C21.1257 33.6089 20.9328 33.571 20.7102 33.571H19.7727V32.8182H20.7102C21.044 32.8182 21.2902 32.7424 21.4489 32.5909C21.6098 32.4394 21.6903 32.25 21.6903 32.0227C21.6903 31.7789 21.6039 31.5836 21.4311 31.4368C21.2583 31.2876 21.0133 31.2131 20.696 31.2131C20.3764 31.2131 20.1101 31.2853 19.897 31.4297C19.6839 31.5717 19.5715 31.7552 19.5597 31.9801H18.679C18.6884 31.6866 18.7784 31.4273 18.9489 31.2024C19.1193 30.9751 19.3513 30.7976 19.6449 30.6697C19.9384 30.5395 20.2746 30.4744 20.6534 30.4744C21.0369 30.4744 21.3696 30.5419 21.6513 30.6768C21.9354 30.8094 22.1544 30.9905 22.3082 31.2202C22.4645 31.4474 22.5426 31.7055 22.5426 31.9943C22.5426 32.3021 22.4562 32.5507 22.2834 32.7401C22.1106 32.9295 21.8939 33.0644 21.6335 33.1449V33.2017C21.8395 33.2159 22.0182 33.2822 22.1697 33.4006C22.3236 33.5166 22.4432 33.6693 22.5284 33.8587C22.6136 34.0457 22.6562 34.2528 22.6562 34.4801C22.6562 34.8116 22.5675 35.1004 22.3899 35.3466C22.2124 35.5904 21.9685 35.7798 21.6584 35.9148C21.3482 36.0473 20.9943 36.1136 20.5966 36.1136C20.2107 36.1136 19.8651 36.0509 19.5597 35.9254C19.2543 35.7976 19.0116 35.6212 18.8317 35.3963C18.6541 35.169 18.5606 34.9062 18.5511 34.608ZM24.6715 34.7642L27.2994 30.5455H28.2653V36H27.4272V31.7812L24.8136 36H23.8335V30.5455H24.6715V34.7642ZM33.4508 32.8892V33.6705H30.4395V32.8892H33.4508ZM30.6383 30.5455V36H29.8002V30.5455H30.6383ZM34.09 30.5455V36H33.252V30.5455H34.09ZM37.2257 36.1278C36.88 36.1278 36.5663 36.0627 36.2846 35.9325C36.0029 35.8 35.7792 35.6094 35.6135 35.3608C35.4477 35.1098 35.3649 34.8068 35.3649 34.4517C35.3649 34.1392 35.4264 33.8859 35.5495 33.6918C35.6726 33.4953 35.8372 33.3414 36.0431 33.2301C36.2491 33.1188 36.4764 33.036 36.725 32.9815C36.9759 32.9247 37.228 32.8797 37.4814 32.8466C37.8128 32.804 38.0815 32.772 38.2875 32.7507C38.4958 32.727 38.6473 32.688 38.742 32.6335C38.8391 32.5791 38.8876 32.4844 38.8876 32.3494V32.321C38.8876 31.9706 38.7917 31.6984 38.6 31.5043C38.4106 31.3101 38.1229 31.2131 37.737 31.2131C37.3369 31.2131 37.0233 31.3007 36.796 31.4759C36.5687 31.651 36.4089 31.8381 36.3166 32.0369L35.5211 31.7528C35.6632 31.4214 35.8526 31.1634 36.0893 30.9787C36.3284 30.7917 36.5888 30.6615 36.8706 30.5881C37.1547 30.5123 37.434 30.4744 37.7086 30.4744C37.8838 30.4744 38.085 30.4957 38.3123 30.5384C38.542 30.5786 38.7633 30.6626 38.9764 30.7905C39.1918 30.9183 39.3706 31.1113 39.5126 31.3693C39.6547 31.6274 39.7257 31.973 39.7257 32.4062V36H38.8876V35.2614H38.845C38.7882 35.3797 38.6935 35.5064 38.5609 35.6413C38.4283 35.7763 38.252 35.8911 38.0318 35.9858C37.8116 36.0805 37.5429 36.1278 37.2257 36.1278ZM37.3535 35.375C37.685 35.375 37.9643 35.3099 38.1916 35.1797C38.4212 35.0495 38.594 34.8814 38.71 34.6754C38.8284 34.4695 38.8876 34.2528 38.8876 34.0256V33.2585C38.8521 33.3011 38.774 33.3402 38.6532 33.3757C38.5349 33.4089 38.3975 33.4384 38.2413 33.4645C38.0874 33.4882 37.9371 33.5095 37.7903 33.5284C37.6459 33.545 37.5287 33.5592 37.4387 33.571C37.2209 33.5994 37.0173 33.6456 36.8279 33.7095C36.6409 33.7711 36.4894 33.8646 36.3734 33.9901C36.2598 34.1132 36.2029 34.2812 36.2029 34.4943C36.2029 34.7855 36.3107 35.0057 36.5261 35.1548C36.7439 35.3016 37.0197 35.375 37.3535 35.375Z" fill="#0CE3CB"/>
</svg>
