<svg width="423" height="461" viewBox="0 0 423 461" fill="none" xmlns="http://www.w3.org/2000/svg">
    <path d="M266.688 35C244.102 35 224.327 44.7125 212 61.1297C199.673 44.7125 179.898 35 157.312 35C139.334 35.0203 122.097 42.1713 109.384 54.8842C96.6713 67.5971 89.5203 84.8337 89.5 102.812C89.5 179.375 203.02 241.347 207.855 243.906C209.129 244.592 210.553 244.95 212 244.95C213.447 244.95 214.871 244.592 216.145 243.906C220.98 241.347 334.5 179.375 334.5 102.812C334.48 84.8337 327.329 67.5971 314.616 54.8842C301.903 42.1713 284.666 35.0203 266.688 35ZM212 226.188C192.028 214.55 107 161.536 107 102.812C107.017 89.4741 112.324 76.687 121.755 67.2554C131.187 57.8237 143.974 52.5174 157.312 52.5C178.586 52.5 196.447 63.8313 203.906 82.0312C204.565 83.6361 205.687 85.0087 207.128 85.9747C208.569 86.9408 210.265 87.4565 212 87.4565C213.735 87.4565 215.431 86.9408 216.872 85.9747C218.313 85.0087 219.435 83.6361 220.094 82.0312C227.553 63.7984 245.414 52.5 266.688 52.5C280.026 52.5174 292.813 57.8237 302.245 67.2554C311.676 76.687 316.983 89.4741 317 102.812C317 161.448 231.95 214.539 212 226.188Z" fill="#0CE3CB"/>
    <path d="M74.1999 288.296V309.464H77.6199V321.488H72.3639V314H56.2719V321.488H51.0159V309.464H52.9959C53.6679 308.12 54.3159 306.704 54.9399 305.216C55.5639 303.728 56.1399 302.132 56.6679 300.428C57.2199 298.724 57.7119 296.876 58.1439 294.884C58.5759 292.868 58.9359 290.672 59.2239 288.296H74.1999ZM63.5439 292.832C63.3759 294.08 63.1359 295.412 62.8239 296.828C62.5119 298.22 62.1399 299.648 61.7079 301.112C61.2999 302.576 60.8439 304.016 60.3399 305.432C59.8359 306.848 59.2959 308.192 58.7199 309.464H68.7639V292.832H63.5439ZM98.6921 304.136C98.6921 305.768 98.4641 307.22 98.0081 308.492C97.5761 309.764 96.9401 310.844 96.1001 311.732C95.2841 312.596 94.2881 313.256 93.1121 313.712C91.9361 314.144 90.6041 314.36 89.1161 314.36C87.7481 314.36 86.4761 314.144 85.3001 313.712C84.1481 313.256 83.1521 312.596 82.3121 311.732C81.4721 310.844 80.8121 309.764 80.3321 308.492C79.8761 307.22 79.6481 305.768 79.6481 304.136C79.6481 301.952 80.0321 300.116 80.8001 298.628C81.5681 297.116 82.6721 295.964 84.1121 295.172C85.5521 294.38 87.2561 293.984 89.2241 293.984C91.0721 293.984 92.7041 294.38 94.1201 295.172C95.5361 295.964 96.6521 297.116 97.4681 298.628C98.2841 300.116 98.6921 301.952 98.6921 304.136ZM85.1201 304.136C85.1201 305.432 85.2521 306.524 85.5161 307.412C85.8041 308.276 86.2481 308.936 86.8481 309.392C87.4481 309.824 88.2281 310.04 89.1881 310.04C90.1481 310.04 90.9161 309.824 91.4921 309.392C92.0921 308.936 92.5241 308.276 92.7881 307.412C93.0761 306.524 93.2201 305.432 93.2201 304.136C93.2201 302.84 93.0761 301.76 92.7881 300.896C92.5241 300.032 92.0921 299.384 91.4921 298.952C90.8921 298.52 90.1121 298.304 89.1521 298.304C87.7361 298.304 86.7041 298.796 86.0561 299.78C85.4321 300.74 85.1201 302.192 85.1201 304.136ZM101.637 302.228C101.637 299.324 101.997 296.864 102.717 294.848C103.437 292.808 104.577 291.188 106.137 289.988C107.697 288.764 109.737 287.936 112.257 287.504C113.529 287.288 114.813 287.108 116.109 286.964C117.429 286.796 118.785 286.628 120.177 286.46L120.789 291.14C120.189 291.212 119.529 291.296 118.809 291.392C118.089 291.464 117.357 291.548 116.613 291.644C115.893 291.716 115.197 291.8 114.525 291.896C113.853 291.992 113.241 292.076 112.689 292.148C111.801 292.292 111.021 292.496 110.349 292.76C109.677 293 109.113 293.348 108.657 293.804C108.201 294.26 107.841 294.884 107.577 295.676C107.337 296.444 107.181 297.44 107.109 298.664H107.361C107.649 298.208 108.045 297.752 108.549 297.296C109.077 296.84 109.725 296.456 110.493 296.144C111.261 295.832 112.137 295.676 113.121 295.676C114.681 295.676 116.037 296 117.189 296.648C118.341 297.296 119.229 298.256 119.853 299.528C120.477 300.8 120.789 302.384 120.789 304.28C120.789 306.512 120.381 308.372 119.565 309.86C118.749 311.348 117.621 312.476 116.181 313.244C114.741 313.988 113.073 314.36 111.177 314.36C109.737 314.36 108.429 314.096 107.253 313.568C106.077 313.04 105.069 312.26 104.229 311.228C103.389 310.196 102.741 308.924 102.285 307.412C101.853 305.9 101.637 304.172 101.637 302.228ZM111.501 310.004C112.269 310.004 112.929 309.836 113.481 309.5C114.057 309.164 114.501 308.612 114.813 307.844C115.149 307.076 115.317 306.044 115.317 304.748C115.317 303.188 115.053 301.952 114.525 301.04C114.021 300.104 113.133 299.636 111.861 299.636C111.093 299.636 110.373 299.828 109.701 300.212C109.053 300.572 108.501 300.992 108.045 301.472C107.589 301.928 107.277 302.324 107.109 302.66C107.109 303.596 107.181 304.508 107.325 305.396C107.469 306.26 107.709 307.04 108.045 307.736C108.381 308.432 108.825 308.984 109.377 309.392C109.953 309.8 110.661 310.004 111.501 310.004ZM132.984 293.948C135.624 293.948 137.64 294.524 139.032 295.676C140.448 296.804 141.156 298.544 141.156 300.896V314H137.412L136.368 311.336H136.224C135.672 312.032 135.096 312.608 134.496 313.064C133.92 313.52 133.248 313.844 132.48 314.036C131.736 314.252 130.812 314.36 129.708 314.36C128.556 314.36 127.512 314.144 126.576 313.712C125.664 313.256 124.944 312.572 124.416 311.66C123.888 310.724 123.624 309.548 123.624 308.132C123.624 306.044 124.356 304.508 125.82 303.524C127.284 302.516 129.48 301.964 132.408 301.868L135.828 301.76V300.896C135.828 299.864 135.552 299.108 135 298.628C134.472 298.148 133.728 297.908 132.768 297.908C131.808 297.908 130.872 298.052 129.96 298.34C129.048 298.604 128.136 298.94 127.224 299.348L125.46 295.712C126.516 295.16 127.68 294.728 128.952 294.416C130.248 294.104 131.592 293.948 132.984 293.948ZM133.74 304.964C132.012 305.012 130.812 305.324 130.14 305.9C129.468 306.476 129.132 307.232 129.132 308.168C129.132 308.984 129.372 309.572 129.852 309.932C130.332 310.268 130.956 310.436 131.724 310.436C132.876 310.436 133.848 310.1 134.64 309.428C135.432 308.732 135.828 307.76 135.828 306.512V304.892L133.74 304.964ZM163.77 299.492C163.77 300.548 163.434 301.448 162.762 302.192C162.114 302.936 161.142 303.416 159.846 303.632V303.776C161.214 303.944 162.306 304.412 163.122 305.18C163.962 305.948 164.382 306.932 164.382 308.132C164.382 308.972 164.214 309.752 163.878 310.472C163.566 311.192 163.062 311.816 162.366 312.344C161.67 312.872 160.77 313.28 159.666 313.568C158.586 313.856 157.266 314 155.706 314H146.346V294.344H155.706C157.242 294.344 158.61 294.512 159.81 294.848C161.034 295.16 161.994 295.688 162.69 296.432C163.41 297.176 163.77 298.196 163.77 299.492ZM158.838 307.844C158.838 307.076 158.538 306.524 157.938 306.188C157.338 305.828 156.438 305.648 155.238 305.648H151.71V310.292H155.346C156.354 310.292 157.182 310.112 157.83 309.752C158.502 309.368 158.838 308.732 158.838 307.844ZM158.334 299.924C158.334 299.3 158.094 298.844 157.614 298.556C157.134 298.268 156.426 298.124 155.49 298.124H151.71V302.012H154.878C156.006 302.012 156.858 301.856 157.434 301.544C158.034 301.208 158.334 300.668 158.334 299.924ZM177.831 301.94C179.847 301.94 181.515 302.156 182.835 302.588C184.155 302.996 185.127 303.632 185.751 304.496C186.399 305.36 186.723 306.44 186.723 307.736C186.723 309.008 186.423 310.112 185.823 311.048C185.247 311.984 184.323 312.716 183.051 313.244C181.779 313.748 180.111 314 178.047 314H168.687V294.344H174.051V301.94H177.831ZM181.359 307.808C181.359 307.04 181.047 306.488 180.423 306.152C179.823 305.816 178.923 305.648 177.723 305.648H174.051V310.292H177.795C178.851 310.292 179.703 310.1 180.351 309.716C181.023 309.332 181.359 308.696 181.359 307.808ZM204.979 298.376H198.535V314H193.171V298.376H186.727V294.344H204.979V298.376ZM216.054 293.984C217.878 293.984 219.438 294.332 220.734 295.028C222.054 295.724 223.074 296.732 223.794 298.052C224.514 299.372 224.874 300.992 224.874 302.912V305.504H212.202C212.25 307.016 212.694 308.204 213.534 309.068C214.398 309.932 215.586 310.364 217.098 310.364C218.37 310.364 219.522 310.244 220.554 310.004C221.586 309.74 222.654 309.344 223.758 308.816V312.956C222.798 313.436 221.778 313.784 220.698 314C219.642 314.24 218.358 314.36 216.846 314.36C214.878 314.36 213.138 314 211.626 313.28C210.114 312.536 208.926 311.42 208.062 309.932C207.198 308.444 206.766 306.572 206.766 304.316C206.766 302.012 207.15 300.104 207.918 298.592C208.71 297.056 209.802 295.904 211.194 295.136C212.586 294.368 214.206 293.984 216.054 293.984ZM216.09 297.8C215.058 297.8 214.194 298.136 213.498 298.808C212.826 299.48 212.43 300.524 212.31 301.94H219.834C219.834 301.148 219.69 300.44 219.402 299.816C219.138 299.192 218.73 298.7 218.178 298.34C217.626 297.98 216.93 297.8 216.09 297.8ZM253.474 298.376H247.03V314H241.666V298.376H235.222V294.344H253.474V298.376ZM274.305 304.136C274.305 305.768 274.077 307.22 273.621 308.492C273.189 309.764 272.553 310.844 271.713 311.732C270.897 312.596 269.901 313.256 268.725 313.712C267.549 314.144 266.217 314.36 264.729 314.36C263.361 314.36 262.089 314.144 260.913 313.712C259.761 313.256 258.765 312.596 257.925 311.732C257.085 310.844 256.425 309.764 255.945 308.492C255.489 307.22 255.261 305.768 255.261 304.136C255.261 301.952 255.645 300.116 256.413 298.628C257.181 297.116 258.285 295.964 259.725 295.172C261.165 294.38 262.869 293.984 264.837 293.984C266.685 293.984 268.317 294.38 269.733 295.172C271.149 295.964 272.265 297.116 273.081 298.628C273.897 300.116 274.305 301.952 274.305 304.136ZM260.733 304.136C260.733 305.432 260.865 306.524 261.129 307.412C261.417 308.276 261.861 308.936 262.461 309.392C263.061 309.824 263.841 310.04 264.801 310.04C265.761 310.04 266.529 309.824 267.105 309.392C267.705 308.936 268.137 308.276 268.401 307.412C268.689 306.524 268.833 305.432 268.833 304.136C268.833 302.84 268.689 301.76 268.401 300.896C268.137 300.032 267.705 299.384 267.105 298.952C266.505 298.52 265.725 298.304 264.765 298.304C263.349 298.304 262.317 298.796 261.669 299.78C261.045 300.74 260.733 302.192 260.733 304.136ZM295.862 299.492C295.862 300.548 295.526 301.448 294.854 302.192C294.206 302.936 293.234 303.416 291.938 303.632V303.776C293.306 303.944 294.398 304.412 295.214 305.18C296.054 305.948 296.474 306.932 296.474 308.132C296.474 308.972 296.306 309.752 295.97 310.472C295.658 311.192 295.154 311.816 294.458 312.344C293.762 312.872 292.862 313.28 291.758 313.568C290.678 313.856 289.358 314 287.798 314H278.438V294.344H287.798C289.334 294.344 290.702 294.512 291.902 294.848C293.126 295.16 294.086 295.688 294.782 296.432C295.502 297.176 295.862 298.196 295.862 299.492ZM290.93 307.844C290.93 307.076 290.63 306.524 290.03 306.188C289.43 305.828 288.53 305.648 287.33 305.648H283.802V310.292H287.438C288.446 310.292 289.274 310.112 289.922 309.752C290.594 309.368 290.93 308.732 290.93 307.844ZM290.426 299.924C290.426 299.3 290.186 298.844 289.706 298.556C289.226 298.268 288.518 298.124 287.582 298.124H283.802V302.012H286.97C288.098 302.012 288.95 301.856 289.526 301.544C290.126 301.208 290.426 300.668 290.426 299.924ZM308.842 293.948C311.482 293.948 313.498 294.524 314.89 295.676C316.306 296.804 317.014 298.544 317.014 300.896V314H313.27L312.226 311.336H312.082C311.53 312.032 310.954 312.608 310.354 313.064C309.778 313.52 309.106 313.844 308.338 314.036C307.594 314.252 306.67 314.36 305.566 314.36C304.414 314.36 303.37 314.144 302.434 313.712C301.522 313.256 300.802 312.572 300.274 311.66C299.746 310.724 299.482 309.548 299.482 308.132C299.482 306.044 300.214 304.508 301.678 303.524C303.142 302.516 305.338 301.964 308.266 301.868L311.686 301.76V300.896C311.686 299.864 311.41 299.108 310.858 298.628C310.33 298.148 309.586 297.908 308.626 297.908C307.666 297.908 306.73 298.052 305.818 298.34C304.906 298.604 303.994 298.94 303.082 299.348L301.318 295.712C302.374 295.16 303.538 294.728 304.81 294.416C306.106 294.104 307.45 293.948 308.842 293.948ZM309.598 304.964C307.87 305.012 306.67 305.324 305.998 305.9C305.326 306.476 304.99 307.232 304.99 308.168C304.99 308.984 305.23 309.572 305.71 309.932C306.19 310.268 306.814 310.436 307.582 310.436C308.734 310.436 309.706 310.1 310.498 309.428C311.29 308.732 311.686 307.76 311.686 306.512V304.892L309.598 304.964ZM333.149 293.984C335.357 293.984 337.145 294.848 338.513 296.576C339.881 298.28 340.565 300.8 340.565 304.136C340.565 306.368 340.241 308.252 339.593 309.788C338.945 311.3 338.057 312.44 336.929 313.208C335.801 313.976 334.493 314.36 333.005 314.36C332.069 314.36 331.253 314.24 330.557 314C329.885 313.76 329.309 313.448 328.829 313.064C328.349 312.68 327.929 312.272 327.569 311.84H327.281C327.377 312.296 327.449 312.776 327.497 313.28C327.545 313.76 327.569 314.24 327.569 314.72V322.64H322.205V294.344H326.561L327.317 296.9H327.569C327.929 296.372 328.361 295.892 328.865 295.46C329.369 295.004 329.969 294.644 330.665 294.38C331.385 294.116 332.213 293.984 333.149 293.984ZM331.421 298.268C330.485 298.268 329.741 298.46 329.189 298.844C328.637 299.228 328.229 299.816 327.965 300.608C327.725 301.376 327.593 302.348 327.569 303.524V304.1C327.569 305.372 327.689 306.452 327.929 307.34C328.169 308.204 328.577 308.864 329.153 309.32C329.729 309.776 330.509 310.004 331.493 310.004C332.309 310.004 332.981 309.776 333.509 309.32C334.037 308.864 334.433 308.192 334.697 307.304C334.961 306.416 335.093 305.336 335.093 304.064C335.093 302.144 334.793 300.704 334.193 299.744C333.617 298.76 332.693 298.268 331.421 298.268ZM344.686 314V294.344H350.05V301.94H352.642C354.658 301.94 356.314 302.156 357.61 302.588C358.906 302.996 359.866 303.632 360.49 304.496C361.138 305.36 361.462 306.44 361.462 307.736C361.462 309.008 361.162 310.112 360.562 311.048C359.986 311.984 359.062 312.716 357.79 313.244C356.542 313.748 354.886 314 352.822 314H344.686ZM352.534 310.292C353.59 310.292 354.442 310.1 355.09 309.716C355.762 309.332 356.098 308.696 356.098 307.808C356.098 307.04 355.786 306.488 355.162 306.152C354.562 305.816 353.662 305.648 352.462 305.648H350.05V310.292H352.534ZM364.306 314V294.344H369.67V314H364.306ZM101.333 357.36C99.3892 357.36 97.7332 357.012 96.3652 356.316C94.9972 355.596 93.9532 354.492 93.2332 353.004C92.5132 351.516 92.1532 349.608 92.1532 347.28C92.1532 344.88 92.5612 342.924 93.3772 341.412C94.1932 339.9 95.3212 338.784 96.7612 338.064C98.2252 337.344 99.9052 336.984 101.801 336.984C103.145 336.984 104.309 337.116 105.293 337.38C106.301 337.644 107.177 337.956 107.921 338.316L106.337 342.456C105.497 342.12 104.705 341.844 103.961 341.628C103.241 341.412 102.521 341.304 101.801 341.304C100.865 341.304 100.085 341.532 99.4612 341.988C98.8372 342.42 98.3692 343.08 98.0572 343.968C97.7692 344.832 97.6252 345.924 97.6252 347.244C97.6252 348.54 97.7812 349.62 98.0932 350.484C98.4292 351.324 98.9092 351.96 99.5332 352.392C100.157 352.8 100.913 353.004 101.801 353.004C102.929 353.004 103.925 352.86 104.789 352.572C105.653 352.26 106.493 351.84 107.309 351.312V355.884C106.493 356.412 105.629 356.784 104.717 357C103.829 357.24 102.701 357.36 101.333 357.36ZM128.957 342.492C128.957 343.548 128.621 344.448 127.949 345.192C127.301 345.936 126.329 346.416 125.033 346.632V346.776C126.401 346.944 127.493 347.412 128.309 348.18C129.149 348.948 129.569 349.932 129.569 351.132C129.569 351.972 129.401 352.752 129.065 353.472C128.753 354.192 128.249 354.816 127.553 355.344C126.857 355.872 125.957 356.28 124.853 356.568C123.773 356.856 122.453 357 120.893 357H111.533V337.344H120.893C122.429 337.344 123.797 337.512 124.997 337.848C126.221 338.16 127.181 338.688 127.877 339.432C128.597 340.176 128.957 341.196 128.957 342.492ZM124.025 350.844C124.025 350.076 123.725 349.524 123.125 349.188C122.525 348.828 121.625 348.648 120.425 348.648H116.897V353.292H120.533C121.541 353.292 122.369 353.112 123.017 352.752C123.689 352.368 124.025 351.732 124.025 350.844ZM123.521 342.924C123.521 342.3 123.281 341.844 122.801 341.556C122.321 341.268 121.613 341.124 120.677 341.124H116.897V345.012H120.065C121.193 345.012 122.045 344.856 122.621 344.544C123.221 344.208 123.521 343.668 123.521 342.924ZM151.73 347.136C151.73 348.768 151.502 350.22 151.046 351.492C150.614 352.764 149.978 353.844 149.138 354.732C148.322 355.596 147.326 356.256 146.15 356.712C144.974 357.144 143.642 357.36 142.154 357.36C140.786 357.36 139.514 357.144 138.338 356.712C137.186 356.256 136.19 355.596 135.35 354.732C134.51 353.844 133.85 352.764 133.37 351.492C132.914 350.22 132.686 348.768 132.686 347.136C132.686 344.952 133.07 343.116 133.838 341.628C134.606 340.116 135.71 338.964 137.15 338.172C138.59 337.38 140.294 336.984 142.262 336.984C144.11 336.984 145.742 337.38 147.158 338.172C148.574 338.964 149.69 340.116 150.506 341.628C151.322 343.116 151.73 344.952 151.73 347.136ZM138.158 347.136C138.158 348.432 138.29 349.524 138.554 350.412C138.842 351.276 139.286 351.936 139.886 352.392C140.486 352.824 141.266 353.04 142.226 353.04C143.186 353.04 143.954 352.824 144.53 352.392C145.13 351.936 145.562 351.276 145.826 350.412C146.114 349.524 146.258 348.432 146.258 347.136C146.258 345.84 146.114 344.76 145.826 343.896C145.562 343.032 145.13 342.384 144.53 341.952C143.93 341.52 143.15 341.304 142.19 341.304C140.774 341.304 139.742 341.796 139.094 342.78C138.47 343.74 138.158 345.192 138.158 347.136ZM163.963 336.984C165.787 336.984 167.347 337.332 168.643 338.028C169.963 338.724 170.983 339.732 171.703 341.052C172.423 342.372 172.783 343.992 172.783 345.912V348.504H160.111C160.159 350.016 160.603 351.204 161.443 352.068C162.307 352.932 163.495 353.364 165.007 353.364C166.279 353.364 167.431 353.244 168.463 353.004C169.495 352.74 170.563 352.344 171.667 351.816V355.956C170.707 356.436 169.687 356.784 168.607 357C167.551 357.24 166.267 357.36 164.755 357.36C162.787 357.36 161.047 357 159.535 356.28C158.023 355.536 156.835 354.42 155.971 352.932C155.107 351.444 154.675 349.572 154.675 347.316C154.675 345.012 155.059 343.104 155.827 341.592C156.619 340.056 157.711 338.904 159.103 338.136C160.495 337.368 162.115 336.984 163.963 336.984ZM163.999 340.8C162.967 340.8 162.103 341.136 161.407 341.808C160.735 342.48 160.339 343.524 160.219 344.94H167.743C167.743 344.148 167.599 343.44 167.311 342.816C167.047 342.192 166.639 341.7 166.087 341.34C165.535 340.98 164.839 340.8 163.999 340.8ZM195.661 328.884C195.541 330.132 195.193 331.236 194.617 332.196C194.041 333.132 193.141 333.864 191.917 334.392C190.693 334.92 189.049 335.184 186.985 335.184C184.873 335.184 183.217 334.932 182.017 334.428C180.841 333.9 180.001 333.168 179.497 332.232C178.993 331.296 178.693 330.18 178.597 328.884H183.385C183.505 330.204 183.841 331.08 184.393 331.512C184.945 331.944 185.845 332.16 187.093 332.16C188.125 332.16 188.965 331.932 189.613 331.476C190.285 330.996 190.681 330.132 190.801 328.884H195.661ZM182.017 345.12C182.017 345.528 181.993 346.032 181.945 346.632C181.921 347.232 181.885 347.844 181.837 348.468C181.813 349.092 181.777 349.644 181.729 350.124C181.681 350.604 181.645 350.94 181.621 351.132L190.693 337.344H197.137V357H191.953V349.152C191.953 348.504 191.977 347.796 192.025 347.028C192.073 346.236 192.121 345.504 192.169 344.832C192.241 344.136 192.289 343.608 192.313 343.248L183.277 357H176.833V337.344H182.017V345.12ZM235.489 337.344V357H230.485V347.352C230.485 346.392 230.497 345.456 230.521 344.544C230.569 343.632 230.629 342.792 230.701 342.024H230.593L225.157 357H221.125L215.617 341.988H215.473C215.569 342.78 215.629 343.632 215.653 344.544C215.701 345.432 215.725 346.416 215.725 347.496V357H210.721V337.344H218.317L223.213 350.664L228.181 337.344H235.489ZM248.896 336.984C250.72 336.984 252.28 337.332 253.576 338.028C254.896 338.724 255.916 339.732 256.636 341.052C257.356 342.372 257.716 343.992 257.716 345.912V348.504H245.044C245.092 350.016 245.536 351.204 246.376 352.068C247.24 352.932 248.428 353.364 249.94 353.364C251.212 353.364 252.364 353.244 253.396 353.004C254.428 352.74 255.496 352.344 256.6 351.816V355.956C255.64 356.436 254.62 356.784 253.54 357C252.484 357.24 251.2 357.36 249.688 357.36C247.72 357.36 245.98 357 244.468 356.28C242.956 355.536 241.768 354.42 240.904 352.932C240.04 351.444 239.608 349.572 239.608 347.316C239.608 345.012 239.992 343.104 240.76 341.592C241.552 340.056 242.644 338.904 244.036 338.136C245.428 337.368 247.048 336.984 248.896 336.984ZM248.932 340.8C247.9 340.8 247.036 341.136 246.34 341.808C245.668 342.48 245.272 343.524 245.152 344.94H252.676C252.676 344.148 252.532 343.44 252.244 342.816C251.98 342.192 251.572 341.7 251.02 341.34C250.468 340.98 249.772 340.8 248.932 340.8ZM266.481 344.544C266.481 345.384 266.685 346.02 267.093 346.452C267.525 346.884 268.113 347.1 268.857 347.1C269.889 347.1 270.849 346.992 271.737 346.776C272.625 346.536 273.513 346.224 274.401 345.84V337.344H279.765V357H274.401V349.188C273.561 349.644 272.601 350.064 271.521 350.448C270.441 350.808 269.217 350.988 267.849 350.988C265.809 350.988 264.177 350.46 262.953 349.404C261.729 348.348 261.117 346.764 261.117 344.652V337.344H266.481V344.544ZM301.362 341.376H294.918V357H289.554V341.376H283.11V337.344H301.362V341.376ZM304.689 357V337.344H310.053V344.94H312.645C314.661 344.94 316.317 345.156 317.613 345.588C318.909 345.996 319.869 346.632 320.493 347.496C321.141 348.36 321.465 349.44 321.465 350.736C321.465 352.008 321.165 353.112 320.565 354.048C319.989 354.984 319.065 355.716 317.793 356.244C316.545 356.748 314.889 357 312.825 357H304.689ZM312.537 353.292C313.593 353.292 314.445 353.1 315.093 352.716C315.765 352.332 316.101 351.696 316.101 350.808C316.101 350.04 315.789 349.488 315.165 349.152C314.565 348.816 313.665 348.648 312.465 348.648H310.053V353.292H312.537ZM324.309 357V337.344H329.673V357H324.309Z" fill="#6B6B6B"/>
    <path d="M5.993 392H4.553V381.84H0.984997V380.576H9.545V381.84H5.993V392ZM12.7424 383.28C13.7877 383.28 14.561 383.509 15.0624 383.968C15.5637 384.427 15.8144 385.157 15.8144 386.16V392H14.7904L14.5184 390.784H14.4544C14.209 391.093 13.953 391.355 13.6864 391.568C13.4304 391.771 13.1317 391.92 12.7904 392.016C12.4597 392.112 12.0544 392.16 11.5744 392.16C11.0624 392.16 10.5984 392.069 10.1824 391.888C9.77704 391.707 9.45704 391.429 9.22237 391.056C8.98771 390.672 8.87037 390.192 8.87037 389.616C8.87037 388.763 9.20637 388.107 9.87837 387.648C10.5504 387.179 11.585 386.923 12.9824 386.88L14.4384 386.832V386.32C14.4384 385.605 14.2837 385.109 13.9744 384.832C13.665 384.555 13.2277 384.416 12.6624 384.416C12.2144 384.416 11.7877 384.485 11.3824 384.624C10.977 384.752 10.5984 384.901 10.2464 385.072L9.81437 384.016C10.1877 383.813 10.6304 383.643 11.1424 383.504C11.6544 383.355 12.1877 383.28 12.7424 383.28ZM13.1584 387.856C12.0917 387.899 11.3504 388.069 10.9344 388.368C10.529 388.667 10.3264 389.088 10.3264 389.632C10.3264 390.112 10.4704 390.464 10.7584 390.688C11.057 390.912 11.4357 391.024 11.8944 391.024C12.6197 391.024 13.2224 390.827 13.7024 390.432C14.1824 390.027 14.4224 389.408 14.4224 388.576V387.808L13.1584 387.856ZM23.2351 383.424H24.7711L21.1071 387.552L25.0751 392H23.4431L19.5711 387.648V392H18.1631V383.424H19.5711V387.584L23.2351 383.424ZM37.0841 385.584C37.0841 386.117 36.9241 386.533 36.6041 386.832C36.2841 387.131 35.8735 387.333 35.3721 387.44V387.504C35.9055 387.579 36.3695 387.771 36.7641 388.08C37.1588 388.379 37.3561 388.848 37.3561 389.488C37.3561 389.851 37.2868 390.187 37.1481 390.496C37.0201 390.805 36.8175 391.072 36.5401 391.296C36.2628 391.52 35.9055 391.696 35.4681 391.824C35.0308 391.941 34.5028 392 33.8841 392H30.1881V383.424H33.8681C34.4761 383.424 35.0201 383.493 35.5001 383.632C35.9908 383.76 36.3748 383.984 36.6521 384.304C36.9401 384.613 37.0841 385.04 37.0841 385.584ZM35.9001 389.488C35.9001 388.997 35.7135 388.645 35.3401 388.432C34.9668 388.219 34.4175 388.112 33.6921 388.112H31.5961V390.864H33.7241C34.4281 390.864 34.9668 390.763 35.3401 390.56C35.7135 390.347 35.9001 389.989 35.9001 389.488ZM35.6601 385.76C35.6601 385.355 35.5108 385.061 35.2121 384.88C34.9241 384.688 34.4495 384.592 33.7881 384.592H31.5961V386.944H33.5321C34.2255 386.944 34.7535 386.848 35.1161 386.656C35.4788 386.464 35.6601 386.165 35.6601 385.76ZM39.1069 392V383.424H40.5149V386.944H42.7389C43.4855 386.944 44.0989 387.035 44.5789 387.216C45.0589 387.397 45.4162 387.669 45.6509 388.032C45.8855 388.384 46.0029 388.832 46.0029 389.376C46.0029 389.909 45.8855 390.373 45.6509 390.768C45.4269 391.163 45.0695 391.467 44.5789 391.68C44.0989 391.893 43.4642 392 42.6749 392H39.1069ZM42.5469 390.864C43.1549 390.864 43.6509 390.763 44.0349 390.56C44.4189 390.347 44.6109 389.979 44.6109 389.456C44.6109 388.933 44.4349 388.581 44.0829 388.4C43.7309 388.208 43.2242 388.112 42.5629 388.112H40.5149V390.864H42.5469ZM47.4269 392V383.424H48.8349V392H47.4269ZM56.4442 388.656C56.4442 388.752 56.4389 388.891 56.4282 389.072C56.4282 389.243 56.4229 389.429 56.4122 389.632C56.4016 389.824 56.3909 390.011 56.3802 390.192C56.3696 390.363 56.3589 390.501 56.3482 390.608L60.9402 383.424H62.6682V392H61.3562V386.944C61.3562 386.773 61.3562 386.549 61.3562 386.272C61.3669 385.995 61.3776 385.723 61.3882 385.456C61.3989 385.179 61.4096 384.971 61.4202 384.832L56.8602 392H55.1162V383.424H56.4442V388.656ZM67.1295 387.616L64.1695 383.424H65.7695L67.9775 386.656L70.1695 383.424H71.7535L68.7935 387.616L71.9135 392H70.3135L67.9775 388.576L65.6095 392H64.0255L67.1295 387.616ZM83.0425 384.608H80.2425V392H78.8505V384.608H76.0825V383.424H83.0425V384.608ZM91.7316 387.696C91.7316 388.411 91.6356 389.045 91.4436 389.6C91.2623 390.144 90.9956 390.608 90.6436 390.992C90.3023 391.376 89.881 391.669 89.3796 391.872C88.889 392.064 88.3396 392.16 87.7316 392.16C87.1663 392.16 86.6436 392.064 86.1636 391.872C85.6836 391.669 85.2676 391.376 84.9156 390.992C84.5636 390.608 84.2863 390.144 84.0836 389.6C83.8916 389.045 83.7956 388.411 83.7956 387.696C83.7956 386.747 83.9556 385.947 84.2756 385.296C84.5956 384.635 85.0543 384.133 85.6516 383.792C86.249 383.44 86.9583 383.264 87.7796 383.264C88.5583 383.264 89.241 383.44 89.8276 383.792C90.425 384.133 90.889 384.635 91.2196 385.296C91.561 385.947 91.7316 386.747 91.7316 387.696ZM85.2516 387.696C85.2516 388.368 85.337 388.955 85.5076 389.456C85.689 389.947 85.9663 390.325 86.3396 390.592C86.713 390.859 87.1876 390.992 87.7636 390.992C88.3396 390.992 88.8143 390.859 89.1876 390.592C89.561 390.325 89.833 389.947 90.0036 389.456C90.185 388.955 90.2756 388.368 90.2756 387.696C90.2756 387.013 90.185 386.432 90.0036 385.952C89.8223 385.472 89.545 385.104 89.1716 384.848C88.809 384.581 88.3343 384.448 87.7476 384.448C86.873 384.448 86.2383 384.736 85.8436 385.312C85.449 385.888 85.2516 386.683 85.2516 387.696ZM94.7389 386.544C94.7389 387.045 94.8775 387.419 95.1549 387.664C95.4429 387.899 95.8535 388.016 96.3869 388.016C96.9202 388.016 97.4055 387.936 97.8429 387.776C98.2802 387.605 98.7282 387.381 99.1869 387.104V383.424H100.595V392H99.1869V388.176C98.7069 388.485 98.2322 388.731 97.7629 388.912C97.3042 389.083 96.7495 389.168 96.0989 389.168C95.2242 389.168 94.5415 388.939 94.0509 388.48C93.5709 388.021 93.3309 387.408 93.3309 386.64V383.424H94.7389V386.544ZM104.427 383.424V386.992H109.083V383.424H110.491V392H109.083V388.176H104.427V392H103.019V383.424H104.427ZM120.363 387.696C120.363 388.411 120.267 389.045 120.075 389.6C119.894 390.144 119.627 390.608 119.275 390.992C118.934 391.376 118.512 391.669 118.011 391.872C117.52 392.064 116.971 392.16 116.363 392.16C115.798 392.16 115.275 392.064 114.795 391.872C114.315 391.669 113.899 391.376 113.547 390.992C113.195 390.608 112.918 390.144 112.715 389.6C112.523 389.045 112.427 388.411 112.427 387.696C112.427 386.747 112.587 385.947 112.907 385.296C113.227 384.635 113.686 384.133 114.283 383.792C114.88 383.44 115.59 383.264 116.411 383.264C117.19 383.264 117.872 383.44 118.459 383.792C119.056 384.133 119.52 384.635 119.851 385.296C120.192 385.947 120.363 386.747 120.363 387.696ZM113.883 387.696C113.883 388.368 113.968 388.955 114.139 389.456C114.32 389.947 114.598 390.325 114.971 390.592C115.344 390.859 115.819 390.992 116.395 390.992C116.971 390.992 117.446 390.859 117.819 390.592C118.192 390.325 118.464 389.947 118.635 389.456C118.816 388.955 118.907 388.368 118.907 387.696C118.907 387.013 118.816 386.432 118.635 385.952C118.454 385.472 118.176 385.104 117.803 384.848C117.44 384.581 116.966 384.448 116.379 384.448C115.504 384.448 114.87 384.736 114.475 385.312C114.08 385.888 113.883 386.683 113.883 387.696ZM127.559 383.424V386.992H132.215V383.424H133.623V392H132.215V388.176H127.559V392H126.151V383.424H127.559ZM139.35 383.264C140.086 383.264 140.715 383.424 141.238 383.744C141.771 384.064 142.177 384.517 142.454 385.104C142.742 385.68 142.886 386.357 142.886 387.136V387.984H137.014C137.035 388.955 137.281 389.696 137.75 390.208C138.23 390.709 138.897 390.96 139.75 390.96C140.294 390.96 140.774 390.912 141.19 390.816C141.617 390.709 142.054 390.56 142.502 390.368V391.6C142.065 391.792 141.633 391.931 141.206 392.016C140.779 392.112 140.273 392.16 139.686 392.16C138.875 392.16 138.155 391.995 137.526 391.664C136.907 391.333 136.422 390.843 136.07 390.192C135.729 389.531 135.558 388.725 135.558 387.776C135.558 386.837 135.713 386.032 136.022 385.36C136.342 384.688 136.785 384.171 137.35 383.808C137.926 383.445 138.593 383.264 139.35 383.264ZM139.334 384.416C138.662 384.416 138.129 384.635 137.734 385.072C137.35 385.499 137.121 386.096 137.046 386.864H141.414C141.414 386.373 141.339 385.947 141.19 385.584C141.041 385.221 140.811 384.939 140.502 384.736C140.203 384.523 139.814 384.416 139.334 384.416ZM155.874 383.424V392H154.466V384.624H150.034V392H148.626V383.424H155.874ZM165.766 387.696C165.766 388.411 165.67 389.045 165.478 389.6C165.297 390.144 165.03 390.608 164.678 390.992C164.337 391.376 163.915 391.669 163.414 391.872C162.923 392.064 162.374 392.16 161.766 392.16C161.201 392.16 160.678 392.064 160.198 391.872C159.718 391.669 159.302 391.376 158.95 390.992C158.598 390.608 158.321 390.144 158.118 389.6C157.926 389.045 157.83 388.411 157.83 387.696C157.83 386.747 157.99 385.947 158.31 385.296C158.63 384.635 159.089 384.133 159.686 383.792C160.283 383.44 160.993 383.264 161.814 383.264C162.593 383.264 163.275 383.44 163.862 383.792C164.459 384.133 164.923 384.635 165.254 385.296C165.595 385.947 165.766 386.747 165.766 387.696ZM159.286 387.696C159.286 388.368 159.371 388.955 159.542 389.456C159.723 389.947 160.001 390.325 160.374 390.592C160.747 390.859 161.222 390.992 161.798 390.992C162.374 390.992 162.849 390.859 163.222 390.592C163.595 390.325 163.867 389.947 164.038 389.456C164.219 388.955 164.31 388.368 164.31 387.696C164.31 387.013 164.219 386.432 164.038 385.952C163.857 385.472 163.579 385.104 163.206 384.848C162.843 384.581 162.369 384.448 161.782 384.448C160.907 384.448 160.273 384.736 159.878 385.312C159.483 385.888 159.286 386.683 159.286 387.696ZM173.461 384.608H170.661V392H169.269V384.608H166.501V383.424H173.461V384.608ZM178.006 383.264C178.742 383.264 179.372 383.424 179.894 383.744C180.428 384.064 180.833 384.517 181.11 385.104C181.398 385.68 181.542 386.357 181.542 387.136V387.984H175.67C175.692 388.955 175.937 389.696 176.406 390.208C176.886 390.709 177.553 390.96 178.406 390.96C178.95 390.96 179.43 390.912 179.846 390.816C180.273 390.709 180.71 390.56 181.158 390.368V391.6C180.721 391.792 180.289 391.931 179.862 392.016C179.436 392.112 178.929 392.16 178.342 392.16C177.532 392.16 176.812 391.995 176.182 391.664C175.564 391.333 175.078 390.843 174.726 390.192C174.385 389.531 174.214 388.725 174.214 387.776C174.214 386.837 174.369 386.032 174.678 385.36C174.998 384.688 175.441 384.171 176.006 383.808C176.582 383.445 177.249 383.264 178.006 383.264ZM177.99 384.416C177.318 384.416 176.785 384.635 176.39 385.072C176.006 385.499 175.777 386.096 175.702 386.864H180.07C180.07 386.373 179.996 385.947 179.846 385.584C179.697 385.221 179.468 384.939 179.158 384.736C178.86 384.523 178.47 384.416 177.99 384.416ZM187.506 383.264C188.562 383.264 189.41 383.632 190.05 384.368C190.7 385.104 191.026 386.213 191.026 387.696C191.026 388.667 190.876 389.488 190.578 390.16C190.29 390.821 189.879 391.323 189.346 391.664C188.823 391.995 188.204 392.16 187.49 392.16C187.052 392.16 186.663 392.101 186.322 391.984C185.98 391.867 185.687 391.717 185.442 391.536C185.207 391.344 185.004 391.136 184.834 390.912H184.738C184.759 391.093 184.78 391.323 184.802 391.6C184.823 391.877 184.834 392.117 184.834 392.32V395.84H183.426V383.424H184.578L184.77 384.592H184.834C185.004 384.347 185.207 384.123 185.442 383.92C185.687 383.717 185.975 383.557 186.306 383.44C186.647 383.323 187.047 383.264 187.506 383.264ZM187.25 384.448C186.674 384.448 186.21 384.56 185.858 384.784C185.506 384.997 185.25 385.323 185.09 385.76C184.93 386.197 184.844 386.752 184.834 387.424V387.696C184.834 388.4 184.908 388.997 185.058 389.488C185.207 389.979 185.458 390.352 185.81 390.608C186.172 390.864 186.663 390.992 187.282 390.992C187.804 390.992 188.231 390.848 188.562 390.56C188.903 390.272 189.154 389.883 189.314 389.392C189.484 388.891 189.57 388.32 189.57 387.68C189.57 386.699 189.378 385.915 188.994 385.328C188.62 384.741 188.039 384.448 187.25 384.448ZM193.497 392H191.865L194.313 388.4C193.983 388.315 193.663 388.181 193.353 388C193.044 387.808 192.793 387.547 192.601 387.216C192.409 386.875 192.313 386.453 192.313 385.952C192.313 385.131 192.591 384.507 193.145 384.08C193.7 383.643 194.436 383.424 195.353 383.424H199.193V392H197.785V388.592H195.705L193.497 392ZM193.673 385.968C193.673 386.459 193.855 386.827 194.217 387.072C194.591 387.307 195.108 387.424 195.769 387.424H197.785V384.592H195.497C194.847 384.592 194.377 384.72 194.089 384.976C193.812 385.232 193.673 385.563 193.673 385.968ZM204.919 383.264C205.655 383.264 206.284 383.424 206.807 383.744C207.34 384.064 207.746 384.517 208.023 385.104C208.311 385.68 208.455 386.357 208.455 387.136V387.984H202.583C202.604 388.955 202.85 389.696 203.319 390.208C203.799 390.709 204.466 390.96 205.319 390.96C205.863 390.96 206.343 390.912 206.759 390.816C207.186 390.709 207.623 390.56 208.071 390.368V391.6C207.634 391.792 207.202 391.931 206.775 392.016C206.348 392.112 205.842 392.16 205.255 392.16C204.444 392.16 203.724 391.995 203.095 391.664C202.476 391.333 201.991 390.843 201.639 390.192C201.298 389.531 201.127 388.725 201.127 387.776C201.127 386.837 201.282 386.032 201.591 385.36C201.911 384.688 202.354 384.171 202.919 383.808C203.495 383.445 204.162 383.264 204.919 383.264ZM204.903 384.416C204.231 384.416 203.698 384.635 203.303 385.072C202.919 385.499 202.69 386.096 202.615 386.864H206.983C206.983 386.373 206.908 385.947 206.759 385.584C206.61 385.221 206.38 384.939 206.071 384.736C205.772 384.523 205.383 384.416 204.903 384.416ZM216.258 384.608H213.458V392H212.066V384.608H209.298V383.424H216.258V384.608ZM220.803 383.264C221.539 383.264 222.169 383.424 222.691 383.744C223.225 384.064 223.63 384.517 223.907 385.104C224.195 385.68 224.339 386.357 224.339 387.136V387.984H218.467C218.489 388.955 218.734 389.696 219.203 390.208C219.683 390.709 220.35 390.96 221.203 390.96C221.747 390.96 222.227 390.912 222.643 390.816C223.07 390.709 223.507 390.56 223.955 390.368V391.6C223.518 391.792 223.086 391.931 222.659 392.016C222.233 392.112 221.726 392.16 221.139 392.16C220.329 392.16 219.609 391.995 218.979 391.664C218.361 391.333 217.875 390.843 217.523 390.192C217.182 389.531 217.011 388.725 217.011 387.776C217.011 386.837 217.166 386.032 217.475 385.36C217.795 384.688 218.238 384.171 218.803 383.808C219.379 383.445 220.046 383.264 220.803 383.264ZM220.787 384.416C220.115 384.416 219.582 384.635 219.187 385.072C218.803 385.499 218.574 386.096 218.499 386.864H222.867C222.867 386.373 222.793 385.947 222.643 385.584C222.494 385.221 222.265 384.939 221.955 384.736C221.657 384.523 221.267 384.416 220.787 384.416ZM236.687 385.44V386.976H230.111V385.44H236.687ZM250.45 387.696C250.45 388.411 250.354 389.045 250.162 389.6C249.981 390.144 249.714 390.608 249.362 390.992C249.021 391.376 248.6 391.669 248.098 391.872C247.608 392.064 247.058 392.16 246.45 392.16C245.885 392.16 245.362 392.064 244.882 391.872C244.402 391.669 243.986 391.376 243.634 390.992C243.282 390.608 243.005 390.144 242.802 389.6C242.61 389.045 242.514 388.411 242.514 387.696C242.514 386.747 242.674 385.947 242.994 385.296C243.314 384.635 243.773 384.133 244.37 383.792C244.968 383.44 245.677 383.264 246.498 383.264C247.277 383.264 247.96 383.44 248.546 383.792C249.144 384.133 249.608 384.635 249.938 385.296C250.28 385.947 250.45 386.747 250.45 387.696ZM243.97 387.696C243.97 388.368 244.056 388.955 244.226 389.456C244.408 389.947 244.685 390.325 245.058 390.592C245.432 390.859 245.906 390.992 246.482 390.992C247.058 390.992 247.533 390.859 247.906 390.592C248.28 390.325 248.552 389.947 248.722 389.456C248.904 388.955 248.994 388.368 248.994 387.696C248.994 387.013 248.904 386.432 248.722 385.952C248.541 385.472 248.264 385.104 247.89 384.848C247.528 384.581 247.053 384.448 246.466 384.448C245.592 384.448 244.957 384.736 244.562 385.312C244.168 385.888 243.97 386.683 243.97 387.696ZM253.79 383.424V386.992H258.446V383.424H259.854V392H258.446V388.176H253.79V392H252.382V383.424H253.79ZM263.597 388.656C263.597 388.752 263.592 388.891 263.581 389.072C263.581 389.243 263.576 389.429 263.565 389.632C263.555 389.824 263.544 390.011 263.533 390.192C263.523 390.363 263.512 390.501 263.501 390.608L268.093 383.424H269.821V392H268.509V386.944C268.509 386.773 268.509 386.549 268.509 386.272C268.52 385.995 268.531 385.723 268.541 385.456C268.552 385.179 268.563 384.971 268.573 384.832L264.013 392H262.269V383.424H263.597V388.656ZM275.659 386.848C275.659 385.6 275.782 384.539 276.027 383.664C276.283 382.779 276.672 382.075 277.195 381.552C277.728 381.019 278.411 380.661 279.243 380.48C279.936 380.331 280.614 380.197 281.275 380.08C281.936 379.963 282.555 379.856 283.131 379.76L283.371 380.992C283.094 381.035 282.784 381.088 282.443 381.152C282.102 381.205 281.755 381.264 281.403 381.328C281.051 381.381 280.71 381.44 280.379 381.504C280.059 381.557 279.776 381.611 279.531 381.664C279.179 381.739 278.864 381.867 278.587 382.048C278.31 382.219 278.07 382.453 277.867 382.752C277.675 383.051 277.52 383.419 277.403 383.856C277.286 384.293 277.216 384.811 277.195 385.408H277.291C277.44 385.205 277.643 384.997 277.899 384.784C278.166 384.571 278.48 384.389 278.843 384.24C279.216 384.091 279.638 384.016 280.107 384.016C280.854 384.016 281.472 384.181 281.963 384.512C282.464 384.832 282.838 385.28 283.083 385.856C283.339 386.432 283.467 387.104 283.467 387.872C283.467 388.821 283.302 389.616 282.971 390.256C282.64 390.896 282.182 391.376 281.595 391.696C281.008 392.005 280.326 392.16 279.547 392.16C278.96 392.16 278.427 392.048 277.947 391.824C277.467 391.589 277.056 391.248 276.715 390.8C276.374 390.352 276.112 389.797 275.931 389.136C275.75 388.475 275.659 387.712 275.659 386.848ZM279.659 390.992C280.128 390.992 280.534 390.896 280.875 390.704C281.227 390.512 281.499 390.197 281.691 389.76C281.883 389.323 281.979 388.741 281.979 388.016C281.979 387.141 281.814 386.453 281.483 385.952C281.163 385.44 280.63 385.184 279.883 385.184C279.414 385.184 278.987 385.291 278.603 385.504C278.219 385.707 277.899 385.941 277.643 386.208C277.387 386.475 277.206 386.699 277.099 386.88C277.099 387.403 277.136 387.909 277.211 388.4C277.286 388.891 277.414 389.333 277.595 389.728C277.787 390.112 278.048 390.421 278.379 390.656C278.72 390.88 279.147 390.992 279.659 390.992ZM284.041 383.424H285.545L287.401 388.304C287.508 388.592 287.604 388.869 287.689 389.136C287.785 389.403 287.87 389.664 287.945 389.92C288.02 390.165 288.078 390.405 288.121 390.64H288.185C288.249 390.373 288.35 390.027 288.489 389.6C288.628 389.163 288.772 388.725 288.921 388.288L290.665 383.424H292.185L288.489 393.184C288.286 393.717 288.046 394.181 287.769 394.576C287.502 394.981 287.172 395.291 286.777 395.504C286.393 395.728 285.924 395.84 285.369 395.84C285.113 395.84 284.889 395.824 284.697 395.792C284.505 395.771 284.34 395.744 284.201 395.712V394.592C284.318 394.613 284.457 394.635 284.617 394.656C284.788 394.677 284.964 394.688 285.145 394.688C285.476 394.688 285.758 394.624 285.993 394.496C286.238 394.379 286.446 394.203 286.617 393.968C286.788 393.744 286.932 393.477 287.049 393.168L287.497 392.032L284.041 383.424ZM299.297 383.424V390.816H300.545V394.976H299.185V392H293.217V394.976H291.873V390.816H292.561C293.051 390.133 293.457 389.392 293.777 388.592C294.107 387.781 294.353 386.939 294.513 386.064C294.683 385.179 294.774 384.299 294.785 383.424H299.297ZM296.033 384.528C295.99 385.253 295.878 386.005 295.697 386.784C295.515 387.552 295.281 388.288 294.993 388.992C294.715 389.696 294.39 390.304 294.017 390.816H297.937V384.528H296.033ZM300.582 383.424H302.086L303.942 388.304C304.048 388.592 304.144 388.869 304.23 389.136C304.326 389.403 304.411 389.664 304.486 389.92C304.56 390.165 304.619 390.405 304.662 390.64H304.726C304.79 390.373 304.891 390.027 305.03 389.6C305.168 389.163 305.312 388.725 305.462 388.288L307.206 383.424H308.726L305.03 393.184C304.827 393.717 304.587 394.181 304.31 394.576C304.043 394.981 303.712 395.291 303.318 395.504C302.934 395.728 302.464 395.84 301.91 395.84C301.654 395.84 301.43 395.824 301.238 395.792C301.046 395.771 300.88 395.744 300.742 395.712V394.592C300.859 394.613 300.998 394.635 301.158 394.656C301.328 394.677 301.504 394.688 301.686 394.688C302.016 394.688 302.299 394.624 302.534 394.496C302.779 394.379 302.987 394.203 303.158 393.968C303.328 393.744 303.472 393.477 303.59 393.168L304.038 392.032L300.582 383.424ZM315.702 384.608H312.902V392H311.51V384.608H308.742V383.424H315.702V384.608ZM327.844 385.584C327.844 386.117 327.684 386.533 327.364 386.832C327.044 387.131 326.633 387.333 326.132 387.44V387.504C326.665 387.579 327.129 387.771 327.524 388.08C327.918 388.379 328.116 388.848 328.116 389.488C328.116 389.851 328.046 390.187 327.908 390.496C327.78 390.805 327.577 391.072 327.3 391.296C327.022 391.52 326.665 391.696 326.228 391.824C325.79 391.941 325.262 392 324.644 392H320.948V383.424H324.628C325.236 383.424 325.78 383.493 326.26 383.632C326.75 383.76 327.134 383.984 327.412 384.304C327.7 384.613 327.844 385.04 327.844 385.584ZM326.66 389.488C326.66 388.997 326.473 388.645 326.1 388.432C325.726 388.219 325.177 388.112 324.452 388.112H322.356V390.864H324.484C325.188 390.864 325.726 390.763 326.1 390.56C326.473 390.347 326.66 389.989 326.66 389.488ZM326.42 385.76C326.42 385.355 326.27 385.061 325.972 384.88C325.684 384.688 325.209 384.592 324.548 384.592H322.356V386.944H324.292C324.985 386.944 325.513 386.848 325.876 386.656C326.238 386.464 326.42 386.165 326.42 385.76ZM335.098 392.16C334.608 392.16 334.181 392.117 333.818 392.032C333.466 391.957 333.136 391.845 332.826 391.696V390.48C333.146 390.608 333.493 390.72 333.866 390.816C334.24 390.912 334.661 390.96 335.13 390.96C335.685 390.96 336.165 390.864 336.57 390.672C336.976 390.469 337.296 390.16 337.53 389.744C337.765 389.328 337.898 388.8 337.93 388.16H333.706V387.008H337.914C337.84 386.133 337.589 385.493 337.162 385.088C336.746 384.683 336.133 384.48 335.322 384.48C335.013 384.48 334.672 384.523 334.298 384.608C333.936 384.693 333.61 384.789 333.322 384.896L332.922 383.76C333.232 383.621 333.6 383.504 334.026 383.408C334.453 383.312 334.88 383.264 335.306 383.264C336.106 383.264 336.81 383.413 337.418 383.712C338.037 384.011 338.517 384.485 338.858 385.136C339.21 385.787 339.386 386.645 339.386 387.712C339.386 388.725 339.2 389.563 338.826 390.224C338.464 390.885 337.957 391.376 337.306 391.696C336.666 392.005 335.93 392.16 335.098 392.16ZM347.093 384.608H344.293V392H342.901V384.608H340.133V383.424H347.093V384.608ZM355.782 387.696C355.782 388.411 355.686 389.045 355.494 389.6C355.312 390.144 355.046 390.608 354.694 390.992C354.352 391.376 353.931 391.669 353.43 391.872C352.939 392.064 352.39 392.16 351.782 392.16C351.216 392.16 350.694 392.064 350.214 391.872C349.734 391.669 349.318 391.376 348.966 390.992C348.614 390.608 348.336 390.144 348.134 389.6C347.942 389.045 347.846 388.411 347.846 387.696C347.846 386.747 348.006 385.947 348.326 385.296C348.646 384.635 349.104 384.133 349.702 383.792C350.299 383.44 351.008 383.264 351.83 383.264C352.608 383.264 353.291 383.44 353.878 383.792C354.475 384.133 354.939 384.635 355.27 385.296C355.611 385.947 355.782 386.747 355.782 387.696ZM349.302 387.696C349.302 388.368 349.387 388.955 349.558 389.456C349.739 389.947 350.016 390.325 350.39 390.592C350.763 390.859 351.238 390.992 351.814 390.992C352.39 390.992 352.864 390.859 353.238 390.592C353.611 390.325 353.883 389.947 354.054 389.456C354.235 388.955 354.326 388.368 354.326 387.696C354.326 387.013 354.235 386.432 354.054 385.952C353.872 385.472 353.595 385.104 353.222 384.848C352.859 384.581 352.384 384.448 351.798 384.448C350.923 384.448 350.288 384.736 349.894 385.312C349.499 385.888 349.302 386.683 349.302 387.696ZM366.913 383.424V392H365.649V386.528C365.649 386.304 365.654 386.069 365.665 385.824C365.686 385.579 365.708 385.339 365.729 385.104H365.681L362.881 392H361.697L358.977 385.104H358.929C358.95 385.339 358.961 385.579 358.961 385.824C358.972 386.069 358.977 386.32 358.977 386.576V392H357.713V383.424H359.585L362.289 390.32L365.041 383.424H366.913ZM376.647 392.16C375.89 392.16 375.212 392.005 374.615 391.696C374.028 391.387 373.564 390.907 373.223 390.256C372.892 389.605 372.727 388.773 372.727 387.76C372.727 386.704 372.903 385.845 373.255 385.184C373.607 384.523 374.082 384.037 374.679 383.728C375.287 383.419 375.975 383.264 376.743 383.264C377.18 383.264 377.602 383.312 378.007 383.408C378.412 383.493 378.743 383.6 378.999 383.728L378.567 384.896C378.311 384.8 378.012 384.709 377.671 384.624C377.33 384.539 377.01 384.496 376.711 384.496C376.135 384.496 375.66 384.619 375.287 384.864C374.914 385.109 374.636 385.472 374.455 385.952C374.274 386.432 374.183 387.029 374.183 387.744C374.183 388.427 374.274 389.008 374.455 389.488C374.636 389.968 374.908 390.331 375.271 390.576C375.634 390.821 376.087 390.944 376.631 390.944C377.1 390.944 377.511 390.896 377.863 390.8C378.226 390.704 378.556 390.587 378.855 390.448V391.696C378.567 391.845 378.247 391.957 377.895 392.032C377.554 392.117 377.138 392.16 376.647 392.16ZM387.842 383.424V392H386.434V384.624H382.002V392H380.594V383.424H387.842ZM391.607 388.656C391.607 388.752 391.601 388.891 391.591 389.072C391.591 389.243 391.585 389.429 391.575 389.632C391.564 389.824 391.553 390.011 391.543 390.192C391.532 390.363 391.521 390.501 391.511 390.608L396.103 383.424H397.831V392H396.519V386.944C396.519 386.773 396.519 386.549 396.519 386.272C396.529 385.995 396.54 385.723 396.551 385.456C396.561 385.179 396.572 384.971 396.583 384.832L392.023 392H390.279V383.424H391.607V388.656ZM403.7 392.16C402.943 392.16 402.265 392.005 401.668 391.696C401.081 391.387 400.617 390.907 400.276 390.256C399.945 389.605 399.78 388.773 399.78 387.76C399.78 386.704 399.956 385.845 400.308 385.184C400.66 384.523 401.135 384.037 401.732 383.728C402.34 383.419 403.028 383.264 403.796 383.264C404.233 383.264 404.655 383.312 405.06 383.408C405.465 383.493 405.796 383.6 406.052 383.728L405.62 384.896C405.364 384.8 405.065 384.709 404.724 384.624C404.383 384.539 404.063 384.496 403.764 384.496C403.188 384.496 402.713 384.619 402.34 384.864C401.967 385.109 401.689 385.472 401.508 385.952C401.327 386.432 401.236 387.029 401.236 387.744C401.236 388.427 401.327 389.008 401.508 389.488C401.689 389.968 401.961 390.331 402.324 390.576C402.687 390.821 403.14 390.944 403.684 390.944C404.153 390.944 404.564 390.896 404.916 390.8C405.279 390.704 405.609 390.587 405.908 390.448V391.696C405.62 391.845 405.3 391.957 404.948 392.032C404.607 392.117 404.191 392.16 403.7 392.16ZM412.719 383.424H414.255L410.591 387.552L414.559 392H412.927L409.055 387.648V392H407.647V383.424H409.055V387.584L412.719 383.424ZM418.816 383.264C419.552 383.264 420.181 383.424 420.704 383.744C421.237 384.064 421.642 384.517 421.92 385.104C422.208 385.68 422.352 386.357 422.352 387.136V387.984H416.48C416.501 388.955 416.746 389.696 417.216 390.208C417.696 390.709 418.362 390.96 419.216 390.96C419.76 390.96 420.24 390.912 420.656 390.816C421.082 390.709 421.52 390.56 421.968 390.368V391.6C421.53 391.792 421.098 391.931 420.672 392.016C420.245 392.112 419.738 392.16 419.152 392.16C418.341 392.16 417.621 391.995 416.992 391.664C416.373 391.333 415.888 390.843 415.536 390.192C415.194 389.531 415.024 388.725 415.024 387.776C415.024 386.837 415.178 386.032 415.488 385.36C415.808 384.688 416.25 384.171 416.816 383.808C417.392 383.445 418.058 383.264 418.816 383.264ZM418.8 384.416C418.128 384.416 417.594 384.635 417.2 385.072C416.816 385.499 416.586 386.096 416.512 386.864H420.88C420.88 386.373 420.805 385.947 420.656 385.584C420.506 385.221 420.277 384.939 419.968 384.736C419.669 384.523 419.28 384.416 418.8 384.416Z" fill="#6B6B6B"/>
    <rect opacity="0.5" x="72" y="413" width="280" height="48" rx="10" fill="#C6ECE8"/>
    <path d="M153.278 443V431.364H157.54C158.366 431.364 159.049 431.5 159.591 431.773C160.133 432.042 160.538 432.407 160.807 432.869C161.076 433.328 161.21 433.845 161.21 434.42C161.21 434.905 161.121 435.314 160.943 435.648C160.765 435.977 160.527 436.242 160.227 436.443C159.932 436.64 159.606 436.784 159.25 436.875V436.989C159.636 437.008 160.013 437.133 160.381 437.364C160.752 437.591 161.059 437.915 161.301 438.335C161.544 438.756 161.665 439.267 161.665 439.869C161.665 440.464 161.525 440.998 161.244 441.472C160.968 441.941 160.54 442.314 159.96 442.591C159.381 442.864 158.64 443 157.739 443H153.278ZM155.034 441.494H157.568C158.409 441.494 159.011 441.331 159.375 441.006C159.739 440.68 159.92 440.273 159.92 439.784C159.92 439.417 159.828 439.08 159.642 438.773C159.456 438.466 159.191 438.222 158.847 438.04C158.506 437.858 158.1 437.767 157.631 437.767H155.034V441.494ZM155.034 436.398H157.386C157.78 436.398 158.134 436.322 158.449 436.17C158.767 436.019 159.019 435.807 159.205 435.534C159.394 435.258 159.489 434.932 159.489 434.557C159.489 434.076 159.32 433.672 158.983 433.347C158.646 433.021 158.129 432.858 157.432 432.858H155.034V436.398ZM164.889 437.273H167.423C168.491 437.273 169.313 437.538 169.889 438.068C170.465 438.598 170.753 439.282 170.753 440.119C170.753 440.665 170.624 441.155 170.366 441.591C170.109 442.027 169.732 442.371 169.236 442.625C168.74 442.875 168.135 443 167.423 443H163.611V434.273H165.276V441.534H167.423C167.912 441.534 168.313 441.407 168.628 441.153C168.942 440.896 169.099 440.568 169.099 440.17C169.099 439.75 168.942 439.407 168.628 439.142C168.313 438.873 167.912 438.739 167.423 438.739H164.889V437.273ZM171.991 443V434.273H173.69V443H171.991ZM182.703 431.023L183.408 432.097C183.146 432.335 182.849 432.506 182.516 432.608C182.186 432.706 181.805 432.769 181.374 432.795C180.942 432.818 180.447 432.839 179.891 432.858C179.262 432.877 178.745 433.013 178.339 433.267C177.934 433.517 177.622 433.888 177.402 434.381C177.186 434.869 177.046 435.483 176.982 436.222H177.089C177.374 435.68 177.768 435.275 178.271 435.006C178.779 434.737 179.349 434.602 179.982 434.602C180.686 434.602 181.313 434.763 181.862 435.085C182.411 435.407 182.843 435.879 183.158 436.5C183.476 437.117 183.635 437.873 183.635 438.767C183.635 439.672 183.468 440.455 183.135 441.114C182.805 441.773 182.339 442.282 181.737 442.642C181.139 442.998 180.432 443.176 179.618 443.176C178.804 443.176 178.093 442.992 177.487 442.625C176.885 442.254 176.417 441.705 176.084 440.977C175.754 440.25 175.589 439.352 175.589 438.284V437.42C175.589 435.424 175.946 433.922 176.658 432.915C177.37 431.907 178.434 431.39 179.851 431.364C180.309 431.352 180.718 431.35 181.078 431.358C181.438 431.362 181.752 431.345 182.021 431.307C182.294 431.265 182.521 431.17 182.703 431.023ZM179.624 441.75C180.097 441.75 180.504 441.631 180.845 441.392C181.19 441.15 181.455 440.807 181.641 440.364C181.826 439.92 181.919 439.398 181.919 438.795C181.919 438.205 181.826 437.703 181.641 437.29C181.455 436.877 181.19 436.562 180.845 436.347C180.5 436.127 180.088 436.017 179.607 436.017C179.25 436.017 178.932 436.08 178.652 436.205C178.372 436.326 178.131 436.506 177.93 436.744C177.733 436.983 177.58 437.275 177.47 437.619C177.364 437.96 177.307 438.352 177.3 438.795C177.3 439.697 177.506 440.415 177.919 440.949C178.336 441.483 178.904 441.75 179.624 441.75ZM185.533 446.273V434.273H187.192V435.688H187.334C187.432 435.506 187.574 435.295 187.76 435.057C187.946 434.818 188.203 434.61 188.533 434.432C188.862 434.25 189.298 434.159 189.839 434.159C190.544 434.159 191.173 434.337 191.726 434.693C192.279 435.049 192.713 435.562 193.027 436.233C193.345 436.903 193.504 437.71 193.504 438.653C193.504 439.597 193.347 440.405 193.033 441.08C192.718 441.75 192.286 442.267 191.737 442.631C191.188 442.991 190.561 443.17 189.857 443.17C189.326 443.17 188.893 443.081 188.555 442.903C188.222 442.725 187.961 442.517 187.771 442.278C187.582 442.04 187.436 441.828 187.334 441.642H187.232V446.273H185.533ZM187.197 438.636C187.197 439.25 187.286 439.788 187.464 440.25C187.643 440.712 187.9 441.074 188.237 441.335C188.574 441.593 188.987 441.722 189.476 441.722C189.983 441.722 190.408 441.587 190.749 441.318C191.089 441.045 191.347 440.676 191.521 440.21C191.699 439.744 191.788 439.22 191.788 438.636C191.788 438.061 191.701 437.544 191.527 437.085C191.357 436.627 191.099 436.265 190.754 436C190.413 435.735 189.987 435.602 189.476 435.602C188.983 435.602 188.567 435.729 188.226 435.983C187.889 436.237 187.633 436.591 187.459 437.045C187.285 437.5 187.197 438.03 187.197 438.636ZM197.947 443.193C197.394 443.193 196.894 443.091 196.447 442.886C196 442.678 195.646 442.377 195.385 441.983C195.127 441.589 194.999 441.106 194.999 440.534C194.999 440.042 195.093 439.636 195.283 439.318C195.472 439 195.728 438.748 196.05 438.562C196.372 438.377 196.732 438.237 197.129 438.142C197.527 438.047 197.932 437.975 198.345 437.926C198.868 437.866 199.292 437.816 199.618 437.778C199.944 437.737 200.18 437.67 200.328 437.58C200.476 437.489 200.55 437.341 200.55 437.136V437.097C200.55 436.6 200.41 436.216 200.129 435.943C199.853 435.67 199.44 435.534 198.891 435.534C198.319 435.534 197.868 435.661 197.538 435.915C197.213 436.165 196.987 436.443 196.862 436.75L195.266 436.386C195.455 435.856 195.732 435.428 196.095 435.102C196.463 434.773 196.885 434.534 197.362 434.386C197.839 434.235 198.341 434.159 198.868 434.159C199.216 434.159 199.586 434.201 199.976 434.284C200.37 434.364 200.737 434.511 201.078 434.727C201.423 434.943 201.705 435.252 201.925 435.653C202.144 436.051 202.254 436.568 202.254 437.205V443H200.595V441.807H200.527C200.417 442.027 200.252 442.242 200.033 442.455C199.813 442.667 199.531 442.843 199.186 442.983C198.841 443.123 198.429 443.193 197.947 443.193ZM198.317 441.83C198.786 441.83 199.188 441.737 199.521 441.551C199.858 441.366 200.114 441.123 200.288 440.824C200.466 440.521 200.555 440.197 200.555 439.852V438.727C200.495 438.788 200.377 438.845 200.203 438.898C200.033 438.947 199.838 438.991 199.618 439.028C199.398 439.062 199.184 439.095 198.976 439.125C198.768 439.152 198.593 439.174 198.453 439.193C198.124 439.235 197.822 439.305 197.55 439.403C197.281 439.502 197.065 439.644 196.902 439.83C196.743 440.011 196.663 440.254 196.663 440.557C196.663 440.977 196.819 441.295 197.129 441.511C197.44 441.723 197.836 441.83 198.317 441.83ZM203.435 435.739V434.273H210.798V435.739H207.952V443H206.293V435.739H203.435ZM213.874 437.273H216.408C217.476 437.273 218.298 437.538 218.874 438.068C219.449 438.598 219.737 439.282 219.737 440.119C219.737 440.665 219.608 441.155 219.351 441.591C219.093 442.027 218.716 442.371 218.22 442.625C217.724 442.875 217.12 443 216.408 443H212.595V434.273H214.26V441.534H216.408C216.896 441.534 217.298 441.407 217.612 441.153C217.927 440.896 218.084 440.568 218.084 440.17C218.084 439.75 217.927 439.407 217.612 439.142C217.298 438.873 216.896 438.739 216.408 438.739H213.874V437.273ZM225.388 435.739V434.273H232.751V435.739H229.905V443H228.246V435.739H225.388ZM237.818 443.176C237 443.176 236.286 442.989 235.676 442.614C235.066 442.239 234.593 441.714 234.256 441.04C233.919 440.366 233.75 439.578 233.75 438.676C233.75 437.771 233.919 436.979 234.256 436.301C234.593 435.623 235.066 435.097 235.676 434.722C236.286 434.347 237 434.159 237.818 434.159C238.636 434.159 239.35 434.347 239.96 434.722C240.57 435.097 241.044 435.623 241.381 436.301C241.718 436.979 241.886 437.771 241.886 438.676C241.886 439.578 241.718 440.366 241.381 441.04C241.044 441.714 240.57 442.239 239.96 442.614C239.35 442.989 238.636 443.176 237.818 443.176ZM237.824 441.75C238.354 441.75 238.794 441.61 239.142 441.33C239.491 441.049 239.748 440.676 239.915 440.21C240.085 439.744 240.17 439.231 240.17 438.67C240.17 438.114 240.085 437.602 239.915 437.136C239.748 436.667 239.491 436.29 239.142 436.006C238.794 435.722 238.354 435.58 237.824 435.58C237.29 435.58 236.847 435.722 236.494 436.006C236.146 436.29 235.886 436.667 235.716 437.136C235.549 437.602 235.466 438.114 235.466 438.67C235.466 439.231 235.549 439.744 235.716 440.21C235.886 440.676 236.146 441.049 236.494 441.33C236.847 441.61 237.29 441.75 237.824 441.75ZM243.783 443V434.273H247.402C248.387 434.273 249.167 434.483 249.743 434.903C250.319 435.32 250.607 435.886 250.607 436.602C250.607 437.114 250.444 437.519 250.118 437.818C249.792 438.117 249.36 438.318 248.822 438.42C249.213 438.466 249.571 438.583 249.896 438.773C250.222 438.958 250.483 439.208 250.68 439.523C250.881 439.837 250.982 440.212 250.982 440.648C250.982 441.11 250.862 441.519 250.624 441.875C250.385 442.227 250.038 442.504 249.584 442.705C249.133 442.902 248.589 443 247.953 443H243.783ZM245.379 441.58H247.953C248.374 441.58 248.703 441.479 248.942 441.278C249.18 441.078 249.3 440.805 249.3 440.46C249.3 440.055 249.18 439.737 248.942 439.506C248.703 439.271 248.374 439.153 247.953 439.153H245.379V441.58ZM245.379 437.909H247.419C247.737 437.909 248.01 437.864 248.237 437.773C248.468 437.682 248.644 437.553 248.766 437.386C248.891 437.216 248.953 437.015 248.953 436.784C248.953 436.447 248.815 436.184 248.538 435.994C248.262 435.805 247.883 435.71 247.402 435.71H245.379V437.909ZM255.385 443.193C254.832 443.193 254.332 443.091 253.885 442.886C253.438 442.678 253.084 442.377 252.822 441.983C252.565 441.589 252.436 441.106 252.436 440.534C252.436 440.042 252.531 439.636 252.72 439.318C252.91 439 253.165 438.748 253.487 438.562C253.809 438.377 254.169 438.237 254.567 438.142C254.964 438.047 255.37 437.975 255.783 437.926C256.305 437.866 256.73 437.816 257.055 437.778C257.381 437.737 257.618 437.67 257.766 437.58C257.913 437.489 257.987 437.341 257.987 437.136V437.097C257.987 436.6 257.847 436.216 257.567 435.943C257.29 435.67 256.877 435.534 256.328 435.534C255.756 435.534 255.305 435.661 254.976 435.915C254.65 436.165 254.425 436.443 254.3 436.75L252.703 436.386C252.893 435.856 253.169 435.428 253.533 435.102C253.9 434.773 254.322 434.534 254.8 434.386C255.277 434.235 255.779 434.159 256.305 434.159C256.654 434.159 257.023 434.201 257.413 434.284C257.807 434.364 258.175 434.511 258.516 434.727C258.86 434.943 259.143 435.252 259.362 435.653C259.582 436.051 259.692 436.568 259.692 437.205V443H258.033V441.807H257.964C257.855 442.027 257.69 442.242 257.47 442.455C257.25 442.667 256.968 442.843 256.624 442.983C256.279 443.123 255.866 443.193 255.385 443.193ZM255.754 441.83C256.224 441.83 256.625 441.737 256.959 441.551C257.296 441.366 257.552 441.123 257.726 440.824C257.904 440.521 257.993 440.197 257.993 439.852V438.727C257.932 438.788 257.815 438.845 257.641 438.898C257.47 438.947 257.275 438.991 257.055 439.028C256.836 439.062 256.622 439.095 256.413 439.125C256.205 439.152 256.031 439.174 255.891 439.193C255.561 439.235 255.26 439.305 254.987 439.403C254.718 439.502 254.502 439.644 254.339 439.83C254.18 440.011 254.101 440.254 254.101 440.557C254.101 440.977 254.256 441.295 254.567 441.511C254.877 441.723 255.273 441.83 255.754 441.83ZM261.955 446.273V434.273H263.614V435.688H263.756C263.854 435.506 263.996 435.295 264.182 435.057C264.367 434.818 264.625 434.61 264.955 434.432C265.284 434.25 265.72 434.159 266.261 434.159C266.966 434.159 267.595 434.337 268.148 434.693C268.701 435.049 269.134 435.562 269.449 436.233C269.767 436.903 269.926 437.71 269.926 438.653C269.926 439.597 269.769 440.405 269.455 441.08C269.14 441.75 268.708 442.267 268.159 442.631C267.61 442.991 266.983 443.17 266.278 443.17C265.748 443.17 265.314 443.081 264.977 442.903C264.644 442.725 264.383 442.517 264.193 442.278C264.004 442.04 263.858 441.828 263.756 441.642H263.653V446.273H261.955ZM263.619 438.636C263.619 439.25 263.708 439.788 263.886 440.25C264.064 440.712 264.322 441.074 264.659 441.335C264.996 441.593 265.409 441.722 265.898 441.722C266.405 441.722 266.83 441.587 267.17 441.318C267.511 441.045 267.769 440.676 267.943 440.21C268.121 439.744 268.21 439.22 268.21 438.636C268.21 438.061 268.123 437.544 267.949 437.085C267.778 436.627 267.521 436.265 267.176 436C266.835 435.735 266.409 435.602 265.898 435.602C265.405 435.602 264.989 435.729 264.648 435.983C264.311 436.237 264.055 436.591 263.881 437.045C263.706 437.5 263.619 438.03 263.619 438.636Z" fill="#0CE3CB"/>
</svg>
