<svg width="32" height="32" viewBox="0 0 32 32" fill="none" xmlns="http://www.w3.org/2000/svg">
    <g opacity="0.6">
        <path d="M23.9987 24.6663C23.4683 24.6663 22.9596 24.4556 22.5845 24.0806C22.2094 23.7055 21.9987 23.1968 21.9987 22.6663C21.9987 22.1359 22.2094 21.6272 22.5845 21.2521C22.9596 20.8771 23.4683 20.6663 23.9987 20.6663C24.5291 20.6663 25.0378 20.8771 25.4129 21.2521C25.788 21.6272 25.9987 22.1359 25.9987 22.6663C25.9987 23.1968 25.788 23.7055 25.4129 24.0806C25.0378 24.4556 24.5291 24.6663 23.9987 24.6663ZM25.9987 12.6663L28.612 15.9997H22.6654V12.6663M7.9987 24.6663C7.46827 24.6663 6.95956 24.4556 6.58448 24.0806C6.20941 23.7055 5.9987 23.1968 5.9987 22.6663C5.9987 22.1359 6.20941 21.6272 6.58448 21.2521C6.95956 20.8771 7.46827 20.6663 7.9987 20.6663C8.52913 20.6663 9.03784 20.8771 9.41291 21.2521C9.78798 21.6272 9.9987 22.1359 9.9987 22.6663C9.9987 23.1968 9.78798 23.7055 9.41291 24.0806C9.03784 24.4556 8.52913 24.6663 7.9987 24.6663ZM26.6654 10.6663H22.6654V5.33301H3.9987C2.5187 5.33301 1.33203 6.51967 1.33203 7.99967V22.6663H3.9987C3.9987 23.7272 4.42013 24.7446 5.17027 25.4948C5.92042 26.2449 6.93783 26.6663 7.9987 26.6663C9.05956 26.6663 10.077 26.2449 10.8271 25.4948C11.5773 24.7446 11.9987 23.7272 11.9987 22.6663H19.9987C19.9987 23.7272 20.4201 24.7446 21.1703 25.4948C21.9204 26.2449 22.9378 26.6663 23.9987 26.6663C25.0596 26.6663 26.077 26.2449 26.8271 25.4948C27.5773 24.7446 27.9987 23.7272 27.9987 22.6663H30.6654V15.9997L26.6654 10.6663Z" fill="#060606"/>
    </g>
</svg>
