<svg width="39" height="38" viewBox="0 0 39 38" fill="none" xmlns="http://www.w3.org/2000/svg">
    <path fill-rule="evenodd" clip-rule="evenodd" d="M17.8735 6.90625H8.9375C8.2644 6.90625 7.71875 7.4519 7.71875 8.125C7.71875 8.7981 8.2644 9.34375 8.9375 9.34375H17.1098C17.2121 8.47114 17.477 7.64826 17.8735 6.90625ZM17.6733 13H8.9375C8.2644 13 7.71875 13.5457 7.71875 14.2188C7.71875 14.8918 8.2644 15.4375 8.9375 15.4375H19.5183C18.7351 14.7768 18.1009 13.9451 17.6733 13ZM8.9375 19.5C8.2644 19.5 7.71875 20.0457 7.71875 20.7188C7.71875 21.3918 8.2644 21.9375 8.9375 21.9375H27.2188C27.8918 21.9375 28.4375 21.3918 28.4375 20.7188C28.4375 20.0457 27.8918 19.5 27.2188 19.5H8.9375Z" fill="#0CE3CB"/>
    <path d="M30.0625 15.4375L26.8125 12.1875" stroke="#0CE3CB" stroke-width="1.625" stroke-linecap="round"/>
    <circle cx="23.1562" cy="9.34375" r="4.46875" stroke="#0CE3CB" stroke-width="1.625"/>
    <path d="M5.15625 36L2.65625 32.6619H1.76136V36H0.880682V28.7273H1.76136V31.8807H2.14489L5.05682 28.7273H6.10795L3.16761 31.9233L6.20739 36H5.15625ZM8.837 36.1278C8.49136 36.1278 8.17768 36.0627 7.89595 35.9325C7.61423 35.8 7.39051 35.6094 7.22479 35.3608C7.05907 35.1098 6.97621 34.8068 6.97621 34.4517C6.97621 34.1392 7.03776 33.8859 7.16087 33.6918C7.28397 33.4953 7.44851 33.3414 7.65447 33.2301C7.86044 33.1188 8.08771 33.036 8.33629 32.9815C8.58724 32.9247 8.83937 32.8797 9.09268 32.8466C9.42412 32.804 9.69283 32.772 9.89879 32.7507C10.1071 32.727 10.2586 32.688 10.3533 32.6335C10.4504 32.5791 10.4989 32.4844 10.4989 32.3494V32.321C10.4989 31.9706 10.4031 31.6984 10.2113 31.5043C10.0219 31.3101 9.73426 31.2131 9.34837 31.2131C8.94827 31.2131 8.63459 31.3007 8.40732 31.4759C8.18004 31.651 8.02024 31.8381 7.92791 32.0369L7.13246 31.7528C7.2745 31.4214 7.4639 31.1634 7.70064 30.9787C7.93975 30.7917 8.20017 30.6615 8.48189 30.5881C8.76598 30.5123 9.04534 30.4744 9.31996 30.4744C9.49515 30.4744 9.69638 30.4957 9.92365 30.5384C10.1533 30.5786 10.3746 30.6626 10.5877 30.7905C10.8031 30.9183 10.9819 31.1113 11.1239 31.3693C11.266 31.6274 11.337 31.973 11.337 32.4062V36H10.4989V35.2614H10.4563C10.3995 35.3797 10.3048 35.5064 10.1722 35.6413C10.0397 35.7763 9.86328 35.8911 9.64311 35.9858C9.42294 36.0805 9.15424 36.1278 8.837 36.1278ZM8.96484 35.375C9.29628 35.375 9.57564 35.3099 9.80291 35.1797C10.0326 35.0495 10.2054 34.8814 10.3214 34.6754C10.4397 34.4695 10.4989 34.2528 10.4989 34.0256V33.2585C10.4634 33.3011 10.3853 33.3402 10.2646 33.3757C10.1462 33.4089 10.0089 33.4384 9.85263 33.4645C9.69875 33.4882 9.54841 33.5095 9.40163 33.5284C9.25722 33.545 9.14003 33.5592 9.05007 33.571C8.83227 33.5994 8.62867 33.6456 8.43928 33.7095C8.25225 33.7711 8.10073 33.8646 7.98473 33.9901C7.87109 34.1132 7.81428 34.2812 7.81428 34.4943C7.81428 34.7855 7.92199 35.0057 8.13743 35.1548C8.35523 35.3016 8.63104 35.375 8.96484 35.375ZM12.1245 31.3267V30.5455H16.5563V31.3267H14.7665V36H13.9284V31.3267H12.1245ZM19.1007 36.1278C18.755 36.1278 18.4413 36.0627 18.1596 35.9325C17.8779 35.8 17.6542 35.6094 17.4885 35.3608C17.3227 35.1098 17.2399 34.8068 17.2399 34.4517C17.2399 34.1392 17.3014 33.8859 17.4245 33.6918C17.5476 33.4953 17.7122 33.3414 17.9181 33.2301C18.1241 33.1188 18.3514 33.036 18.6 32.9815C18.8509 32.9247 19.103 32.8797 19.3564 32.8466C19.6878 32.804 19.9565 32.772 20.1625 32.7507C20.3708 32.727 20.5223 32.688 20.617 32.6335C20.7141 32.5791 20.7626 32.4844 20.7626 32.3494V32.321C20.7626 31.9706 20.6667 31.6984 20.475 31.5043C20.2856 31.3101 19.9979 31.2131 19.612 31.2131C19.2119 31.2131 18.8983 31.3007 18.671 31.4759C18.4437 31.651 18.2839 31.8381 18.1916 32.0369L17.3961 31.7528C17.5382 31.4214 17.7276 31.1634 17.9643 30.9787C18.2034 30.7917 18.4638 30.6615 18.7456 30.5881C19.0297 30.5123 19.309 30.4744 19.5836 30.4744C19.7588 30.4744 19.96 30.4957 20.1873 30.5384C20.417 30.5786 20.6383 30.6626 20.8514 30.7905C21.0668 30.9183 21.2456 31.1113 21.3876 31.3693C21.5297 31.6274 21.6007 31.973 21.6007 32.4062V36H20.7626V35.2614H20.72C20.6632 35.3797 20.5685 35.5064 20.4359 35.6413C20.3033 35.7763 20.127 35.8911 19.9068 35.9858C19.6866 36.0805 19.4179 36.1278 19.1007 36.1278ZM19.2285 35.375C19.56 35.375 19.8393 35.3099 20.0666 35.1797C20.2962 35.0495 20.469 34.8814 20.585 34.6754C20.7034 34.4695 20.7626 34.2528 20.7626 34.0256V33.2585C20.7271 33.3011 20.649 33.3402 20.5282 33.3757C20.4099 33.4089 20.2725 33.4384 20.1163 33.4645C19.9624 33.4882 19.8121 33.5095 19.6653 33.5284C19.5209 33.545 19.4037 33.5592 19.3137 33.571C19.0959 33.5994 18.8923 33.6456 18.7029 33.7095C18.5159 33.7711 18.3644 33.8646 18.2484 33.9901C18.1348 34.1132 18.0779 34.2812 18.0779 34.4943C18.0779 34.7855 18.1857 35.0057 18.4011 35.1548C18.6189 35.3016 18.8947 35.375 19.2285 35.375ZM22.6474 36V35.2188H22.8462C23.0096 35.2188 23.1457 35.1868 23.2546 35.1229C23.3635 35.0566 23.4511 34.9418 23.5174 34.7784C23.5861 34.6127 23.6381 34.383 23.6737 34.0895C23.7115 33.7936 23.7388 33.4171 23.7553 32.9602L23.8548 30.5455H27.4911V36H26.6531V31.3267H24.6502L24.565 33.2727C24.546 33.7202 24.5058 34.1143 24.4442 34.4553C24.3851 34.7938 24.2939 35.0779 24.1708 35.3075C24.0501 35.5372 23.8891 35.71 23.6879 35.826C23.4866 35.942 23.2345 36 22.9315 36H22.6474ZM31.2447 36.1136C30.7522 36.1136 30.3202 35.9964 29.9485 35.7621C29.5792 35.5277 29.2904 35.1998 29.082 34.7784C28.8761 34.357 28.7731 33.8646 28.7731 33.3011C28.7731 32.733 28.8761 32.237 29.082 31.8132C29.2904 31.3894 29.5792 31.0604 29.9485 30.826C30.3202 30.5916 30.7522 30.4744 31.2447 30.4744C31.7371 30.4744 32.168 30.5916 32.5373 30.826C32.909 31.0604 33.1978 31.3894 33.4038 31.8132C33.6121 32.237 33.7163 32.733 33.7163 33.3011C33.7163 33.8646 33.6121 34.357 33.4038 34.7784C33.1978 35.1998 32.909 35.5277 32.5373 35.7621C32.168 35.9964 31.7371 36.1136 31.2447 36.1136ZM31.2447 35.3608C31.6187 35.3608 31.9265 35.2649 32.168 35.0732C32.4094 34.8814 32.5882 34.6293 32.7042 34.3168C32.8202 34.0043 32.8782 33.6657 32.8782 33.3011C32.8782 32.9366 32.8202 32.5968 32.7042 32.282C32.5882 31.9671 32.4094 31.7126 32.168 31.5185C31.9265 31.3243 31.6187 31.2273 31.2447 31.2273C30.8706 31.2273 30.5629 31.3243 30.3214 31.5185C30.0799 31.7126 29.9012 31.9671 29.7852 32.282C29.6692 32.5968 29.6112 32.9366 29.6112 33.3011C29.6112 33.6657 29.6692 34.0043 29.7852 34.3168C29.9012 34.6293 30.0799 34.8814 30.3214 35.0732C30.5629 35.2649 30.8706 35.3608 31.2447 35.3608ZM38.362 30.5455V31.3267H35.8336V36H34.9956V30.5455H38.362Z" fill="#0CE3CB"/>
</svg>
