<svg width="358" height="62" viewBox="0 0 358 62" fill="none" xmlns="http://www.w3.org/2000/svg">
    <rect opacity="0.3" width="358" height="62" rx="10" fill="white"/>
    <path d="M45.6814 38H42.2414L37.0614 30.76V38H34.0414V23.72H37.0614V30.64L42.1814 23.72H45.4014L40.2014 30.58L45.6814 38ZM56.8589 32.52C56.8589 33.4267 56.7322 34.2333 56.4789 34.94C56.2389 35.6467 55.8856 36.2467 55.4189 36.74C54.9656 37.22 54.4122 37.5867 53.7589 37.84C53.1056 38.08 52.3656 38.2 51.5389 38.2C50.7789 38.2 50.0722 38.08 49.4189 37.84C48.7789 37.5867 48.2256 37.22 47.7589 36.74C47.2922 36.2467 46.9256 35.6467 46.6589 34.94C46.4056 34.2333 46.2789 33.4267 46.2789 32.52C46.2789 31.3067 46.4922 30.2867 46.9189 29.46C47.3456 28.62 47.9589 27.98 48.7589 27.54C49.5589 27.1 50.5056 26.88 51.5989 26.88C52.6256 26.88 53.5322 27.1 54.3189 27.54C55.1056 27.98 55.7256 28.62 56.1789 29.46C56.6322 30.2867 56.8589 31.3067 56.8589 32.52ZM49.3189 32.52C49.3189 33.24 49.3922 33.8467 49.5389 34.34C49.6989 34.82 49.9456 35.1867 50.2789 35.44C50.6122 35.68 51.0456 35.8 51.5789 35.8C52.1122 35.8 52.5389 35.68 52.8589 35.44C53.1922 35.1867 53.4322 34.82 53.5789 34.34C53.7389 33.8467 53.8189 33.24 53.8189 32.52C53.8189 31.8 53.7389 31.2 53.5789 30.72C53.4322 30.24 53.1922 29.88 52.8589 29.64C52.5256 29.4 52.0922 29.28 51.5589 29.28C50.7722 29.28 50.1989 29.5533 49.8389 30.1C49.4922 30.6333 49.3189 31.44 49.3189 32.52ZM62.0017 27.08V31.28H66.1617V27.08H69.1417V38H66.1617V33.5H62.0017V38H59.0217V27.08H62.0017ZM81.0039 29.32H77.4239V38H74.4439V29.32H70.8639V27.08H81.0039V29.32ZM87.1986 26.86C88.6653 26.86 89.7853 27.18 90.5586 27.82C91.3453 28.4467 91.7386 29.4133 91.7386 30.72V38H89.6586L89.0786 36.52H88.9986C88.6919 36.9067 88.3719 37.2267 88.0386 37.48C87.7186 37.7333 87.3453 37.9133 86.9186 38.02C86.5053 38.14 85.9919 38.2 85.3786 38.2C84.7386 38.2 84.1586 38.08 83.6386 37.84C83.1319 37.5867 82.7319 37.2067 82.4386 36.7C82.1453 36.18 81.9986 35.5267 81.9986 34.74C81.9986 33.58 82.4053 32.7267 83.2186 32.18C84.0319 31.62 85.2519 31.3133 86.8786 31.26L88.7786 31.2V30.72C88.7786 30.1467 88.6253 29.7267 88.3186 29.46C88.0253 29.1933 87.6119 29.06 87.0786 29.06C86.5453 29.06 86.0253 29.14 85.5186 29.3C85.0119 29.4467 84.5053 29.6333 83.9986 29.86L83.0186 27.84C83.6053 27.5333 84.2519 27.2933 84.9586 27.12C85.6786 26.9467 86.4253 26.86 87.1986 26.86ZM87.6186 32.98C86.6586 33.0067 85.9919 33.18 85.6186 33.5C85.2453 33.82 85.0586 34.24 85.0586 34.76C85.0586 35.2133 85.1919 35.54 85.4586 35.74C85.7253 35.9267 86.0719 36.02 86.4986 36.02C87.1386 36.02 87.6786 35.8333 88.1186 35.46C88.5586 35.0733 88.7786 34.5333 88.7786 33.84V32.94L87.6186 32.98ZM101.649 27.08H104.929L100.609 32.32L105.309 38H101.929L97.4689 32.46V38H94.4889V27.08H97.4689V32.38L101.649 27.08ZM115.612 29.32H112.032V38H109.052V29.32H105.472V27.08H115.612V29.32ZM117.326 38V27.08H120.306V31.3H121.746C122.866 31.3 123.786 31.42 124.506 31.66C125.226 31.8867 125.76 32.24 126.106 32.72C126.466 33.2 126.646 33.8 126.646 34.52C126.646 35.2267 126.48 35.84 126.146 36.36C125.826 36.88 125.313 37.2867 124.606 37.58C123.913 37.86 122.993 38 121.846 38H117.326ZM121.686 35.94C122.273 35.94 122.746 35.8333 123.106 35.62C123.48 35.4067 123.666 35.0533 123.666 34.56C123.666 34.1333 123.493 33.8267 123.146 33.64C122.813 33.4533 122.313 33.36 121.646 33.36H120.306V35.94H121.686ZM128.226 38V27.08H131.206V38H128.226Z" fill="white"/>
    <path d="M311 40L320 31L311 22" stroke="white" stroke-width="3" stroke-linecap="round" stroke-linejoin="round"/>
</svg>
