<svg width="44" height="44" viewBox="0 0 44 44" fill="none" xmlns="http://www.w3.org/2000/svg">
    <rect opacity="0.3" width="44" height="44" rx="10" fill="white"/>
    <path d="M22.0009 21.3885C21.1905 21.3885 20.4133 21.0665 19.8403 20.4935C19.2672 19.9205 18.9453 19.1433 18.9453 18.3329C18.9453 17.5225 19.2672 16.7453 19.8403 16.1723C20.4133 15.5993 21.1905 15.2773 22.0009 15.2773C22.8113 15.2773 23.5884 15.5993 24.1615 16.1723C24.7345 16.7453 25.0564 17.5225 25.0564 18.3329C25.0564 18.7342 24.9774 19.1315 24.8238 19.5022C24.6703 19.8729 24.4452 20.2098 24.1615 20.4935C23.8777 20.7772 23.5409 21.0023 23.1702 21.1559C22.7995 21.3094 22.4021 21.3885 22.0009 21.3885ZM22.0009 9.77734C19.7318 9.77734 17.5557 10.6787 15.9512 12.2832C14.3467 13.8877 13.4453 16.0638 13.4453 18.3329C13.4453 24.7496 22.0009 34.2218 22.0009 34.2218C22.0009 34.2218 30.5564 24.7496 30.5564 18.3329C30.5564 16.0638 29.655 13.8877 28.0506 12.2832C26.4461 10.6787 24.2699 9.77734 22.0009 9.77734Z" fill="white"/>
</svg>
