<svg width="358" height="62" viewBox="0 0 358 62" fill="none" xmlns="http://www.w3.org/2000/svg">
    <rect opacity="0.3" width="358" height="62" rx="10" fill="white"/>
    <path d="M34.15 23.72H36.87V30.62C36.87 30.9533 36.8633 31.3267 36.85 31.74C36.8367 32.1533 36.8233 32.56 36.81 32.96C36.7967 33.3467 36.7833 33.6867 36.77 33.98C36.7567 34.26 36.7433 34.4533 36.73 34.56H36.79L43.39 23.72H47.01V38H44.31V31.14C44.31 30.78 44.3167 30.3867 44.33 29.96C44.3433 29.52 44.3567 29.1 44.37 28.7C44.3967 28.3 44.4167 27.9533 44.43 27.66C44.4567 27.3533 44.4767 27.1533 44.49 27.06H44.41L37.79 38H34.15V23.72ZM53.0548 27.08V31.28H57.2148V27.08H60.1948V38H57.2148V33.5H53.0548V38H50.0748V27.08H53.0548ZM70.997 27.02C72.2637 27.1267 73.3304 27.4267 74.197 27.92C75.0637 28.4 75.717 29.0333 76.157 29.82C76.6104 30.6067 76.837 31.5133 76.837 32.54C76.837 33.5533 76.617 34.46 76.177 35.26C75.7504 36.06 75.1037 36.7067 74.237 37.2C73.3837 37.68 72.3037 37.9733 70.997 38.08V42.8H68.237V38.08C66.9837 37.96 65.917 37.66 65.037 37.18C64.1704 36.6867 63.5037 36.0467 63.037 35.26C62.5837 34.46 62.357 33.5533 62.357 32.54C62.357 31.5 62.5637 30.58 62.977 29.78C63.4037 28.98 64.0504 28.34 64.917 27.86C65.797 27.38 66.9037 27.1 68.237 27.02V22.8H70.997V27.02ZM68.237 29.26C67.6637 29.34 67.1637 29.5333 66.737 29.84C66.3104 30.1333 65.9837 30.5133 65.757 30.98C65.5304 31.4333 65.417 31.9533 65.417 32.54C65.417 33.1267 65.5237 33.6533 65.737 34.12C65.9637 34.5867 66.2837 34.9667 66.697 35.26C67.1237 35.5533 67.637 35.74 68.237 35.82V29.26ZM70.997 35.82C71.597 35.74 72.1037 35.5533 72.517 35.26C72.9304 34.9667 73.2437 34.5867 73.457 34.12C73.6704 33.6533 73.777 33.1267 73.777 32.54C73.777 31.9533 73.6637 31.4333 73.437 30.98C73.2104 30.5133 72.8904 30.1333 72.477 29.84C72.0637 29.5467 71.5704 29.3667 70.997 29.3V35.82ZM88.9261 32.52C88.9261 33.4267 88.7994 34.2333 88.5461 34.94C88.3061 35.6467 87.9528 36.2467 87.4861 36.74C87.0328 37.22 86.4794 37.5867 85.8261 37.84C85.1728 38.08 84.4328 38.2 83.6061 38.2C82.8461 38.2 82.1394 38.08 81.4861 37.84C80.8461 37.5867 80.2928 37.22 79.8261 36.74C79.3594 36.2467 78.9928 35.6467 78.7261 34.94C78.4728 34.2333 78.3461 33.4267 78.3461 32.52C78.3461 31.3067 78.5594 30.2867 78.9861 29.46C79.4128 28.62 80.0261 27.98 80.8261 27.54C81.6261 27.1 82.5728 26.88 83.6661 26.88C84.6928 26.88 85.5994 27.1 86.3861 27.54C87.1728 27.98 87.7928 28.62 88.2461 29.46C88.6994 30.2867 88.9261 31.3067 88.9261 32.52ZM81.3861 32.52C81.3861 33.24 81.4594 33.8467 81.6061 34.34C81.7661 34.82 82.0128 35.1867 82.3461 35.44C82.6794 35.68 83.1128 35.8 83.6461 35.8C84.1794 35.8 84.6061 35.68 84.9261 35.44C85.2594 35.1867 85.4994 34.82 85.6461 34.34C85.8061 33.8467 85.8861 33.24 85.8861 32.52C85.8861 31.8 85.8061 31.2 85.6461 30.72C85.4994 30.24 85.2594 29.88 84.9261 29.64C84.5928 29.4 84.1594 29.28 83.6261 29.28C82.8394 29.28 82.2661 29.5533 81.9061 30.1C81.5594 30.6333 81.3861 31.44 81.3861 32.52ZM97.1689 26.88C98.3956 26.88 99.3889 27.36 100.149 28.32C100.909 29.2667 101.289 30.6667 101.289 32.52C101.289 33.76 101.109 34.8067 100.749 35.66C100.389 36.5 99.8956 37.1333 99.2689 37.56C98.6422 37.9867 97.9156 38.2 97.0889 38.2C96.5689 38.2 96.1156 38.1333 95.7289 38C95.3556 37.8667 95.0356 37.6933 94.7689 37.48C94.5022 37.2667 94.2689 37.04 94.0689 36.8H93.9089C93.9622 37.0533 94.0022 37.32 94.0289 37.6C94.0556 37.8667 94.0689 38.1333 94.0689 38.4V42.8H91.0889V27.08H93.5089L93.9289 28.5H94.0689C94.2689 28.2067 94.5089 27.94 94.7889 27.7C95.0689 27.4467 95.4022 27.2467 95.7889 27.1C96.1889 26.9533 96.6489 26.88 97.1689 26.88ZM96.2089 29.26C95.6889 29.26 95.2756 29.3667 94.9689 29.58C94.6622 29.7933 94.4356 30.12 94.2889 30.56C94.1556 30.9867 94.0822 31.5267 94.0689 32.18V32.5C94.0689 33.2067 94.1356 33.8067 94.2689 34.3C94.4022 34.78 94.6289 35.1467 94.9489 35.4C95.2689 35.6533 95.7022 35.78 96.2489 35.78C96.7022 35.78 97.0756 35.6533 97.3689 35.4C97.6622 35.1467 97.8822 34.7733 98.0289 34.28C98.1756 33.7867 98.2489 33.1867 98.2489 32.48C98.2489 31.4133 98.0822 30.6133 97.7489 30.08C97.4289 29.5333 96.9156 29.26 96.2089 29.26ZM117.205 27.08V38H114.425V32.64C114.425 32.1067 114.432 31.5867 114.445 31.08C114.472 30.5733 114.505 30.1067 114.545 29.68H114.485L111.465 38H109.225L106.165 29.66H106.085C106.138 30.1 106.172 30.5733 106.185 31.08C106.212 31.5733 106.225 32.12 106.225 32.72V38H103.445V27.08H107.665L110.385 34.48L113.145 27.08H117.205ZM124.5 26.86C125.967 26.86 127.087 27.18 127.86 27.82C128.647 28.4467 129.04 29.4133 129.04 30.72V38H126.96L126.38 36.52H126.3C125.993 36.9067 125.673 37.2267 125.34 37.48C125.02 37.7333 124.647 37.9133 124.22 38.02C123.807 38.14 123.293 38.2 122.68 38.2C122.04 38.2 121.46 38.08 120.94 37.84C120.433 37.5867 120.033 37.2067 119.74 36.7C119.447 36.18 119.3 35.5267 119.3 34.74C119.3 33.58 119.707 32.7267 120.52 32.18C121.333 31.62 122.553 31.3133 124.18 31.26L126.08 31.2V30.72C126.08 30.1467 125.927 29.7267 125.62 29.46C125.327 29.1933 124.913 29.06 124.38 29.06C123.847 29.06 123.327 29.14 122.82 29.3C122.313 29.4467 121.807 29.6333 121.3 29.86L120.32 27.84C120.907 27.5333 121.553 27.2933 122.26 27.12C122.98 26.9467 123.727 26.86 124.5 26.86ZM124.92 32.98C123.96 33.0067 123.293 33.18 122.92 33.5C122.547 33.82 122.36 34.24 122.36 34.76C122.36 35.2133 122.493 35.54 122.76 35.74C123.027 35.9267 123.373 36.02 123.8 36.02C124.44 36.02 124.98 35.8333 125.42 35.46C125.86 35.0733 126.08 34.5333 126.08 33.84V32.94L124.92 32.98ZM143.71 41.92H141.03V38H131.79V27.08H134.77V35.76H139.13V27.08H142.11V35.82H143.71V41.92ZM148.14 31.4C148.14 31.6267 148.127 31.9067 148.1 32.24C148.087 32.5733 148.067 32.9133 148.04 33.26C148.027 33.6067 148.007 33.9133 147.98 34.18C147.953 34.4467 147.933 34.6333 147.92 34.74L152.96 27.08H156.54V38H153.66V33.64C153.66 33.28 153.673 32.8867 153.7 32.46C153.727 32.02 153.753 31.6133 153.78 31.24C153.82 30.8533 153.847 30.56 153.86 30.36L148.84 38H145.26V27.08H148.14V31.4ZM161.015 38H157.795L160.735 33.68C160.361 33.52 160.008 33.3067 159.675 33.04C159.355 32.76 159.095 32.4067 158.895 31.98C158.695 31.5533 158.595 31.0467 158.595 30.46C158.595 29.3667 159.008 28.5333 159.835 27.96C160.661 27.3733 161.721 27.08 163.015 27.08H168.095V38H165.115V33.94H163.475L161.015 38ZM161.515 30.48C161.515 30.9333 161.695 31.2933 162.055 31.56C162.415 31.8133 162.881 31.94 163.455 31.94H165.115V29.18H163.075C162.541 29.18 162.148 29.3133 161.895 29.58C161.641 29.8333 161.515 30.1333 161.515 30.48Z" fill="white"/>
    <path d="M311 40L320 31L311 22" stroke="white" stroke-width="3" stroke-linecap="round" stroke-linejoin="round"/>
</svg>
