<svg width="62" height="62" viewBox="0 0 62 62" fill="none" xmlns="http://www.w3.org/2000/svg">
    <rect opacity="0.3" width="62" height="62" rx="10" fill="white"/>
    <path d="M23.65 13.5H38.35C43.95 13.5 48.5 18.05 48.5 23.65V38.35C48.5 41.0419 47.4306 43.6236 45.5271 45.5271C43.6236 47.4306 41.0419 48.5 38.35 48.5H23.65C18.05 48.5 13.5 43.95 13.5 38.35V23.65C13.5 20.9581 14.5694 18.3764 16.4729 16.4729C18.3764 14.5694 20.9581 13.5 23.65 13.5ZM23.3 17C21.6291 17 20.0267 17.6637 18.8452 18.8452C17.6637 20.0267 17 21.6291 17 23.3V38.7C17 42.1825 19.8175 45 23.3 45H38.7C40.3709 45 41.9733 44.3363 43.1548 43.1548C44.3363 41.9733 45 40.3709 45 38.7V23.3C45 19.8175 42.1825 17 38.7 17H23.3ZM40.1875 19.625C40.7677 19.625 41.3241 19.8555 41.7343 20.2657C42.1445 20.6759 42.375 21.2323 42.375 21.8125C42.375 22.3927 42.1445 22.9491 41.7343 23.3593C41.3241 23.7695 40.7677 24 40.1875 24C39.6073 24 39.0509 23.7695 38.6407 23.3593C38.2305 22.9491 38 22.3927 38 21.8125C38 21.2323 38.2305 20.6759 38.6407 20.2657C39.0509 19.8555 39.6073 19.625 40.1875 19.625ZM31 22.25C33.3206 22.25 35.5462 23.1719 37.1872 24.8128C38.8281 26.4538 39.75 28.6794 39.75 31C39.75 33.3206 38.8281 35.5462 37.1872 37.1872C35.5462 38.8281 33.3206 39.75 31 39.75C28.6794 39.75 26.4538 38.8281 24.8128 37.1872C23.1719 35.5462 22.25 33.3206 22.25 31C22.25 28.6794 23.1719 26.4538 24.8128 24.8128C26.4538 23.1719 28.6794 22.25 31 22.25ZM31 25.75C29.6076 25.75 28.2723 26.3031 27.2877 27.2877C26.3031 28.2723 25.75 29.6076 25.75 31C25.75 32.3924 26.3031 33.7277 27.2877 34.7123C28.2723 35.6969 29.6076 36.25 31 36.25C32.3924 36.25 33.7277 35.6969 34.7123 34.7123C35.6969 33.7277 36.25 32.3924 36.25 31C36.25 29.6076 35.6969 28.2723 34.7123 27.2877C33.7277 26.3031 32.3924 25.75 31 25.75Z" fill="white"/>
</svg>
