<svg width="32" height="32" viewBox="0 0 32 32" fill="none" xmlns="http://www.w3.org/2000/svg">
    <g clip-path="url(#clip0_160_8695)">
        <path fill-rule="evenodd" clip-rule="evenodd" d="M15.3572 0.505678C7.7636 0.806478 1.4596 6.48968 0.454801 13.9489C-0.233199 19.0497 1.6708 24.1249 5.5684 27.5745C5.9524 27.9137 6.8196 28.5953 6.8708 28.5953C6.9828 28.5953 7.322 27.0977 7.434 26.0929C7.594 24.6721 7.5236 22.8705 7.2484 21.4401C7.1812 21.0881 7.162 21.0081 6.9476 20.1633C6.7236 19.2897 6.6628 18.8193 6.6852 18.1633C6.7076 17.5009 6.7684 17.2065 7.098 16.1185C7.354 15.2737 7.434 14.7585 7.4852 13.6193C7.594 11.2129 7.738 10.7585 8.6884 9.78888C9.5428 8.92168 9.6292 8.69448 9.4468 7.86568C9.2068 6.78408 9.3764 6.11208 10.0644 5.39848C10.746 4.69128 11.498 4.30088 12.1796 4.29448C13.2548 4.28488 13.4244 5.28968 12.5572 6.54728C11.818 7.62568 11.6836 7.88488 11.6612 8.30408C11.6388 8.72648 11.802 8.97608 12.4516 9.51368C13.4788 10.3649 13.7252 10.8161 14.6564 13.5361C15.002 14.5441 15.4628 14.9121 16.5956 15.0881C18.0196 15.3089 19.3124 15.0529 20.3716 14.3361C21.1908 13.7825 21.3668 13.2513 21.0212 12.3649C20.7684 11.7153 20.7972 11.3185 21.1492 10.6273C21.7284 9.48808 22.6436 8.79048 23.5524 8.79368C24.1988 8.79368 24.5668 9.10728 24.5636 9.65128C24.5604 9.99688 24.5316 10.0737 23.962 11.0913C23.2708 12.3297 23.1364 12.7201 23.2996 13.0017C23.5268 13.3889 24.4452 13.0721 25.5044 12.2433C26.41 11.5361 26.6564 11.2577 27.2068 10.3265C27.3828 10.0289 27.4468 9.94248 27.5812 9.80488C28.3076 9.07848 29.2164 9.62888 29.0308 10.6817C28.906 11.3921 28.5604 11.8721 26.8132 13.7569C25.2708 15.4209 24.7332 16.2145 24.698 16.8801C24.634 18.0385 25.002 20.0193 25.5876 21.6673C26.1636 23.2929 27.3188 25.4753 27.8532 25.9457L27.9492 26.0289L27.9908 25.9809C29.9332 23.6481 31.1012 21.0625 31.5108 18.1985C32.8132 9.06888 25.9012 0.880078 16.5796 0.508878C16.0388 0.483278 15.9268 0.483278 15.3572 0.505678ZM15.6836 17.1553C14.1796 17.3441 13.7636 18.5729 13.7668 22.8065C13.77 29.7857 13.9652 30.8609 15.3188 31.4017C15.8628 31.6193 17.8596 31.4817 19.4884 31.1169C20.042 30.9921 20.5796 30.6273 20.7492 30.2593C21.0404 29.6353 20.8516 27.1681 20.1764 22.7969C20.1188 22.4321 20.0132 21.7313 19.9396 21.2417C19.7732 20.1217 19.722 19.8753 19.5812 19.4465C19.162 18.1825 18.1476 17.4401 16.4996 17.1937C16.282 17.1617 15.8116 17.1393 15.6836 17.1553ZM10.1988 23.0081C9.6164 23.2673 9.3316 26.8225 9.7124 29.0817C9.7924 29.5617 9.9012 29.9489 10.0292 30.2305L10.0932 30.3681L10.2916 30.4449C10.4004 30.4865 10.602 30.5601 10.7364 30.6081L10.986 30.6977L11.0404 30.6337C11.322 30.3041 11.418 29.2449 11.322 27.6065C11.1492 24.6561 10.6948 22.7905 10.1988 23.0081ZM23.1012 23.3857C22.538 23.7953 22.586 26.7617 23.1876 28.5953C23.4564 29.4113 23.6452 29.5457 24.1188 29.2641C24.8964 28.8001 25.6196 28.2689 25.6804 28.1185C25.8628 27.6641 25.8148 27.2769 25.4692 26.3681C24.6884 24.3425 23.6292 23.0049 23.1012 23.3857Z" fill="#F34434"/>
    </g>
    <defs>
        <clipPath id="clip0_160_8695">
            <rect width="32" height="32" fill="white"/>
        </clipPath>
    </defs>
</svg>
