<svg width="62" height="62" viewBox="0 0 62 62" fill="none" xmlns="http://www.w3.org/2000/svg">
    <rect opacity="0.3" width="62" height="62" rx="10" fill="white"/>
    <path d="M42.7493 19.1831C41.2214 17.6396 39.4013 16.4159 37.3954 15.5832C35.3895 14.7505 33.2379 14.3255 31.066 14.3331C21.966 14.3331 14.5493 21.7498 14.5493 30.8498C14.5493 33.7664 15.316 36.5998 16.7493 39.0998L14.416 47.6664L23.166 45.3664C25.5827 46.6831 28.2993 47.3831 31.066 47.3831C40.166 47.3831 47.5827 39.9664 47.5827 30.8664C47.5827 26.4498 45.866 22.2998 42.7493 19.1831ZM31.066 44.5831C28.5993 44.5831 26.1827 43.9164 24.066 42.6664L23.566 42.3664L18.366 43.7331L19.7493 38.6664L19.416 38.1498C18.0456 35.9614 17.3179 33.4318 17.316 30.8498C17.316 23.2831 23.4827 17.1164 31.0493 17.1164C34.716 17.1164 38.166 18.5498 40.7493 21.1498C42.0285 22.423 43.0422 23.9375 43.7317 25.6055C44.4212 27.2734 44.7727 29.0616 44.766 30.8664C44.7994 38.4331 38.6327 44.5831 31.066 44.5831ZM38.5993 34.3164C38.1827 34.1164 36.1493 33.1164 35.7827 32.9664C35.3993 32.8331 35.1327 32.7664 34.8493 33.1664C34.566 33.5831 33.7827 34.5164 33.5493 34.7831C33.316 35.0664 33.066 35.0998 32.6493 34.8831C32.2327 34.6831 30.8993 34.2331 29.3327 32.8331C28.0993 31.7331 27.2827 30.3831 27.0327 29.9664C26.7993 29.5498 26.9993 29.3331 27.216 29.1164C27.3993 28.9331 27.6327 28.6331 27.8327 28.3998C28.0327 28.1664 28.116 27.9831 28.2493 27.7164C28.3827 27.4331 28.316 27.1998 28.216 26.9998C28.116 26.7998 27.2827 24.7664 26.9493 23.9331C26.616 23.1331 26.266 23.2331 26.016 23.2164H25.216C24.9327 23.2164 24.4993 23.3164 24.116 23.7331C23.7493 24.1498 22.6827 25.1498 22.6827 27.1831C22.6827 29.2164 24.166 31.1831 24.366 31.4498C24.566 31.7331 27.2827 35.8998 31.416 37.6831C32.3993 38.1164 33.166 38.3664 33.766 38.5498C34.7493 38.8664 35.6493 38.8164 36.366 38.7164C37.166 38.5998 38.816 37.7164 39.1493 36.7498C39.4993 35.7831 39.4994 34.9664 39.3827 34.7831C39.266 34.5998 39.016 34.5164 38.5993 34.3164Z" fill="white"/>
</svg>
